<?xml version="1.0" encoding="UTF-8"?>
<svg id="Layer_2" data-name="Layer 2" xmlns="http://www.w3.org/2000/svg" viewBox="0 0 537.51 132.36">
  <defs>
    <style>
      .cls-1 {
        fill: none;
        stroke: #f6f2f7;
        stroke-miterlimit: 10;
        stroke-width: 3px;
      }
    </style>
  </defs>
  <g id="tekst_hero">
    <path class="cls-1" d="M1.2,131.47c8.35-11.21,50.99-66.98,98-72,7.43-.79,17.73-1.89,27,4,19.85,12.62,11.34,42.31,26,48,13.84,5.37,36.62-15.18,47.21-30.25,1.31-1.86,3.52-5.2,5.79-9.75,6.79-13.68,14.62-39.62,5-47-8.11-6.22-29.15,.3-35,14-4.66,10.92,2.03,22.43,7,31,3.89,6.7,14.37,22.45,39,35,8.7,4.43,50.14,24.24,97,10,35.43-10.76,62.35-37.46,74-49,10.3-10.21,17.31-19.25,33-29,9.9-6.15,19.84-10.47,45-18,16.65-4.98,39.34-11.19,67-17"/>
  </g>
</svg>