<?xml version="1.0" encoding="UTF-8"?>
<svg id="Layer_2" data-name="Layer 2" xmlns="http://www.w3.org/2000/svg" viewBox="0 0 990.21 627.62">
  <defs>
    <style>
      .cls-1 {
        opacity: .7;
      }

      .cls-2 {
        opacity: .83;
        stroke: #043c4c;
        stroke-miterlimit: 10;
        stroke-width: 2px;
      }

      .cls-2, .cls-3 {
        fill: #043c4c;
      }
    </style>
  </defs>
  <g id="Layer_20" data-name="Layer 20">
    <g class="cls-1">
      <path class="cls-3" d="M6.63,455.17c22.41,9.27,48.58,4.09,68.09-9.51,21.41-14.92,35.23-37.89,37.75-63.9l-9,9c30.96,.24,61.92,.48,92.87,.72,13.85,.11,27.79-.23,41.62,.63,10.83,.68,21.92,2.58,31.17,8.58,19.28,12.51,20.72,39.75,21.76,60.36,1.18,23.45,2.67,46.87,9,69.62,5.83,20.96,15.73,42.16,32.57,56.53,20.81,17.76,47.3,21,73.69,22,14.71,.56,29.42,1.04,44.13,1.55,7.28,.26,14.56,.55,21.84,.77,6.86,.21,13.77-.03,20.09-3,11.75-5.52,15.98-18.37,17.52-30.34,1.82-14.13,1.78-28.62,2.31-42.85,4.61-123.96,.47-248,1.41-371.99,.12-15.5,.31-31,.62-46.5,.27-13.61-.42-27.85,2.37-41.24s9.59-21.43,19.74-29.37,21.23-14.81,32.99-19.91c21.12-9.16,45.41-11.68,66.94-2.39,10.22,4.41,19.45,11.24,26.42,19.94,7.34,9.17,11.52,20.31,15.03,31.38,7.43,23.41,13.17,48.02,31.64,65.58,16.1,15.31,37.69,22.91,59.32,26.13,25.35,3.78,51.18,3.1,76.73,2.83,30.67-.33,61.34-1.4,91.96-3.22,14.68-.87,29.34-1.93,44-3.13,4.84-.4,9-3.85,9-9,0-4.56-4.13-9.4-9-9-59.85,4.94-120.33,7.88-180.4,6.25-20.6-.56-42.48-2.44-61.27-11.64-9.28-4.54-17.63-10.71-24.02-18.91-7.14-9.16-11.21-20.22-14.67-31.17-7.52-23.83-13.5-48.56-32.54-66.2C651.01,7.73,627.17-.87,603.6,.07c-26.23,1.05-51.06,12.12-72.1,27.32-10.9,7.88-21.84,16.64-27.65,29.11-5.77,12.39-6.89,26.13-7.31,39.62-3.86,123.77,1.11,247.65-.77,371.44-.47,30.98-1.33,61.96-2.79,92.92-.42,8.88,.75,23.6-6.43,30.36-3.74,3.52-9.71,2.82-14.43,2.67-7.6-.23-15.2-.53-22.79-.8-14.94-.53-29.89-.98-44.83-1.58-12.96-.52-25.98-1.4-38.42-5.35-20.73-6.59-34.69-23.2-42.98-42.74-8.77-20.66-12.1-43.56-13.44-65.82-1.43-23.86-.7-49.35-12.22-71.07-12.23-23.05-36.4-30.79-60.94-32.12-29.4-1.59-59.09-.7-88.53-.93-14.83-.12-29.67-.23-44.5-.35-5.21-.04-8.53,4.18-9,9-3.73,38.44-45.51,71.58-83.06,56.05-4.49-1.86-9.9,2.01-11.07,6.29-1.42,5.17,1.78,9.21,6.29,11.07h0Z"/>
    </g>
    <circle class="cls-2" cx="492.52" cy="597.12" r="29.5"/>
  </g>
</svg>