<svg xmlns="http://www.w3.org/2000/svg" xmlns:xlink="http://www.w3.org/1999/xlink" id="Laag_1" x="0px" y="0px" viewBox="0 0 226.8 226.8" style="enable-background:new 0 0 226.8 226.8;" xml:space="preserve">
<style type="text/css">
	.st0{fill:#FFFFFF;}
</style>
<rect y="0" class="st0" width="226.8" height="226.8"></rect>
<g>
	<path d="M143.1,171.1l-9.1-25.7H91.8l-9.1,25.7H58l44.2-115.3h22.4l43.8,115.3H143.1z M118.7,102.6c-2.3-6.8-4.6-13.7-5.8-18   c-1.2,4.3-3.5,11.2-5.8,18l-7.4,20.9h26.4L118.7,102.6z"></path>
</g>
<path d="M53.3,116.6c-0.5,1.6-2.3,2.5-3.9,1.9l-32.2-10.8c-1.6-0.5-2.5-2.3-1.9-3.9l2.7-8c0.5-1.6,2.3-2.5,3.9-1.9L54,104.7  c1.6,0.5,2.5,2.3,1.9,3.9L53.3,116.6z"></path>
<path d="M51.5,141.9c0.5,1.6-0.3,3.4-1.9,3.9l-22.9,8.1c-1.6,0.5-3.4-0.3-3.9-1.9l-2.7-8c-0.5-1.6,0.3-3.4,1.9-3.9l22.9-8.1  c1.6-0.5,3.4,0.3,3.9,1.9L51.5,141.9z"></path>
<path d="M45.2,68.3c-1.3,1-1.6,3-0.6,4.3l14.5,19.5c1,1.3,3,1.6,4.3,0.6l6.6-5.1c1.3-1,1.6-3,0.6-4.3L56.2,63.7  c-1-1.3-3-1.6-4.3-0.6L45.2,68.3z"></path>
<path d="M173,116.6c0.5,1.6,2.3,2.5,3.9,1.9l32.2-10.8c1.6-0.5,2.5-2.3,1.9-3.9l-2.7-8c-0.5-1.6-2.3-2.5-3.9-1.9l-32.2,10.8  c-1.6,0.5-2.5,2.3-1.9,3.9L173,116.6z"></path>
<path d="M174.7,141.9c-0.5,1.6,0.3,3.4,1.9,3.9l22.9,8.1c1.6,0.5,3.4-0.3,3.9-1.9l2.7-8c0.5-1.6-0.3-3.4-1.9-3.9l-22.9-8.1  c-1.6-0.5-3.4,0.3-3.9,1.9L174.7,141.9z"></path>
<path d="M181,68.3c1.3,1,1.6,3,0.6,4.3l-14.5,19.5c-1,1.3-3,1.6-4.3,0.6l-6.6-5.1c-1.4-1-1.6-3-0.6-4.3l14.5-19.5  c1-1.3,3-1.6,4.3-0.6L181,68.3z"></path>
</svg>