<svg xmlns="http://www.w3.org/2000/svg" xmlns:xlink="http://www.w3.org/1999/xlink" id="Laag_1" x="0px" y="0px" viewBox="0 0 146.9 139.7" style="enable-background:new 0 0 146.9 139.7;" xml:space="preserve">
<style type="text/css">
	.st0{fill:#FFED00;}
	.st1{fill:#FFFFFF;}
</style>
<g id="Laag_2_1_">
	<g id="Laag_1-2">
		<rect y="80.4" class="st0" width="145.5" height="9"></rect>
		<polyline class="st1" points="0,1 41.9,1 41.9,15 14.1,15 14.1,26.4 41.9,26.4 41.9,39.8 14.1,39.8 14.1,51.2 41.9,51.2     41.9,65.3 0,65.3 0,1   "></polyline>
		<path class="st1" d="M52.1,47.8c5.6,2.6,10.7,4.4,16.9,4.4c3.7,0,6.4-0.7,8.1-1.8c1.5-0.8,2.5-2.3,2.5-4c0-2.3-1.8-3.8-4.6-5.2    c-1.4-0.6-3-1.3-4.7-1.9c-3.8-1.2-7.4-2.7-10.8-4.7c-3.6-2-6.5-5.1-8.1-8.9c-0.9-2.3-1.4-4.8-1.3-7.2c0-7.2,3.1-11.8,7.5-14.6    S67.7,0,73.1,0c5.3,0,10.5,0.9,15.5,2.7v13l-0.1,0.2c-1.9-0.6-3.8-1-5.7-1.3c-2.8-0.5-5.7-0.8-8.6-0.8c-2.4-0.1-4.8,0.3-7.1,1    c-1.9,0.7-3.2,1.9-3.2,3.8c0,2.3,1.9,3.9,4.8,5.3c1.6,0.8,3.3,1.5,4.9,2.1c3.9,1.4,7.7,3,11.3,4.9c3.7,1.8,6.6,4.8,8.5,8.4    c0.9,2.1,1.3,4.3,1.3,6.6c0,6.6-3.3,11.7-8.2,15.1c-5.3,3.5-11.5,5.4-17.9,5.3c-6.1,0-12-1.6-16.5-4.9L52.1,47.8"></path>
		<polyline class="st1" points="103,1 144.8,1 144.8,15 117.1,15 117.1,26.4 144.8,26.4 144.8,39.8 117.1,39.8 117.1,65.3 103,65.3     103,1   "></polyline>
		<rect x="0.1" y="102.8" class="st1" width="1.5" height="13.6"></rect>
		<polyline class="st1" points="6.2,105.8 6.2,116.5 4.7,116.5 4.7,102.8 6.3,102.8 12.5,113.4 12.5,102.8 14.1,102.8 14.1,116.5     12.5,116.5 6.2,105.8   "></polyline>
		<polyline class="st1" points="15.8,102.8 17.4,102.8 21.3,114.8 25.1,102.8 26.7,102.8 22.3,116.5 20.2,116.5 15.8,102.8   "></polyline>
		<polyline class="st1" points="28.5,102.8 36.3,102.8 36.3,104.3 30.1,104.3 30.1,108.9 36.3,108.9 36.3,110.4 30.1,110.4     30.1,115 36.3,115 36.3,116.5 28.5,116.5 28.5,102.8   "></polyline>
		<path class="st1" d="M37.7,114.6L37.7,114.6c0.9,0.4,1.9,0.6,2.8,0.6c1.5,0,3-0.6,3-2.2c0-0.8-0.4-1.6-1.1-2    c-0.6-0.4-3.1-1.6-3.6-2.1c-0.7-0.7-1.1-1.6-1-2.6c0-2.6,1.7-3.7,4-3.7c0.8,0,1.5,0.1,2.3,0.4v1.4l0,0c-0.7-0.2-1.5-0.3-2.2-0.3    c-1.4,0-2.6,0.5-2.6,2.1c0,0.5,0.2,1,0.6,1.4c0.6,0.6,2.6,1.5,3.6,2.2c1.1,0.6,1.7,1.7,1.6,2.9c0,2.7-2.1,4.1-4.6,4.1    c-0.9,0-1.8-0.2-2.6-0.6L37.7,114.6"></path>
		<polyline class="st1" points="46.3,102.8 55.8,102.8 55.8,104.3 51.8,104.3 51.8,116.5 50.3,116.5 50.3,104.3 46.3,104.3     46.3,102.8   "></polyline>
		<polyline class="st1" points="57.8,102.8 65.6,102.8 65.6,104.3 59.4,104.3 59.4,108.9 65.6,108.9 65.6,110.4 59.4,110.4     59.4,115 65.6,115 65.6,116.5 57.8,116.5 57.8,102.8   "></polyline>
		<polyline class="st1" points="67.7,102.8 75.5,102.8 75.5,104.3 69.2,104.3 69.2,108.9 75.5,108.9 75.5,110.4 69.2,110.4     69.2,115 75.5,115 75.5,116.5 67.7,116.5 67.7,102.8   "></polyline>
		<path class="st1" d="M77.6,116.5v-13.6h3.2c2.2,0,3.6,0.3,4.5,1.1c0.9,0.9,1.4,2.1,1.3,3.4c0,0.9-0.2,1.7-0.6,2.5    c-0.4,0.6-0.9,1.2-1.6,1.5c0.2,0.5,0.5,1,0.8,1.5c0.3,0.6,0.7,1.1,1.2,1.6c0.4,0.4,0.8,0.8,1.3,1l-0.8,1.3    c-0.6-0.2-1.2-0.6-1.5-1.1c-0.5-0.6-1-1.3-1.4-2c-0.4-0.6-0.7-1.2-1-1.8c-0.9,0.2-1.9,0.3-2.8,0.3h-0.9v4.5L77.6,116.5     M79.1,104.3v6.2h1.3c1.2,0.1,2.3-0.2,3.4-0.7c0.8-0.5,1.3-1.4,1.2-2.4c0.1-1-0.4-1.9-1.2-2.4c-1-0.5-2.1-0.7-3.2-0.6L79.1,104.3z    "></path>
		<polyline class="st1" points="88.5,102.8 98,102.8 98,104.3 94,104.3 94,116.5 92.5,116.5 92.5,104.3 88.5,104.3 88.5,102.8   "></polyline>
		<rect x="105.9" y="102.8" class="st1" width="1.5" height="13.6"></rect>
		<polyline class="st1" points="112.1,105.8 112.1,116.5 110.6,116.5 110.6,102.8 112.2,102.8 118.4,113.4 118.4,102.8 120,102.8     120,116.5 118.4,116.5 112.1,105.8   "></polyline>
		<path class="st1" d="M0.1,138.2L0.1,138.2c0.5,0,1-0.2,1.3-0.6c0.4-0.6,0.6-1.3,0.6-2.1v-9.7h1.5v9.7c0.1,1-0.2,2-0.7,2.9    c-0.6,0.9-1.6,1.3-2.7,1.3L0.1,138.2"></path>
		<path class="st1" d="M6.4,132.6c0-1.8,0.6-3.6,1.7-5c1.1-1.3,2.7-2,4.4-2c1.7,0,3.3,0.7,4.3,2c1.1,1.4,1.7,3.2,1.6,5    c0,1.8-0.5,3.6-1.7,5c-1.1,1.3-2.7,2-4.4,2c-1.7,0-3.3-0.7-4.3-2C7,136.2,6.4,134.4,6.4,132.6 M8,132.5c0,1.4,0.4,2.8,1.2,4    c0.8,1.1,2.1,1.7,3.4,1.6c1.3,0,2.5-0.5,3.3-1.5c0.8-1.1,1.2-2.5,1.2-3.9c0.1-1.4-0.4-2.8-1.1-4c-0.8-1-2-1.6-3.3-1.6    c-1.3,0-2.5,0.5-3.3,1.5C8.4,129.8,8,131.1,8,132.5z"></path>
		<path class="st1" d="M29.4,125.8h1.5v8.6c0.1,1.2-0.2,2.4-0.8,3.4c-0.4,0.7-1.1,1.2-1.8,1.5c-0.7,0.2-1.5,0.3-2.2,0.3    c-0.8,0-1.5-0.1-2.2-0.3c-0.8-0.3-1.4-0.8-1.8-1.5c-0.6-1.1-0.8-2.3-0.7-3.4v-8.6h1.5v8c-0.1,1,0.1,2,0.5,2.9    c0.2,0.5,0.7,1,1.2,1.2c0.5,0.2,1,0.2,1.5,0.2c0.6,0,1.1-0.1,1.6-0.2c0.5-0.2,1-0.6,1.2-1.2c0.4-0.9,0.5-1.9,0.5-2.9V125.8"></path>
		<polyline class="st1" points="41.4,128.6 38.5,139.4 37,139.4 33.3,125.8 34.8,125.8 37.7,136.6 40.7,125.8 42.2,125.8     45.1,136.6 48.1,125.8 49.6,125.8 45.9,139.4 44.4,139.4 41.4,128.6   "></polyline>
		<polyline class="st1" points="56.2,125.8 65.7,125.8 65.7,127.3 61.7,127.3 61.7,139.4 60.2,139.4 60.2,127.3 56.2,127.3     56.2,125.8   "></polyline>
		<path class="st1" d="M67,132.6c0-1.8,0.6-3.6,1.7-5c1.1-1.3,2.7-2,4.4-2c1.7,0,3.3,0.7,4.3,2c1.1,1.4,1.7,3.2,1.6,5    c0,1.8-0.5,3.6-1.7,5c-1.1,1.3-2.7,2-4.4,2c-1.7,0-3.3-0.7-4.3-2C67.5,136.2,66.9,134.4,67,132.6 M68.5,132.5    c-0.1,1.4,0.4,2.8,1.2,4c0.8,1.1,2,1.7,3.3,1.7c1.3,0,2.5-0.5,3.3-1.5c0.8-1.1,1.2-2.5,1.1-3.9c0-1.4-0.4-2.8-1.1-4    c-0.8-1-2-1.7-3.3-1.6c-1.3,0-2.5,0.5-3.3,1.5C68.8,129.7,68.4,131.1,68.5,132.5L68.5,132.5z"></path>
		<polyline class="st1" points="81.3,125.8 89.1,125.8 89.1,127.3 82.8,127.3 82.8,131.9 89.1,131.9 89.1,133.4 82.8,133.4     82.8,138 89.1,138 89.1,139.4 81.3,139.4 81.3,125.8   "></polyline>
		<path class="st1" d="M94.7,132.5c1.4,2.2,3.2,4.1,5.4,5.5c-0.3,0.5-0.5,1-0.9,1.4h-0.1c-2.1-1-5.7-5.2-6.4-7v7.1h-1.5v-13.7h1.5    v6.4l5.1-6.4h1.9v0.1l-5.1,6.4l0.1,0.1L94.7,132.5L94.7,132.5"></path>
		<path class="st1" d="M101.2,132.6c0-1.8,0.6-3.6,1.7-5c1.1-1.3,2.7-2,4.4-2c1.7,0,3.3,0.7,4.3,2c1.1,1.4,1.7,3.2,1.6,5    c0,1.8-0.5,3.6-1.7,5c-1.1,1.3-2.7,2-4.4,2c-1.7,0-3.3-0.7-4.3-2C101.7,136.2,101.2,134.4,101.2,132.6 M102.7,132.5    c0,1.4,0.4,2.8,1.2,4c0.8,1.1,2.1,1.7,3.4,1.6c1.3,0,2.5-0.5,3.3-1.5c0.8-1.1,1.2-2.5,1.1-3.9c0.1-1.4-0.4-2.8-1.1-4    c-0.8-1-2-1.6-3.3-1.6c-1.3,0-2.5,0.5-3.3,1.5C103.1,129.8,102.7,131.1,102.7,132.5L102.7,132.5z"></path>
		<polyline class="st1" points="121,132.7 124.3,125.8 126.4,125.8 126.4,139.4 124.8,139.4 124.8,128 121.2,135.5 120.8,135.5     117.1,127.9 117.1,139.4 115.6,139.4 115.6,125.8 117.7,125.8 121,132.7 121,132.7   "></polyline>
		<path class="st1" d="M128.7,137.6L128.7,137.6c0.9,0.4,1.9,0.6,2.8,0.6c1.5,0,3-0.6,3-2.2c0-0.8-0.4-1.6-1.1-1.9    c-0.6-0.4-3.1-1.6-3.6-2.1c-0.7-0.7-1.1-1.6-1-2.6c0-2.6,1.7-3.7,4-3.7c0.8,0,1.5,0.1,2.3,0.4v1.4l0,0c-0.7-0.2-1.5-0.3-2.2-0.3    c-1.4,0-2.6,0.5-2.6,2.1c0,0.5,0.2,1,0.6,1.4c0.6,0.6,2.6,1.5,3.6,2.2c1.1,0.5,1.7,1.7,1.6,2.8c0,2.7-2.1,4.1-4.6,4.1    c-0.9,0-1.8-0.2-2.6-0.6L128.7,137.6"></path>
		<polyline class="st1" points="137.3,125.8 146.9,125.8 146.9,127.3 142.9,127.3 142.9,139.4 141.3,139.4 141.3,127.3 137.3,127.3     137.3,125.8   "></polyline>
	</g>
</g>
</svg>