<svg xmlns="http://www.w3.org/2000/svg" width="104.05mm" height="91.94mm" viewBox="0 0 294.95 260.61"><defs><style>.cls-1,.cls-4,.cls-5{fill:#fff;}.cls-2{fill:#034ea2;}.cls-3{fill:#fff200;}.cls-4{font-size:24px;font-family:Arial-BoldMT, Arial;font-weight:700;}.cls-5{font-size:15px;font-family:ArialMT, Arial;}</style></defs><g id="Laag_2" data-name="Laag 2"><g id="Layer_1" data-name="Layer 1"><rect class="cls-1" width="294.95" height="200.34"></rect><rect class="cls-2" x="5.67" y="5.49" width="283.6" height="189.07"></rect><polygon class="cls-3" points="141.43 46.69 147.41 42.32 153.4 46.69 151.12 39.63 157.2 35.26 149.71 35.26 147.41 28.11 145.12 35.27 137.63 35.26 143.71 39.63 141.43 46.69"></polygon><polygon class="cls-3" points="110.46 55.01 116.44 50.64 122.43 55.01 120.15 47.95 126.23 43.58 118.73 43.58 116.44 36.42 114.15 43.59 106.66 43.58 112.73 47.95 110.46 55.01"></polygon><polygon class="cls-3" points="93.78 59.13 91.49 66.3 84 66.29 90.08 70.66 87.8 77.72 93.78 73.35 99.77 77.72 97.49 70.66 103.57 66.29 96.08 66.29 93.78 59.13"></polygon><polygon class="cls-3" points="85.47 104.28 91.45 108.65 89.18 101.59 95.25 97.22 87.77 97.22 85.47 90.06 83.18 97.23 75.69 97.22 81.77 101.59 79.49 108.65 85.47 104.28"></polygon><polygon class="cls-3" points="96.08 128.24 93.78 121.09 91.49 128.25 84 128.24 90.08 132.61 87.8 139.67 93.78 135.3 99.77 139.67 97.49 132.61 103.57 128.24 96.08 128.24"></polygon><polygon class="cls-3" points="118.78 150.95 116.49 143.8 114.2 150.95 106.71 150.95 112.78 155.31 110.51 162.38 116.49 158.01 122.47 162.38 120.2 155.31 126.27 150.95 118.78 150.95"></polygon><polygon class="cls-3" points="149.71 159.17 147.42 152.02 145.13 159.18 137.64 159.17 143.71 163.54 141.44 170.6 147.42 166.23 153.4 170.6 151.13 163.54 157.2 159.17 149.71 159.17"></polygon><polygon class="cls-3" points="180.64 150.95 178.35 143.8 176.06 150.95 168.57 150.95 174.64 155.31 172.37 162.38 178.35 158.01 184.34 162.38 182.06 155.31 188.13 150.95 180.64 150.95"></polygon><polygon class="cls-3" points="203.35 128.24 201.06 121.09 198.76 128.25 191.27 128.24 197.35 132.61 195.07 139.67 201.06 135.3 207.04 139.67 204.76 132.61 210.84 128.24 203.35 128.24"></polygon><polygon class="cls-3" points="219.06 97.13 211.57 97.13 209.27 89.98 206.98 97.14 199.49 97.13 205.57 101.5 203.3 108.56 209.27 104.19 215.26 108.56 212.98 101.5 219.06 97.13"></polygon><polygon class="cls-3" points="195.07 77.63 201.05 73.26 207.04 77.63 204.76 70.56 210.84 66.2 203.35 66.2 201.05 59.05 198.76 66.21 191.27 66.2 197.35 70.56 195.07 77.63"></polygon><polygon class="cls-3" points="178.44 36.43 176.15 43.59 168.66 43.58 174.73 47.95 172.45 55.02 178.44 50.64 184.42 55.02 182.15 47.95 188.23 43.58 180.73 43.58 178.44 36.43"></polygon><text class="cls-4" transform="translate(4.56 235.23)">E</text><text class="cls-4" transform="translate(20.32 235.23)">U</text><text class="cls-4" transform="translate(37.65 235.23)">R</text><text class="cls-4" transform="translate(54.81 235.23)">O</text><text class="cls-4" transform="translate(73.48 235.23)">P</text><text class="cls-4" transform="translate(89.56 235.23)">EAN UNION</text><text class="cls-5" transform="translate(6.61 255.74)">European Social Fund</text></g></g></svg>