<svg xmlns="http://www.w3.org/2000/svg" xmlns:xlink="http://www.w3.org/1999/xlink" id="Layer_1" x="0px" y="0px" viewBox="0 0 243.4 123.2" style="enable-background:new 0 0 243.4 123.2;" xml:space="preserve">
<style type="text/css">
	.st0{fill:#FFFFFF;}
</style>
<g>
	<path class="st0" d="M241.3,94.2v27.5h-4.4V94.6l3.8-0.4H241.3z M229,110c-0.1-1.4-0.6-2.5-1.3-3.2c-0.7-0.7-1.5-1-2.4-1   c-0.9,0-1.8,0.3-2.6,1c-0.8,0.7-1.4,1.7-1.6,3.1H229z M232.1,116.7v4.3c-1.7,0.9-3.9,1.2-5.6,1.2c-2.7,0-5.2-0.9-7.1-2.5   c-1.8-1.7-3-4.3-3-7.7c0-3.3,1.1-5.9,2.8-7.6c1.6-1.7,3.8-2.6,6-2.6c0.6,0,1.7,0.1,2.9,0.5c1.1,0.4,2.4,1.2,3.4,2.5   c0.9,1.3,1.6,3.2,1.6,6v3h-11.9c0.4,1.6,1.2,2.7,2.2,3.4c1,0.7,2.3,1,3.6,1c1.7,0,3.4-0.5,4.9-1.3L232.1,116.7z M202,116.5   c0.5,0.3,1.3,0.6,2.1,0.9c0.8,0.3,1.8,0.5,2.7,0.5c0.8,0,1.6-0.2,2.2-0.5c0.6-0.4,1-0.9,1-1.8c0-1.3-0.9-1.8-2.1-2.3   c-0.6-0.2-1.3-0.5-2-0.7c-1.4-0.4-2.7-1.2-3.5-2.5c-0.4-0.6-0.6-1.5-0.6-2.6c0-2.1,0.8-3.6,2.1-4.5c1.2-1,2.9-1.4,4.7-1.4   c1.5,0,3.2,0.3,4.4,0.7v4l-0.2,0.2c-1.1-0.5-2.1-0.8-3.4-0.8c-0.8,0-1.6,0.1-2.2,0.4c-0.6,0.3-0.9,0.7-0.9,1.3   c0,0.9,0.9,1.4,2.1,1.8c0.6,0.2,1.3,0.4,2,0.7c1.4,0.5,2.7,1.3,3.5,2.7c0.4,0.7,0.6,1.6,0.6,2.8c0,2.3-0.9,3.9-2.3,5   c-1.4,1.1-3.3,1.6-5.2,1.6c-2,0-3.7-0.5-5-1.3v-4.2L202,116.5z M187.8,116.5c0.5,0.3,1.3,0.6,2.1,0.9c0.8,0.3,1.8,0.5,2.7,0.5   c0.8,0,1.6-0.2,2.2-0.5c0.6-0.4,1-0.9,1-1.8c0-1.3-0.9-1.8-2.1-2.3c-0.6-0.2-1.3-0.5-2-0.7c-1.4-0.4-2.7-1.2-3.5-2.5   c-0.4-0.6-0.6-1.5-0.6-2.6c0-2.1,0.8-3.6,2.1-4.5c1.2-1,2.9-1.4,4.7-1.4c1.5,0,3.2,0.3,4.4,0.7v4l-0.2,0.2   c-1.1-0.5-2.1-0.8-3.4-0.8c-0.8,0-1.6,0.1-2.2,0.4c-0.6,0.3-0.9,0.7-0.9,1.3c0,0.9,0.9,1.4,2.1,1.8c0.6,0.2,1.3,0.4,2,0.7   c1.4,0.5,2.7,1.3,3.5,2.7c0.4,0.7,0.6,1.6,0.6,2.8c0,2.3-0.9,3.9-2.3,5c-1.4,1.1-3.3,1.6-5.2,1.6c-2,0-3.7-0.5-5-1.3v-4.2   L187.8,116.5z M180.8,121.8l-0.5-1.5c-1.8,1.2-4,1.9-6.2,1.9c-1.9,0-3.7-0.5-5-1.7c-1.3-1.1-2.1-2.9-2.1-5.4V102h4.4v11.8   c0,1.5,0.5,2.5,1.3,3.1c0.8,0.6,1.9,0.9,3.1,0.9c1.5,0,3.1-0.5,4.3-1.2V102h4.4v19.7H180.8z M163.2,106.9c-1.1-0.7-2.2-1-3.3-1   c-1.4,0-2.8,0.5-3.9,1.4v14.4h-4.4V102h3.7l0.5,1.6c1.4-1.2,3-2,5-2c0.5,0,1.3,0,2,0.2c0.7,0.1,1.4,0.3,1.9,0.6L163.2,106.9z    M134.7,117.3c1.2,0.4,2.6,0.6,3.6,0.6c1.7,0,3-0.8,3.8-1.9c0.8-1.1,1.3-2.6,1.3-4.1c0-1.5-0.4-3-1.2-4.1c-0.8-1.1-2-1.9-3.5-1.9   c-1.4,0-2.9,0.5-4,1.2V117.3z M134,94.2h0.7v9.1c1.4-1,2.9-1.7,5-1.7c2.8,0,4.9,1.1,6.3,2.9c1.4,1.7,2.1,4.1,2.1,6.5   c0,3.1-0.8,5.9-2.5,7.8c-1.7,2-4.1,3.2-7.3,3.2c-1.2,0-2.6-0.2-4-0.5c-1.4-0.3-2.8-0.7-3.9-1.2V95L134,94.2z"></path>
	<path class="st0" d="M44.3,30c4.9-6.5,12.7-9.6,20.7-9.6c23.5,0,29.9,18.5,29.9,31.3v38.5c0.6,8.1,5.4,11.9,10.6,13.6   c10.5-10.9,17-25.7,17-42.1c0-33.3-26.8-60.4-59.8-60.4C48.4,1.4,33.1,7.3,23.2,16C34.1,16.7,41.5,23.7,44.3,30"></path>
	<path class="st0" d="M81.1,90.3V51.8c0-0.5-0.1-0.9-0.1-1.3c-0.4-9-7.8-16.1-16.8-16.1c-8.8,0-16.3,6.8-17.1,15.5   c-0.1,0.6-0.1,1.3-0.1,1.9v31.8v4.1v0h0c0,3.8-3.1,6.9-6.9,6.9c-3.8,0-6.9-3.1-6.9-6.9h0l-0.1-46.5c-0.9-12.8-12.6-14.8-19-15   C7,36.3,2.8,48.6,2.8,61.8c0,33.3,26.8,60.4,59.8,60.4c11.4,0,22.1-3.2,31.1-8.8C81.6,105.9,81.1,90.3,81.1,90.3"></path>
</g>
</svg>