<?xml version="1.0" encoding="UTF-8"?>
<svg id="Layer_2" data-name="Layer 2" xmlns="http://www.w3.org/2000/svg" viewBox="0 0 412.36 112.18">
  <defs>
    <style>
      .cls-1 {
        letter-spacing: -.08em;
      }

      .cls-2 {
        letter-spacing: -.03em;
      }

      .cls-3 {
        fill: #afd4d3;
      }

      .cls-4 {
        letter-spacing: -.02em;
      }

      .cls-5 {
        letter-spacing: -.15em;
      }

      .cls-6 {
        letter-spacing: 0em;
      }

      .cls-7 {
        letter-spacing: -.01em;
      }

      .cls-8 {
        fill: #043c4c;
        font-family: AbrilFatface-Regular, 'Abril Fatface';
        font-size: 31px;
      }
    </style>
  </defs>
  <g id="Layer_14" data-name="Layer 14">
    <g>
      <path class="cls-3" d="M370.67,0H41.69C18.67,0,0,18.67,0,41.69H0c0,23.03,18.67,41.69,41.69,41.69H184.2c1.66,0,3.19,.88,4.02,2.32l13.95,24.15c1.79,3.09,6.25,3.09,8.04,0l13.95-24.15c.83-1.44,2.36-2.32,4.02-2.32h142.5c23.03,0,41.69-18.67,41.69-41.69h0c0-23.03-18.67-41.69-41.69-41.69Z"/>
      <path class="cls-3" d="M41.76,.27C18.89,.27,.34,18.82,.33,41.69c0,22.88,18.54,41.42,41.42,41.42H184.29c1.66,0,3.19,.88,4.02,2.32l10.31,17.85s3.63,6.21,3.67,6.19c.6,1.01,1.51,1.66,2.49,1.99,1.95,.64,4.33-.11,5.49-2.13l7.12-12.33s2.63-4.52,2.66-4.52l4.25-7.1c.81-1.41,2.4-2.27,4.03-2.27h142.29c22.88,0,41.42-18.54,41.43-41.42h0c.07-22.88-18.54-41.42-41.42-41.42H41.76Z"/>
      <path class="cls-3" d="M41.83,.55C19.1,.55,.67,18.96,.67,41.69c0,22.73,18.42,41.15,41.15,41.15H184.37c1.66,0,3.19,.88,4.02,2.32l10.29,17.82c.05,.08,3.63,6.14,3.71,6.11,.61,.98,1.51,1.6,2.49,1.91,1.92,.61,4.3-.21,5.44-2.19l7.11-12.31c.03-.06,2.62-4.48,2.69-4.48l4.32-6.96c.8-1.38,2.44-2.23,4.04-2.23h142.07c22.72,0,41.15-18.42,41.16-41.14h0c0-22.73-18.42-41.15-41.15-41.15H41.83Z"/>
      <path class="cls-3" d="M41.89,.82C19.32,.82,1.01,19.11,1,41.68c0,22.58,18.3,40.88,40.87,40.88H184.46c1.66,0,3.19,.88,4.02,2.32l10.28,17.8c.07,.13,3.63,6.07,3.75,6.02,.62,.95,1.52,1.53,2.48,1.83,1.88,.58,4.27-.31,5.39-2.25l7.09-12.29c.05-.08,2.62-4.43,2.72-4.43l4.39-6.82c.78-1.35,2.48-2.18,4.05-2.18h141.85c22.57,0,40.88-18.29,40.89-40.86h0c0-22.58-18.3-40.88-40.87-40.88H41.89Z"/>
      <path class="cls-3" d="M41.96,1.1C19.54,1.1,1.35,19.26,1.34,41.68c0,22.43,18.17,40.61,40.6,40.61H184.55c1.66,0,3.19,.88,4.02,2.32l10.26,17.77c.1,.17,3.63,6,3.79,5.94,.62,.93,1.53,1.47,2.48,1.75,1.85,.55,4.24-.41,5.34-2.31l7.08-12.27c.07-.11,2.61-4.39,2.74-4.39l4.46-6.68c.76-1.32,2.53-2.14,4.05-2.14h141.63c22.42,0,40.61-18.16,40.62-40.59h0c0-22.43-18.17-40.61-40.6-40.61H41.96Z"/>
      <path class="cls-3" d="M42.03,1.37C19.76,1.37,1.68,19.41,1.67,41.68c0,22.28,18.05,40.34,40.32,40.34H184.63c1.66,0,3.19,.88,4.02,2.32l10.24,17.74c.12,.21,3.64,5.93,3.83,5.85,.63,.9,1.53,1.41,2.47,1.67,1.82,.51,4.21-.51,5.29-2.37l7.07-12.25c.08-.14,2.61-4.34,2.77-4.34l4.53-6.53c.75-1.3,2.57-2.09,4.06-2.09h141.41c22.27,0,40.29-18.04,40.35-40.31h0c.07-22.28-18.05-40.34-40.32-40.34H42.03Z"/>
      <path class="cls-3" d="M42.09,1.64C19.98,1.64,2.02,19.56,2.01,41.68c-.01,22.12,17.93,40.07,40.05,40.07H184.72c1.66,0,3.19,.88,4.02,2.32l10.23,17.71c.15,.25,3.64,5.87,3.88,5.77,.63,.87,1.54,1.34,2.47,1.59,1.78,.48,4.19-.61,5.24-2.43l7.06-12.23c.1-.17,2.6-4.3,2.8-4.3l4.6-6.39c.73-1.27,2.61-2.05,4.07-2.05h141.19c22.12,0,40.02-17.91,40.09-40.03h0c.07-22.12-17.93-40.07-40.05-40.07H42.09Z"/>
      <path class="cls-3" d="M42.16,1.92C20.2,1.92,2.36,19.71,2.34,41.67c-.01,21.97,17.8,39.8,39.78,39.8H184.81c1.66,0,3.19,.88,4.02,2.32l10.21,17.69c.17,.29,3.64,5.8,3.92,5.68,.64,.84,1.54,1.28,2.46,1.51,1.75,.45,4.16-.71,5.18-2.49l7.05-12.21c.11-.2,2.6-4.26,2.82-4.26l4.67-6.25c.72-1.24,2.65-2,4.08-2h140.98c21.97,0,39.75-17.79,39.82-39.75h0c.07-21.97-17.8-39.8-39.78-39.8H42.16Z"/>
      <path class="cls-3" d="M42.23,2.19C20.41,2.19,2.69,19.85,2.68,41.67c-.01,21.82,17.68,39.53,39.5,39.53H184.89c1.66,0,3.19,.88,4.02,2.32l10.2,17.66c.19,.34,3.64,5.73,3.96,5.6,.65,.82,1.55,1.21,2.46,1.43,1.72,.42,4.13-.81,5.13-2.55l7.04-12.19c.13-.23,2.59-4.21,2.85-4.21l4.73-6.11c.7-1.21,2.69-1.96,4.09-1.96h140.76c21.81,0,39.48-17.66,39.55-39.48h0c.07-21.82-17.68-39.53-39.5-39.53H42.23Z"/>
      <path class="cls-3" d="M42.29,2.47C20.63,2.47,3.03,20,3.01,41.67c-.02,21.67,17.56,39.26,39.23,39.26H184.98c1.66,0,3.19,.88,4.02,2.32l10.18,17.63c.22,.38,3.65,5.66,4,5.52,.65,.79,1.55,1.15,2.45,1.35,1.68,.39,4.1-.91,5.08-2.6l7.03-12.17c.15-.25,2.59-4.17,2.88-4.17l4.8-5.97c.68-1.18,2.73-1.91,4.1-1.91h140.54c21.66,0,39.21-17.54,39.28-39.2h0c.07-21.67-17.56-39.26-39.23-39.26H42.29Z"/>
      <path class="cls-3" d="M42.36,2.74C20.85,2.74,3.37,20.15,3.35,41.66c-.02,21.52,17.43,38.99,38.95,38.99H185.07c1.66,0,3.19,.88,4.02,2.32l10.16,17.6c.24,.42,3.65,5.59,4.05,5.43,.66,.76,1.56,1.08,2.45,1.28,1.65,.36,4.08-1.01,5.03-2.66l7.02-12.15c.16-.28,2.58-4.12,2.91-4.12l4.87-5.82c.67-1.15,2.77-1.87,4.11-1.87h140.32c21.51,0,38.94-17.41,39.01-38.92h0c.07-21.52-17.43-38.99-38.95-38.99H42.36Z"/>
      <path class="cls-3" d="M42.43,3.01C21.07,3.01,3.7,20.3,3.68,41.66c-.02,21.37,17.31,38.71,38.68,38.71H185.15c1.66,0,3.19,.88,4.02,2.32l10.15,17.58c.27,.46,3.65,5.53,4.09,5.35,.66,.73,1.56,1.02,2.44,1.2,1.61,.33,4.05-1.11,4.98-2.72l7.01-12.14c.18-.31,2.58-4.08,2.93-4.08l4.94-5.68c.65-1.13,2.82-1.82,4.12-1.82h140.1c21.36,0,38.67-17.29,38.74-38.64h0c.07-21.37-17.31-38.71-38.68-38.71H42.43Z"/>
      <path class="cls-3" d="M42.49,3.29C21.29,3.29,4.04,20.45,4.02,41.66c-.02,21.22,17.19,38.44,38.41,38.44H185.24c1.66,0,3.19,.88,4.02,2.32l10.13,17.55c.29,.5,3.65,5.46,4.13,5.26,.67,.71,1.56,.95,2.44,1.12,1.57,.3,4.02-1.21,4.93-2.78l7-12.12c.2-.34,2.57-4.04,2.96-4.04l5.01-5.54c.63-1.1,2.86-1.77,4.12-1.77h139.88c21.21,0,38.41-17.16,38.48-38.37h0c.07-21.22-17.19-38.44-38.41-38.44H42.49Z"/>
      <path class="cls-3" d="M42.56,3.56C21.5,3.56,4.37,20.6,4.35,41.65c-.02,21.07,17.06,38.17,38.13,38.17H185.33c1.66,0,3.19,.88,4.02,2.32l10.12,17.52c.32,.55,3.66,5.39,4.17,5.18,.68,.68,1.56,.89,2.44,1.04,1.54,.27,3.99-1.31,4.88-2.84l6.98-12.1c.21-.37,2.57-3.99,2.99-3.99l5.08-5.4c.62-1.07,2.9-1.73,4.13-1.73h139.67c21.06,0,38.14-17.03,38.21-38.09h0c.07-21.07-17.06-38.17-38.13-38.17H42.56Z"/>
      <path class="cls-3" d="M42.63,3.84C21.72,3.84,4.71,20.75,4.69,41.65c-.02,20.92,16.94,37.9,37.86,37.9H185.42c1.66,0,3.19,.88,4.02,2.32l10.1,17.49c.34,.59,3.66,5.32,4.22,5.09,.68,.65,1.66,.54,2.43,.96,1.33,.73,3.97-1.41,4.83-2.9l6.97-12.08c.23-.39,2.56-3.95,3.01-3.95l5.15-5.26c.6-1.04,2.94-1.68,4.14-1.68h139.45c20.9,0,37.87-16.91,37.94-37.81h0c.07-20.92-16.94-37.9-37.86-37.9H42.63Z"/>
      <path class="cls-3" d="M42.69,4.11C21.94,4.11,5.05,20.89,5.02,41.65c-.03,20.77,16.82,37.63,37.58,37.63H185.5c1.66,0,3.19,.88,4.02,2.32l10.08,17.47c.36,.63,3.66,5.25,4.26,5.01,.69,.62,1.56,.92,2.43,.88,1.4,.48,3.94-1.51,4.78-2.96l6.96-12.06c.24-.42,2.55-3.9,3.04-3.9l5.22-5.11c.59-1.01,2.98-1.64,4.15-1.64h139.23c20.75,0,37.6-16.78,37.67-37.54h0c.07-20.77-16.82-37.63-37.58-37.63H42.69Z"/>
      <path class="cls-3" d="M42.76,4.39C22.16,4.39,5.38,21.04,5.36,41.64c-.03,20.62,16.69,37.36,37.31,37.36H185.59c1.66,0,3.19,.88,4.02,2.32l10.07,17.44c.39,.67,3.67,5.18,4.3,4.93,.69,.6,1.56,.86,2.42,.8,1.36,.47,3.91-1.61,4.73-3.02l6.95-12.04c.26-.45,2.55-3.86,3.07-3.86l5.29-4.97c.57-.99,3.02-1.59,4.16-1.59h139.01c20.6,0,37.33-16.66,37.4-37.26h0c.07-20.62-16.69-37.36-37.31-37.36H42.76Z"/>
      <path class="cls-3" d="M42.83,4.66C22.38,4.66,5.72,21.19,5.69,41.64c-.03,20.47,16.57,37.09,37.03,37.09H185.68c1.66,0,3.19,.88,4.02,2.32l10.05,17.41c.41,.71,3.67,5.12,4.34,4.84,.7,.57,1.57,.81,2.42,.72,1.32,.45,3.88-1.71,4.68-3.08l6.94-12.02c.28-.48,2.54-3.82,3.1-3.82l5.35-4.83c.55-.96,3.06-1.55,4.17-1.55h138.79c20.45,0,37.06-16.53,37.14-36.98h0c.07-20.47-16.57-37.09-37.03-37.09H42.83Z"/>
      <path class="cls-3" d="M42.89,4.93C22.6,4.93,6.06,21.34,6.03,41.64c-.03,20.32,16.45,36.82,36.76,36.82H185.76c1.66,0,3.19,.88,4.02,2.32l10.04,17.38c.44,.76,3.67,5.05,4.39,4.76,.71,.54,1.57,.76,2.41,.64,1.28,.44,3.86-1.81,4.63-3.14l6.93-12c.29-.51,2.54-3.77,3.12-3.77l5.42-4.69c.54-.93,3.1-1.5,4.18-1.5h138.57c20.3,0,36.79-16.41,36.87-36.7h0c.07-20.32-16.45-36.82-36.76-36.82H42.89Z"/>
      <path class="cls-3" d="M42.96,5.21C22.81,5.21,6.39,21.49,6.36,41.63c-.03,20.17,16.32,36.55,36.49,36.55H185.85c1.66,0,3.19,.88,4.02,2.32l10.02,17.36c.46,.8,3.67,4.98,4.43,4.67,.71,.51,1.57,.7,2.41,.56,1.24,.43,3.83-1.91,4.57-3.2l6.92-11.98c.31-.53,2.53-3.73,3.15-3.73l5.49-4.55c.52-.9,3.15-1.46,4.19-1.46h138.36c20.15,0,36.53-16.28,36.6-36.43h0c.07-20.17-16.32-36.55-36.49-36.55H42.96Z"/>
      <path class="cls-3" d="M43.03,5.48C23.03,5.48,6.73,21.64,6.7,41.63c-.03,20.02,16.2,36.28,36.21,36.28H185.94c1.66,0,3.19,.88,4.02,2.32l10.01,17.33c.49,.84,3.68,4.91,4.47,4.59,.72,.49,1.58,.65,2.4,.48,1.2,.41,3.8-2.01,4.52-3.26l6.91-11.96c.33-.56,2.53-3.68,3.18-3.68l5.56-4.4c.5-.87,3.19-1.41,4.2-1.41h138.14c19.99,0,36.26-16.15,36.33-36.15h0c.07-20.02-16.2-36.28-36.21-36.28H43.03Z"/>
      <path class="cls-3" d="M43.09,5.76C23.25,5.76,7.07,21.78,7.03,41.63c-.04,19.87,16.08,36.01,35.94,36.01H186.02c1.66,0,3.19,.88,4.02,2.32l9.99,17.3c.51,.88,3.68,4.84,4.51,4.5,.72,.46,1.58,.59,2.4,.4,1.17,.4,3.77-2.11,4.47-3.32l6.9-11.94c.34-.59,2.52-3.64,3.2-3.64l5.63-4.26c.49-.84,3.23-1.36,4.2-1.36h137.92c19.84,0,36.03-16.03,36.06-35.87h0c.04-19.87-16.08-36.01-35.94-36.01H43.09Z"/>
      <path class="cls-3" d="M43.16,6.03C23.47,6.03,7.4,21.93,7.37,41.62c-.04,19.72,15.95,35.73,35.66,35.73H186.11c1.66,0,3.19,.88,4.02,2.32l9.97,17.27c.53,.92,3.68,4.78,4.56,4.42,.73,.43,1.59,.54,2.39,.32,1.13,.39,3.75-2.21,4.42-3.38l6.88-11.93c.36-.62,2.52-3.6,3.23-3.6l5.7-4.12c.47-.82,3.27-1.32,4.21-1.32h137.7c19.69,0,35.76-15.9,35.8-35.59h0c.04-19.72-15.95-35.73-35.66-35.73H43.16Z"/>
      <path class="cls-3" d="M43.23,6.3C23.69,6.3,7.74,22.08,7.7,41.62c-.04,19.57,15.83,35.46,35.39,35.46H186.2c1.66,0,3.19,.88,4.02,2.32l9.96,17.25c.56,.97,3.68,4.71,4.6,4.34,.73,.4,1.59,.49,2.39,.24,1.09,.37,3.72-2.31,4.37-3.44l6.87-11.91c.37-.65,2.51-3.55,3.26-3.55l5.77-3.98c.46-.79,3.31-1.27,4.22-1.27h137.48c19.54,0,35.49-15.78,35.53-35.32h0c.04-19.57-15.83-35.46-35.39-35.46H43.23Z"/>
      <path class="cls-3" d="M43.29,6.58C23.91,6.58,8.08,22.23,8.03,41.62c-.04,19.42,15.71,35.19,35.12,35.19H186.28c1.66,0,3.19,.88,4.02,2.32l9.94,17.22c.58,1.01,3.69,4.64,4.64,4.25,.74,.38,1.59,.43,2.38,.16,1.05,.36,3.69-2.41,4.32-3.5l6.86-11.89c.39-.68,2.51-3.51,3.29-3.51l5.84-3.84c.44-.76,3.35-1.23,4.23-1.23h137.26c19.39,0,35.22-15.65,35.26-35.04h0c.04-19.42-15.71-35.19-35.12-35.19H43.29Z"/>
      <path class="cls-3" d="M43.36,6.85C24.12,6.85,8.41,22.38,8.37,41.62c-.04,19.27,15.58,34.92,34.84,34.92H186.37c1.66,0,3.19,.88,4.02,2.32l9.93,17.19c.61,1.05,3.69,4.57,4.68,4.17,.75,.35,1.6,.38,2.38,.09,1.01,.35,3.66-2.51,4.27-3.56l6.85-11.87c.41-.7,2.5-3.46,3.31-3.46l5.91-3.69c.42-.73,3.39-1.18,4.24-1.18h137.05c19.24,0,34.95-15.53,34.99-34.76h0c.04-19.27-15.58-34.92-34.84-34.92H43.36Z"/>
      <path class="cls-3" d="M43.43,7.13C24.34,7.13,8.75,22.53,8.7,41.61c-.04,19.12,15.46,34.65,34.57,34.65H186.46c1.66,0,3.19,.88,4.02,2.32l9.91,17.16c.63,1.09,3.69,4.5,4.73,4.08,.75,.32,1.6,.32,2.37,0,.97,.33,3.64-2.61,4.22-3.62l6.84-11.85c.42-.73,2.5-3.42,3.34-3.42l5.98-3.55c.41-.7,3.44-1.14,4.25-1.14h136.83c19.08,0,34.68-15.4,34.72-34.49h0c.04-19.12-15.46-34.65-34.57-34.65H43.43Z"/>
      <path class="cls-3" d="M43.49,7.4C24.56,7.4,9.09,22.68,9.04,41.61c-.05,18.97,15.34,34.38,34.29,34.38H186.54c1.66,0,3.19,.88,4.02,2.32l9.89,17.14c.65,1.13,3.69,4.44,4.77,4,.76,.29,1.61,.27,2.37-.07,.93,.32,3.61-2.71,4.17-3.68l6.83-11.83c.44-.76,2.49-3.38,3.37-3.38l6.04-3.41c.39-.68,3.48-1.09,4.26-1.09h136.61c18.93,0,34.41-15.28,34.46-34.21h0c.05-18.97-15.34-34.38-34.29-34.38H43.49Z"/>
      <path class="cls-3" d="M43.56,7.67C24.78,7.67,9.42,22.82,9.37,41.61c-.05,18.82,15.21,34.11,34.02,34.11H186.63c1.66,0,3.19,.88,4.02,2.32l9.88,17.11c.68,1.18,3.7,4.37,4.81,3.91,.76,.27,1.61,.22,2.36-.15,.89,.31,3.58-2.81,4.12-3.74l6.82-11.81c.46-.79,2.48-3.33,3.39-3.33l6.11-3.27c.37-.65,3.52-1.05,4.27-1.05h136.39c18.78,0,34.14-15.15,34.19-33.93h0c.05-18.82-15.21-34.11-34.02-34.11H43.56Z"/>
      <path class="cls-3" d="M43.63,7.95C25,7.95,9.76,22.97,9.71,41.6c-.05,18.67,15.09,33.84,33.75,33.84H186.72c1.66,0,3.19,.88,4.02,2.32l9.86,17.08c.7,1.22,3.7,4.3,4.85,3.83,.77,.24,1.61,.16,2.36-.23,.85,.29,3.55-2.91,4.07-3.8l6.81-11.79c.47-.82,2.48-3.29,3.42-3.29l6.18-3.12c.36-.62,3.56-1,4.27-1h136.17c18.63,0,33.87-15.02,33.92-33.65h0c.05-18.67-15.09-33.84-33.75-33.84H43.63Z"/>
      <path class="cls-3" d="M43.69,8.22c-18.48,0-33.6,14.9-33.65,33.38-.05,18.52,14.97,33.57,33.47,33.57H186.81c1.66,0,3.19,.88,4.02,2.32l9.85,17.05c.73,1.26,3.7,4.23,4.89,3.75,.78,.21,1.62,.11,2.35-.31,.82,.28,3.53-3.01,4.02-3.86l6.8-11.77c.49-.84,2.47-3.24,3.45-3.24l6.25-2.98c.34-.59,3.6-.96,4.28-.96h135.95c18.48,0,33.6-14.9,33.65-33.38h0c.05-18.52-14.97-33.57-33.47-33.57H43.69Z"/>
      <path class="cls-3" d="M43.76,8.5c-18.33,0-33.33,14.77-33.38,33.1-.05,18.36,14.84,33.3,33.2,33.3H186.89c1.66,0,3.19,.88,4.02,2.32l9.83,17.03c.75,1.3,3.71,4.16,4.94,3.66,.78,.18,1.62,.05,2.35-.39,.78,.27,3.5-3.11,3.96-3.92l6.79-11.75c.5-.87,2.47-3.2,3.48-3.2l6.32-2.84c.33-.56,3.64-.91,4.29-.91h135.74c18.33,0,33.33-14.77,33.38-33.1h0c.05-18.36-14.84-33.3-33.2-33.3H43.76Z"/>
      <path class="cls-3" d="M43.83,8.77c-18.18,0-33.06,14.65-33.11,32.82-.06,18.21,14.72,33.02,32.92,33.02H186.98c1.66,0,3.19,.88,4.02,2.32l9.81,17c.78,1.34,3.71,4.1,4.98,3.58,.79,.16,1.63,0,2.34-.47,.74,.25,3.47-3.21,3.91-3.97l6.77-11.73c.52-.9,2.46-3.16,3.5-3.16l6.39-2.7c.31-.53,3.68-.86,4.3-.86h135.52c18.17,0,33.06-14.65,33.11-32.82h0c.06-18.21-14.72-33.03-32.92-33.03H43.83Z"/>
      <path class="cls-3" d="M43.89,9.04c-18.02,0-32.79,14.52-32.85,32.54-.06,18.06,14.6,32.75,32.65,32.75H187.07c1.66,0,3.19,.88,4.02,2.32l9.8,16.97c.8,1.39,3.71,4.03,5.02,3.49,.79,.13,1.63-.05,2.34-.55,.7,.24,3.44-3.31,3.86-4.03l6.76-11.71c.54-.93,2.46-3.11,3.53-3.11l6.46-2.56c.29-.51,3.72-.82,4.31-.82h135.3c18.02,0,32.79-14.52,32.85-32.54h0c.06-18.06-14.6-32.75-32.65-32.75H43.89Z"/>
      <path class="cls-3" d="M43.96,9.32c-17.87,0-32.52,14.4-32.58,32.27-.06,17.91,14.47,32.48,32.37,32.48H187.15c1.66,0,3.19,.88,4.02,2.32l9.78,16.94c.82,1.43,3.71,3.96,5.06,3.41,.8,.1,1.63-.11,2.33-.63,.66,.23,3.42-3.41,3.81-4.09l6.75-11.7c.55-.96,2.45-3.07,3.56-3.07l6.53-2.41c.28-.48,3.77-.77,4.32-.77h135.08c17.87,0,32.52-14.4,32.58-32.27h0c.06-17.91-14.47-32.48-32.38-32.48H43.96Z"/>
      <path class="cls-3" d="M44.03,9.59c-17.72,0-32.25,14.27-32.31,31.99-.06,17.76,14.35,32.21,32.1,32.21H187.24c1.66,0,3.19,.88,4.02,2.32l9.77,16.92c.85,1.47,3.72,3.89,5.11,3.32,.81,.07,1.64-.16,2.33-.71,.62,.21,3.39-3.51,3.76-4.15l6.74-11.68c.57-.99,2.45-3.02,3.58-3.02l6.6-2.27c.26-.45,3.81-.73,4.33-.73h134.86c17.72,0,32.25-14.27,32.31-31.99h0c.06-17.76-14.35-32.21-32.1-32.21H44.03Z"/>
      <path class="cls-3" d="M44.09,9.87c-17.57,0-31.98,14.14-32.04,31.71-.06,17.61,14.23,31.94,31.83,31.94H187.33c1.66,0,3.19,.88,4.02,2.32l9.75,16.89c.87,1.51,3.72,3.82,5.15,3.24,.81,.05,1.64-.22,2.32-.79,.58,.2,3.36-3.61,3.71-4.21l6.73-11.66c.59-1.01,2.44-2.98,3.61-2.98l6.67-2.13c.24-.42,3.85-.68,4.34-.68h134.64c17.57,0,31.98-14.14,32.04-31.71h0c.06-17.61-14.23-31.94-31.83-31.94H44.09Z"/>
      <path class="cls-3" d="M44.16,10.14c-17.42,0-31.71,14.02-31.77,31.44-.06,17.46,14.11,31.67,31.55,31.67H187.41c1.66,0,3.19,.88,4.02,2.32l9.74,16.86c.9,1.55,3.72,3.75,5.19,3.16,.82,.02,1.65-.27,2.32-.87,.54,.19,3.33-3.71,3.66-4.27l6.72-11.64c.6-1.04,2.44-2.94,3.64-2.94l6.73-1.99c.23-.39,3.89-.64,4.34-.64h134.43c17.42,0,31.71-14.02,31.77-31.44h0c.06-17.46-14.11-31.67-31.55-31.67H44.16Z"/>
      <path class="cls-3" d="M44.23,10.42c-17.27,0-31.44,13.89-31.51,31.16-.07,17.31,13.98,31.4,31.28,31.4H187.5c1.66,0,3.19,.88,4.02,2.32l9.72,16.83c.92,1.6,3.72,3.69,5.23,3.07,.82,0,1.65-.32,2.31-.95,.51,.17,3.31-3.81,3.61-4.33l6.71-11.62c.62-1.07,2.43-2.89,3.67-2.89l6.8-1.85c.21-.37,3.93-.59,4.35-.59h134.21c17.27,0,31.44-13.89,31.51-31.16h0c.07-17.31-13.98-31.4-31.28-31.4H44.23Z"/>
      <path class="cls-3" d="M44.29,10.69c-17.11,0-31.17,13.77-31.24,30.88-.07,17.16,13.86,31.13,31,31.13H187.59c1.66,0,3.19,.88,4.02,2.32l9.7,16.81c.95,1.64,3.64,3.34,5.28,2.99,.81-.18,1.66-.38,2.31-1.02,.47,.16,3.28-3.91,3.56-4.39l6.7-11.6c.63-1.1,2.43-2.85,3.69-2.85l6.87-1.7c.2-.34,3.97-.55,4.36-.55h133.99c17.11,0,31.17-13.77,31.24-30.88h0c.07-17.16-13.86-31.13-31-31.13H44.29Z"/>
      <path class="cls-3" d="M44.36,10.96c-16.96,0-30.9,13.64-30.97,30.6-.07,17.01,13.74,30.86,30.73,30.86H187.67c1.66,0,3.19,.88,4.02,2.32l9.69,16.78c.97,1.68,3.65,3.3,5.32,2.9,.82-.19,1.66-.43,2.31-1.1,.43,.15,3.25-4.01,3.51-4.45l6.69-11.58c.65-1.13,2.42-2.8,3.72-2.8l6.94-1.56c.18-.31,4.01-.5,4.37-.5h133.77c16.96,0,30.9-13.64,30.97-30.6h0c.07-17.01-13.74-30.86-30.73-30.86H44.36Z"/>
      <path class="cls-3" d="M44.43,11.24c-16.81,0-30.63,13.52-30.7,30.33-.07,16.86,13.61,30.59,30.46,30.59H187.76c1.66,0,3.19,.88,4.02,2.32l9.67,16.75c.99,1.72,3.66,3.25,5.36,2.82,.82-.21,1.66-.49,2.3-1.18,.39,.13,3.22-4.11,3.46-4.51l6.68-11.56c.67-1.15,2.41-2.76,3.75-2.76l7.01-1.42c.16-.28,4.05-.45,4.38-.45h133.55c16.81,0,30.63-13.52,30.7-30.33h0c.07-16.86-13.61-30.59-30.46-30.59H44.43Z"/>
      <path class="cls-3" d="M44.49,11.51c-16.66,0-30.36,13.39-30.43,30.05-.07,16.71,13.49,30.32,30.18,30.32H187.85c1.66,0,3.19,.88,4.02,2.32l9.66,16.72c1.02,1.76,3.66,3.2,5.4,2.74,.83-.22,1.67-.54,2.3-1.26,.35,.12,3.2-4.21,3.41-4.57l6.66-11.54c.68-1.18,2.41-2.72,3.77-2.72l7.08-1.28c.15-.25,4.1-.41,4.39-.41h133.33c16.66,0,30.36-13.39,30.43-30.05h0c.07-16.71-13.49-30.32-30.18-30.32H44.49Z"/>
      <path class="cls-3" d="M44.56,11.79c-16.51,0-30.09,13.27-30.17,29.77-.07,16.56,13.37,30.04,29.91,30.04H187.94c1.66,0,3.19,.88,4.02,2.32l9.64,16.7c1.04,1.81,3.67,3.16,5.45,2.65,.83-.24,1.67-.59,2.29-1.34,.31,.11,3.17-4.31,3.35-4.63l6.65-11.52c.7-1.21,2.4-2.67,3.8-2.67l7.15-1.14c.13-.23,4.14-.36,4.4-.36h133.12c16.51,0,30.09-13.27,30.17-29.77h0c.07-16.56-13.37-30.05-29.91-30.05H44.56Z"/>
      <path class="cls-3" d="M44.63,12.06c-16.36,0-29.82,13.14-29.9,29.49-.08,16.41,13.24,29.77,29.63,29.77H188.02c1.66,0,3.19,.88,4.02,2.32l9.62,16.67c1.07,1.85,3.68,3.11,5.49,2.57,.84-.25,1.68-.65,2.29-1.42,.27,.09,3.14-4.41,3.3-4.69l6.64-11.5c.72-1.24,2.4-2.63,3.83-2.63l7.22-.99c.11-.2,4.18-.32,4.41-.32h132.9c16.36,0,29.82-13.14,29.9-29.49h0c.08-16.41-13.24-29.77-29.63-29.77H44.63Z"/>
      <path class="cls-3" d="M44.69,12.33c-16.2,0-29.55,13.01-29.63,29.22-.08,16.26,13.12,29.5,29.36,29.5H188.11c1.66,0,3.19,.88,4.02,2.32l9.61,16.64c1.09,1.89,3.69,3.07,5.53,2.48,.85-.27,1.68-.7,2.28-1.5,.23,.08,3.11-4.51,3.25-4.75l6.63-11.49c.73-1.27,2.39-2.58,3.86-2.58l7.29-.85c.1-.17,4.22-.27,4.42-.27h132.68c16.2,0,29.55-13.01,29.63-29.22h0c.08-16.26-13.12-29.5-29.36-29.5H44.69Z"/>
      <path class="cls-3" d="M44.76,12.61c-16.05,0-29.28,12.89-29.36,28.94-.08,16.11,13,29.23,29.09,29.23H188.2c1.66,0,3.19,.88,4.02,2.32l9.59,16.61c1.12,1.93,3.7,3.02,5.57,2.4,.85-.28,1.68-.76,2.28-1.58,.19,.07,3.09-4.61,3.2-4.81l6.62-11.47c.75-1.3,2.39-2.54,3.88-2.54l7.35-.71c.08-.14,4.26-.23,4.42-.23h132.46c16.05,0,29.28-12.89,29.36-28.94h0c.08-16.11-13-29.23-29.09-29.23H44.76Z"/>
      <path class="cls-3" d="M44.83,12.88c-15.9,0-29.01,12.76-29.09,28.66-.08,15.96,12.87,28.96,28.81,28.96H188.28c1.66,0,3.19,.88,4.02,2.32l9.58,16.59c1.14,1.97,3.71,2.98,5.62,2.31,.86-.3,1.69-.81,2.27-1.66,.16,.05,3.06-4.71,3.15-4.87l6.61-11.45c.76-1.32,2.38-2.5,3.91-2.5l7.42-.57c.07-.11,4.3-.18,4.43-.18h132.24c15.9,0,29.01-12.76,29.09-28.66h0c.08-15.96-12.87-28.96-28.81-28.96H44.83Z"/>
      <path class="cls-3" d="M44.89,13.16c-15.75,0-28.74,12.64-28.82,28.39-.08,15.81,12.75,28.69,28.54,28.69H188.37c1.66,0,3.19,.88,4.02,2.32l9.56,16.56c1.16,2.02,3.72,2.93,5.66,2.23,.87-.32,1.69-.86,2.27-1.74,.12,.04,3.03-4.81,3.1-4.93l6.6-11.43c.78-1.35,2.38-2.45,3.94-2.45l7.49-.43c.05-.08,4.34-.14,4.44-.14h132.02c15.75,0,28.74-12.64,28.82-28.39h0c.08-15.81-12.75-28.69-28.54-28.69H44.89Z"/>
      <path class="cls-3" d="M44.96,13.43c-15.6,0-28.47,12.51-28.56,28.11-.08,15.66,12.63,28.42,28.26,28.42H188.46c1.66,0,3.19,.88,4.02,2.32l9.54,16.53c1.19,2.06,3.73,2.89,5.7,2.15,.88-.33,1.7-.92,2.26-1.82,.08,.03,3-4.91,3.05-4.99l6.59-11.41c.8-1.38,2.37-2.41,3.96-2.41l7.56-.28c.03-.06,4.39-.09,4.45-.09h131.81c15.6,0,28.47-12.51,28.56-28.11h0c.08-15.66-12.63-28.42-28.26-28.42H44.96Z"/>
      <path class="cls-3" d="M45.03,13.7c-15.45,0-28.2,12.39-28.29,27.83-.09,15.51,12.5,28.15,27.99,28.15H188.54c1.66,0,3.19,.88,4.02,2.32l9.53,16.5c1.21,2.1,3.75,2.85,5.74,2.06,.89-.35,1.7-.97,2.26-1.9,.04,.01,2.98-5.01,3-5.05l6.58-11.39c.81-1.41,2.37-2.36,3.99-2.36l7.63-.14s4.43-.05,4.46-.05h131.59c15.45,0,28.2-12.39,28.29-27.83h0c.09-15.51-12.5-28.15-27.99-28.15H45.03Z"/>
      <path class="cls-3" d="M367.57,13.98H45.09c-15.29,0-27.93,12.26-28.02,27.55-.09,15.36,12.38,27.88,27.72,27.88H188.63c1.66,0,3.19,.88,4.02,2.32l9.51,16.48c1.79,3.09,6.25,3.09,8.04,0l9.51-16.48c.83-1.44,2.36-2.32,4.02-2.32h143.54c15.29,0,27.93-12.26,28.02-27.55,.09-15.36-12.38-27.88-27.72-27.88Z"/>
    </g>
    <text class="cls-8" transform="translate(27.27 52.2)"><tspan class="cls-7" x="0" y="0">F</tspan><tspan x="17.89" y="0">U</tspan><tspan class="cls-6" x="39.06" y="0">N</tspan><tspan class="cls-2" x="59.52" y="0">C</tspan><tspan x="79.98" y="0">TIE </tspan><tspan class="cls-5" x="137.08" y="0">V</tspan><tspan x="153.67" y="0">AN </tspan><tspan class="cls-4" x="201.53" y="0">C</tspan><tspan x="222.14" y="0">U</tspan><tspan class="cls-1" x="243.32" y="0">L</tspan><tspan x="259.31" y="0">TUUR</tspan></text>
  </g>
</svg>