<?xml version="1.0" encoding="UTF-8"?>
<svg id="Layer_2" data-name="Layer 2" xmlns="http://www.w3.org/2000/svg" viewBox="0 0 1626.41 442.46">
  <defs>
    <style>
      .cls-1 {
        fill: #b0d5d4;
      }
    </style>
  </defs>
  <g id="Layer_14" data-name="Layer 14">
    <g>
      <path class="cls-1" d="M1461.96,0H164.45C73.63,0,0,73.63,0,164.45H0c0,90.82,73.63,164.45,164.45,164.45H726.5c6.54,0,12.58,3.49,15.85,9.15l55,95.27c7.04,12.2,24.66,12.2,31.7,0l55-95.27c3.27-5.66,9.31-9.15,15.85-9.15h562.05c90.82,0,164.45-73.63,164.45-164.45h0c0-90.82-73.63-164.45-164.45-164.45Z"/>
      <path class="cls-1" d="M164.71,1.08C74.49,1.08,1.33,74.21,1.32,164.44c0,90.23,73.14,163.38,163.37,163.38H726.84c6.54,0,12.58,3.49,15.85,9.15l40.65,70.41c.1,.17,14.3,24.48,14.46,24.42,2.39,3.98,5.94,6.56,9.83,7.85,7.69,2.54,17.06-.44,21.65-8.39l28.07-48.62c.06-.11,10.37-17.83,10.5-17.83l16.77-28.01c3.21-5.55,9.47-8.97,15.89-8.97h561.19c90.22,0,163.38-73.13,163.39-163.35h0c.26-90.23-73.14-163.38-163.37-163.38H164.71Z"/>
      <path class="cls-1" d="M164.97,2.16C75.35,2.16,2.65,74.8,2.64,164.42c-.01,89.64,72.65,162.31,162.28,162.31H727.19c6.54,0,12.58,3.49,15.85,9.15l40.59,70.3c.19,.33,14.31,24.21,14.62,24.08,2.41,3.87,5.97,6.3,9.81,7.53,7.56,2.41,16.95-.83,21.45-8.63l28.03-48.54c.13-.22,10.35-17.65,10.61-17.65l17.04-27.45c3.14-5.44,9.64-8.79,15.92-8.79h560.33c89.63,0,162.32-72.63,162.33-162.26h0c.01-89.64-72.65-162.31-162.29-162.31H164.97Z"/>
      <path class="cls-1" d="M165.24,3.24C76.21,3.24,3.98,75.38,3.96,164.41c-.02,89.04,72.17,161.24,161.2,161.24H727.53c6.54,0,12.58,3.49,15.85,9.15l40.53,70.19c.29,.5,14.32,23.94,14.79,23.75,2.43,3.77,5.99,6.05,9.79,7.22,7.43,2.28,16.84-1.23,21.25-8.86l27.98-48.47c.19-.33,10.33-17.48,10.71-17.48l17.31-26.89c3.08-5.33,9.8-8.61,15.96-8.61h559.47c89.03,0,161.25-72.14,161.27-161.17h0c.02-89.04-72.17-161.24-161.2-161.24H165.24Z"/>
      <path class="cls-1" d="M165.5,4.32C77.07,4.32,5.31,75.97,5.28,164.4c-.03,88.45,71.68,160.17,160.12,160.17H727.87c6.54,0,12.58,3.49,15.85,9.15l40.46,70.08c.38,.66,14.33,23.67,14.96,23.42,2.45,3.66,6.02,5.8,9.78,6.91,7.3,2.15,16.73-1.62,21.05-9.1l27.94-48.39c.26-.44,10.31-17.31,10.82-17.31l17.58-26.33c3.01-5.22,9.96-8.43,15.99-8.43h558.61c88.43,0,160.19-71.64,160.22-160.07h0c.03-88.45-71.68-160.17-160.12-160.17H165.5Z"/>
      <path class="cls-1" d="M165.76,5.41C77.93,5.41,6.64,76.55,6.6,164.39c-.03,87.86,71.19,159.1,159.04,159.1H728.21c6.54,0,12.58,3.49,15.85,9.15l40.4,69.98c.48,.83,14.34,23.41,15.12,23.09,2.48,3.55,6.04,5.54,9.76,6.59,7.17,2.03,16.62-2.02,20.85-9.33l27.9-48.32c.32-.56,10.29-17.13,10.93-17.13l17.86-25.77c2.95-5.11,10.13-8.25,16.02-8.25h557.75c87.83,0,158.89-71.15,159.16-158.98h0c.27-87.86-71.19-159.11-159.04-159.11H165.76Z"/>
      <path class="cls-1" d="M166.02,6.49C78.79,6.49,7.96,77.14,7.92,164.37c-.04,87.26,70.71,158.04,157.96,158.04H728.56c6.54,0,12.58,3.49,15.85,9.15l40.34,69.87c.57,.99,14.35,23.14,15.29,22.75,2.5,3.44,6.06,5.29,9.74,6.28,7.04,1.9,16.52-2.41,20.65-9.57l27.85-48.24c.38-.67,10.27-16.96,11.03-16.96l18.13-25.21c2.88-5,10.29-8.08,16.06-8.08h556.89c87.23,0,157.83-70.65,158.1-157.89h0c.27-87.26-70.71-158.04-157.96-158.04H166.02Z"/>
      <path class="cls-1" d="M166.29,7.57C79.65,7.57,9.29,77.72,9.24,164.36c-.05,86.67,70.22,156.97,156.88,156.97H728.9c6.54,0,12.58,3.49,15.85,9.15l40.28,69.76c.67,1.16,14.36,22.87,15.46,22.42,2.52,3.33,6.08,5.03,9.72,5.97,6.9,1.77,16.41-2.8,20.45-9.8l27.81-48.17c.45-.78,10.24-16.79,11.14-16.79l18.4-24.65c2.82-4.89,10.45-7.9,16.09-7.9h556.02c86.64,0,156.77-70.16,157.04-156.79h0c.27-86.67-70.22-156.97-156.88-156.97H166.29Z"/>
      <path class="cls-1" d="M166.55,8.65C80.51,8.65,10.62,78.31,10.56,164.35c-.05,86.08,69.73,155.9,155.8,155.9H729.24c6.54,0,12.58,3.49,15.85,9.15l40.21,69.65c.77,1.33,14.37,22.6,15.63,22.09,2.55,3.22,6.1,4.78,9.7,5.66,6.77,1.65,16.3-3.2,20.25-10.04l27.76-48.09c.51-.89,10.22-16.61,11.25-16.61l18.67-24.09c2.76-4.77,10.62-7.72,16.13-7.72h555.16c86.04,0,155.71-69.66,155.99-155.7h0c.27-86.08-69.74-155.9-155.8-155.9H166.55Z"/>
      <path class="cls-1" d="M166.81,9.73C81.37,9.73,11.94,78.9,11.88,164.34c-.06,85.48,69.25,154.83,154.72,154.83H729.58c6.54,0,12.58,3.49,15.85,9.15l40.15,69.54c.86,1.49,14.38,22.33,15.79,21.76,2.57,3.11,6.12,4.52,9.68,5.34,6.63,1.53,16.19-3.59,20.05-10.27l27.72-48.01c.58-1,10.2-16.44,11.36-16.44l18.94-23.53c2.69-4.66,10.78-7.54,16.16-7.54h554.3c85.44,0,154.65-69.17,154.93-154.61h0c.28-85.48-69.25-154.83-154.72-154.83H166.81Z"/>
      <path class="cls-1" d="M167.08,10.81C82.24,10.81,13.27,79.48,13.2,164.32c-.07,84.89,68.76,153.76,153.64,153.76H729.93c6.54,0,12.58,3.49,15.85,9.15l40.09,69.43c.96,1.66,14.39,22.06,15.96,21.42,2.59,3.01,6.13,4.27,9.66,5.03,6.49,1.4,16.08-3.99,19.85-10.51l27.68-47.94c.64-1.11,10.18-16.27,11.46-16.27l19.22-22.97c2.63-4.55,10.94-7.36,16.2-7.36h553.44c84.84,0,153.59-68.67,153.87-153.51h0c.28-84.89-68.76-153.76-153.64-153.76H167.08Z"/>
      <path class="cls-1" d="M167.34,11.89C83.1,11.89,14.6,80.07,14.52,164.31c-.07,84.3,68.28,152.69,152.56,152.69H730.27c6.54,0,12.58,3.49,15.85,9.15l40.02,69.33c1.05,1.82,14.4,21.79,16.13,21.09,2.62,2.9,6.15,4.01,9.64,4.72,6.35,1.28,15.97-4.38,19.65-10.74l27.63-47.86c.71-1.22,10.16-16.09,11.57-16.09l19.49-22.41c2.56-4.44,11.1-7.18,16.23-7.18h552.58c84.24,0,152.54-68.18,152.81-152.42h0c.28-84.3-68.28-152.69-152.56-152.69H167.34Z"/>
      <path class="cls-1" d="M167.6,12.97C83.96,12.97,15.93,80.65,15.84,164.3c-.08,83.7,67.79,151.62,151.47,151.62H730.61c6.54,0,12.58,3.49,15.85,9.15l39.96,69.22c1.15,1.99,14.41,21.52,16.3,20.76,2.64,2.79,6.16,3.75,9.62,4.4,6.21,1.17,15.86-4.77,19.45-10.98l27.59-47.79c.77-1.33,10.14-15.92,11.68-15.92l19.76-21.85c2.5-4.33,11.27-7,16.27-7h551.72c83.65,0,151.48-67.68,151.76-151.32h0c.28-83.7-67.79-151.63-151.47-151.63H167.6Z"/>
      <path class="cls-1" d="M167.87,14.05C84.82,14.05,17.25,81.24,17.17,164.29c-.09,83.11,67.3,150.56,150.39,150.56H730.96c6.54,0,12.58,3.49,15.85,9.15l39.9,69.11c1.24,2.15,14.42,21.26,16.46,20.43,2.66,2.68,6.17,3.5,9.61,4.09,6.06,1.05,15.76-5.17,19.24-11.21l27.55-47.71c.83-1.44,10.12-15.75,11.78-15.75l20.03-21.29c2.44-4.22,11.43-6.82,16.3-6.82h550.86c83.05,0,150.42-67.18,150.7-150.23h0c.28-83.11-67.3-150.56-150.39-150.56H167.87Z"/>
      <path class="cls-1" d="M168.13,15.13C85.68,15.13,18.58,81.82,18.49,164.27c-.1,82.52,66.82,149.49,149.31,149.49H731.3c6.54,0,12.58,3.49,15.85,9.15l39.84,69c1.34,2.32,14.44,20.99,16.63,20.09,2.69,2.57,6.56,2.12,9.59,3.78,5.25,2.88,15.65-5.56,19.04-11.45l27.5-47.64c.9-1.55,10.1-15.57,11.89-15.57l20.3-20.73c2.37-4.11,11.59-6.64,16.34-6.64h550c82.45,0,149.36-66.69,149.64-149.14h0c.28-82.52-66.82-149.49-149.31-149.49H168.13Z"/>
      <path class="cls-1" d="M168.39,16.22C86.54,16.22,19.91,82.41,19.81,164.26c-.1,81.92,66.33,148.42,148.23,148.42H731.64c6.54,0,12.58,3.49,15.85,9.15l39.77,68.89c1.43,2.49,14.45,20.72,16.8,19.76,2.71,2.46,6.15,3.62,9.57,3.47,5.52,1.89,15.54-5.96,18.84-11.68l27.46-47.56c.96-1.67,10.07-15.4,12-15.4l20.58-20.17c2.31-4,11.76-6.46,16.37-6.46h549.14c81.85,0,148.3-66.19,148.58-148.04h0c.29-81.92-66.33-148.42-148.23-148.42H168.39Z"/>
      <path class="cls-1" d="M168.65,17.3C87.4,17.3,21.24,82.99,21.13,164.25c-.11,81.33,65.84,147.35,147.15,147.35H731.98c6.54,0,12.58,3.49,15.85,9.15l39.71,68.78c1.53,2.65,14.46,20.45,16.96,19.43,2.73,2.35,6.16,3.41,9.55,3.15,5.36,1.83,15.43-6.35,18.64-11.92l27.42-47.49c1.03-1.78,10.05-15.22,12.11-15.22l20.85-19.61c2.24-3.89,11.92-6.28,16.41-6.28h548.27c81.25,0,147.24-65.7,147.53-146.95h0c.29-81.33-65.84-147.35-147.15-147.35H168.65Z"/>
      <path class="cls-1" d="M168.92,18.38C88.26,18.38,22.56,83.58,22.45,164.24c-.12,80.74,65.36,146.28,146.07,146.28H732.33c6.54,0,12.58,3.49,15.85,9.15l39.65,68.67c1.63,2.82,14.47,20.18,17.13,19.1,2.76,2.25,6.18,3.19,9.53,2.84,5.21,1.78,15.32-6.74,18.44-12.15l27.37-47.41c1.09-1.89,10.03-15.05,12.21-15.05l21.12-19.05c2.18-3.78,12.08-6.1,16.44-6.1h547.41c80.65,0,146.18-65.2,146.47-145.86h0c.29-80.74-65.36-146.28-146.07-146.28H168.92Z"/>
      <path class="cls-1" d="M169.18,19.46C89.12,19.46,23.89,84.17,23.77,164.22c-.12,80.14,64.87,145.21,144.99,145.21H732.67c6.54,0,12.58,3.49,15.85,9.15l39.59,68.57c1.72,2.98,14.48,19.91,17.3,18.76,2.78,2.14,6.2,2.98,9.51,2.53,5.06,1.73,15.21-7.14,18.24-12.39l27.33-47.34c1.15-2,10.01-14.88,12.32-14.88l21.39-18.49c2.12-3.66,12.24-5.92,16.48-5.92h546.55c80.06,0,145.12-64.71,145.41-144.76h0c.29-80.14-64.87-145.21-144.99-145.21H169.18Z"/>
      <path class="cls-1" d="M169.44,20.54C89.98,20.54,25.22,84.75,25.09,164.21c-.13,79.55,64.39,144.15,143.91,144.15H733.01c6.54,0,12.58,3.49,15.85,9.15l39.52,68.46c1.82,3.15,14.49,19.64,17.47,18.43,2.8,2.03,6.21,2.77,9.49,2.21,4.9,1.68,15.1-7.53,18.04-12.62l27.29-47.26c1.22-2.11,9.99-14.7,12.43-14.7l21.66-17.93c2.05-3.55,12.41-5.74,16.51-5.74h545.69c79.46,0,144.06-64.21,144.35-143.67h0c.29-79.55-64.39-144.15-143.91-144.15H169.44Z"/>
      <path class="cls-1" d="M169.71,21.62C90.84,21.62,26.54,85.34,26.41,164.2c-.14,78.96,63.9,143.08,142.83,143.08H733.36c6.54,0,12.58,3.49,15.85,9.15l39.46,68.35c1.91,3.31,14.5,19.38,17.63,18.1,2.83,1.92,6.23,2.55,9.47,1.9,4.75,1.62,15-7.93,17.84-12.86l27.24-47.18c1.28-2.22,9.97-14.53,12.53-14.53l21.94-17.37c1.99-3.44,12.57-5.56,16.55-5.56h544.83c78.86,0,143-63.72,143.3-142.58h0c.29-78.96-63.9-143.08-142.83-143.08H169.71Z"/>
      <path class="cls-1" d="M169.97,22.7C91.71,22.7,27.87,85.92,27.73,164.19c-.14,78.36,63.41,142.01,141.74,142.01H733.7c6.54,0,12.58,3.49,15.85,9.15l39.4,68.24c2.01,3.48,14.51,19.11,17.8,17.77,2.85,1.81,6.24,2.34,9.45,1.59,4.6,1.57,14.89-8.32,17.64-13.09l27.2-47.11c1.35-2.33,9.95-14.36,12.64-14.36l22.21-16.81c1.92-3.33,12.73-5.38,16.58-5.38h543.97c78.26,0,142.1-63.22,142.24-141.48h0c.14-78.36-63.41-142.01-141.74-142.01H169.97Z"/>
      <path class="cls-1" d="M170.23,23.78C92.57,23.78,29.2,86.51,29.05,164.17c-.15,77.77,62.93,140.94,140.66,140.94H734.04c6.54,0,12.58,3.49,15.85,9.15l39.34,68.13c2.1,3.64,14.52,18.84,17.97,17.44,2.87,1.7,6.26,2.13,9.43,1.28,4.44,1.52,14.78-8.72,17.44-13.33l27.16-47.03c1.41-2.44,9.93-14.18,12.75-14.18l22.48-16.25c1.86-3.22,12.9-5.2,16.61-5.2h543.11c77.66,0,141.03-62.72,141.18-140.39h0c.15-77.77-62.93-140.94-140.66-140.94H170.23Z"/>
      <path class="cls-1" d="M170.49,24.86C93.43,24.86,30.53,87.09,30.37,164.16c-.16,77.18,62.44,139.87,139.58,139.87H734.38c6.54,0,12.58,3.49,15.85,9.15l39.27,68.02c2.2,3.81,14.53,18.57,18.14,17.1,2.9,1.59,6.27,1.92,9.42,.96,4.29,1.47,14.67-9.11,17.24-13.56l27.11-46.96c1.47-2.55,9.91-14.01,12.85-14.01l22.75-15.69c1.8-3.11,13.06-5.02,16.65-5.02h542.25c77.07,0,139.97-62.23,140.12-139.3h0c.16-77.18-62.44-139.87-139.58-139.87H170.49Z"/>
      <path class="cls-1" d="M170.76,25.94C94.29,25.94,31.85,87.68,31.69,164.15c-.16,76.58,61.95,138.8,138.5,138.8H734.73c6.54,0,12.58,3.49,15.85,9.15l39.21,67.92c2.3,3.98,14.54,18.3,18.3,16.77,2.92,1.49,6.29,1.7,9.4,.65,4.14,1.42,14.56-9.5,17.04-13.8l27.07-46.88c1.54-2.66,9.88-13.84,12.96-13.84l23.02-15.13c1.73-3,13.22-4.84,16.68-4.84h541.39c76.47,0,138.9-61.73,139.07-138.2h0c.16-76.58-61.95-138.8-138.5-138.8H170.76Z"/>
      <path class="cls-1" d="M171.02,27.03c-75.87,0-137.84,61.24-138.01,137.11-.17,75.99,61.47,137.73,137.42,137.73H735.07c6.54,0,12.58,3.49,15.85,9.15l39.15,67.81c2.39,4.14,14.55,18.03,18.47,16.44,2.94,1.38,6.31,1.49,9.38,.34,3.98,1.36,14.45-9.9,16.84-14.03l27.02-46.81c1.6-2.78,9.86-13.66,13.07-13.66l23.3-14.57c1.67-2.89,13.39-4.67,16.72-4.67h540.52c75.87,0,137.84-61.24,138.01-137.11h0c.17-75.99-61.47-137.73-137.42-137.73H171.02Z"/>
      <path class="cls-1" d="M171.28,28.11c-75.27,0-136.78,60.74-136.95,136.02-.18,75.4,60.98,136.67,136.34,136.67H735.41c6.54,0,12.58,3.49,15.85,9.15l39.09,67.7c2.49,4.31,14.56,17.76,18.64,16.11,2.97,1.27,6.32,1.28,9.36,.02,3.83,1.31,14.34-10.29,16.64-14.27l26.98-46.73c1.67-2.89,9.84-13.49,13.18-13.49l23.57-14.01c1.6-2.78,13.55-4.49,16.75-4.49h539.66c75.27,0,136.78-60.74,136.95-136.01h0c.18-75.4-60.98-136.67-136.34-136.67H171.28Z"/>
      <path class="cls-1" d="M171.55,29.19c-74.67,0-135.71,60.25-135.9,134.92-.18,74.8,60.5,135.6,135.26,135.6H735.75c6.54,0,12.58,3.49,15.85,9.15l39.02,67.59c2.58,4.47,14.57,17.5,18.8,15.77,2.99,1.16,6.34,1.06,9.34-.29,3.68,1.26,14.24-10.69,16.44-14.5l26.94-46.66c1.73-3,9.82-13.32,13.28-13.32l23.84-13.45c1.54-2.66,13.71-4.31,16.79-4.31h538.8c74.67,0,135.71-60.25,135.9-134.92h0c.18-74.81-60.5-135.6-135.26-135.6H171.55Z"/>
      <path class="cls-1" d="M171.81,30.27c-74.08,0-134.65,59.75-134.84,133.83-.19,74.21,60.01,134.53,134.18,134.53H736.1c6.54,0,12.58,3.49,15.85,9.15l38.96,67.48c2.68,4.64,14.58,17.23,18.97,15.44,3.01,1.05,6.35,.85,9.32-.6,3.52,1.21,14.13-11.08,16.24-14.74l26.89-46.58c1.8-3.11,9.8-13.14,13.39-13.14l24.11-12.89c1.47-2.55,13.87-4.13,16.82-4.13h537.94c74.08,0,134.65-59.75,134.84-133.83h0c.19-74.21-60.01-134.53-134.18-134.53H171.81Z"/>
      <path class="cls-1" d="M172.07,31.35c-73.48,0-133.58,59.26-133.78,132.73-.2,73.62,59.52,133.46,133.1,133.46H736.44c6.54,0,12.58,3.49,15.85,9.15l38.9,67.37c2.77,4.8,14.59,16.96,19.14,15.11,3.04,.94,6.37,.64,9.3-.91,3.37,1.15,14.02-11.47,16.04-14.97l26.85-46.51c1.86-3.22,9.78-12.97,13.5-12.97l24.38-12.32c1.41-2.44,14.04-3.95,16.86-3.95h537.08c73.48,0,133.58-59.26,133.78-132.73h0c.2-73.62-59.52-133.46-133.1-133.46H172.07Z"/>
      <path class="cls-1" d="M172.33,32.43c-72.88,0-132.52,58.76-132.72,131.64-.2,73.03,59.04,132.39,132.01,132.39H736.78c6.54,0,12.58,3.49,15.85,9.15l38.84,67.26c2.87,4.97,14.6,16.69,19.31,14.78,3.06,.83,6.39,.43,9.28-1.23,3.22,1.1,13.91-11.87,15.84-15.21l26.81-46.43c1.92-3.33,9.76-12.8,13.6-12.8l24.66-11.76c1.35-2.33,14.2-3.77,16.89-3.77h536.22c72.88,0,132.52-58.76,132.72-131.64h0c.2-73.03-59.04-132.39-132.02-132.39H172.33Z"/>
      <path class="cls-1" d="M172.6,33.51c-72.28,0-131.45,58.27-131.66,130.55-.21,72.43,58.55,131.32,130.93,131.32H737.13c6.54,0,12.58,3.49,15.85,9.15l38.77,67.16c2.97,5.14,14.61,16.42,19.47,14.44,3.08,.73,6.4,.21,9.26-1.54,3.06,1.05,13.8-12.26,15.64-15.44l26.76-46.35c1.99-3.44,9.74-12.62,13.71-12.62l24.93-11.2c1.28-2.22,14.36-3.59,16.93-3.59h535.36c72.28,0,131.45-58.27,131.67-130.55h0c.21-72.43-58.55-131.32-130.93-131.32H172.6Z"/>
      <path class="cls-1" d="M172.86,34.59c-71.68,0-130.39,57.77-130.61,129.45-.22,71.84,58.06,130.25,129.85,130.25H737.47c6.54,0,12.58,3.49,15.85,9.15l38.71,67.05c3.06,5.3,14.62,16.15,19.64,14.11,3.11,.62,6.42,0,9.24-1.85,2.91,1,13.69-12.66,15.44-15.68l26.72-46.28c2.05-3.55,9.71-12.45,13.82-12.45l25.2-10.64c1.22-2.11,14.53-3.41,16.96-3.41h534.5c71.68,0,130.39-57.77,130.61-129.45h0c.22-71.84-58.06-130.25-129.85-130.25H172.86Z"/>
      <path class="cls-1" d="M173.12,35.67c-71.09,0-129.33,57.27-129.55,128.36-.22,71.25,57.58,129.19,128.77,129.19H737.81c6.54,0,12.58,3.49,15.85,9.15l38.65,66.94c3.16,5.47,14.63,15.88,19.81,13.78,3.13,.51,6.43-.21,9.23-2.17,2.76,.94,13.58-13.05,15.24-15.91l26.68-46.2c2.12-3.66,9.69-12.27,13.92-12.27l25.47-10.08c1.15-2,14.69-3.23,17-3.23h533.64c71.09,0,129.33-57.27,129.55-128.36h0c.22-71.25-57.58-129.19-128.77-129.19H173.12Z"/>
      <path class="cls-1" d="M173.39,36.76c-70.49,0-128.26,56.78-128.49,127.27-.23,70.65,57.09,128.12,127.69,128.12H738.15c6.54,0,12.58,3.49,15.85,9.15l38.58,66.83c3.25,5.63,14.65,15.61,19.98,13.45,3.15,.4,6.45-.43,9.21-2.48,2.6,.89,13.48-13.44,15.04-16.15l26.63-46.13c2.18-3.78,9.67-12.1,14.03-12.1l25.74-9.52c1.09-1.89,14.85-3.05,17.03-3.05h532.77c70.49,0,128.26-56.78,128.49-127.27h0c.23-70.65-57.09-128.12-127.69-128.12H173.39Z"/>
      <path class="cls-1" d="M173.65,37.84c-69.89,0-127.2,56.28-127.43,126.17-.24,70.06,56.6,127.05,126.61,127.05H738.5c6.54,0,12.58,3.49,15.85,9.15l38.52,66.72c3.35,5.8,14.66,15.35,20.14,13.11,3.18,.29,6.46-.64,9.19-2.79,2.45,.84,13.37-13.84,14.84-16.38l26.59-46.05c2.24-3.89,9.65-11.93,14.14-11.93l26.02-8.96c1.03-1.78,15.01-2.87,17.07-2.87h531.91c69.89,0,127.2-56.28,127.44-126.17h0c.24-70.06-56.6-127.05-126.61-127.05H173.65Z"/>
      <path class="cls-1" d="M173.91,38.92c-69.29,0-126.13,55.79-126.38,125.08-.25,69.47,56.12,125.98,125.53,125.98H738.84c6.54,0,12.58,3.49,15.85,9.15l38.46,66.61c3.44,5.96,14.67,15.08,20.31,12.78,3.2,.18,6.48-.85,9.17-3.1,2.3,.79,13.26-14.23,14.64-16.62l26.55-45.98c2.31-4,9.63-11.75,14.25-11.75l26.29-8.4c.96-1.67,15.18-2.69,17.1-2.69h531.05c69.29,0,126.13-55.79,126.38-125.08h0c.25-69.47-56.12-125.98-125.53-125.98H173.91Z"/>
      <path class="cls-1" d="M174.18,40c-68.69,0-125.07,55.29-125.32,123.99-.25,68.87,55.63,124.91,124.45,124.91H739.18c6.54,0,12.58,3.49,15.85,9.15l38.4,66.51c3.54,6.13,14.68,14.81,20.48,12.45,3.22,.07,6.5-1.06,9.15-3.42,2.15,.73,13.15-14.63,14.43-16.85l26.5-45.9c2.37-4.11,9.61-11.58,14.35-11.58l26.56-7.84c.9-1.55,15.34-2.51,17.14-2.51h530.19c68.69,0,125.07-55.29,125.32-123.99h0c.25-68.87-55.63-124.91-124.45-124.91H174.18Z"/>
      <path class="cls-1" d="M174.44,41.08c-68.1,0-124,54.8-124.26,122.89-.26,68.28,55.15,123.84,123.37,123.84H739.53c6.54,0,12.58,3.49,15.85,9.15l38.33,66.4c3.63,6.3,14.69,14.54,20.64,12.12,3.25-.03,6.51-1.28,9.13-3.73,1.99,.68,13.04-15.02,14.23-17.09l26.46-45.83c2.44-4.22,9.59-11.41,14.46-11.41l26.83-7.28c.83-1.44,15.5-2.33,17.17-2.33h529.33c68.1,0,124-54.8,124.26-122.89h0c.26-68.28-55.15-123.84-123.37-123.84H174.44Z"/>
      <path class="cls-1" d="M174.7,42.16c-67.5,0-122.94,54.3-123.2,121.8-.27,67.69,54.66,122.77,122.29,122.77H739.87c6.54,0,12.58,3.49,15.85,9.15l38.27,66.29c3.73,6.46,14.36,13.19,20.81,11.78,3.2-.7,6.53-1.49,9.11-4.04,1.84,.63,12.93-15.41,14.03-17.32l26.41-45.75c2.5-4.33,9.57-11.23,14.57-11.23l27.1-6.72c.77-1.33,15.67-2.15,17.21-2.15h528.47c67.5,0,122.94-54.3,123.21-121.8h0c.27-67.69-54.66-122.78-122.29-122.78H174.7Z"/>
      <path class="cls-1" d="M174.96,43.24c-66.9,0-121.88,53.81-122.15,120.71-.27,67.09,54.17,121.71,121.2,121.71H740.21c6.54,0,12.58,3.49,15.85,9.15l38.21,66.18c3.83,6.63,14.39,13,20.98,11.45,3.22-.76,6.54-1.7,9.09-4.35,1.69,.58,12.82-15.81,13.83-17.56l26.37-45.68c2.56-4.44,9.55-11.06,14.67-11.06l27.38-6.16c.71-1.22,15.83-1.97,17.24-1.97h527.61c66.9,0,121.88-53.81,122.15-120.71h0c.27-67.09-54.17-121.71-121.2-121.71H174.96Z"/>
      <path class="cls-1" d="M175.23,44.32c-66.3,0-120.81,53.31-121.09,119.61-.28,66.5,53.69,120.64,120.12,120.64H740.55c6.54,0,12.58,3.49,15.85,9.15l38.15,66.07c3.92,6.79,14.42,12.82,21.15,11.12,3.24-.82,6.56-1.92,9.07-4.67,1.53,.52,12.71-16.2,13.63-17.79l26.33-45.6c2.63-4.55,9.52-10.89,14.78-10.89l27.65-5.6c.64-1.11,15.99-1.79,17.27-1.79h526.75c66.3,0,120.81-53.31,121.09-119.61h0c.28-66.5-53.69-120.64-120.12-120.64H175.23Z"/>
      <path class="cls-1" d="M175.49,45.4c-65.7,0-119.75,52.82-120.03,118.52-.29,65.91,53.2,119.57,119.04,119.57H740.9c6.54,0,12.58,3.49,15.85,9.15l38.08,65.96c4.02,6.96,14.45,12.63,21.31,10.79,3.26-.88,6.57-2.13,9.05-4.98,1.38,.47,12.61-16.6,13.43-18.03l26.28-45.52c2.69-4.66,9.5-10.71,14.89-10.71l27.92-5.04c.58-1,16.16-1.61,17.31-1.61h525.88c65.7,0,119.75-52.82,120.03-118.52h0c.29-65.91-53.2-119.57-119.04-119.57H175.49Z"/>
      <path class="cls-1" d="M175.75,46.48c-65.11,0-118.68,52.32-118.97,117.43-.29,65.31,52.71,118.5,117.96,118.5H741.24c6.54,0,12.58,3.49,15.85,9.15l38.02,65.85c4.11,7.12,14.48,12.45,21.48,10.45,3.28-.94,6.59-2.34,9.04-5.29,1.23,.42,12.5-16.99,13.23-18.26l26.24-45.45c2.76-4.77,9.48-10.54,14.99-10.54l28.19-4.48c.51-.89,16.32-1.44,17.34-1.44h525.02c65.11,0,118.68-52.32,118.98-117.42h0c.29-65.31-52.71-118.5-117.96-118.5H175.75Z"/>
      <path class="cls-1" d="M176.02,47.57c-64.51,0-117.62,51.82-117.92,116.33-.3,64.72,52.23,117.43,116.88,117.43H741.58c6.54,0,12.58,3.49,15.85,9.15l37.96,65.75c4.21,7.29,14.52,12.27,21.65,10.12,3.31-1,6.61-2.55,9.02-5.61,1.07,.37,12.39-17.38,13.03-18.5l26.2-45.37c2.82-4.89,9.46-10.37,15.1-10.37l28.46-3.92c.45-.78,16.48-1.26,17.38-1.26h524.16c64.51,0,117.62-51.82,117.92-116.33h0c.3-64.72-52.23-117.43-116.88-117.43H176.02Z"/>
      <path class="cls-1" d="M176.28,48.65c-63.91,0-116.55,51.33-116.86,115.24-.31,64.13,51.74,116.36,115.8,116.36H741.92c6.54,0,12.58,3.49,15.85,9.15l37.9,65.64c4.3,7.46,14.56,12.09,21.81,9.79,3.34-1.06,6.62-2.77,9-5.92,.92,.31,12.28-17.78,12.83-18.73l26.15-45.3c2.88-5,9.44-10.19,15.21-10.19l28.74-3.36c.38-.67,16.64-1.08,17.41-1.08h523.3c63.91,0,116.55-51.33,116.86-115.24h0c.31-64.13-51.74-116.36-115.8-116.36H176.28Z"/>
      <path class="cls-1" d="M176.54,49.73c-63.31,0-115.49,50.83-115.8,114.14-.31,63.53,51.26,115.29,114.72,115.29H742.27c6.54,0,12.58,3.49,15.85,9.15l37.83,65.53c4.4,7.62,14.6,11.92,21.98,9.46,3.37-1.12,6.64-2.98,8.98-6.23,.77,.26,12.17-18.17,12.63-18.97l26.11-45.22c2.95-5.11,9.42-10.02,15.32-10.02l29.01-2.8c.32-.56,16.81-.9,17.45-.9h522.44c63.31,0,115.49-50.83,115.8-114.14h0c.31-63.53-51.26-115.3-114.72-115.3H176.54Z"/>
      <path class="cls-1" d="M176.8,50.81c-62.71,0-114.43,50.34-114.74,113.05-.32,62.94,50.77,114.23,113.64,114.23H742.61c6.54,0,12.58,3.49,15.85,9.15l37.77,65.42c4.5,7.79,14.64,11.74,22.15,9.13,3.4-1.19,6.65-3.19,8.96-6.54,.61,.21,12.06-18.57,12.43-19.2l26.07-45.15c3.01-5.22,9.4-9.85,15.42-9.85l29.28-2.24c.26-.44,16.97-.72,17.48-.72h521.58c62.71,0,114.43-50.34,114.75-113.05h0c.32-62.94-50.77-114.23-113.64-114.23H176.8Z"/>
      <path class="cls-1" d="M177.07,51.89c-62.12,0-113.36,49.84-113.69,111.96-.33,62.35,50.28,113.16,112.56,113.16H742.95c6.54,0,12.58,3.49,15.85,9.15l37.71,65.31c4.59,7.95,14.68,11.57,22.32,8.79,3.44-1.25,6.67-3.4,8.94-6.86,.46,.16,11.95-18.96,12.23-19.44l26.02-45.07c3.08-5.33,9.38-9.67,15.53-9.67l29.55-1.68c.19-.33,17.13-.54,17.52-.54h520.72c62.12,0,113.36-49.84,113.69-111.96h0c.33-62.35-50.28-113.16-112.56-113.16H177.07Z"/>
      <path class="cls-1" d="M177.33,52.97c-61.52,0-112.3,49.35-112.63,110.86-.33,61.75,49.8,112.09,111.47,112.09H743.3c6.54,0,12.58,3.49,15.85,9.15l37.65,65.2c4.69,8.12,14.73,11.39,22.48,8.46,3.47-1.31,6.69-3.62,8.92-7.17,.31,.1,11.85-19.35,12.03-19.67l25.98-45c3.14-5.44,9.35-9.5,15.64-9.5l29.82-1.12c.13-.22,17.3-.36,17.55-.36h519.86c61.52,0,112.3-49.35,112.63-110.86h0c.33-61.75-49.8-112.09-111.47-112.09H177.33Z"/>
      <path class="cls-1" d="M177.59,54.05c-60.92,0-111.23,48.85-111.57,109.77-.34,61.16,49.31,111.02,110.39,111.02H743.64c6.54,0,12.58,3.49,15.85,9.15l37.58,65.1c4.78,8.28,14.77,11.22,22.65,8.13,3.51-1.38,6.7-3.83,8.9-7.48,.15,.05,11.74-19.75,11.83-19.91l25.93-44.92c3.21-5.55,9.33-9.33,15.74-9.33l30.1-.56c.06-.11,17.46-.18,17.59-.18h519c60.92,0,111.23-48.85,111.57-109.77h0c.34-61.16-49.31-111.02-110.39-111.02H177.59Z"/>
    </g>
  </g>
</svg>