<?xml version="1.0" encoding="UTF-8"?>
<svg id="Layer_2" data-name="Layer 2" xmlns="http://www.w3.org/2000/svg" viewBox="0 0 525.43 650.96">
  <defs>
    <style>
      .cls-1 {
        letter-spacing: -.04em;
      }

      .cls-2 {
        letter-spacing: -.04em;
      }

      .cls-3 {
        font-size: 20.27px;
      }

      .cls-3, .cls-4 {
        fill: #ececf1;
        font-family: PTSerif-Regular, 'PT Serif';
      }

      .cls-5 {
        letter-spacing: -.02em;
      }

      .cls-6 {
        letter-spacing: -.08em;
      }

      .cls-7 {
        font-family: AbrilFatface-Regular, 'Abril Fatface';
        font-size: 28.05px;
      }

      .cls-7, .cls-8 {
        fill: #043c4c;
      }

      .cls-9 {
        fill: #afd4d3;
      }

      .cls-4 {
        font-size: 20.02px;
      }

      .cls-10 {
        letter-spacing: -.03em;
      }

      .cls-11 {
        letter-spacing: 0em;
      }

      .cls-8 {
        opacity: .75;
      }
    </style>
  </defs>
  <g id="Layer_14" data-name="Layer 14">
    <polygon class="cls-8" points="490.94 509.23 245.47 650.96 0 509.23 0 225.79 245.47 84.07 490.94 225.79 490.94 509.23"/>
    <g>
      <path class="cls-9" d="M489.35,178.65c46.04-39.08,48.32-104.42,5.13-146.03-42.86-41.3-115.1-43.7-161.19-5.35-37.8,31.45-46.77,80.4-26.02,120.13,.76,1.46,1.01,3.1,.71,4.69l-7.08,36.79c-.9,4.67,3.42,8.81,8.63,8.29l41.11-4.12c1.77-.18,3.56,.15,5.13,.92,42.33,20.99,96.51,16.16,133.59-15.32Z"/>
      <path class="cls-9" d="M489.01,178.33c45.84-38.91,48.11-103.98,5.1-145.41-42.69-41.13-114.62-43.52-160.52-5.31-37.62,31.32-46.55,80.05-25.9,119.6,.76,1.46,1.01,3.1,.71,4.69l-7.01,36.55c-.89,4.66,3.41,8.8,8.63,8.28l40.84-4.07c1.77-.18,3.56,.15,5.13,.92,42.15,20.9,96.09,16.08,133.02-15.26Z"/>
      <path class="cls-9" d="M488.68,178.01c45.65-38.74,47.91-103.54,5.08-144.79-42.52-40.96-114.14-43.33-159.84-5.27-37.45,31.18-46.34,79.7-25.78,119.08,.76,1.46,1.01,3.1,.71,4.69l-6.94,36.31c-.89,4.66,3.41,8.79,8.62,8.28l40.57-4.02c1.77-.17,3.56,.15,5.13,.93,41.96,20.81,95.68,16.01,132.45-15.19Z"/>
      <path class="cls-9" d="M488.34,177.68c45.45-38.58,47.7-103.09,5.05-144.17-42.34-40.79-113.66-43.14-159.16-5.24-37.28,31.05-46.12,79.35-25.66,118.55,.76,1.46,1.02,3.1,.71,4.69l-6.87,36.07c-.88,4.66,3.41,8.78,8.62,8.27l40.3-3.97c1.78-.17,3.57,.15,5.13,.93,41.78,20.72,95.26,15.94,131.87-15.13Z"/>
      <path class="cls-9" d="M488.01,177.36c45.26-38.41,47.5-102.65,5.03-143.55-42.17-40.62-113.17-42.96-158.49-5.2-37.1,30.91-45.91,78.99-25.53,118.02,.76,1.46,1.02,3.1,.72,4.69l-6.8,35.83c-.88,4.65,3.41,8.77,8.61,8.27l40.03-3.92c1.78-.17,3.57,.15,5.13,.93,41.6,20.62,94.85,15.87,131.3-15.07Z"/>
      <path class="cls-9" d="M487.67,177.04c45.06-38.25,47.29-102.21,5.01-142.93-42-40.45-112.69-42.77-157.81-5.17-36.93,30.78-45.69,78.64-25.41,117.5,.76,1.46,1.02,3.1,.72,4.69l-6.73,35.59c-.87,4.65,3.41,8.76,8.6,8.26l39.76-3.87c1.78-.17,3.57,.16,5.13,.93,41.42,20.53,94.43,15.8,130.73-15Z"/>
      <path class="cls-9" d="M487.34,176.72c44.87-38.08,47.08-101.77,4.98-142.31-41.82-40.28-112.21-42.59-157.13-5.13-36.76,30.64-45.48,78.29-25.29,116.97,.76,1.46,1.02,3.1,.72,4.69l-6.66,35.35c-.87,4.64,3.41,8.75,8.6,8.26l39.49-3.82c1.78-.17,3.57,.16,5.14,.94,41.24,20.44,94.02,15.73,130.15-14.94Z"/>
      <path class="cls-9" d="M487,176.4c44.67-37.92,46.88-101.32,4.96-141.69-41.65-40.11-111.73-42.4-156.46-5.09-36.58,30.51-45.26,77.94-25.17,116.44,.76,1.46,1.02,3.1,.72,4.7l-6.59,35.11c-.86,4.64,3.41,8.74,8.59,8.25l39.22-3.77c1.78-.17,3.57,.16,5.14,.94,41.06,20.35,93.61,15.65,129.58-14.88Z"/>
      <path class="cls-9" d="M486.67,176.08c44.48-37.75,46.67-100.88,4.93-141.07-41.48-39.94-111.24-42.21-155.78-5.06-36.41,30.37-45.05,77.59-25.04,115.92,.76,1.46,1.02,3.1,.73,4.7l-6.51,34.87c-.86,4.63,3.41,8.73,8.59,8.24l38.95-3.72c1.78-.17,3.57,.16,5.14,.94,40.88,20.26,93.19,15.58,129.01-14.81Z"/>
      <path class="cls-9" d="M486.33,175.76c44.28-37.58,46.47-100.44,4.91-140.45-41.3-39.77-110.76-42.03-155.1-5.02-36.24,30.24-44.83,77.23-24.92,115.39,.76,1.46,1.02,3.1,.73,4.7l-6.44,34.63c-.85,4.63,3.41,8.72,8.58,8.24l38.68-3.67c1.78-.16,3.57,.17,5.14,.94,40.7,20.17,92.78,15.51,128.43-14.75Z"/>
      <path class="cls-9" d="M486,175.44c44.09-37.42,46.26-99.99,4.88-139.83-41.13-39.6-110.28-41.84-154.43-4.99-36.06,30.11-44.62,76.88-24.8,114.87,.76,1.46,1.02,3.1,.73,4.7l-6.37,34.38c-.85,4.62,3.41,8.71,8.57,8.23l38.41-3.62c1.78-.16,3.57,.17,5.14,.95,40.52,20.07,92.36,15.44,127.86-14.69Z"/>
      <path class="cls-9" d="M485.67,175.11c43.89-37.25,46.05-99.55,4.86-139.21-40.95-39.43-109.8-41.65-153.75-4.95-35.89,29.97-44.4,76.53-24.68,114.34,.76,1.47,1.02,3.1,.74,4.7l-6.3,34.14c-.84,4.62,3.41,8.7,8.57,8.23l38.14-3.57c1.78-.16,3.57,.17,5.14,.95,40.34,19.98,91.95,15.37,127.29-14.62Z"/>
      <path class="cls-9" d="M485.33,174.79c43.7-37.09,45.85-99.11,4.83-138.59-40.78-39.26-109.32-41.47-153.07-4.91-35.72,29.84-44.19,76.18-24.56,113.81,.76,1.47,1.03,3.1,.74,4.7l-6.23,33.9c-.83,4.61,3.41,8.69,8.56,8.22l37.87-3.52c1.78-.16,3.57,.17,5.14,.95,40.15,19.89,91.54,15.3,126.71-14.56Z"/>
      <path class="cls-9" d="M485,174.47c43.5-36.92,45.64-98.67,4.81-137.97-40.61-39.09-108.83-41.28-152.4-4.88-35.55,29.7-43.97,75.83-24.43,113.29,.76,1.47,1.03,3.1,.74,4.7l-6.16,33.66c-.83,4.61,3.41,8.68,8.56,8.22l37.6-3.47c1.78-.16,3.58,.18,5.15,.95,39.97,19.8,91.12,15.22,126.14-14.5Z"/>
      <path class="cls-9" d="M484.66,174.15c43.3-36.75,45.44-98.22,4.79-137.35-40.43-38.92-108.35-41.09-151.72-4.84-35.37,29.57-43.76,75.47-24.31,112.76,.76,1.47,1.03,3.11,.74,4.71l-6.09,33.42c-.82,4.61,3.41,8.67,8.55,8.21l37.33-3.43c1.78-.16,3.58,.18,5.15,.96,39.79,19.71,90.71,15.15,125.57-14.43Z"/>
      <path class="cls-9" d="M484.33,173.83c43.11-36.59,45.23-97.78,4.76-136.73C448.83-1.65,381.22-3.81,338.05,32.29c-35.2,29.43-43.54,75.12-24.19,112.23,.76,1.47,1.03,3.11,.75,4.71l-6.02,33.18c-.82,4.6,3.41,8.66,8.54,8.2l37.06-3.38c1.78-.16,3.58,.18,5.15,.96,39.61,19.62,90.29,15.08,124.99-14.37Z"/>
      <path class="cls-9" d="M483.99,173.51c42.91-36.42,45.02-97.34,4.74-136.11C448.64-1.18,381.34-3.33,338.36,32.63c-35.03,29.3-43.33,74.77-24.07,111.71,.76,1.47,1.03,3.11,.75,4.71l-5.95,32.94c-.81,4.6,3.41,8.65,8.54,8.2l36.79-3.33c1.78-.16,3.58,.18,5.15,.96,39.43,19.52,89.88,15.01,124.42-14.31Z"/>
      <path class="cls-9" d="M483.66,173.19c42.72-36.26,44.82-96.9,4.71-135.49C448.46-.71,381.47-2.84,338.68,32.96c-34.85,29.16-43.11,74.42-23.95,111.18,.77,1.47,1.03,3.11,.75,4.71l-5.87,32.7c-.81,4.59,3.41,8.64,8.53,8.19l36.52-3.28c1.79-.15,3.58,.18,5.15,.96,39.25,19.43,89.47,14.94,123.85-14.24Z"/>
      <path class="cls-9" d="M483.32,172.87c42.52-36.09,44.61-96.45,4.69-134.87C448.27-.25,381.59-2.35,339,33.3c-34.68,29.03-42.89,74.07-23.82,110.65,.77,1.47,1.03,3.11,.75,4.71l-5.8,32.46c-.8,4.59,3.4,8.63,8.53,8.19l36.24-3.23c1.79-.15,3.58,.19,5.15,.97,39.07,19.34,89.05,14.87,123.27-14.18Z"/>
      <path class="cls-9" d="M482.99,172.55c42.33-35.93,44.41-96.01,4.66-134.25C448.09,.22,381.71-1.87,339.32,33.63c-34.51,28.89-42.68,73.71-23.7,110.13,.77,1.47,1.03,3.11,.76,4.71l-5.73,32.22c-.8,4.58,3.4,8.62,8.52,8.18l35.97-3.18c1.79-.15,3.58,.19,5.16,.97,38.89,19.25,88.64,14.79,122.7-14.12Z"/>
      <path class="cls-9" d="M482.66,172.22c42.13-35.76,44.2-95.57,4.64-133.63C447.9,.69,381.84-1.38,339.64,33.97c-34.33,28.76-42.46,73.36-23.58,109.6,.77,1.47,1.04,3.11,.76,4.71l-5.66,31.98c-.79,4.58,3.4,8.61,8.51,8.18l35.7-3.13c1.79-.15,3.58,.19,5.16,.97,38.71,19.16,88.22,14.72,122.13-14.05Z"/>
      <path class="cls-9" d="M482.32,171.9c41.94-35.59,43.99-95.13,4.62-133.01C447.72,1.16,381.96-.9,339.95,34.3c-34.16,28.62-42.25,73.01-23.46,109.07,.77,1.47,1.04,3.11,.76,4.72l-5.59,31.74c-.79,4.57,3.4,8.6,8.51,8.17l35.43-3.08c1.79-.15,3.58,.19,5.16,.97,38.53,19.07,87.81,14.65,121.55-13.99Z"/>
      <path class="cls-9" d="M481.99,171.58c41.74-35.43,43.79-94.68,4.59-132.39C447.53,1.63,382.08-.41,340.27,34.64c-33.99,28.49-42.03,72.66-23.34,108.55,.77,1.47,1.04,3.11,.76,4.72l-5.52,31.5c-.78,4.57,3.4,8.59,8.5,8.16l35.16-3.03c1.79-.15,3.58,.2,5.16,.98,38.34,18.97,87.4,14.58,120.98-13.93Z"/>
      <path class="cls-9" d="M481.65,171.26c41.55-35.26,43.58-94.24,4.57-131.77C447.34,2.1,382.21,.07,340.59,34.97c-33.81,28.35-41.82,72.31-23.21,108.02,.77,1.47,1.04,3.11,.77,4.72l-5.45,31.26c-.78,4.56,3.4,8.58,8.5,8.16l34.89-2.98c1.79-.15,3.58,.2,5.16,.98,38.16,18.88,86.98,14.51,120.41-13.86Z"/>
      <path class="cls-9" d="M481.32,170.94c41.35-35.1,43.38-93.8,4.54-131.15C447.16,2.57,382.33,.56,340.91,35.31c-33.64,28.22-41.6,71.96-23.09,107.49,.77,1.47,1.04,3.11,.77,4.72l-5.38,31.01c-.77,4.56,3.4,8.57,8.49,8.15l34.62-2.93c1.79-.14,3.59,.2,5.16,.98,37.98,18.79,86.57,14.44,119.83-13.8Z"/>
      <path class="cls-9" d="M480.98,170.62c41.16-34.93,43.17-93.36,4.52-130.53C446.97,3.04,382.45,1.04,341.23,35.64c-33.47,28.09-41.39,71.6-22.97,106.97,.77,1.47,1.04,3.11,.77,4.72l-5.31,30.77c-.76,4.56,3.4,8.55,8.48,8.15l34.35-2.88c1.79-.14,3.59,.2,5.16,.98,37.8,18.7,86.15,14.36,119.26-13.73Z"/>
      <path class="cls-9" d="M480.65,170.3c40.96-34.76,42.97-92.91,4.49-129.91C446.79,3.5,382.58,1.53,341.54,35.98c-33.29,27.95-41.17,71.25-22.85,106.44,.77,1.47,1.04,3.11,.78,4.72l-5.23,30.53c-.76,4.55,3.4,8.54,8.48,8.14l34.08-2.83c1.79-.14,3.59,.21,5.17,.99,37.62,18.61,85.74,14.29,118.69-13.67Z"/>
      <path class="cls-9" d="M480.31,169.98c40.76-34.6,42.76-92.47,4.47-129.29-38.18-36.71-102.08-38.67-142.92-4.37-33.12,27.82-40.96,70.9-22.72,105.91,.77,1.47,1.04,3.11,.78,4.72l-5.16,30.29c-.75,4.55,3.4,8.53,8.47,8.14l33.81-2.79c1.79-.14,3.59,.21,5.17,.99,37.44,18.52,85.32,14.22,118.11-13.61Z"/>
      <path class="cls-9" d="M479.98,169.65c40.57-34.43,42.55-92.03,4.44-128.67-38.01-36.54-101.6-38.49-142.24-4.34-32.95,27.68-40.74,70.55-22.6,105.39,.77,1.47,1.04,3.12,.78,4.73l-5.09,30.05c-.75,4.54,3.4,8.52,8.47,8.13l33.54-2.74c1.79-.14,3.59,.21,5.17,.99,37.26,18.42,84.91,14.15,117.54-13.54Z"/>
      <path class="cls-9" d="M479.65,169.33c40.37-34.27,42.35-91.58,4.42-128.05-37.83-36.37-101.12-38.3-141.57-4.3-32.77,27.55-40.53,70.2-22.48,104.86,.77,1.47,1.05,3.12,.78,4.73l-5.02,29.81c-.74,4.54,3.4,8.51,8.46,8.12l33.27-2.69c1.79-.14,3.59,.21,5.17,.99,37.08,18.33,84.5,14.08,116.97-13.48Z"/>
      <path class="cls-9" d="M479.31,169.01c40.18-34.1,42.14-91.14,4.4-127.43-37.66-36.2-100.64-38.11-140.89-4.26-32.6,27.41-40.31,69.84-22.36,104.33,.77,1.47,1.05,3.12,.79,4.73l-4.95,29.57c-.74,4.53,3.4,8.5,8.45,8.12l33-2.64c1.79-.14,3.59,.22,5.17,1,36.9,18.24,84.08,14.01,116.39-13.42Z"/>
      <path class="cls-9" d="M478.98,168.69c39.98-33.94,41.94-90.7,4.37-126.81-37.49-36.03-100.15-37.93-140.21-4.23-32.43,27.28-40.1,69.49-22.24,103.81,.77,1.47,1.05,3.12,.79,4.73l-4.88,29.33c-.73,4.53,3.4,8.49,8.45,8.11l32.73-2.59c1.8-.13,3.59,.22,5.17,1,36.72,18.15,83.67,13.93,115.82-13.35Z"/>
      <path class="cls-9" d="M478.64,168.37c39.79-33.77,41.73-90.26,4.35-126.19-37.31-35.86-99.67-37.74-139.54-4.19-32.26,27.14-39.88,69.14-22.11,103.28,.77,1.48,1.05,3.12,.79,4.73l-4.81,29.09c-.73,4.52,3.4,8.48,8.44,8.11l32.46-2.54c1.8-.13,3.59,.22,5.17,1,36.53,18.06,83.25,13.86,115.25-13.29Z"/>
      <path class="cls-9" d="M478.31,168.05c39.59-33.6,41.52-89.81,4.32-125.57-37.14-35.7-99.19-37.56-138.86-4.15-32.08,27.01-39.67,68.79-21.99,102.76,.77,1.48,1.05,3.12,.79,4.73l-4.74,28.85c-.72,4.52,3.4,8.47,8.44,8.1l32.19-2.49c1.8-.13,3.59,.22,5.18,1,36.35,17.97,82.84,13.79,114.67-13.23Z"/>
      <path class="cls-9" d="M477.97,167.73c39.4-33.44,41.32-89.37,4.3-124.95-36.97-35.53-98.71-37.37-138.18-4.12-31.91,26.87-39.45,68.44-21.87,102.23,.77,1.48,1.05,3.12,.8,4.73l-4.67,28.61c-.72,4.51,3.4,8.46,8.43,8.1l31.92-2.44c1.8-.13,3.6,.22,5.18,1.01,36.17,17.87,82.43,13.72,114.1-13.16Z"/>
      <path class="cls-9" d="M477.64,167.41c39.2-33.27,41.11-88.93,4.27-124.33-36.79-35.36-98.23-37.18-137.51-4.08-31.74,26.74-39.24,68.08-21.75,101.7,.77,1.48,1.05,3.12,.8,4.74l-4.59,28.37c-.71,4.51,3.39,8.45,8.42,8.09l31.65-2.39c1.8-.13,3.6,.23,5.18,1.01,35.99,17.78,82.01,13.65,113.53-13.1Z"/>
      <path class="cls-9" d="M477.3,167.09c39.01-33.11,40.91-88.49,4.25-123.71-36.62-35.19-97.74-37-136.83-4.05-31.56,26.6-39.02,67.73-21.63,101.18,.77,1.48,1.05,3.12,.8,4.74l-4.52,28.13c-.71,4.51,3.39,8.44,8.42,8.08l31.38-2.34c1.8-.13,3.6,.23,5.18,1.01,35.81,17.69,81.6,13.58,112.95-13.04Z"/>
      <path class="cls-9" d="M476.97,166.76c38.81-32.94,40.7-88.04,4.23-123.09-36.45-35.02-97.26-36.81-136.15-4.01-31.39,26.47-38.8,67.38-21.5,100.65,.77,1.48,1.06,3.12,.8,4.74l-4.45,27.89c-.7,4.5,3.39,8.43,8.41,8.08l31.11-2.29c1.8-.13,3.6,.23,5.18,1.01,35.63,17.6,81.18,13.5,112.38-12.97Z"/>
      <path class="cls-9" d="M476.63,166.44c38.62-32.77,40.49-87.6,4.2-122.47-36.27-34.85-96.78-36.62-135.48-3.97-31.22,26.33-38.59,67.03-21.38,100.12,.77,1.48,1.06,3.12,.81,4.74l-4.38,27.64c-.7,4.5,3.39,8.42,8.41,8.07l30.83-2.24c1.8-.12,3.6,.23,5.18,1.02,35.45,17.51,80.77,13.43,111.81-12.91Z"/>
      <path class="cls-9" d="M476.3,166.12c38.42-32.61,40.29-87.16,4.18-121.85-36.1-34.68-96.3-36.44-134.8-3.94-31.04,26.2-38.37,66.68-21.26,99.6,.77,1.48,1.06,3.12,.81,4.74l-4.31,27.4c-.69,4.49,3.39,8.41,8.4,8.07l30.56-2.19c1.8-.12,3.6,.24,5.18,1.02,35.27,17.42,80.36,13.36,111.23-12.85Z"/>
      <path class="cls-9" d="M475.97,165.8c38.22-32.44,40.08-86.72,4.15-121.23-35.93-34.51-95.81-36.25-134.12-3.9-30.87,26.07-38.16,66.32-21.14,99.07,.77,1.48,1.06,3.12,.81,4.74l-4.24,27.16c-.68,4.49,3.39,8.4,8.39,8.06l30.29-2.15c1.8-.12,3.6,.24,5.19,1.02,35.09,17.32,79.94,13.29,110.66-12.78Z"/>
      <path class="cls-9" d="M475.63,165.48c38.03-32.28,39.88-86.27,4.13-120.61-35.75-34.34-95.33-36.07-133.45-3.87-30.7,25.93-37.94,65.97-21.02,98.54,.77,1.48,1.06,3.12,.82,4.74l-4.17,26.92c-.68,4.48,3.39,8.39,8.39,8.06l30.02-2.1c1.8-.12,3.6,.24,5.19,1.02,34.91,17.23,79.53,13.22,110.09-12.72Z"/>
      <path class="cls-9" d="M475.3,165.16c37.83-32.11,39.67-85.83,4.1-119.99-35.58-34.17-94.85-35.88-132.77-3.83-30.52,25.8-37.73,65.62-20.89,98.02,.77,1.48,1.06,3.13,.82,4.75l-4.1,26.68c-.67,4.48,3.39,8.38,8.38,8.05l29.75-2.05c1.8-.12,3.6,.24,5.19,1.03,34.72,17.14,79.11,13.15,109.51-12.66Z"/>
      <path class="cls-9" d="M474.96,164.84c37.64-31.95,39.46-85.39,4.08-119.37-35.41-34-94.37-35.69-132.09-3.79-30.35,25.66-37.51,65.27-20.77,97.49,.77,1.48,1.06,3.13,.82,4.75l-4.03,26.44c-.67,4.47,3.39,8.37,8.38,8.04l29.48-2c1.8-.12,3.6,.25,5.19,1.03,34.54,17.05,78.7,13.07,108.94-12.59Z"/>
      <path class="cls-9" d="M474.63,164.52c37.44-31.78,39.26-84.95,4.05-118.75-35.23-33.83-93.89-35.51-131.42-3.76-30.18,25.53-37.3,64.92-20.65,96.96,.77,1.48,1.06,3.13,.82,4.75l-3.95,26.2c-.66,4.47,3.39,8.36,8.37,8.04l29.21-1.95c1.8-.12,3.6,.25,5.19,1.03,34.36,16.96,78.28,13,108.37-12.53Z"/>
      <path class="cls-9" d="M474.29,164.19c37.25-31.61,39.05-84.5,4.03-118.13-35.06-33.66-93.4-35.32-130.74-3.72-30,25.39-37.08,64.56-20.53,96.44,.77,1.48,1.06,3.13,.83,4.75l-3.88,25.96c-.66,4.46,3.39,8.35,8.36,8.03l28.94-1.9c1.81-.11,3.61,.25,5.19,1.03,34.18,16.87,77.87,12.93,107.79-12.47Z"/>
      <path class="cls-9" d="M473.96,163.87c37.05-31.45,38.85-84.06,4.01-117.51-34.89-33.49-92.92-35.13-130.06-3.69-29.83,25.26-36.87,64.21-20.4,95.91,.77,1.48,1.07,3.13,.83,4.75l-3.81,25.72c-.65,4.46,3.39,8.34,8.36,8.03l28.67-1.85c1.81-.11,3.61,.25,5.2,1.04,34,16.77,77.46,12.86,107.22-12.4Z"/>
      <path class="cls-9" d="M473.62,163.55c36.86-31.28,38.64-83.62,3.98-116.89-34.71-33.32-92.44-34.95-129.39-3.65-29.66,25.12-36.65,63.86-20.28,95.38,.77,1.48,1.07,3.13,.83,4.75l-3.74,25.48c-.65,4.46,3.39,8.33,8.35,8.02l28.4-1.8c1.81-.11,3.61,.26,5.2,1.04,33.82,16.68,77.04,12.79,106.65-12.34Z"/>
      <path class="cls-9" d="M473.29,163.23c36.66-31.12,38.44-83.17,3.96-116.27-34.54-33.15-91.96-34.76-128.71-3.61-29.48,24.99-36.44,63.51-20.16,94.86,.77,1.48,1.07,3.13,.83,4.75l-3.67,25.24c-.64,4.45,3.39,8.32,8.35,8.01l28.13-1.75c1.81-.11,3.61,.26,5.2,1.04,33.64,16.59,76.63,12.72,106.07-12.28Z"/>
      <path class="cls-9" d="M472.96,162.91c36.47-30.95,38.23-82.73,3.93-115.65-34.37-32.98-91.47-34.58-128.03-3.58-29.31,24.85-36.22,63.16-20.04,94.33,.77,1.48,1.07,3.13,.84,4.76l-3.6,25c-.64,4.45,3.39,8.31,8.34,8.01l27.86-1.7c1.81-.11,3.61,.26,5.2,1.04,33.46,16.5,76.21,12.64,105.5-12.21Z"/>
      <path class="cls-9" d="M472.62,162.59c36.27-30.78,38.02-82.29,3.91-115.03-34.19-32.81-90.99-34.39-127.36-3.54-29.14,24.72-36.01,62.8-19.92,93.8,.77,1.48,1.07,3.13,.84,4.76l-3.53,24.76c-.63,4.44,3.39,8.3,8.34,8l27.59-1.65c1.81-.11,3.61,.26,5.2,1.05,33.28,16.41,75.8,12.57,104.93-12.15Z"/>
      <path class="cls-9" d="M472.29,162.27c36.08-30.62,37.82-81.85,3.88-114.41-34.02-32.64-90.51-34.2-126.68-3.5-28.97,24.58-35.79,62.45-19.79,93.28,.77,1.48,1.07,3.13,.84,4.76l-3.46,24.52c-.63,4.44,3.39,8.29,8.33,8l27.32-1.6c1.81-.11,3.61,.26,5.2,1.05,33.1,16.32,75.39,12.5,104.35-12.09Z"/>
    </g>
    <text class="cls-7" transform="translate(311.15 118.64)"><tspan x="0" y="0">KRITI</tspan><tspan class="cls-11" x="79.76" y="0">S</tspan><tspan x="96.31" y="0">CH </tspan><tspan class="cls-5" x="141.73" y="0">R</tspan><tspan x="161.25" y="0">OL</tspan></text>
    <text class="cls-3" transform="translate(35.21 302.1) scale(.93 1)"><tspan x="0" y="0">In onze missie staat uitdrukkelijk dat wij </tspan><tspan x="0" y="24.32">ons inzetten voor inclusie en </tspan><tspan x="0" y="48.64">belangenbehartiging</tspan><tspan class="cls-1" x="186.72" y="48.64">.</tspan><tspan class="cls-10" x="191.56" y="48.64"> </tspan><tspan class="cls-6" x="195.9" y="48.64">V</tspan><tspan x="208.12" y="48.64">anuit deze twee sporen </tspan><tspan x="0" y="72.96">vervullen wij onze kritische rol</tspan><tspan class="cls-2" x="277.65" y="72.96">.</tspan><tspan x="282.49" y="72.96" xml:space="preserve"> Om gelijke </tspan><tspan x="0" y="97.27">participatiemogelijk te maken</tspan><tspan class="cls-1" x="270.17" y="97.27">,</tspan><tspan x="275.1" y="97.27" xml:space="preserve"> verbinden </tspan><tspan x="0" y="121.59">we burgers met elkaar en stellen we hen in staat.</tspan></text>
    <text class="cls-4" transform="translate(440.5 423.69) scale(.97 1)"><tspan x="0" y="0"> </tspan></text>
  </g>
</svg>