<?xml version="1.0" encoding="UTF-8"?>
<svg id="Laag_2" data-name="Laag 2" xmlns="http://www.w3.org/2000/svg" viewBox="0 0 81.09 69">
  <defs>
    <style>
      .cls-1 {
        fill: #043c4c;
      }

      .cls-2 {
        opacity: .7;
      }
    </style>
  </defs>
  <g id="Layer_19" data-name="Layer 19">
    <g id="SVGRepo_iconCarrier" data-name="SVGRepo iconCarrier" class="cls-2">
      <g id="g10449">
        <path id="path298" class="cls-1" d="m5.74,39.8c-1.43.07-2.83-.43-3.89-1.37-2.21-1.97-2.37-5.33-.37-7.5,0,0,0,0,0,0L28.46,1.74c2-2.17,5.42-2.33,7.62-.36,0,0,0,0,0,0,2.21,1.97,2.37,5.33.37,7.5l-26.97,29.19c-.96,1.04-2.31,1.66-3.74,1.73Z"/>
        <path id="path908" class="cls-1" d="m5.4,39.81c-2.98,0-5.4-2.38-5.4-5.31,0-2.93,2.42-5.31,5.4-5.31h70.3c2.98,0,5.4,2.38,5.4,5.31,0,2.93-2.42,5.31-5.4,5.31H5.4Z"/>
        <path id="path910" class="cls-1" d="m32.2,68.99c-1.43-.07-2.77-.69-3.74-1.73L1.49,38.07c-2-2.17-1.84-5.52.37-7.5,0,0,0,0,0,0,2.21-1.97,5.62-1.81,7.62.36l26.97,29.19c2,2.17,1.84,5.52-.37,7.5,0,0,0,0,0,0-1.06.95-2.46,1.44-3.89,1.37Z"/>
      </g>
    </g>
  </g>
</svg>