<?xml version="1.0" encoding="UTF-8"?>
<svg id="Laag_2" data-name="Laag 2" xmlns="http://www.w3.org/2000/svg" viewBox="0 0 68.63 68.63">
  <defs>
    <style>
      .cls-1 {
        fill: #043c4c;
      }

      .cls-2 {
        opacity: .7;
      }
    </style>
  </defs>
  <g id="Layer_19" data-name="Layer 19">
    <g id="SVGRepo_iconCarrier" data-name="SVGRepo iconCarrier" class="cls-2">
      <path class="cls-1" d="m28.64,23.18c-1.09-.63-2.49-.26-3.12.83-.2.35-.31.75-.31,1.15l-.05,18.27c0,1.26,1.01,2.29,2.27,2.3.4,0,.8-.1,1.15-.3l16.01-9.09c1.1-.62,1.49-2.01.87-3.11-.2-.36-.5-.66-.86-.86l-15.96-9.18Zm1.1,16.31l.03-10.39,9.12,5.23-9.15,5.16Z"/>
      <path class="cls-1" d="m59.52.14L9.29,0C4.25-.01.15,4.06.14,9.11L0,59.34c-.01,5.04,4.06,9.14,9.11,9.16l50.23.14c5.04.01,9.14-4.06,9.16-9.11l.02-9.13-63.93-.17.09-31.96,63.93.17.02-9.13c.01-5.04-4.06-9.14-9.11-9.16Zm-7,54.78l11.42.03v4.57c-.02,2.52-2.07,4.56-4.59,4.55l-6.85-.02.02-9.13Zm-15.98-.04l11.42.03-.02,9.13-11.42-.03.02-9.13Zm-15.98-.04l11.42.03-.02,9.13-11.42-.03.02-9.13Zm-4.57-.01l-.02,9.13-6.85-.02c-2.52,0-4.56-2.06-4.55-4.58v-4.57s11.43.03,11.43.03Zm.11-41.1l-11.42-.03v-4.57c.02-2.52,2.07-4.56,4.59-4.55l6.85.02-.02,9.13Zm15.98.04l-11.42-.03.02-9.13,11.42.03-.02,9.13Zm15.98.04l-11.42-.03.02-9.13,11.42.03-.02,9.13Zm15.98.04l-11.42-.03.02-9.13,6.85.02c2.52,0,4.56,2.06,4.55,4.58v4.57Z"/>
      <path class="cls-1" d="m64.02,25.26c0,1.26,1.02,2.29,2.28,2.29,1.26,0,2.29-1.02,2.29-2.28s-1.02-2.29-2.28-2.29c-1.26,0-2.29,1.02-2.29,2.28Z"/>
      <path class="cls-1" d="m66.29,32.12c-1.26,0-2.29,1.02-2.29,2.28l-.02,9.13c0,1.26,1.02,2.29,2.28,2.29,1.26,0,2.29-1.02,2.29-2.28l.02-9.13c0-1.26-1.02-2.29-2.28-2.29Z"/>
    </g>
  </g>
</svg>