<?xml version="1.0" encoding="UTF-8"?>
<svg id="Laag_2" data-name="Laag 2" xmlns="http://www.w3.org/2000/svg" viewBox="0 0 105.71 89.02">
  <defs>
    <style>
      .cls-1 {
        fill: #043c4c;
      }

      .cls-2 {
        opacity: .7;
      }
    </style>
  </defs>
  <g id="Layer_19" data-name="Layer 19">
    <g id="SVGRepo_iconCarrier" data-name="SVGRepo iconCarrier" class="cls-2">
      <g>
        <path class="cls-1" d="m27.47,16.68c-.34,0-.68.07-1,.21-4.14,1.78-7.46,5-9.35,9.08-.29.61-.31,1.3-.08,1.94.23.64.7,1.15,1.32,1.43.34.16.7.24,1.07.24.98,0,1.89-.58,2.3-1.47,1.37-2.95,3.77-5.27,6.75-6.55.62-.27,1.1-.76,1.36-1.39.25-.63.24-1.32-.02-1.94-.4-.93-1.32-1.54-2.33-1.54Z"/>
        <path class="cls-1" d="m67.28,33.64C67.27,15.09,52.18,0,33.64,0,15.09,0,0,15.09,0,33.64c0,18.54,15.09,33.63,33.64,33.64,18.54,0,33.64-15.09,33.64-33.64Zm-33.64,27.05c-7.22,0-14.01-2.82-19.12-7.92-5.11-5.11-7.92-11.91-7.92-19.12,0-7.22,2.82-14.01,7.92-19.12,5.12-5.11,11.91-7.92,19.12-7.92,7.22,0,14.01,2.82,19.12,7.92,5.11,5.11,7.92,11.91,7.92,19.12,0,7.22-2.82,14.01-7.92,19.12-5.11,5.11-11.9,7.92-19.12,7.92Z"/>
        <path class="cls-1" d="m88.25,6.07c-9.62,0-17.45,7.83-17.46,17.45,0,9.62,7.83,17.45,17.46,17.45,9.62,0,17.45-7.83,17.45-17.45,0-9.62-7.83-17.45-17.45-17.45Zm7.68,25.14c-2.06,2.05-4.78,3.18-7.68,3.18-2.9,0-5.63-1.13-7.68-3.18-2.05-2.06-3.18-4.78-3.18-7.68,0-2.9,1.13-5.63,3.18-7.68,2.06-2.05,4.78-3.18,7.68-3.18,2.9,0,5.62,1.13,7.68,3.18,2.05,2.06,3.18,4.79,3.18,7.68,0,2.9-1.13,5.63-3.18,7.68Z"/>
        <path class="cls-1" d="m72.07,43.55c-.55,2.15-1.29,4.27-2.2,6.29,3.33.58,6.35,2.14,8.76,4.55,3.1,3.11,4.81,7.23,4.81,11.62,0,4.38-1.71,8.51-4.81,11.62-3.11,3.1-7.23,4.81-11.62,4.81-4.38,0-8.51-1.71-11.62-4.81-2.27-2.28-3.8-5.12-4.45-8.27-2,.97-4.08,1.77-6.21,2.39,2.61,10.2,11.71,17.28,22.27,17.28,12.69,0,23.01-10.33,23.02-23.02,0-10.75-7.53-20.12-17.96-22.46Z"/>
      </g>
    </g>
  </g>
</svg>