<?xml version="1.0" encoding="UTF-8"?>
<svg id="Laag_2" data-name="Laag 2" xmlns="http://www.w3.org/2000/svg" viewBox="0 0 67.09 58">
  <defs>
    <style>
      .cls-1 {
        fill: #043c4c;
      }

      .cls-2 {
        opacity: .7;
      }
    </style>
  </defs>
  <g id="Layer_19" data-name="Layer 19">
    <g id="SVGRepo_iconCarrier" data-name="SVGRepo iconCarrier" class="cls-2">
      <g id="g10449">
        <path id="path298" class="cls-1" d="m4.75,33.45c-1.18.06-2.34-.36-3.22-1.15-1.83-1.66-1.96-4.48-.3-6.3,0,0,0,0,0,0L23.55,1.46c1.66-1.82,4.48-1.96,6.31-.3,0,0,0,0,0,0,1.83,1.66,1.96,4.48.3,6.3L7.84,32c-.8.88-1.91,1.4-3.09,1.46Z"/>
        <path id="path908" class="cls-1" d="m4.46,33.46c-2.47,0-4.46-2-4.46-4.46,0-2.46,2-4.46,4.46-4.46h58.16c2.47,0,4.46,2,4.46,4.46,0,2.46-2,4.46-4.46,4.46H4.46Z"/>
        <path id="path910" class="cls-1" d="m26.64,57.99c-1.18-.06-2.29-.58-3.09-1.46L1.23,32c-1.66-1.82-1.52-4.64.3-6.3,0,0,0,0,0,0,1.83-1.66,4.65-1.52,6.31.3l22.32,24.54c1.66,1.82,1.52,4.64-.3,6.3,0,0,0,0,0,0-.88.8-2.03,1.21-3.22,1.15Z"/>
      </g>
    </g>
  </g>
</svg>