<?xml version="1.0" encoding="UTF-8"?>
<svg id="Calque_2" data-name="Calque 2" xmlns="http://www.w3.org/2000/svg" viewBox="0 0 79.01 66.03">
  <defs>
    <style>
      .cls-1, .cls-2, .cls-3, .cls-4, .cls-5, .cls-6 {
        fill: #fff;
      }

      .cls-7 {
        fill: #5c17ec;
      }

      .cls-2 {
        opacity: .8;
      }

      .cls-2, .cls-3, .cls-4, .cls-8, .cls-9, .cls-10, .cls-5, .cls-6 {
        isolation: isolate;
      }

      .cls-11 {
        fill: #6202b9;
      }

      .cls-12, .cls-8, .cls-5 {
        opacity: .2;
      }

      .cls-3 {
        opacity: .7;
      }

      .cls-4 {
        opacity: .5;
      }

      .cls-13 {
        fill: #f2ac78;
      }

      .cls-14 {
        fill: #f7d5b6;
      }

      .cls-9 {
        opacity: .3;
      }

      .cls-10 {
        opacity: .1;
      }

      .cls-15 {
        fill: #263238;
      }

      .cls-6 {
        opacity: .6;
      }
    </style>
  </defs>
  <g id="Layer_20" data-name="Layer 20">
    <g>
      <polygon class="cls-11" points="38.95 26.82 39.31 27.27 5.04 54.57 6.5 56.37 6.7 56.62 40.97 29.33 41.33 29.77 41.97 26.82 38.95 26.82"/>
      <polygon class="cls-3" points="38.95 26.82 39.31 27.27 5.04 54.57 6.5 56.37 6.7 56.62 40.97 29.33 41.33 29.77 41.97 26.82 38.95 26.82"/>
      <path class="cls-7" d="M0,56.48c0-.62,.51-1.13,1.13-1.13,.11,0,.22,.02,.32,.05-.02-.12-.03-.23-.03-.35,0-1.32,1.07-2.39,2.39-2.39h0c.14,0,.29,.01,.43,.04,.61-.98,1.89-1.28,2.87-.68,.6,.37,.97,1.02,.99,1.73h.06c1.06-.09,1.99,.7,2.08,1.77,.09,1.06-.7,1.99-1.77,2.08-.1,0-.21,0-.32,0H1.09C.48,57.59,0,57.09,0,56.48Z"/>
      <path class="cls-2" d="M0,56.48c0-.62,.51-1.13,1.13-1.13,.11,0,.22,.02,.32,.05-.02-.12-.03-.23-.03-.35,0-1.32,1.07-2.39,2.39-2.39h0c.14,0,.29,.01,.43,.04,.61-.98,1.89-1.28,2.87-.68,.6,.37,.97,1.02,.99,1.73h.06c1.06-.09,1.99,.7,2.08,1.77,.09,1.06-.7,1.99-1.77,2.08-.1,0-.21,0-.32,0H1.09C.48,57.59,0,57.09,0,56.48Z"/>
    </g>
    <g>
      <polygon class="cls-11" points="71.84 44.12 72.69 45.18 56.76 58.04 60.23 62.33 60.7 62.92 76.63 50.05 77.48 51.11 79.01 44.1 71.84 44.12"/>
      <polygon class="cls-4" points="71.84 44.12 72.69 45.18 56.76 58.04 60.23 62.33 60.7 62.92 76.63 50.05 77.48 51.11 79.01 44.1 71.84 44.12"/>
      <path class="cls-7" d="M63.22,57.58c-1.06-1.7-3.3-2.22-5-1.16-.49,.3-.9,.72-1.19,1.21-1.02-.3-2.1,.29-2.4,1.31-.05,.18-.08,.37-.08,.56h-1.03c-.54-.03-.99,.39-1.02,.93-.03,.54,.39,.99,.93,1.02,.03,0,.06,0,.09,0h3.55c1.07,1.69,3.32,2.2,5.01,1.12,.24-.15,.46-.33,.65-.53,.06,0,.12,0,.18,0,1.24,0,2.25-1,2.25-2.24,0-1.13-.83-2.09-1.95-2.23h0Z"/>
      <path class="cls-2" d="M63.22,57.58c-1.06-1.7-3.3-2.22-5-1.16-.49,.3-.9,.72-1.19,1.21-1.02-.3-2.1,.29-2.4,1.31-.05,.18-.08,.37-.08,.56h-1.03c-.54-.03-.99,.39-1.02,.93-.03,.54,.39,.99,.93,1.02,.03,0,.06,0,.09,0h3.55c1.07,1.69,3.32,2.2,5.01,1.12,.24-.15,.46-.33,.65-.53,.06,0,.12,0,.18,0,1.24,0,2.25-1,2.25-2.24,0-1.13-.83-2.09-1.95-2.23h0Z"/>
    </g>
    <g>
      <path class="cls-14" d="M39.31,14.05l-.31-.33c-.08-.09-.21-.13-.32-.1l-.47,.1c-.15,.03-.27,.15-.29,.3l-.24,1.93,.72,.28c.88-.38,.83-1.54,.83-1.54l.12-.23c.08-.13,.06-.3-.05-.41Z"/>
      <path class="cls-7" d="M30.65,19.86s.69,.04,1.09,.03c.4,0,.81-.01,1.21-.04,.4-.02,.79-.05,1.15-.1,.16-.02,.33-.05,.49-.09l.15-.05s0,.02,.02,0c.11-.11,.22-.23,.31-.36,.12-.15,.24-.31,.35-.47,.24-.33,.47-.67,.7-1.01l1.4-2.08,1.1,.58c-.16,.4-.34,.79-.51,1.18-.17,.39-.37,.77-.56,1.16-.19,.38-.39,.77-.61,1.15-.11,.19-.21,.38-.35,.58-.14,.22-.3,.44-.48,.63-.14,.15-.31,.27-.49,.37-.14,.07-.28,.14-.43,.19-.24,.09-.49,.16-.74,.21-.45,.1-.9,.17-1.36,.21-.87,.09-1.75,.12-2.63,.1l.17-2.19Z"/>
      <path class="cls-3" d="M38.64,16.27c-.16,.4-.33,.79-.51,1.18-.17,.39-.37,.77-.56,1.16-.19,.39-.39,.76-.61,1.15-.11,.19-.21,.38-.35,.58-.14,.23-.3,.44-.47,.63-.15,.15-.32,.27-.5,.37-.14,.08-.28,.14-.43,.19-.24,.09-.49,.16-.74,.21-.45,.1-.9,.17-1.36,.21-.19,.02-.38,.03-.57,.05-.69,.05-1.37,.07-2.07,.05l.03-.45,.14-1.73s.69,.04,1.09,.03c.4-.01,.81-.01,1.21-.04,.4-.02,.79-.05,1.15-.1,.16-.02,.33-.05,.49-.09,.05-.01,.1-.03,.15-.05,.05-.02,0,.02,.02,0,.11-.11,.22-.23,.31-.36,.12-.15,.24-.31,.35-.47,.24-.33,.47-.67,.7-1.01l1.4-2.08,1.11,.57Z"/>
      <path class="cls-10" d="M32.55,21.99c-.69,.05-1.37,.07-2.07,.05l.03-.45,.17-.39c.7,.01,1.37,.3,1.86,.79Z"/>
      <path d="M19.18,58.34s-1.93-1.34-1.82-2.23c.02-.08-.04-.16-.12-.18,0,0,0,0-.01,0l-1.65-.25c-.08-.02-.17,.02-.21,.09l-.97,1.37,.43,.16,.23-.16,.11,.29c2.37,.86,3.4,1.2,3.93,1.23,.15-.18,.08-.3,.08-.3Z"/>
      <path class="cls-15" d="M30.11,33.11s-.1,.26-.27,.7c-.19,.48-.46,1.19-.79,2.02-.21,.56-.47,1.18-.73,1.83-1.21,3-2.78,6.74-3.81,8.62-1.98,3.6-7.15,10.44-7.15,10.44l-2.07-.76s3.72-7.04,5.6-10.61c.71-1.44,1.34-2.92,1.88-4.43,.31-.83,.62-1.69,.92-2.55,.14-.39,.27-.77,.4-1.15,.34-1,.66-1.97,.94-2.83,.03-.11,.07-.21,.1-.32,.11-.35,.21-.69,.32-1,.4-1.27,.65-2.11,.66-2.15h0l1.84,1,2.17,1.18Z"/>
      <path class="cls-9" d="M29.84,33.81c-.19,.48-.46,1.19-.79,2.02-.21,.56-.47,1.18-.73,1.83-1.69,.34-3.4,.57-4.64,.71,.14-.39,.27-.77,.4-1.15,.34-1,.66-1.97,.94-2.83,.03-.11,.07-.21,.1-.32,.11-.35,.21-.69,.32-1,1.24,.17,2.9,.42,4.4,.74Z"/>
      <path class="cls-7" d="M23.51,21.01h0c.3,1.08,.49,2.18,.57,3.3,.08,.89,.1,1.77,.11,2.55s-.02,1.49-.05,2.03c-.03,.69-.08,1.11-.08,1.11l6.52,.34c1.96-7.08,.06-10.48,.06-10.48-.58-.05-1.16-.06-1.75-.04-.12,0-.24,.01-.37,.02-.98,.11-1.95,.28-2.92,.51-.17,.04-.35,.08-.52,.13-.85,.23-1.58,.53-1.58,.53Z"/>
      <path class="cls-3" d="M30.58,30.34l-6.52-.33s.04-.43,.08-1.12c0-.2,.02-.43,.03-.68,.01-.4,.02-.86,.02-1.35,0-.24,0-.48-.01-.74v-.12c-.01-.4-.03-.82-.06-1.24-.01-.15-.02-.3-.04-.45,0-.12-.02-.24-.03-.36-.03-.3-.07-.6-.11-.9-.01-.08-.02-.16-.04-.24-.02-.14-.04-.27-.06-.4-.08-.48-.19-.95-.33-1.41h0s.74-.29,1.59-.52c.17-.05,.35-.09,.52-.13,.96-.23,1.93-.4,2.92-.51,.13,0,.25-.02,.37-.02,.58-.02,1.17-.01,1.75,.04,0,0,1.89,3.39-.07,10.48Z"/>
      <path d="M34.62,47.3s-1.86-1.45-1.69-2.33c.02-.08-.03-.17-.11-.19,0,0,0,0,0,0l-1.63-.34c-.08-.02-.16,.01-.21,.08l-1.05,1.31,.43,.18,.24-.15,.09,.29c2.32,.99,3.33,1.4,3.86,1.45,.15-.18,.08-.29,.08-.29Z"/>
      <path class="cls-15" d="M27.18,35.87h.15l7.82,1.14-4.45,7.38,2.23,.86s8.06-8.68,6.26-10.66c-1.48-1.63-8.73-2.62-8.73-2.62l.24-1.7-6.7-1.32c-2.87,6.27,2.24,6.87,3.2,6.93Z"/>
      <polygon class="cls-15" points="23.91 29.6 23.76 29.58 23.89 29.13 24.02 29.15 23.91 29.6"/>
      <polygon class="cls-15" points="29.18 30.63 26.32 30.07 26.43 29.62 29.28 30.17 29.18 30.63"/>
      <polygon class="cls-15" points="29.5 30.21 30.71 30.45 30.63 30.91 29.41 30.67 29.5 30.21"/>
      <polygon class="cls-15" points="24.24 29.19 26.21 29.57 26.09 30.03 24.13 29.65 24.24 29.19"/>
      <g class="cls-12">
        <polygon class="cls-1" points="23.91 29.6 23.76 29.58 23.89 29.13 24.02 29.15 23.91 29.6"/>
        <polygon class="cls-1" points="29.18 30.63 26.32 30.07 26.43 29.62 29.28 30.17 29.18 30.63"/>
        <polygon class="cls-1" points="29.5 30.21 30.71 30.45 30.63 30.91 29.41 30.67 29.5 30.21"/>
        <polygon class="cls-1" points="24.24 29.19 26.21 29.57 26.09 30.03 24.13 29.65 24.24 29.19"/>
      </g>
      <path class="cls-1" d="M28.24,30.49h-.03l-.72-.13s-.08-.03-.1-.06c-.02-.03-.03-.08-.02-.12l.07-.29c.02-.08,.09-.13,.17-.11l.71,.14s.08,.03,.1,.06c.02,.03,.03,.07,.02,.11h0l-.06,.28c-.02,.07-.08,.11-.14,.11Zm-.64-.59s-.02,0-.02,.02l-.07,.29s0,.01,0,.02c0,0,.01,0,.02,0l.72,.13s.02,0,.03-.02l.06-.28s0-.01,0-.02c0,0,0,0-.01,0l-.71-.14h0Z"/>
      <path class="cls-1" d="M27.79,30.17h-.01l-.21-.04s-.06-.04-.05-.07c0,0,0,0,0,0,0-.03,.03-.06,.07-.05,0,0,0,0,0,0l.21,.04s.06,.04,.05,.07c0,0,0,0,0,0,0,.03-.03,.05-.06,.05Z"/>
      <path class="cls-14" d="M26.29,17.39l1.7,1.41c-.17,.69,.12,1.33,.46,1.45,0,0,.25,.59-.23,.69-.97,.2-2.08-.74-2.08-.74,.51-.55,.33-1.93,.15-2.81Z"/>
      <path class="cls-8" d="M26.99,17.97l1.01,.83c-.04,.16-.07,.32-.09,.49-.38-.05-.9-.45-.94-.85-.02-.16-.01-.32,.02-.48Z"/>
      <path class="cls-15" d="M27.8,14.6c.41,.26,.97,1.03,.28,1.22-.69,.19-.99-1.66-.28-1.22Z"/>
      <path class="cls-14" d="M25.67,17.25c.72,.95,1.09,1.54,1.93,1.72,1.26,.26,2.17-1.03,1.75-2.18-.38-1.03-1.5-2.41-2.72-2.15-.89,.19-1.45,1.07-1.26,1.96,.05,.23,.15,.46,.3,.65Z"/>
      <path class="cls-15" d="M25.88,16.22l-.86-1.01s-1.14,.84-.62,1.35c-.34,.8,1.02,1.93,2.21,1.7,.14-.73-.92-1.97-.92-1.97,.07-.02,.13-.05,.2-.07Z"/>
      <path class="cls-14" d="M25.84,18.33c.23,.19,.53,.27,.83,.24,.39-.05,.43-.44,.2-.74-.23-.29-.67-.56-1.01-.36-.24,.15-.31,.47-.16,.71,.04,.06,.08,.11,.14,.15Z"/>
      <path class="cls-15" d="M27.35,16.5c.05,.08,.14,.12,.19,.08,.05-.03,.05-.13,0-.21-.05-.08-.14-.12-.19-.08s-.05,.14,0,.21Z"/>
      <path class="cls-15" d="M28.26,15.89c.06,.08,.14,.12,.19,.08,.05-.04,.05-.13,0-.21-.05-.08-.14-.12-.19-.08-.05,.04-.05,.13,0,.21Z"/>
      <path class="cls-13" d="M28,16.13c.26,.17,.54,.31,.83,.4-.06,.21-.34,.32-.34,.32l-.5-.73Z"/>
      <path class="cls-15" d="M27.74,17.4s-.07,.04-.11,.07c-.01,.01-.01,.03,0,.04,0,.01,.03,.01,.04,0,0,0,0,0,0,0,.19-.15,.45-.2,.68-.12,.01,0,.03,0,.04-.02,0,0,0,0,0,0,0-.01,0-.03-.02-.04h0c-.21-.07-.44-.04-.64,.07Z"/>
      <path class="cls-15" d="M26.73,16.25s.04,0,.05-.03c.08-.12,.21-.2,.35-.21,.03,0,.05-.02,.06-.05,0,0,0,0,0,0,0-.03-.02-.06-.06-.06-.18,.01-.35,.12-.45,.27-.02,.03,0,.06,.02,.08,0,0,.02,0,.03,0Z"/>
      <path class="cls-15" d="M28.27,15.16s0-.02,0-.03c0-.03-.04-.05-.07-.04-.18,.04-.32,.17-.39,.34,0,.03,0,.06,.04,.07,.03,0,.06,0,.07-.04,0,0,0,0,0,0,.05-.14,.17-.24,.31-.27,.02,0,.03-.02,.04-.04Z"/>
      <path class="cls-15" d="M25.68,16.29s2.27-.95,2.4-2.04c.14-1.09-.82-.64-.82-.64,0,0,.44-.03,.4,.29,0,0-.77-.52-1.5-.07,.2,0,.39,.09,.52,.25-.53,.13-1.03,.38-1.47,.71-.77,.58-2.17,2.64,.46,1.51Z"/>
      <path class="cls-9" d="M30.45,31.95l-3.69-.43c1.25-.17,2.51-.22,3.77-.15l-.08,.58Z"/>
      <path class="cls-10" d="M24.12,24.76c-.01-.15-.02-.3-.04-.45,0-.12-.02-.24-.03-.36-.03-.3-.07-.6-.11-.9-.01-.08-.02-.16-.04-.24,.1-.08,.21-.15,.32-.21,.12,.72,.08,1.46-.11,2.16Z"/>
      <path class="cls-14" d="M17.97,30.02l-.64,1.5,1.39,.34s.6-.99,.02-1.74l-.76-.1Z"/>
      <polygon class="cls-14" points="17.42 32.69 18.52 32.7 18.71 31.88 17.32 31.53 17.42 32.69"/>
      <path class="cls-7" d="M24.21,22.04c.1,.94-.23,1.33-.23,1.33,0,0-.91,.57-1.31,.87-.34,.26-.67,.51-.98,.77-.15,.13-.3,.26-.44,.39-.12,.11-.24,.24-.34,.37-.04,.05-.08,.11-.11,.17-.04,.06-.08,.16-.12,.23-.08,.17-.17,.36-.25,.55-.16,.38-.31,.78-.45,1.19-.3,.81-.57,1.64-.86,2.46l-1.27-.3c.13-.89,.3-1.76,.5-2.63,.11-.43,.21-.88,.36-1.32,.07-.21,.14-.45,.23-.68,.05-.12,.09-.23,.16-.36,.06-.14,.13-.27,.21-.4,.15-.23,.32-.44,.51-.64,.17-.18,.34-.35,.51-.52,.34-.33,.69-.62,1.05-.91,.71-.58,1.42-1.1,2.19-1.62,0,0,.56,.21,.64,1.07Z"/>
      <path class="cls-3" d="M24.21,22.04c.1,.94-.23,1.33-.23,1.33,0,0-.91,.57-1.31,.87-.34,.26-.67,.51-.98,.77-.15,.13-.3,.26-.44,.39-.12,.11-.24,.24-.34,.37-.04,.05-.08,.11-.11,.17-.04,.06-.08,.16-.12,.23-.08,.17-.17,.36-.25,.55-.16,.38-.31,.78-.45,1.19-.3,.81-.57,1.64-.86,2.46l-1.27-.3c.13-.89,.3-1.76,.5-2.63,.11-.43,.21-.88,.36-1.32,.07-.21,.14-.45,.23-.68,.05-.12,.09-.23,.16-.36,.06-.14,.13-.27,.21-.4,.15-.23,.32-.44,.51-.64,.17-.18,.34-.35,.51-.52,.34-.33,.69-.62,1.05-.91,.71-.58,1.42-1.1,2.19-1.62,0,0,.56,.21,.64,1.07Z"/>
      <path class="cls-7" d="M27.09,20.78l.48,.75s-1.66,2.02-4.85,2.68l-.21,.64,.68,.18s3.43-.89,4.81-3.47l.71-.79-.83-.28-.78,.29Z"/>
      <polygon class="cls-7" points="25.55 20.33 26.33 19.65 27.87 20.49 28.05 19.57 28.86 20.04 29.1 21.24 27.96 20.74 26.94 21.65 25.55 20.33"/>
      <polygon class="cls-6" points="25.55 20.33 26.33 19.65 27.87 20.49 28.05 19.57 28.86 20.04 29.1 21.24 27.96 20.74 26.94 21.65 25.55 20.33"/>
    </g>
    <g>
      <path class="cls-7" d="M46.83,6.91s-1.44,1.79-2.91,1.64c-1.46-.15-2.21,.45-2.21,.45l-.14,.71,.79-.11s0-.57,1.53-.5c1.53,.06,2.67-1.25,3.12-1.85l-.17-.35Z"/>
      <path class="cls-7" d="M57.19,3.93l-.03-.14c-.01-.07-.03-.14-.06-.2-.08-.19-.2-.37-.35-.51-.19-.17-.41-.3-.66-.39-.31-.11-.62-.18-.95-.21-.29-.03-.56-.05-.83-.05-.53-.02-1.05,0-1.56,.04-1.01,.07-2.02,.19-3.02,.36l.37,2.11c.92-.15,1.89-.28,2.82-.38,.47-.05,.93-.08,1.38-.09h.64c.13,0,.26,.02,.39,.04,0,.08,0,.16,0,.24-.03,.41-.1,.82-.23,1.22-.27,.89-.62,1.76-1.04,2.59l1.02,.68c.65-.82,1.2-1.71,1.63-2.66,.24-.52,.4-1.07,.48-1.63,.05-.34,.04-.68-.02-1.02Z"/>
      <path class="cls-3" d="M57.2,4.95c-.07,.47-.19,.93-.38,1.37-.03,.09-.07,.18-.11,.26-.43,.95-.98,1.84-1.63,2.66l-1.01-.67c.42-.83,.78-1.69,1.06-2.57,.09-.28,.15-.57,.2-.86,.02-.12,.03-.23,.03-.35,0-.08,0-.16,0-.24-.13-.02-.26-.04-.39-.04-.21-.01-.43-.01-.64,0h-.05c-.43,.02-.88,.05-1.33,.09-.91,.09-1.84,.21-2.74,.37h-.09s-.37-2.1-.37-2.1c1-.17,2.01-.29,3.02-.36,.51-.03,1.03-.06,1.56-.04,.27,0,.54,.02,.83,.05,.32,.03,.64,.11,.95,.21,.24,.08,.47,.22,.66,.39,.15,.14,.27,.31,.35,.51,.03,.07,.05,.13,.06,.2l.03,.14c.05,.33,.05,.66,0,.99Z"/>
      <path class="cls-10" d="M54.27,4.49c-.43,.02-.88,.05-1.33,.09-.91,.09-1.84,.21-2.74,.37,.33-.81,.67-1.62,.67-1.62,1.2,.18,2.35,.57,3.4,1.16Z"/>
      <path class="cls-10" d="M56.83,6.32c-.03,.09-.07,.18-.11,.26-.43,.95-.98,1.84-1.63,2.66l-1.01-.67c.42-.83,.78-1.69,1.06-2.57,.09-.28,.15-.57,.2-.86,.53,.36,1.03,.75,1.49,1.19Z"/>
      <path class="cls-15" d="M43.12,4.36c.06,.07,.07,.17,.02,.21-.05,.05-.14,0-.2-.06-.06-.06-.07-.17-.02-.2,.05-.04,.14-.03,.19,.05Z"/>
      <path class="cls-13" d="M43.19,4.52c.09,.3,.14,.61,.15,.92,.16,0,.31-.09,.41-.21l-.55-.7Z"/>
      <path class="cls-15" d="M43.06,3.73s.01-.02,.01-.04c0-.03-.03-.05-.06-.05,0,0,0,0,0,0-.18,0-.34,.09-.44,.24-.02,.03,0,.06,.02,.08,.03,.01,.06,0,.08-.02h0c.08-.12,.21-.19,.36-.19,.02,0,.03,0,.04-.02Z"/>
      <path class="cls-14" d="M45.25,3.2c.71,.51,2.07,1.32,2.84,1.01,0,0,.69,.58,.03,2.02-.73,1.59-1.14,.4-1.14,.4,.19-.97-.46-1.24-1.14-1.36l-.59-2.07Z"/>
      <path class="cls-14" d="M45.47,2.25c.66,.95,1.1,1.48,1.01,2.31-.14,1.25-1.59,1.72-2.53,.98-.84-.67-1.79-2.12-1.18-3.18,.43-.76,1.4-1.04,2.16-.61,.22,.12,.4,.29,.54,.49Z"/>
      <path class="cls-15" d="M46.53,3.82c-.1,.54-1.93,1.29-2.75,.12,0,0-1.04,0-1.66-.64-.62-.64-.49-1.3,.07-1.67,.49-.33,1.77-2.72,3.25-1.01,1.61-.06,1.21,2.54,1.09,3.21Z"/>
      <path class="cls-15" d="M43.45,1.37s-.96-.05-1.5,.39c-.54,.44-.4,1.78-.18,2.04,.1,.14,.26,.23,.43,.26,0,0-.32-.17-.32-.43,0,0,.14,.33,.79,.43-.1-.08-.16-.21-.16-.34,0,0,.35,.46,1.17,0,.82-.46-.22-2.35-.22-2.35Z"/>
      <path class="cls-14" d="M44.27,3.74c.16,.24,.24,.52,.23,.81-.02,.38-.34,.41-.59,.17s-.48-.67-.33-.99c.15-.32,.5-.28,.7,0Z"/>
      <path class="cls-7" d="M46.17,6.91s-.18-2.16,1.23-3.37l1.68,.15s-.97,2.36-2.91,3.22Z"/>
      <path class="cls-6" d="M46.17,6.91s-.18-2.16,1.23-3.37l1.68,.15s-.97,2.36-2.91,3.22Z"/>
      <path class="cls-7" d="M51.02,11.77s-2.54-2.5-5.35-4.24c0,0,1.87-4.39,4.24-4.78,0,0,6.12,1.85,7.9,6.87l-6.79,2.16Z"/>
      <polygon class="cls-14" points="51.34 26.98 50.24 27.44 49.06 24.95 50.15 24.49 51.34 26.98"/>
      <path class="cls-15" d="M57.8,9.6l-.64,6.87c-.49,.31-1.03,.52-1.6,.63-1.34,.31-3.12,.45-4.67,.54-1.73,.09-3.15,.11-3.28,.21-.3,.24,3.51,8.11,3.51,8.11l-1.82,.23s-4.78-6.56-5.4-8.84c-.23-.84-.46-1.89,1.09-2.88,1.36-.86,6.42-1.52,6.42-1.52l-.39-1.17,6.79-2.18Z"/>
      <path class="cls-8" d="M55.55,17.09c-1.34,.31-3.12,.45-4.67,.54-.21-2.53,1.07-4.96,1.07-4.96l1.81-.46,1.78,4.89Z"/>
      <polygon class="cls-14" points="67.3 25.97 67.49 27.14 64.79 27.71 64.6 26.53 67.3 25.97"/>
      <path class="cls-7" d="M67.55,27.18s-.02,0-.03,0c-.01,0-.02,.01-.02,.03,0,.02,.02,.5,.17,.64,.03,.03,.06,.04,.1,.04,.05,0,.09-.02,.11-.06,.03-.08-.03-.21-.11-.35-.06-.11-.14-.21-.22-.3Zm.01,.1c.14,.17,.3,.43,.26,.51,0,.01-.02,.03-.06,.03-.02,0-.05-.01-.06-.03-.01-.01-.02-.03-.03-.04-.07-.15-.1-.31-.11-.47Z"/>
      <path class="cls-7" d="M67.54,27.18s-.02,0-.03,0c0,0-.27,.2-.29,.4,0,.06,0,.11,.04,.16,.05,.06,.09,.06,.12,.05,.13-.05,.2-.43,.18-.59h0s-.01-.02-.02-.02Zm-.27,.41c.04-.13,.12-.24,.23-.33,0,.17-.07,.43-.14,.47,0,0-.03,.01-.06-.03,0,0,0-.01,0-.02-.02-.03-.03-.06-.03-.1Z"/>
      <path class="cls-15" d="M67.34,27.17l-.68-1.11s-.02-.1,.02-.13l.78-.76c.07-.07,.18-.06,.25,0,0,0,.02,.02,.02,.03,.24,.4,.57,.99,.88,1.5,.36,.59,.71,1.07,1.13,1.76,.26,.42-.09,.79-.24,.64-.66-.69-1.07-1.32-1.93-1.75-.09-.05-.17-.12-.22-.21Z"/>
      <path class="cls-15" d="M57.8,9.6s2.18,5.61-1.5,7.78c0,0-.05,6.48,.88,7.24,1.13,.92,9.42,1.39,9.42,1.39l-.07,2.06s-8.87,.73-11.56-.24c-3.15-1.13-3.85-15.97-3.85-15.97l6.68-2.26Z"/>
      <path class="cls-8" d="M55.28,13.04l1.32-.4c.09,.58,.15,1.16,.18,1.75l-.61,.53-.58-.18c-.07-.57-.17-1.13-.31-1.69Z"/>
      <polygon class="cls-15" points="51.45 11.77 51.62 12.31 51.13 12.47 50.96 11.93 51.45 11.77"/>
      <polygon class="cls-15" points="53.71 11.04 53.9 11.61 51.87 12.24 51.69 11.69 53.71 11.04"/>
      <polygon class="cls-15" points="56.24 10.24 56.42 10.83 54.15 11.53 53.97 10.96 56.24 10.24"/>
      <polygon class="cls-15" points="58.08 10.31 56.69 10.74 56.68 10.74 56.5 10.15 57.88 9.71 58.08 10.31"/>
      <g class="cls-12">
        <polygon class="cls-1" points="51.45 11.77 51.62 12.31 51.13 12.47 50.96 11.93 51.45 11.77"/>
        <polygon class="cls-1" points="53.71 11.04 53.9 11.61 51.87 12.24 51.69 11.69 53.71 11.04"/>
        <polygon class="cls-1" points="56.24 10.24 56.42 10.83 54.15 11.53 53.97 10.96 56.24 10.24"/>
        <polygon class="cls-1" points="58.08 10.31 56.69 10.74 56.68 10.74 56.5 10.15 57.88 9.71 58.08 10.31"/>
      </g>
      <path class="cls-7" d="M49.91,27.09s.02-.01,.02-.02c0-.01,0-.02-.02-.03-.02,0-.44-.24-.64-.18-.04,.01-.07,.04-.09,.07-.03,.04-.03,.09,0,.12,.05,.07,.2,.08,.35,.08,.13,0,.25-.02,.37-.04Zm-.09-.04c-.21,.04-.52,.04-.58-.03,0-.01-.02-.03,0-.06,.01-.02,.03-.04,.05-.04,.02,0,.04,0,.05,0,.16,.01,.32,.06,.47,.14Z"/>
      <path class="cls-7" d="M49.92,27.09s.01-.02,.01-.03c-.02-.17-.08-.33-.2-.45-.04-.04-.1-.05-.16-.05-.08,0-.1,.05-.1,.08-.02,.14,.27,.39,.42,.45h.03Zm-.21-.43c.09,.1,.15,.23,.17,.36-.15-.09-.35-.28-.34-.36,0,0,0-.03,.06-.03h.02s.07,0,.09,.02h0Z"/>
      <path class="cls-15" d="M50.02,26.92l1.3-.03s.09,.03,.1,.08l.26,1.05c.02,.09-.04,.19-.13,.21-.01,0-.02,0-.03,0h-1.74c-.69,.02-1.29,.07-2.09,.09-.49,.01-.64-.48-.43-.53,.93-.23,1.69-.27,2.48-.78,.08-.05,.18-.09,.28-.09Z"/>
      <path class="cls-3" d="M57.8,9.6l-6.79,2.16s-1.2-1.17-2.86-2.48c-.32-.25-.64-.5-.99-.75-.48-.35-.99-.7-1.5-1.02,0,0,1.87-4.39,4.24-4.78,0,0,6.12,1.85,7.9,6.86Z"/>
      <path class="cls-10" d="M48.16,9.29c-.32-.25-.64-.5-.99-.75l.13-.4c.36,.32,.65,.71,.86,1.15Z"/>
      <path class="cls-14" d="M38.35,13.77l-.47,.11c-.12,.03-.21,.12-.23,.24l-.11,.64c-.02,.14,.05,.27,.18,.32l.34,.14s.99,.71,1.82,.25l-.36-.95-.71-.64c-.13-.11-.31-.15-.48-.11Z"/>
      <path class="cls-7" d="M46.87,7.71c.37,.25,.6,.66,.64,1.1,0,0-.47,1.29-.74,1.92-.19,.43-.38,.86-.61,1.29-.23,.47-.51,.92-.83,1.33l-.08,.09-.09,.09c-.07,.07-.14,.14-.21,.2-.05,.04-.09,.07-.14,.11-.05,.03-.12,.08-.14,.09l-.18,.09c-.24,.12-.46,.21-.68,.3-.44,.18-.88,.34-1.32,.49-.88,.29-1.75,.56-2.65,.79l-.43-1.15c.8-.41,1.62-.8,2.42-1.2,.4-.2,.8-.4,1.18-.6,.19-.1,.38-.21,.54-.3l.12-.07s0,0,0,0c0,0-.02,.01,0,0,.02-.01,.02-.02,.03-.04l.03-.03,.03-.05c.21-.32,.39-.66,.54-1.02,.17-.39,.34-.79,.5-1.2,.31-.82,.61-1.66,.89-2.49,.41-.06,.82,.04,1.17,.27Z"/>
      <path class="cls-3" d="M46.87,7.71c.37,.25,.6,.66,.64,1.1,0,0-.47,1.29-.74,1.92-.19,.43-.38,.86-.61,1.29-.23,.47-.51,.92-.83,1.33l-.08,.09-.09,.09c-.07,.07-.14,.14-.21,.2-.05,.04-.09,.07-.14,.11-.05,.03-.12,.08-.14,.09l-.18,.09c-.24,.12-.46,.21-.68,.3-.44,.18-.88,.34-1.32,.49-.88,.29-1.75,.56-2.65,.79l-.43-1.15c.8-.41,1.62-.8,2.42-1.2,.4-.2,.8-.4,1.18-.6,.19-.1,.38-.21,.54-.3l.12-.07s0,0,0,0c0,0-.02,.01,0,0,.02-.01,.02-.02,.03-.04l.03-.03,.03-.05c.21-.32,.39-.66,.54-1.02,.17-.39,.34-.79,.5-1.2,.31-.82,.61-1.66,.89-2.49,.41-.06,.82,.04,1.17,.27Z"/>
    </g>
    <g>
      <polygon class="cls-11" points="7.64 64.63 43.87 64.63 63.04 49.14 63.89 50.18 68.61 50.18 73.42 28.03 68.69 28.04 68.7 28.03 46.03 28.08 48.74 31.43 7.64 64.63"/>
      <polygon class="cls-5" points="7.64 64.63 39.15 64.63 61.18 46.83 63.89 50.18 68.7 28.03 46.03 28.08 48.74 31.43 7.64 64.63"/>
      <path class="cls-11" d="M6.9,63.35h26.01c-.01-.11-.02-.22-.02-.33,0-1.67,1.35-3.02,3.02-3.02h.11c.52-1.38,2.06-2.09,3.44-1.57,1.05,.39,1.74,1.39,1.74,2.51h0c1.31,.06,2.36,1.11,2.43,2.42h.12c.74-.03,1.37,.55,1.4,1.29,.03,.74-.55,1.37-1.29,1.4-.04,0-.07,0-.11,0H6.9c-.74,.03-1.37-.55-1.4-1.29-.03-.74,.55-1.37,1.29-1.4,.04,0,.07,0,.11,0h0Z"/>
      <path class="cls-3" d="M6.9,63.35h26.01c-.01-.11-.02-.22-.02-.33,0-1.67,1.35-3.02,3.02-3.02h.11c.52-1.38,2.06-2.09,3.44-1.57,1.05,.39,1.74,1.39,1.74,2.51h0c1.31,.06,2.36,1.11,2.43,2.42h.12c.74-.03,1.37,.55,1.4,1.29,.03,.74-.55,1.37-1.29,1.4-.04,0-.07,0-.11,0H6.9c-.74,.03-1.37-.55-1.4-1.29-.03-.74,.55-1.37,1.29-1.4,.04,0,.07,0,.11,0h0Z"/>
    </g>
  </g>
</svg>