<?xml version="1.0" encoding="UTF-8"?>
<svg xmlns="http://www.w3.org/2000/svg" xmlns:xlink="http://www.w3.org/1999/xlink" viewBox="0 0 101.5 87.37">
  <defs>
    <style>
      .cls-1 {
        fill: #22abbf;
      }

      .cls-2 {
        fill: url(#linear-gradient-2);
      }

      .cls-3, .cls-4, .cls-5 {
        fill: #fff;
      }

      .cls-6 {
        fill: #c5c5c5;
      }

      .cls-7 {
        fill: #256f8b;
      }

      .cls-8 {
        fill: #d9a69f;
      }

      .cls-4, .cls-9, .cls-10, .cls-11, .cls-12, .cls-13, .cls-14, .cls-15 {
        fill-rule: evenodd;
      }

      .cls-5 {
        clip-rule: evenodd;
      }

      .cls-16 {
        fill: #b32094;
      }

      .cls-17 {
        isolation: isolate;
      }

      .cls-18 {
        fill: #6979b0;
      }

      .cls-19 {
        opacity: .49;
      }

      .cls-19, .cls-20 {
        mix-blend-mode: multiply;
      }

      .cls-9, .cls-21 {
        fill: #005d8b;
      }

      .cls-10, .cls-22 {
        fill: #004166;
      }

      .cls-23 {
        fill: #613f29;
      }

      .cls-24 {
        fill: #333;
      }

      .cls-25 {
        clip-path: url(#clippath-1);
      }

      .cls-26 {
        fill: #e4cd67;
      }

      .cls-27 {
        fill: #929292;
      }

      .cls-28 {
        fill: #297d9d;
      }

      .cls-29 {
        fill: #42210b;
      }

      .cls-30 {
        fill: #6b1f9d;
      }

      .cls-11 {
        fill: #ffc2af;
      }

      .cls-31 {
        fill: #1491bc;
      }

      .cls-32 {
        fill: #e9b7ad;
      }

      .cls-33 {
        fill: #46497f;
      }

      .cls-34 {
        fill: #0e849f;
      }

      .cls-35 {
        fill: #e5ba95;
      }

      .cls-36 {
        fill: #cbe6e9;
      }

      .cls-37 {
        fill: #1c536d;
      }

      .cls-38 {
        fill: #473f65;
      }

      .cls-39 {
        fill: url(#linear-gradient-5);
      }

      .cls-40, .cls-15 {
        fill: #26bfd5;
      }

      .cls-41 {
        fill: #5d5d5d;
      }

      .cls-42 {
        clip-path: url(#clippath);
      }

      .cls-20 {
        opacity: .15;
      }

      .cls-20, .cls-43 {
        fill: #2e84af;
      }

      .cls-44 {
        fill: #ebebeb;
      }

      .cls-12 {
        fill: #ffb29d;
      }

      .cls-45 {
        fill: #da52b8;
      }

      .cls-46 {
        fill: #e280c9;
      }

      .cls-47 {
        fill: #744c31;
      }

      .cls-48 {
        fill: url(#linear-gradient-3);
      }

      .cls-49 {
        fill: #1a1a1a;
      }

      .cls-50 {
        fill: url(#linear-gradient);
      }

      .cls-13, .cls-51 {
        fill: #dfdfdf;
      }

      .cls-52 {
        fill: #acacac;
      }

      .cls-53 {
        fill: url(#linear-gradient-4);
      }

      .cls-54 {
        fill: #d4958d;
      }
    </style>
    <clipPath id="clippath">
      <path class="cls-31" d="M8.47,66.96l4.9,2.85s-.04-.01-.07,0c-.04,0-.07,.02-.1,.03-.03,.01-.06,.02-.09,.03-.06,.02-.11,.05-.16,.07-.11,.05-.21,.11-.32,.16-.21,.11-.42,.23-.63,.35-.15,.08-.3,.17-.44,.25-.27,.16-.54,.31-.81,.47-.78,.46-1.55,.93-2.33,1.41l-4.9-2.85c.78-.48,1.55-.95,2.33-1.41,.27-.16,.54-.32,.81-.47,.15-.09,.3-.17,.44-.25,.21-.12,.42-.23,.63-.35,.11-.06,.21-.11,.32-.16,.05-.03,.11-.05,.16-.07,.03-.01,.06-.02,.09-.03,.03-.01,.06-.02,.1-.03,.03,0,.05,0,.07,0Z"/>
    </clipPath>
    <linearGradient id="linear-gradient" x1="-673.81" y1="37.14" x2="-621" y2="37.14" gradientTransform="translate(722.5)" gradientUnits="userSpaceOnUse">
      <stop offset="0" stop-color="#a4cadb"/>
      <stop offset=".62" stop-color="#84b5cd"/>
      <stop offset=".7" stop-color="#80b2cc"/>
      <stop offset="1" stop-color="#2e84af"/>
    </linearGradient>
    <linearGradient id="linear-gradient-2" x1="47.52" y1="56.17" x2="99.51" y2="56.17" gradientUnits="userSpaceOnUse">
      <stop offset="0" stop-color="#6b1f9d"/>
      <stop offset="1" stop-color="#41166b"/>
    </linearGradient>
    <linearGradient id="linear-gradient-3" y1="34.98" y2="34.98" xlink:href="#linear-gradient-2"/>
    <linearGradient id="linear-gradient-4" x1="48.92" y1="34.89" x2="98.12" y2="34.89" gradientUnits="userSpaceOnUse">
      <stop offset="0" stop-color="#da52b8"/>
      <stop offset="1" stop-color="#6b1f9d"/>
    </linearGradient>
    <linearGradient id="linear-gradient-5" x1="47.84" y1="16.57" y2="16.57" xlink:href="#linear-gradient-2"/>
    <clipPath id="clippath-1">
      <path class="cls-5" d="M49.96,48.32c-.98,.4-2.1,.44-3.09,.04,0,0-.75,.55-.53,3.48,.22,2.92,.45,3.24,.45,3.24,0,0,2.06,.84,3.1,.18,.65-.41,.86-4.78,.64-5.57-.16-.57-.56-1.37-.56-1.37h0Z"/>
    </clipPath>
  </defs>
  <g class="cls-17">
    <g id="Calque_2" data-name="Calque 2">
      <g id="Layer_20" data-name="Layer 20">
        <g id="people_sit" data-name="people sit">
          <polygon class="cls-20" points="23.91 87.37 0 73.56 8.95 68.4 32.86 82.2 23.91 87.37"/>
          <g>
            <rect class="cls-3" x="11.8" y="62.15" width="2.01" height="3.14" transform="translate(13.07 -1.27) rotate(11.6)"/>
            <g class="cls-17">
              <path class="cls-41" d="M4.89,68.5c-.04,.06-.08,.11-.13,.17-.04,.05-.08,.11-.11,.17-.04,.06-.07,.11-.1,.17-.03,.06-.07,.12-.1,.18,0,0,0,.02-.01,.03-.03,.05-.06,.11-.08,.17-.03,.07-.07,.14-.1,.21-.04,.08-.07,.16-.1,.25-.04,.1-.07,.2-.11,.3-.04,.12-.08,.25-.12,.38-.05,.17-.09,.35-.13,.53-.06,.28-.11,.57-.15,.87-.01,.11-.03,.23-.04,.34l-.19,2.83,.38,.22,.19-2.83c.01-.12,.03-.23,.04-.34,.04-.3,.09-.59,.15-.87,.04-.18,.08-.36,.13-.53,.04-.13,.08-.26,.12-.38,.03-.1,.07-.2,.11-.3,.03-.08,.07-.17,.1-.25,.03-.07,.06-.14,.1-.21,.03-.06,.05-.11,.08-.17,0,0,0-.02,.01-.03,.03-.06,.07-.12,.1-.18,.03-.05,.06-.1,.09-.15v-.73c-.04,.05-.08,.1-.13,.15Z"/>
              <path class="cls-6" d="M5.01,69.08c-.07,.11-.14,.23-.21,.36-.42,.8-.7,1.83-.82,3.05l-.19,2.83,.34-.16,.19-2.81c.11-1.08,.34-1.99,.69-2.69v-.57Z"/>
            </g>
            <path class="cls-49" d="M10.13,72.28c.29,.15,.56,.25,.77,.19,.32-.1,.6-.25,.85-.47,.04-.04,.07-.09,.07-.14,0-.11-.09-.17-.25-.21,.32-.11,.6-.15,.83-.07,.05,.02,.09,.05,.11,.09,.11,.23-.17,.43-.44,.62-.39,.29-.9,.49-1.46,.65-.38,.1-.5-.01-.53-.21,0-.06,0-.12,0-.19l.04-.25Z"/>
            <path class="cls-6" d="M7.56,77.46l.34-.16c.08-1.21,.14-3.2,.52-4.6l-.25-.14c-.49,1.56-.52,3.41-.62,4.9Z"/>
            <path class="cls-41" d="M7.19,77.24l.38,.22c.12-1.55,.12-3.49,.67-5.1l-.42-.09c-.52,1.58-.51,3.44-.63,4.97Z"/>
            <path class="cls-41" d="M11.57,69.79s.04,.02,.05,.03c-.02-.01-.04-.02-.05-.03Z"/>
            <path class="cls-38" d="M10.14,69.82h1.49c.13,.73,.28,1.27,.17,2.21-.51,.08-1.03,.39-1.5,.33-.09,0-.17-.07-.17-.16-.06-.86-.06-1.67,.01-2.38Z"/>
            <g class="cls-17">
              <g class="cls-17">
                <path class="cls-31" d="M8.47,66.96l4.9,2.85s-.04-.01-.07,0c-.04,0-.07,.02-.1,.03-.03,.01-.06,.02-.09,.03-.06,.02-.11,.05-.16,.07-.11,.05-.21,.11-.32,.16-.21,.11-.42,.23-.63,.35-.15,.08-.3,.17-.44,.25-.27,.16-.54,.31-.81,.47-.78,.46-1.55,.93-2.33,1.41l-4.9-2.85c.78-.48,1.55-.95,2.33-1.41,.27-.16,.54-.32,.81-.47,.15-.09,.3-.17,.44-.25,.21-.12,.42-.23,.63-.35,.11-.06,.21-.11,.32-.16,.05-.03,.11-.05,.16-.07,.03-.01,.06-.02,.09-.03,.03-.01,.06-.02,.1-.03,.03,0,.05,0,.07,0Z"/>
                <g class="cls-42">
                  <path class="cls-3" d="M5.85,68.32c.27-.16,.54-.32,.81-.47,.15-.09,.3-.17,.44-.25,.21-.12,.42-.23,.63-.35,.11-.06,.21-.11,.32-.16,.05-.03,.11-.05,.16-.07,0,0,0,0,0,0,.03-.01,.06-.02,.08-.03,.02,0,.04-.01,.05-.02,.01,0,.03,0,.05-.01,0,0,0,0,0,0,0,0,0,0,.01,0,0,0,0,0,.01,0,0,0,0,0,.01,0,0,0,0,0,0,0,0,0,0,0,0,0,0,0,0,0,0,0,0,0,0,0,0,0l4.9,2.85s0,0,0,0c0,0,0,0,0,0,0,0,0,0,0,0,0,0,0,0,0,0,0,0,0,0-.01,0,0,0,0,0-.01,0,0,0,0,0-.01,0,0,0,0,0,0,0-.02,0-.03,0-.05,.01-.02,0-.04,.01-.05,.02-.03,.01-.06,.02-.08,.03,0,0,0,0,0,0-.06,.02-.11,.05-.16,.07-.11,.05-.21,.11-.32,.16-.21,.11-.42,.23-.63,.35-.15,.08-.3,.17-.44,.25-.27,.16-.54,.31-.81,.47-.78,.46-1.55,.93-2.33,1.41l-4.9-2.85c.78-.48,1.55-.95,2.33-1.41Z"/>
                </g>
              </g>
              <path class="cls-52" d="M.82,64.31s0-.02,0-.03c0,0,0,0,0,0,0,0,0,0,0-.01,0,0,0,0,0,0,0,0,0,0,0,0,0,0,0,0,0,0,0,0,0,0,0,0,0,0,0,0,0,0,0,0,0,0,0,0,0,0,0,0,0,0,0,0,0,0,0,0,0,0,0,0,0,0,0,0,0,0,0,0,0,0,0,0,0,0,0,0,0,0,0,0,0,0,0,0,0,0,0,0,0,0,0,0,0,0,0,0,0,0,0,0,0,0,0,0,0,0,0,0,0,0,0,0,0,0,0,0,0,0,0,0,0,0,0,0,0,0,0,0,0,0,0,0,0,0,0,0,0,0,0,0,0,0,.02-.01,.02-.02,0,0,0,0,.01,0,0,0,0,0,0,0,0,0,0,0,0,0,0,0,0,0,0,0,0,0,0,0,0,0,0,0,0,0,0,0,0,0,0,0,0,0,0,0,0,0,0,0,0,0,0,0,0,0,0,0,0,0,0,0,0,0,0,0,0,0,0,0,0,0,0,0,0,0,0,0,0,0,0,0,0,0,0,0,0,0,0,0,0,0,0,0,0,0,0,0l4.9,2.85s0,0-.01,0c0,0,0,0,0,0,0,0,0,0-.01,0,0,0,0,0,0,0,0,0,0,0-.01,0,0,0,0,0,0,0,0,0,0,0-.01,0,0,0-.02,.01-.02,.02,0,0-.01,0-.02,.02,0,0,0,.01-.01,.02,0,0,0,0,0,0,0,0,0,.01-.01,.02,0,0,0,0,0,0,0,0,0,.01,0,.02,0,0,0,0,0,0,0,0,0,.01,0,.02,0,0,0,0,0,0,0,0,0,0,0,.01,0,0,0,.02,0,.03,0,0,0,0,0,0,0,0,0,.02,0,.02,.28,.4,.53,.83,.78,1.27,.25,.44,.48,.9,.69,1.37,.21,.47,.41,.97,.57,1.49,.08,.26,.15,.53,.21,.81,.05,.28,.09,.57,.1,.87v.19s-4.89-2.85-4.89-2.85v-.19c0-.3-.05-.59-.1-.87-.05-.28-.13-.55-.21-.81-.16-.52-.36-1.01-.57-1.49-.21-.47-.44-.93-.69-1.37-.25-.44-.51-.86-.78-1.27,0,0,0-.01,0-.02,0,0,0,0,0,0Z"/>
              <path class="cls-51" d="M5.8,67s.06-.02,.07,0c.29,.39,.57,.8,.83,1.23,.26,.43,.51,.87,.74,1.33,.23,.46,.44,.95,.62,1.47,.09,.26,.17,.53,.24,.82,.05,.23,.09,.47,.12,.73,.78-.48,1.55-.95,2.33-1.41,.27-.16,.54-.32,.81-.47,.15-.09,.3-.17,.44-.25,.21-.12,.42-.23,.63-.35,.11-.06,.21-.11,.32-.16,.05-.03,.11-.05,.16-.07,.03-.01,.06-.02,.09-.03,.03-.01,.06-.02,.1-.03,.09-.02,.14,.07,.11,.19-.02,.1-.09,.19-.17,.23-.02,0-.03,.02-.05,.02-.02,0-.04,0-.06,.02-.02,0-.04,.02-.07,.03-.05,.02-.1,.04-.15,.07-.1,.05-.2,.1-.3,.15-.2,.11-.41,.22-.62,.34-.15,.08-.29,.17-.44,.25-.27,.15-.54,.31-.8,.47-.83,.49-1.66,1-2.49,1.51l-.18,.1v-.19c0-.3-.05-.59-.1-.87-.05-.28-.13-.55-.21-.81-.16-.52-.36-1.01-.57-1.49-.21-.47-.44-.93-.69-1.37-.25-.44-.51-.86-.78-1.27-.02-.03,0-.1,.03-.15,.01-.02,.03-.03,.04-.03Z"/>
            </g>
            <g>
              <path class="cls-18" d="M15.02,73.29c-.08,.17-.23,.26-.3,.3-.27,.17-.43,.07-.77,.24-.15,.08-.11,.09-.32,.21-.21,.12-.36,.19-.55,.2-.08,0-.26,0-.43-.11-.05-.04-.1-.08-.13-.12,0,0,0,0,0-.01v-.7c.03-.12,.17-.18,.28-.11,.03,.02,.06,.05,.09,.09,.12,.13,.26,.2,.41,.2,.25-.03,.41-.24,.52-.58,.02-.08,.09-.16,.17-.19,.21-.09,.45-.1,.72-.04,.14,.03,.27,.11,.34,.24,.01,.02,.02,.05,.03,.07,0,.1,0,.21-.06,.31Z"/>
              <path class="cls-33" d="M15.11,73.25c0,.17-.1,.32-.24,.4-.22,.14-.54,.25-.7,.31-.07,.02-.13,.06-.19,.11-.08,.08-.2,.2-.29,.3-.11,.13-.26,.2-.43,.23-.25,.03-.47,0-.67-.12-.09-.11-.12-.27-.09-.47,.03,.04,.08,.08,.13,.12,.17,.12,.35,.11,.43,.11,.2,0,.34-.08,.55-.2,.21-.11,.17-.13,.32-.21,.34-.18,.5-.07,.77-.24,.07-.04,.22-.13,.3-.3,.05-.1,.07-.21,.06-.31,.03,.08,.04,.17,.03,.27Z"/>
            </g>
            <path class="cls-40" d="M13.99,72.12c-.04-.7,.03-.42,0-1.68,0-.13,0-.24-.01-.36-.02-.52-.04-.66-.07-1.14-.05-.87-.08-.91-.12-.97-.21-.3-.6-.35-.7-.37-.18-.02-.35,0-.83,.15-.7,.23-1.5,.58-1.9,.66-.16,.03-.33,.05-.33,.05-.22,.02-.33,0-1.11,.1,0,0-.32,.04-1.67,.26,0,.05,0,.21,.02,.43,.15,.3,.42,.83,.6,1.27,.04,.04,.09,.07,.13,.1,.55,.36,1.18,.2,1.92,.02,.59-.14,1.56-.47,2.61-1.32l.62,.36,.2,.12c.12,.09,0,.36-.14,.43-.33,.13-.61,.27-.91,.43-.29,.16-.02,.68-.04,1.03-.03,.57-.07,1.12-.12,1.66,.15,.08,.54,.27,1.03,.2,.17-.03,.53-.08,.73-.35,.18-.25,.1-.5,.07-1.08Z"/>
            <g>
              <path class="cls-6" d="M12.32,70.66l-.36,.21c.14,.31,.24,.73,.25,1.27l-.02,2.72,.34-.19c-.06-.94,.21-2.87-.21-4Z"/>
              <path class="cls-41" d="M11.94,70.87l-.25,.15c.29,1.12,.07,2.81,.12,3.62l.38,.22c-.06-.91,.22-2.91-.24-3.99Z"/>
            </g>
            <g>
              <path class="cls-8" d="M7.13,65.04c-.01,.06-.11,.69,.33,1.09,.33,.3,.92,.43,1.12,.18,.18-.23-.06-.68-.08-.73-.46-.18-.91-.36-1.37-.54Z"/>
              <path class="cls-26" d="M10.51,66.98c-.33,.08-.67,.13-1,.13-.02,0-.05,0-.07,0-.47,0-.94-.1-1.38-.27,.01-.02,.02-.04,.03-.06,.03-.05,.04-.11,.05-.17,0-.06,0-.11,0-.17,.34,.14,.79,.26,1.31,.27,.33,0,.67-.03,.99-.12,.01,.07,.02,.14,.04,.21l.04,.17Z"/>
              <path class="cls-32" d="M9.85,59.63c.07,.14,.29,.58,.19,1.17-.11,.63-.51,1-.63,1.09-.34-.32-.69-.65-1.03-.97,.1-.41,.21-.82,.31-1.23l1.15-.06Z"/>
              <path class="cls-3" d="M10.63,67.58c-.02-.24-.05-.5-.09-.79-.04-.23-.09-.44-.14-.63l-.04-1.86-.99-1.32-1.7,1.13c.4,1.05,.37,1.49,.24,1.7-.03,.06-.15,.21-.16,.43-.02,.2,.05,.28,.05,.45,0,.27-.17,.46-.25,.56-.18,.23-.34,.68-.29,1.58-.03,.22,0,.36,.05,.46,.04,.1,.09,.15,.17,.31,.06,.11,.1,.21,.12,.28,.43-.03,1.01-.1,1.66-.32,.66-.22,1.17-.51,1.54-.75-.05-.41-.1-.82-.15-1.23Z"/>
              <path class="cls-32" d="M9.57,63.75l1.38,2.41c.18,.32,.61,.39,.88,.15,.37-.32,.8-.69,.84-.71,.07-.04,.66-.74,.66-.74,.24-.1,.45-.21,.61-.34,.25-.2,.37-.52,.32-.84v-.07c-.02-.06-.06-.1-.12-.11-.13,0-.26,.13-.39,.35v-.24c.02-.09-.1-.14-.16-.07l-.21,.22-.16,.11c-.1,.06-.16,.16-.19,.27l-.03,.11-1.04,.76c-.11,.08-.26,.04-.31-.08l-.98-2.13c-.14-.3-.47-.47-.79-.42l-.93,.16,.63,1.18Z"/>
              <path class="cls-49" d="M8.43,58.31c-.14,.02-.61,.1-.94,.48-.37,.43-.38,1-.38,1.45,0,.58,.14,.63,.03,.91-.17,.41-.66,.78-.81,.89-.18,.13-.29,.19-.35,.34-.1,.25,.04,.54,.11,.67,.17,.34,.32,.33,.35,.51,.05,.36-.57,.54-.67,.94-.14,.54,.44,1.28,1.05,1.45,.12,.04,.07,0,.69,.04,.78,.05,.87,.12,1.09,.04,.26-.1,.56-.34,.65-.67,.1-.37-.13-.6,.05-.93,.05-.09,.06-.06,.27-.31,.28-.32,.42-.47,.47-.61,.1-.33-.18-.42-.24-.97-.06-.53,.19-.64,.05-1.04-.12-.34-.34-.35-.35-.62-.01-.26,.2-.33,.4-.74,.1-.21,.31-.62,.17-1.04-.14-.43-.57-.63-.73-.7-.07-.03-.44-.2-.93-.12Z"/>
            </g>
          </g>
          <g>
            <g>
              <g class="cls-17">
                <path class="cls-41" d="M12.72,73.04c-.04,.06-.08,.11-.13,.17-.04,.05-.08,.11-.11,.17-.04,.06-.07,.11-.1,.17-.03,.06-.07,.12-.1,.18,0,0,0,.02-.01,.03-.03,.05-.06,.11-.08,.17-.03,.07-.07,.14-.1,.21-.04,.08-.07,.16-.1,.25-.04,.1-.07,.2-.11,.3-.04,.12-.08,.25-.12,.38-.05,.17-.09,.35-.13,.53-.06,.28-.11,.57-.15,.87-.01,.11-.03,.23-.04,.34l-.19,2.83,.38,.22,.19-2.83c.01-.12,.03-.23,.04-.34,.04-.3,.09-.59,.15-.87,.04-.18,.08-.36,.13-.53,.04-.13,.08-.26,.12-.38,.03-.1,.07-.2,.11-.3,.03-.08,.07-.17,.1-.25,.03-.07,.06-.14,.1-.21,.03-.06,.05-.11,.08-.17,0,0,0-.02,.01-.03,.03-.06,.07-.12,.1-.18,.03-.05,.06-.1,.09-.15v-.73c-.04,.05-.08,.1-.13,.15Z"/>
                <path class="cls-6" d="M12.85,73.62c-.07,.11-.14,.23-.21,.36-.42,.8-.7,1.83-.82,3.05l-.19,2.83,.34-.16,.19-2.81c.11-1.08,.34-1.99,.69-2.69v-.57Z"/>
              </g>
              <path class="cls-6" d="M15.4,82l.34-.16c.08-1.21,.14-3.2,.52-4.6l-.25-.14c-.49,1.56-.52,3.41-.62,4.9Z"/>
              <path class="cls-41" d="M15.02,81.78l.38,.22c.12-1.55,.12-3.49,.67-5.1l-.42-.09c-.52,1.58-.51,3.44-.63,4.97Z"/>
              <path class="cls-41" d="M19.41,74.33s.04,.02,.05,.03c-.02-.01-.04-.02-.05-.03Z"/>
              <g>
                <path class="cls-24" d="M20.52,76.61c-.08,.17-.23,.26-.3,.3-.27,.17-.43,.07-.77,.24-.15,.08-.11,.09-.32,.21-.21,.12-.36,.19-.55,.2-.08,0-.26,0-.43-.11-.05-.04-.1-.08-.13-.12,0,0,0,0,0-.01v-.7c.03-.12,.17-.18,.28-.11,.03,.02,.06,.05,.09,.09,.12,.13,.26,.2,.41,.2,.25-.03,.41-.24,.52-.58,.02-.08,.09-.16,.17-.19,.21-.09,.45-.1,.72-.04,.14,.03,.27,.11,.34,.24,.01,.02,.02,.05,.03,.07,0,.1,0,.21-.06,.31Z"/>
                <path class="cls-33" d="M20.62,76.57c0,.17-.1,.32-.24,.4-.22,.14-.54,.25-.7,.31-.07,.02-.13,.06-.19,.11-.08,.08-.2,.2-.29,.3-.11,.13-.26,.2-.43,.23-.25,.03-.47,0-.67-.12-.09-.11-.12-.27-.09-.47,.03,.04,.08,.08,.13,.12,.17,.12,.35,.11,.43,.11,.2,0,.34-.08,.55-.2,.21-.11,.17-.13,.32-.21,.34-.18,.5-.07,.77-.24,.07-.04,.22-.13,.3-.3,.05-.1,.07-.21,.06-.31,.03,.08,.04,.17,.03,.27Z"/>
              </g>
              <path class="cls-21" d="M17.97,74.36h1.49c.13,.73,.28,1.27,.17,2.21-.51,.08-1.03,.39-1.5,.33-.09,0-.17-.07-.17-.16-.06-.86-.06-1.67,.01-2.38Z"/>
              <g class="cls-17">
                <path class="cls-3" d="M11.35,74.27c.39-.24,.78-.48,1.16-.71s.78-.47,1.16-.7c.27-.16,.54-.32,.81-.47,.15-.09,.3-.17,.44-.25,.21-.12,.42-.23,.63-.35,.11-.06,.21-.11,.32-.16,.05-.03,.11-.05,.16-.07h0s.01,0,.02,0c0,0,.01,0,.02,0,.01,0,.03-.01,.04-.02,.02,0,.03-.01,.05-.02,0,0,0,0,0,0,.01,0,.03,0,.05-.01,0,0,0,0,0,0,0,0,0,0,.01,0,0,0,0,0,.01,0,0,0,0,0,0,0,0,0,0,0,0,0,0,0,0,0,0,0,0,0,0,0,0,0,0,0,0,0,0,0,0,0,0,0,0,0,0,0,0,0,0,0l4.9,2.85s-.02,0-.03-.01c0,0,0,0,0,0-.01,0-.02,0-.04,0-.02,0-.03,0-.05,.01-.02,0-.04,.01-.05,.02-.02,0-.03,.01-.04,.02,0,0-.01,0-.02,0,0,0-.02,0-.03,.01-.06,.02-.11,.05-.16,.07-.11,.05-.21,.11-.32,.16-.21,.11-.42,.23-.63,.35-.15,.08-.3,.17-.44,.25-.27,.16-.54,.31-.81,.47-.78,.46-1.55,.93-2.33,1.41l-4.9-2.85h0Z"/>
                <path class="cls-52" d="M8.66,68.85s0-.02,0-.03c0,0,0,0,0,0,0,0,0,0,0-.01,0,0,0,0,0,0,0,0,0,0,0,0,0,0,0,0,0,0,0,0,0,0,0,0,0,0,0,0,0,0,0,0,0,0,0,0,0,0,0,0,0,0,0,0,0,0,0,0,0,0,0,0,0,0,0,0,0,0,0,0,0,0,0,0,0,0,0,0,0,0,0,0,0,0,0,0,0,0,0,0,0,0,0,0,0,0,0,0,0,0,0,0,0,0,0,0,0,0,0,0,0,0,0,0,0,0,0,0,0,0,0,0,0,0,0,0,0,0,0,0,0,0,0,0,0,0,0,0,0,0,0,0,0,0,.02-.01,.02-.02,0,0,0,0,.01,0,0,0,0,0,0,0,0,0,0,0,0,0,0,0,0,0,0,0,0,0,0,0,0,0,0,0,0,0,0,0,0,0,0,0,0,0,0,0,0,0,0,0,0,0,0,0,0,0,0,0,0,0,0,0,0,0,0,0,0,0,0,0,0,0,0,0,0,0,0,0,0,0,0,0,0,0,0,0,0,0,0,0,0,0,0,0,0,0,0,0l4.9,2.85s0,0,0,0h0s0,0-.01,0c0,0,0,0,0,0,0,0,0,0-.01,0,0,0,0,0,0,0,0,0,0,0-.01,0,0,0,0,0,0,0,0,0,0,0-.01,0,0,0-.02,.01-.02,.02,0,0-.01,0-.02,.02,0,0,0,.01-.01,.02,0,0,0,0,0,0,0,0,0,.01-.01,.02,0,0,0,0,0,0,0,0,0,.01,0,.02,0,0,0,0,0,0,0,0,0,.01,0,.02,0,0,0,0,0,0,0,0,0,0,0,.01,0,0,0,.02,0,.03,0,0,0,0,0,0,0,0,0,.02,0,.02,.28,.4,.53,.83,.78,1.27,.25,.44,.48,.9,.69,1.37,.21,.47,.41,.97,.57,1.49,.08,.26,.15,.53,.21,.81,.05,.28,.09,.57,.1,.87v.19s-4.89-2.85-4.89-2.85v-.19c0-.3-.05-.59-.1-.87-.05-.28-.13-.55-.21-.81-.16-.52-.36-1.01-.57-1.49-.21-.47-.44-.93-.69-1.37-.25-.44-.51-.86-.78-1.27,0,0,0-.01,0-.02,0,0,0,0,0,0Z"/>
                <path class="cls-51" d="M13.64,71.54s.06-.02,.07,0c.29,.39,.57,.8,.83,1.23,.26,.43,.51,.87,.74,1.33,.23,.46,.44,.95,.62,1.47,.09,.26,.17,.53,.24,.82,.05,.23,.09,.47,.12,.73,.78-.48,1.55-.95,2.33-1.41,.27-.16,.54-.32,.81-.47,.15-.09,.3-.17,.44-.25,.21-.12,.42-.23,.63-.35,.11-.06,.21-.11,.32-.16,.05-.03,.11-.05,.16-.07,.03-.01,.06-.02,.09-.03,.03-.01,.06-.02,.1-.03,.09-.02,.14,.07,.11,.19-.02,.1-.09,.19-.17,.23-.02,0-.03,.02-.05,.02-.02,0-.04,0-.06,.02-.02,0-.04,.02-.07,.03-.05,.02-.1,.04-.15,.07-.1,.05-.2,.1-.3,.15-.2,.11-.41,.22-.62,.34-.15,.08-.29,.17-.44,.25-.27,.15-.54,.31-.8,.47-.83,.49-1.66,1-2.49,1.51l-.18,.1v-.19c0-.3-.05-.59-.1-.87-.05-.28-.13-.55-.21-.81-.16-.52-.36-1.01-.57-1.49-.21-.47-.44-.93-.69-1.37-.25-.44-.51-.86-.78-1.27-.02-.03,0-.1,.03-.15,.01-.02,.03-.03,.04-.03Z"/>
              </g>
              <g>
                <path class="cls-18" d="M22.85,77.83c-.08,.17-.23,.26-.3,.3-.27,.17-.43,.07-.77,.24-.15,.08-.11,.09-.32,.21-.21,.12-.36,.19-.55,.2-.08,0-.26,0-.43-.11-.05-.04-.1-.08-.13-.12,0,0,0,0,0-.01v-.7c.03-.12,.17-.18,.28-.11,.03,.02,.06,.05,.09,.09,.12,.13,.26,.2,.41,.2,.25-.03,.41-.24,.52-.58,.02-.08,.09-.16,.17-.19,.21-.09,.45-.1,.72-.04,.14,.03,.27,.11,.34,.24,.01,.02,.02,.05,.03,.07,0,.1,0,.21-.06,.31Z"/>
                <path class="cls-33" d="M22.95,77.79c0,.17-.1,.32-.24,.4-.22,.14-.54,.25-.7,.31-.07,.02-.13,.06-.19,.11-.08,.08-.2,.2-.29,.3-.11,.13-.26,.2-.43,.23-.25,.03-.47,0-.67-.12-.09-.11-.12-.27-.09-.47,.03,.04,.08,.08,.13,.12,.17,.12,.35,.11,.43,.11,.2,0,.34-.08,.55-.2,.21-.11,.17-.13,.32-.21,.34-.18,.5-.07,.77-.24,.07-.04,.22-.13,.3-.3,.05-.1,.07-.21,.06-.31,.03,.08,.04,.17,.03,.27Z"/>
              </g>
              <path class="cls-21" d="M21.82,76.66c-.04-.7,.03-.42,0-1.68,0-.13,0-.24-.01-.36-.02-.52-.04-.66-.07-1.14-.05-.87-.08-.91-.12-.97-.21-.3-.6-.35-.7-.37-.18-.02-.35,0-.83,.15-.7,.23-1.5,.58-1.9,.66-.16,.03-.33,.05-.33,.05-.22,.02-.33,0-1.11,.1,0,0-.32,.04-1.67,.26,0,.05,0,.21,.02,.43,.15,.3,.42,.83,.6,1.27,.04,.04,.09,.07,.13,.1,.55,.36,1.18,.2,1.92,.02,.59-.14,1.56-.47,2.61-1.32l.62,.36,.2,.12c.12,.09,0,.36-.14,.43-.33,.13-.61,.27-.91,.43-.29,.16-.02,.68-.04,1.03-.03,.57-.07,1.12-.12,1.66,.15,.08,.54,.27,1.03,.2,.17-.03,.53-.08,.73-.35,.18-.25,.1-.5,.07-1.08Z"/>
              <g>
                <path class="cls-6" d="M20.15,75.2l-.36,.21c.14,.31,.24,.73,.25,1.27l-.02,2.72,.34-.19c-.06-.94,.21-2.87-.21-4Z"/>
                <path class="cls-41" d="M19.78,75.41l-.25,.15c.29,1.12,.07,2.81,.12,3.62l.38,.22c-.06-.91,.22-2.91-.24-3.99Z"/>
              </g>
            </g>
            <g>
              <path class="cls-7" d="M15.51,70.82l.73,2.22c-.09,.27-.35,.43-.79,.45l-1.12-2.77c-.08-.21-.1-.44-.04-.65l.7-2.68c.08-.29,.47-.54,.74-.43l.59,.25-.83,3.04c-.05,.19-.05,.4,.01,.58Z"/>
              <path class="cls-40" d="M19,73.75c.04-.68,.07-1.38,.07-2.11,.01-1.22-.03-2.38-.11-3.46l-.92-.69c-.07-.05-.16-.08-.25-.08h-.78c-.21,0-.4-.13-.46-.31l-.08-.22c-.03-.08-.11-.13-.2-.13h-.37c-.34,0-.65,.16-.82,.44-.12,.21-.17,.46-.14,.76l.3,2.4c-.12,.51-.22,1.15-.23,1.88-.01,.61,.03,1.15,.1,1.6,.24,.18,.84,.57,1.7,.62,1.17,.07,1.98-.54,2.19-.7Z"/>
              <g>
                <path class="cls-32" d="M18.76,66.03l-.19,.52v.02c-.04,.09-.13,.15-.23,.15h-.14c-.09,0-.16,.04-.22,.1-.04,.04-.07,.1-.08,.16l-.05,.33v.14c-.55,.05-1.04-.05-1.44-.34l.04-.45v-.12s.03-.14,.03-.14l.34-1.91,1.61-.13,.1,.14s.02,.03,.03,.05c.04,.07,.06,.14,.07,.21l.05,.46,.09,.54c.01,.09,0,.18-.02,.26Z"/>
                <path class="cls-54" d="M18.58,66.55v.02c-.04,.09-.13,.15-.23,.15h-.14c-.09,0-.16,.04-.22,.1,.02-.05,.05-.09,.1-.13,.11-.08,.22-.03,.36-.08,.04-.01,.08-.03,.12-.06Z"/>
                <path class="cls-29" d="M18.67,64.31c-.13,.3-.19,.66-.2,.88l-.19,.1c-.06,.03-.09,.1-.08,.16l.05,.24v.03s-.05,.08-.09,.07h0c-.06-.02-.11-.06-.14-.11l-.03-.05c-.03-.05-.09-.08-.16-.08h-.06c-.06,0-.12,.04-.14,.1l-.09,.28s-.03,.08-.06,.11l-.16,.17c-.07,.08-.18,.13-.28,.13l-.51,.05-.23-.57h0c-.08-.13-.13-.28-.14-.43l.11-.47c.04-.82,.86-1.04,2.28-.87,.12,.01,.2,.15,.15,.26Z"/>
                <g>
                  <path class="cls-54" d="M17.63,65.69c.03,.08,.05,.15,.07,.22,.02,.07,.05,.13,.08,.19,.02,.03,.03,.06,.05,.08,0,0,.01,.01,.02,.02,0,0,.02,0,.03,0,.02,0,.06,0,.09-.02,.03-.01,.06-.04,.1-.06,0,.04-.03,.08-.05,.11-.03,.03-.06,.06-.11,.08-.03,0-.05,.01-.08,0-.03,0-.06-.02-.08-.04-.04-.04-.06-.07-.08-.11-.04-.07-.06-.16-.07-.24,0-.08,0-.16,.04-.24Z"/>
                  <path class="cls-54" d="M17.84,65.64c-.07,.03-.06,.17-.06,.19,0,.03,0,.12,.08,.17,.01,0,.04,.03,.09,.03,0,0,.05,0,.06-.04,.01-.03-.01-.09-.04-.1-.01,0-.02,0-.03-.02,0,0,0-.02,0-.03,.01-.02,.04-.01,.05-.03,0-.02,0-.04-.02-.09-.02-.04-.02-.06-.04-.07-.02-.02-.06-.02-.08-.01Z"/>
                </g>
              </g>
              <g>
                <g>
                  <polygon class="cls-34" points="19.07 69.14 21.32 67.84 22.83 69.22 20.5 70.63 19.07 69.14"/>
                  <polygon class="cls-36" points="19.22 69.16 21.3 67.96 22.67 69.21 20.52 70.51 19.22 69.16"/>
                </g>
                <path class="cls-32" d="M20.73,70.37l.07-.03c.11-.05,.19-.13,.26-.23l.31-.49h0s.1-.03,.11,.03h0c0,.07,0,.15-.01,.22v.09s.03,.08,.07,.06l.52-.31v.4c0,.18-.11,.34-.27,.41l-.91,.39-.15-.54Z"/>
                <path class="cls-7" d="M20.77,70.22c.21,.14,.27,.43,.3,.76-.52,.41-1.3,.93-2.15,1.48-.37,.24-.86,.08-1.01-.33-.13-.36-.2-.73-.25-1.11-.06-.96-.23-1.97,.16-2.71l.1-.15c.19-.28,.61-.29,.91-.12,.18,.1,.29,.29,.31,.49h0c.01,.13,.02,.26,0,.39l-.13,1.93c.63-.31,1.24-.58,1.77-.63Z"/>
              </g>
              <path class="cls-44" d="M16.5,66.62c-.07,.2,.07,.38,.33,.5,.31,.09,.67,.1,1.05,.07,.04,0,.07,.02,.08,.06l.06,.24c-.46,.11-.89,.08-1.29-.06-.2-.08-.32-.19-.37-.33-.03-.08-.03-.16,0-.24,.03-.08,.07-.19,.14-.23Z"/>
            </g>
          </g>
          <g>
            <g>
              <g class="cls-17">
                <path class="cls-41" d="M20.76,77.75c-.04,.06-.08,.11-.13,.17-.04,.05-.08,.11-.11,.17-.04,.06-.07,.11-.1,.17-.03,.06-.07,.12-.1,.18,0,0,0,.02-.01,.03-.03,.05-.06,.11-.08,.17-.03,.07-.07,.14-.1,.21-.04,.08-.07,.16-.1,.25-.04,.1-.07,.2-.11,.3-.04,.12-.08,.25-.12,.38-.05,.17-.09,.35-.13,.53-.06,.28-.11,.57-.15,.87-.01,.11-.03,.23-.04,.34l-.19,2.83,.38,.22,.19-2.83c.01-.12,.03-.23,.04-.34,.04-.3,.09-.59,.15-.87,.04-.18,.08-.36,.13-.53,.04-.13,.08-.26,.12-.38,.03-.1,.07-.2,.11-.3,.03-.08,.07-.17,.1-.25,.03-.07,.06-.14,.1-.21,.03-.06,.05-.11,.08-.17,0,0,0-.02,.01-.03,.03-.06,.07-.12,.1-.18,.03-.05,.06-.1,.09-.15v-.73c-.04,.05-.08,.1-.13,.15Z"/>
                <path class="cls-6" d="M20.89,78.33c-.07,.11-.14,.23-.21,.36-.42,.8-.7,1.83-.82,3.05l-.19,2.83,.34-.16,.19-2.81c.11-1.08,.34-1.99,.69-2.69v-.57Z"/>
              </g>
              <path class="cls-6" d="M23.44,86.71l.34-.16c.08-1.21,.14-3.2,.52-4.6l-.25-.14c-.49,1.56-.52,3.41-.62,4.9Z"/>
              <path class="cls-41" d="M23.06,86.49l.38,.22c.12-1.55,.12-3.49,.67-5.1l-.42-.09c-.52,1.58-.51,3.44-.63,4.97Z"/>
              <path class="cls-41" d="M27.45,79.04s.04,.02,.05,.03c-.02-.01-.04-.02-.05-.03Z"/>
              <g>
                <path class="cls-18" d="M28.57,81.32c-.08,.17-.23,.26-.3,.3-.27,.17-.43,.07-.77,.24-.15,.08-.11,.09-.32,.21-.21,.12-.36,.19-.55,.2-.08,0-.26,0-.43-.11-.05-.04-.1-.08-.13-.12,0,0,0,0,0-.01v-.7c.03-.12,.17-.18,.28-.11,.03,.02,.06,.05,.09,.09,.12,.13,.26,.2,.41,.2,.25-.03,.41-.24,.52-.58,.02-.08,.09-.16,.17-.19,.21-.09,.45-.1,.72-.04,.14,.03,.27,.11,.34,.24,.01,.02,.02,.05,.03,.07,0,.1,0,.21-.06,.31Z"/>
                <path class="cls-33" d="M28.66,81.29c0,.17-.1,.32-.24,.4-.22,.14-.54,.25-.7,.31-.07,.02-.13,.06-.19,.11-.08,.08-.2,.2-.29,.3-.11,.13-.26,.2-.43,.23-.25,.03-.47,0-.67-.12-.09-.11-.12-.27-.09-.47,.03,.04,.08,.08,.13,.12,.17,.12,.35,.11,.43,.11,.2,0,.34-.08,.55-.2,.21-.11,.17-.13,.32-.21,.34-.18,.5-.07,.77-.24,.07-.04,.22-.13,.3-.3,.05-.1,.07-.21,.06-.31,.03,.08,.04,.17,.03,.27Z"/>
              </g>
              <path class="cls-22" d="M26.01,79.07h1.49c.13,.73,.28,1.27,.17,2.21-.51,.08-1.03,.39-1.5,.33-.09,0-.17-.07-.17-.16-.06-.86-.06-1.67,.01-2.38Z"/>
              <g class="cls-17">
                <path class="cls-3" d="M19.39,78.98c.39-.24,.78-.48,1.16-.71,.39-.24,.78-.47,1.16-.7,.27-.16,.54-.32,.81-.47,.15-.09,.3-.17,.44-.25,.21-.12,.42-.23,.63-.35,.11-.06,.21-.11,.32-.16,.05-.03,.11-.05,.16-.07,0,0,0,0,0,0,0,0,.02,0,.02,0,0,0,.01,0,.02,0,.01,0,.03-.01,.04-.02,.02,0,.03-.01,.05-.02,0,0,0,0,0,0,.01,0,.03,0,.05-.01,0,0,0,0,0,0,0,0,0,0,.01,0,0,0,0,0,.01,0,0,0,0,0,0,0,0,0,0,0,0,0,0,0,0,0,0,0,0,0,0,0,0,0,0,0,0,0,0,0,0,0,0,0,0,0,0,0,0,0,0,0l4.9,2.85s-.02,0-.03-.01c0,0,0,0,0,0-.01,0-.02,0-.04,0-.02,0-.03,0-.05,.01-.02,0-.04,.01-.05,.02-.02,0-.03,.01-.04,.02,0,0-.01,0-.02,0,0,0-.02,0-.03,.01-.06,.02-.11,.05-.16,.07-.11,.05-.21,.11-.32,.16-.21,.11-.42,.23-.63,.35-.15,.08-.3,.17-.44,.25-.27,.16-.54,.31-.81,.47-.78,.46-1.55,.93-2.33,1.41l-4.9-2.85h0Z"/>
                <polygon class="cls-27" points="23.95 82.43 19.06 79.59 19.06 79.39 23.95 82.24 23.95 82.43"/>
                <path class="cls-52" d="M16.7,73.56s0-.02,0-.03c0,0,0,0,0,0,0,0,0,0,0-.01,0,0,0,0,0,0,0,0,0,0,0,0,0,0,0,0,0,0,0,0,0,0,0,0,0,0,0,0,0,0,0,0,0,0,0,0,0,0,0,0,0,0,0,0,0,0,0,0,0,0,0,0,0,0,0,0,0,0,0,0,0,0,0,0,0,0,0,0,0,0,0,0,0,0,0,0,0,0,0,0,0,0,0,0,0,0,0,0,0,0,0,0,0,0,0,0,0,0,0,0,0,0,0,0,0,0,0,0,0,0,0,0,0,0,0,0,0,0,0,0,0,0,0,0,0,0,0,0,0,0,0,0,0,0,.02-.01,.02-.02,0,0,0,0,.01,0,0,0,0,0,0,0,0,0,0,0,0,0,0,0,0,0,0,0,0,0,0,0,0,0,0,0,0,0,0,0,0,0,0,0,0,0,0,0,0,0,0,0,0,0,0,0,0,0,0,0,0,0,0,0,0,0,0,0,0,0,0,0,0,0,0,0,0,0,0,0,0,0,0,0,0,0,0,0,0,0,0,0,0,0,0,0,0,0,0,0l4.9,2.85s0,0-.01,0c0,0,0,0,0,0,0,0,0,0-.01,0,0,0,0,0,0,0,0,0,0,0-.01,0,0,0,0,0,0,0,0,0,0,0-.01,0,0,0-.02,.01-.02,.02,0,0-.01,0-.02,.02,0,0,0,.01-.01,.02,0,0,0,0,0,0,0,0,0,.01-.01,.02,0,0,0,0,0,0,0,0,0,.01,0,.02,0,0,0,0,0,0,0,0,0,.01,0,.02,0,0,0,0,0,0,0,0,0,0,0,.01,0,0,0,.02,0,.03,0,0,0,0,0,0,0,0,0,.02,0,.02,.28,.4,.53,.83,.78,1.27,.25,.44,.48,.9,.69,1.37,.21,.47,.41,.97,.57,1.49,.08,.26,.15,.53,.21,.81,.05,.28,.09,.57,.1,.87l-4.9-2.85c0-.3-.04-.59-.1-.87-.05-.28-.13-.55-.21-.81-.16-.52-.36-1.01-.57-1.49-.21-.47-.44-.93-.69-1.37-.25-.44-.51-.86-.78-1.27,0,0,0-.01,0-.02,0,0,0,0,0,0Z"/>
                <path class="cls-51" d="M21.68,76.25s.06-.02,.07,0c.29,.39,.57,.8,.83,1.23,.26,.43,.51,.87,.74,1.33,.23,.46,.44,.95,.62,1.47,.09,.26,.17,.53,.24,.82,.05,.23,.09,.47,.12,.73,.78-.48,1.55-.95,2.33-1.41,.27-.16,.54-.32,.81-.47,.15-.09,.3-.17,.44-.25,.21-.12,.42-.23,.63-.35,.11-.06,.21-.11,.32-.16,.05-.03,.11-.05,.16-.07,.03-.01,.06-.02,.09-.03,.03-.01,.06-.02,.1-.03,.09-.02,.14,.07,.11,.19-.02,.1-.09,.19-.17,.23-.02,0-.03,.02-.05,.02-.02,0-.04,0-.06,.02-.02,0-.04,.02-.07,.03-.05,.02-.1,.04-.15,.07-.1,.05-.2,.1-.3,.15-.2,.11-.41,.22-.62,.34-.15,.08-.29,.17-.44,.25-.27,.15-.54,.31-.8,.47-.83,.49-1.66,1-2.49,1.51l-.18,.1v-.19c0-.3-.05-.59-.1-.87-.05-.28-.13-.55-.21-.81-.16-.52-.36-1.01-.57-1.49-.21-.47-.44-.93-.69-1.37-.25-.44-.51-.86-.78-1.27-.02-.03,0-.1,.03-.15,.01-.02,.03-.03,.04-.03Z"/>
              </g>
              <g>
                <path class="cls-18" d="M30.89,82.54c-.08,.17-.23,.26-.3,.3-.27,.17-.43,.07-.77,.24-.15,.08-.11,.09-.32,.21-.21,.12-.36,.19-.55,.2-.08,0-.26,0-.43-.11-.05-.04-.1-.08-.13-.12,0,0,0,0,0-.01v-.7c.03-.12,.17-.18,.28-.11,.03,.02,.06,.05,.09,.09,.12,.13,.26,.2,.41,.2,.25-.03,.41-.24,.52-.58,.02-.08,.09-.16,.17-.19,.21-.09,.45-.1,.72-.04,.14,.03,.27,.11,.34,.24,.01,.02,.02,.05,.03,.07,0,.1,0,.21-.06,.31Z"/>
                <path class="cls-33" d="M30.99,82.5c0,.17-.1,.32-.24,.4-.22,.14-.54,.25-.7,.31-.07,.02-.13,.06-.19,.11-.08,.08-.2,.2-.29,.3-.11,.13-.26,.2-.43,.23-.25,.03-.47,0-.67-.12-.09-.11-.12-.27-.09-.47,.03,.04,.08,.08,.13,.12,.17,.12,.35,.11,.43,.11,.2,0,.34-.08,.55-.2,.21-.11,.17-.13,.32-.21,.34-.18,.5-.07,.77-.24,.07-.04,.22-.13,.3-.3,.05-.1,.07-.21,.06-.31,.03,.08,.04,.17,.03,.27Z"/>
              </g>
              <path class="cls-37" d="M29.86,81.37c-.04-.7,.03-.42,0-1.68-.01-.5-.04-.83-.08-1.49-.05-.83-.09-1.15-.25-1.55-.24-.59-.5-.72-.58-.76-.28-.12-.57-.04-.72,0-.45,.13-.72,.43-.87,.57-.47,.46-1.12,.63-2.43,.97-1.45,.38-1.81,.63-1.81,.63,0,.05,0,.21,.02,.43,.15,.3,.42,.83,.6,1.27,.04,.04,.09,.07,.13,.1,.55,.36,1.18,.2,1.92,.02,.59-.14,1.56-.47,2.61-1.32l.62,.36,.2,.12c.12,.09,0,.36-.14,.43-.33,.13-.61,.27-.91,.43-.29,.16-.02,.68-.04,1.03-.03,.57-.07,1.12-.12,1.66,.15,.08,.54,.27,1.03,.2,.17-.03,.53-.08,.73-.35,.18-.25,.1-.5,.07-1.08Z"/>
              <g>
                <path class="cls-6" d="M28.19,79.91l-.36,.21c.14,.31,.24,.73,.25,1.27l-.02,2.72,.34-.19c-.06-.94,.21-2.87-.21-4Z"/>
                <path class="cls-41" d="M27.82,80.12l-.25,.15c.29,1.12,.07,2.81,.12,3.62l.38,.22c-.06-.91,.22-2.91-.24-3.99Z"/>
              </g>
            </g>
            <g>
              <g>
                <path class="cls-32" d="M29.73,71.94l-.14,.12s-.11,.06-.17,.06h-.1s-.08,.01-.12,.03c-.05,.03-.1,.05-.16,.05-.02,0-.04,0-.06,0l-.2-.04c-.11-.02-.23-.02-.34,0-.13,.03-.31,.06-.51,.1-.14,.03-.28,.06-.41,.08-.29,.06-.52,.1-.53,.1-.03,0-.39-.35-.56-.5-.05-.04-.08-.07-.08-.07l.08-.03,.69-.25c.07-.03,.15-.04,.22-.05h.14s.29-.04,.29-.04c0,0,.02,0,.03,0,.06,0,.11-.02,.16-.03l.4-.12h.04c.08-.04,.16-.05,.24-.06,.15,0,.31,.02,.46,.07l.56,.23c.06,.02,.1,.07,.11,.13v.03c.03,.07,0,.15-.05,.2Z"/>
                <path class="cls-32" d="M26.04,70.68l.11-.72c.02-.16,.16-.27,.31-.27h.15c.1,0,.2-.07,.23-.16l.21-.57c.03-.09,.04-.18,.02-.28l-.1-.57-.05-.49c-.01-.1-.05-.2-.1-.28l-.11-.15-1.71,.14-.39,2.18-.1,1.19h1.53Z"/>
                <path class="cls-40" d="M27.53,78.02c.13-1.6,.04-4.21-.06-6.85l-1.04-.84c-.08-.06-.18-.1-.28-.1h-.88c-.24,0-.45-.15-.52-.38l-.09-.27c-.03-.1-.12-.16-.23-.16h-.42c-.38,0-.73,.19-.92,.52-.14,.26-.2,.57-.17,.94l.34,2.93c.05,.47,.07,.95,.03,1.43-.11,1.3-.22,2.59-.16,3.26,1.01,.84,4.36-.16,4.39-.48Z"/>
                <path class="cls-32" d="M27.17,73.56l.73,.96,.88,2.25,.68,1.72,.12,.44c.03,.11,.03,.24,0,.35l-.09,.39s-.05,.06-.09,.04l-.11-.07s-.04-.02-.07-.03h-.08c-.06-.02-.11-.08-.12-.14v-.03s-.03-.05-.06-.05h-.02s-.06-.01-.07-.04l-.08-.22c-.02-.06-.05-.11-.1-.15l-.07-.08c-.11-.11-.17-.25-.19-.4l-.02-.19c-.01-.1-.04-.2-.1-.29l-1.29-2.21c-.27-.36-.46-.78-.58-1.23l.72-1.01Z"/>
                <path class="cls-28" d="M26.43,71.83c-.06,.83-.05,1.7,0,2.6,0,.05,0,.1,.02,.14l1.44-.05s0-.06,0-.09c.06-.78,.08-1.64,0-2.6,0-.35-.29-.64-.64-.64h-.18c-.35,0-.64,.29-.64,.64Z"/>
                <rect class="cls-24" x="27.89" y="74.51" width="0" height=".03" transform="translate(-4.56 1.87) rotate(-3.55)"/>
                <path class="cls-49" d="M26.63,66.98l-.04,.51c0,.08,0,.16,.02,.24h0s0,.08-.02,.11l-.09,.12-.12,.11s-.06,.09-.05,.15l.07,.37v.03c0,.05-.05,.09-.1,.08h-.01c-.06-.02-.12-.06-.15-.12l-.03-.05c-.04-.06-.1-.09-.17-.09h-.07c-.07,0-.13,.04-.15,.11l-.09,.3s-.04,.08-.07,.12l-.17,.18c-.08,.09-.19,.13-.3,.13h-.43l-.36-.55s0,0,0,0c-.09-.14-.14-.31-.15-.48l-.03-.53,2.52-.74Z"/>
                <path class="cls-43" d="M25.47,67.95l.53-.1c.63-.32,.95-.83,1.21-1.18,.18-.24,.04-.58-.26-.62-.1-.01-.2-.02-.3-.03-.29-.01-.92-.05-1.2,.03l-.2,.23,.21,1.66Z"/>
                <ellipse class="cls-43" cx="25.07" cy="67.19" rx="1.43" ry="1.07" transform="translate(-25.33 16.18) rotate(-24.2)"/>
              </g>
              <rect class="cls-3" x="28.87" y="69.82" width="2.01" height="3.14" transform="translate(14.96 -4.55) rotate(11.6)"/>
              <path class="cls-35" d="M29.13,71.59s-.05,.06-.09,.06c-.01,0-.03,0-.04,0-.21-.05-.4-.13-.58-.24-.03-.01-.05-.04-.06-.06h.04c.08-.04,.16-.05,.24-.06,.18,.06,.36,.11,.43,.18,.05,.02,.07,.08,.05,.13Z"/>
            </g>
          </g>
        </g>
        <g id="monitor">
          <polygon class="cls-20" points="79.34 79.17 94.37 70.5 73.89 58.67 58.86 67.35 79.34 79.17"/>
          <g id="Computer">
            <g id="ground">
              <polygon class="cls-16" points="78.34 75.43 78.34 76.13 87.37 70.92 87.37 70.21 86.77 70.56 78.34 75.43"/>
              <polygon class="cls-30" points="63.36 66.78 63.36 67.48 78.34 76.13 78.34 75.43 63.97 67.14 63.36 66.78"/>
              <polygon class="cls-46" points="63.36 66.78 63.97 67.14 78.34 75.43 86.77 70.56 87.37 70.21 72.4 61.56 63.36 66.78"/>
            </g>
            <g>
              <polygon class="cls-44" points="70.85 58.14 72.54 59.12 79.57 63.18 81.26 62.23 72.54 57.19 70.85 58.14"/>
              <polygon class="cls-45" points="70.85 58.14 70.85 66.17 79.57 71.2 79.57 63.18 72.54 59.12 70.85 58.14"/>
              <polygon class="cls-16" points="79.57 63.18 79.57 71.2 81.26 70.25 81.26 62.23 79.57 63.18"/>
            </g>
            <g>
              <path class="cls-50" d="M101.27,28.66c-.19-.37-.48-.69-.85-.9L52.74,.29c-.7-.4-1.48-.36-2.11-.03l-.15,.09-1.79,1.02c.33-.17,.7-.25,1.07-.24,.33,0,.67,.1,.99,.28l47.68,27.47c.38,.22,.67,.54,.85,.93,.15,.29,.22,.61,.22,.94v41.64c0,.38-.1,.73-.26,1.03-.2,.36-.5,.66-.85,.86l1.79-1.04,.47-.27c.5-.39,.84-.99,.84-1.7V29.64c0-.34-.08-.67-.23-.97Z"/>
              <g>
                <path class="cls-2" d="M99.51,72.4c0,.38-.1,.73-.26,1.03-.2,.36-.5,.66-.85,.86-.62,.34-1.42,.39-2.12-.01l-47.68-27.48c-.67-.39-1.08-1.1-1.08-1.87v-7.14l51.99,30.02v4.6Z"/>
                <path class="cls-48" d="M72.93,16.65L47.84,2.17h0s-.03,.05-.04,.08c-.02,.03-.03,.06-.04,.09-.03,.06-.06,.12-.08,.18-.09,.24-.14,.5-.14,.77v31.99h0v2.51l25.4,14.66,26.59,15.35V32.01h0s-26.59-15.36-26.59-15.36Z"/>
                <polygon class="cls-53" points="73.62 51.24 48.92 36.98 48.92 4.4 72.23 17.86 98.12 32.81 98.12 65.39 73.62 51.24"/>
                <path class="cls-39" d="M48.7,1.37c.33-.17,.7-.25,1.07-.24,.33,0,.67,.1,.99,.28l47.68,27.47c.38,.22,.67,.54,.85,.93,.15,.29,.22,.61,.22,.94v1.25L47.84,2.17c.21-.34,.51-.62,.86-.8Z"/>
              </g>
            </g>
          </g>
        </g>
        <g id="man2">
          <ellipse class="cls-20" cx="59.06" cy="70.44" rx="1.94" ry="1.12"/>
          <ellipse class="cls-20" cx="63.3" cy="68.12" rx="1.94" ry="1.12"/>
          <path class="cls-1" d="M58.87,58.1l.81,2.47c-.1,.31-.38,.48-.87,.5l-1.24-3.08c-.09-.23-.11-.49-.04-.73l.78-2.98c.09-.32,.52-.61,.82-.48l.65,.27-.92,3.37c-.06,.21-.05,.44,.02,.65Z"/>
          <path class="cls-23" d="M60.59,69.74l-1.62-.34-1.14,.1-.31,1.08,.1,.14c.12,.16,.32,.23,.51,.18l.82-.21,.87-.1c.1-.01,.19-.05,.28-.1l.3-.19c.15-.1,.26-.26,.28-.44h0c0-.06-.03-.12-.1-.14Z"/>
          <path class="cls-47" d="M64.31,67.15c-.4,0-.8,.02-1.2,.03l-1.06,.41v1.13l.14,.1c.16,.12,.37,.13,.54,.03l.73-.42,.81-.34c.09-.04,.17-.1,.24-.17,.05-.05,.09-.1,.14-.16,.1-.14,.1-.32,0-.45-.12-.18-.34-.16-.35-.16Z"/>
          <path class="cls-49" d="M57.67,69.75c.63,.2,1.26,.26,1.89,.2,.2-1.19,.4-2.38,.59-3.58,.08-.28,.17-.56,.25-.83l.62-4.3-2.4-1.19c-.22,1.23-.21,2.63-.05,4.14,0,.36-.05,.72-.13,1.07-.23,1-.72,3.21-.78,4.49Z"/>
          <path class="cls-19" d="M58.77,60.99l-.35,.45s1.45,1.39,2.78,.99c1.33-.4,1.5-.56,1.5-.56l-2.7-.55-1.24-.33Z"/>
          <path class="cls-49" d="M61.97,67.81c.14,.05,.57,.16,1.07-.01,.41-.15,.65-.42,.75-.54,.14-1.14,.2-2.11,.21-2.87,.02-1.11-.03-1.72-.35-2.36-.11-.21-.23-.39-.34-.54-.12-.16-.29-.28-.48-.34l-4.31-1.48s-.42,1.63,1.16,2.62c.38,.02,.87,.09,1.4,.3,.21,.08,.4,.18,.57,.27,.14,.13,.35,.34,.47,.66,.11,.29,.11,.53,.1,.73-.03,1.61,0,1.25-.02,1.59-.04,.52-.11,1.19-.23,1.98Z"/>
          <path class="cls-32" d="M62.15,53.08l-.18,.51v.02c-.04,.09-.12,.15-.22,.15h-.13c-.08,0-.16,.04-.21,.09-.04,.04-.07,.09-.07,.15l-.05,.32-.05,.34h-1.39l.08-.96v-.12s.03-.13,.03-.13l.33-1.85,1.56-.13,.1,.14s.02,.03,.03,.05c.04,.06,.06,.14,.07,.21l.05,.45,.09,.52c.01,.08,0,.17-.02,.25Z"/>
          <path class="cls-40" d="M62.7,61.62c.06-.83,.11-1.7,.12-2.61,.02-1.37-.03-2.66-.12-3.84l-1.02-.77c-.08-.06-.18-.09-.28-.09h-.86c-.24,0-.44-.14-.52-.35l-.08-.24c-.03-.09-.12-.15-.22-.15h-.42c-.37,0-.73,.18-.91,.49-.14,.23-.19,.51-.16,.85,.14,.69,.28,1.39,.41,2.08,.04,.25,.08,.58,.05,.98-.03,.38-.1,.7-.18,.94-.06,.48-.12,.97-.17,1.46-.04,.36-.07,.72-.11,1.08,.39,.21,1.05,.51,1.93,.59,1.18,.11,2.09-.23,2.52-.42Z"/>
          <rect class="cls-24" x="62.92" y="58.14" width="0" height="0" transform="translate(-3 3.43) rotate(-3.05)"/>
          <path class="cls-29" d="M62.06,51.41c-.13,.29-.18,.64-.19,.86l-.19,.1c-.06,.03-.09,.1-.08,.16l.04,.23v.03s-.05,.08-.09,.07h0c-.06-.02-.11-.06-.14-.11l-.03-.05c-.03-.05-.09-.08-.15-.08h-.06c-.06,0-.11,.04-.13,.1l-.09,.27s-.03,.08-.06,.11l-.15,.17c-.07,.08-.17,.12-.28,.12l-.49,.05-.22-.55h0c-.08-.13-.13-.27-.14-.42l.11-.46c.04-.79,.83-1.01,2.21-.85,.12,.01,.19,.14,.14,.25Z"/>
          <g>
            <g>
              <polygon class="cls-40" points="62.82 56.23 65.32 54.79 67 56.33 64.41 57.9 62.82 56.23"/>
              <polygon class="cls-3" points="62.98 56.26 65.3 54.92 66.82 56.31 64.43 57.76 62.98 56.26"/>
            </g>
            <path class="cls-32" d="M64.66,57.6l.08-.04c.12-.06,.22-.14,.29-.25l.35-.55h0c.04-.05,.11-.03,.12,.03h0c0,.08,0,.16-.01,.24v.09c-.02,.05,.03,.09,.08,.06l.58-.34v.44c0,.2-.12,.38-.3,.46l-1.01,.44-.17-.6Z"/>
            <path class="cls-1" d="M64.71,57.44c.23,.15,.3,.48,.33,.84-.58,.45-1.44,1.03-2.39,1.65-.41,.26-.96,.09-1.13-.37-.14-.4-.22-.81-.28-1.23-.06-1.06-.26-2.18,.17-3.01l.11-.16c.22-.31,.68-.32,1.01-.13,.19,.11,.32,.32,.34,.54h0c.02,.14,.02,.29,0,.43l-.15,2.15c.7-.35,1.38-.64,1.96-.7Z"/>
          </g>
          <g>
            <path class="cls-54" d="M61.06,52.75c.03,.08,.05,.14,.07,.21,.02,.07,.05,.13,.08,.19,.02,.03,.03,.06,.05,.08,0,0,.01,.01,.02,.02,0,0,.02,0,.03,0,.02,0,.05,0,.09-.02,.03-.01,.06-.04,.1-.06,0,.04-.03,.08-.05,.11-.03,.03-.06,.06-.11,.08-.02,0-.05,.01-.08,0-.03,0-.06-.02-.08-.04-.04-.03-.06-.07-.08-.11-.04-.07-.06-.15-.06-.23,0-.08,0-.16,.04-.23Z"/>
            <path class="cls-54" d="M61.25,52.7c-.07,.03-.06,.17-.06,.18,0,.03,0,.12,.08,.17,.01,0,.04,.03,.08,.03,0,0,.05,0,.06-.04,.01-.03-.01-.08-.04-.1-.01,0-.02,0-.03-.02,0,0,0-.02,0-.03,.01-.02,.04-.01,.05-.03,0-.01,0-.04-.02-.08-.02-.04-.02-.05-.04-.07-.02-.02-.05-.02-.08-.01Z"/>
          </g>
          <path class="cls-54" d="M61.97,53.58v.02c-.04,.09-.12,.15-.22,.15h-.13c-.08,0-.16,.04-.21,.09,.02-.05,.05-.09,.1-.12,.1-.08,.21-.03,.35-.08,.04-.01,.08-.03,.12-.06Z"/>
          <path class="cls-44" d="M59.97,53.44c-.08,.22,.07,.42,.37,.55,.35,.1,.74,.11,1.16,.07,.04,0,.08,.02,.09,.06l.06,.27c-.51,.12-.99,.09-1.43-.06-.22-.09-.36-.21-.41-.37-.03-.09-.03-.18,0-.27,.03-.09,.08-.21,.15-.26Z"/>
        </g>
        <g id="woman2">
          <ellipse class="cls-20" cx="48.3" cy="61.15" rx="3.68" ry="2.13"/>
          <path class="cls-12" d="M46.66,61.29l.02-.17s.18-.11,.2-.22c.21-.93,.04-1.26,.08-1.9,.04-.64,.15-1.3,.16-1.93,0-.61-.13-1.83-.13-1.83v-.27s1.79,.31,1.79,.31c0,0-.31,1.63-.54,2.26-.24,.63-.31,1.28-.32,1.46-.01,.18-.02,.16-.02,.26l.16,.29c-.11,.63-.29,1.23-.53,1.82,0,0-.72,.2-.7,.19,.03,0-.18-.28-.18-.28h0Z"/>
          <path class="cls-10" d="M47.91,59.28s.33,.19,.26,.61c0,.44,0,1.12,0,1.12-.03,.05-.09,.05-.18,0l.02-.55-.24,1.01s-.09,.44-.65,.48c-.56,.05-.7-.05-.7-.05,0,0-.17-.08-.08-.26s.34-.53,.34-.53c0,0,.25,.31,.57,.22,.32-.08,.4-.48,.52-.81,.12-.33,.18-.52,.23-.73,.04-.18,.03-.21-.08-.53h0Z"/>
          <path class="cls-11" d="M48.72,61.98l.02-.17s.18-.11,.2-.22c.21-.93-.11-1.28-.07-1.91,.04-.64-.07-1.36-.07-1.99,0-.61-.5-2.62-.5-2.62l1.61-.16s.29,1.45,.28,2.19c0,.68-.07,1.04-.22,2.05-.03,.18-.01,.35,0,.8l.16,.29c-.11,.63-.29,1.23-.53,1.82,0,0-.72,.2-.7,.19,.03,0-.18-.28-.18-.28h0Z"/>
          <g>
            <path class="cls-4" d="M49.96,48.32c-.98,.4-2.1,.44-3.09,.04,0,0-.75,.55-.53,3.48,.22,2.92,.45,3.24,.45,3.24,0,0,2.06,.84,3.1,.18,.65-.41,.86-4.78,.64-5.57-.16-.57-.56-1.37-.56-1.37h0Z"/>
            <g class="cls-25">
              <path class="cls-9" d="M50.41,48.66c-.24,.16-.51,.32-.78,.41-.73,.25-1.6,.18-2.34,.01-.35-.08-1.07-.26-.99-.75,.09-.56,.79-.73,1.25-.82,.49-.09,.91-.07,1.4,0,.24,.03,.52,.02,.75,.11,.15,.05,.25,.16,.36,.26,.18,.16,.22,.56,.34,.77h0Z"/>
            </g>
          </g>
          <path class="cls-11" d="M49.17,49.3l.14,.66s-1.28,.18-1.66-.15c-.28-.25-.24-.35-.24-.35,0,0,.06-.08,.16-.07,.11,.01,.33,.12,.48,.1,.15-.01,.4-.09,.43-.18,.03-.09,0-.2,0-.2,0,0-.05-.15,0-.19,.09-.07,.14,.02,.2,.12,0,0,.14,.26,.24,.35,.07,.05,.24-.09,.24-.09h0Z"/>
          <path class="cls-11" d="M44.37,45.47l-.24-.21s-.06-.52-.3-.72c-.23-.19-.19,.02-.19,.02,0,0,.14,.38,.1,.43-.04,.05-.15,.03-.32-.14-.17-.17-.44-.39-.44-.39,0,0-.19-.15-.25-.09-.05,.06-.19,.19-.09,.47,.09,.28,.46,.57,.46,.57l.4,.23s.34,.13,.55,.32c.2,.18,.33-.49,.33-.49h0Z"/>
          <path class="cls-15" d="M48.3,48.9c.62,.03,1.76-.36,1.76-.36,0,0-.35-1.1,.3-1.99l.54,1.32s-.45,.41-.71,.58c-.29,.19-1.12,.83-1.12,.83,0,0-.04,.26-.02,.38,.02,.14,.14,.44,.14,.44,0,0,1.37-.58,1.84-.82,.44-.22,.91-.61,.97-1.11,.07-.64-.52-2.73-.52-2.73,0,0-.29-1.38-.9-1.13l-2.25-.92s-.67-.71-1.24,.41c-.57,1.12-.8,1.71-1.26,1.94-.46,.24-1.5-.51-1.5-.51l-.61,.68,1.25,.88s.75,.36,1.08,.24c.39-.15,1.29-1.14,1.29-1.14,0,0-.19,1.59-.3,2.03-.05,.2-.34,.61-.34,.61,0,0,.68,.31,1.6,.36h0Z"/>
          <path class="cls-13" d="M50.59,44.35s-.21,.13-.35,.43c-.04,.1-.08,.22-.1,.36-.01,.08-.02,.18-.02,.28,0,.09,0,.18,.01,.28,.01,.13,.04,.27,.08,.42,.03,.13,.07,.27,.13,.41,0,0,0,0,0,0,0,0,0,0,0,0-.07-.14-.13-.27-.17-.4-.05-.15-.09-.29-.11-.42-.02-.1-.03-.2-.03-.29,0-.11,0-.21,.03-.3,.03-.15,.08-.27,.13-.38,.17-.31,.41-.42,.41-.42,0,0,.01,0,.02,0,0,0,0,.01,0,.02h0Z"/>
          <path class="cls-12" d="M48.65,43.72s.02,.96,.98,.31,.39-1.37,.39-1.37l-.46,.27s-.3,.37-.7,.4c0,0,0,.18-.21,.39h0Z"/>
          <path class="cls-11" d="M48.99,40.86l-1.13-.06,.07,1.08s.18,1.58,.91,1.45c.73-.13,1.18-.37,1.18-.37l-.03-1.37-1.01-.73h0Z"/>
          <path class="cls-14" d="M49.66,45.02l.33-.78s.49-.11,.62-.5c.13-.39-.06-.79-.05-.82,.01-.04,.66-.88,.45-1.48-.2-.6-.8-1.63-1.98-1.56-1.03,.07-1.06,.04-1.44,.74-.13,.23-.11,.74,.04,.91,.14,.17,.31,.41,.31,.41,0,0-.16-.8,.53-1.01,0,0,.6,.85,.86,.89,0,0-.09,.91,.28,1.06,0,0-.26,.53-.2,.69,.06,.16-.05,.22-.21,.43-.16,.21-.43,.23-.39,.5,.15,1.01,.84,.52,.84,.52h0Z"/>
          <path class="cls-10" d="M49.97,59.97s.33,.19,.26,.61c0,.44,0,1.12,0,1.12-.03,.05-.09,.05-.18,0l.02-.55-.24,1.01s-.09,.44-.65,.48c-.56,.05-.7-.05-.7-.05,0,0-.17-.08-.08-.26,.08-.18,.34-.53,.34-.53,0,0,.25,.31,.57,.22,.32-.08,.4-.48,.52-.81,.12-.33,.18-.52,.23-.73,.04-.18,.03-.21-.08-.53h0Z"/>
        </g>
      </g>
    </g>
  </g>
</svg>