<?xml version="1.0" encoding="UTF-8"?>
<svg xmlns="http://www.w3.org/2000/svg" xmlns:xlink="http://www.w3.org/1999/xlink" viewBox="0 0 107 104.09">
  <defs>
    <style>
      .cls-1 {
        fill: url(#linear-gradient-2);
      }

      .cls-2 {
        fill: url(#radial-gradient-7);
      }

      .cls-3 {
        fill: url(#linear-gradient-51);
      }

      .cls-4 {
        fill: url(#radial-gradient-10);
      }

      .cls-5 {
        fill: url(#linear-gradient-48);
      }

      .cls-5, .cls-6, .cls-7, .cls-8, .cls-9, .cls-10, .cls-11, .cls-12, .cls-13, .cls-14, .cls-15, .cls-16 {
        mix-blend-mode: screen;
      }

      .cls-5, .cls-6, .cls-8, .cls-10, .cls-11, .cls-17, .cls-18, .cls-15 {
        opacity: .5;
      }

      .cls-19 {
        fill: #e4d2ca;
      }

      .cls-19, .cls-20, .cls-21, .cls-22 {
        mix-blend-mode: multiply;
      }

      .cls-23 {
        fill: #fff;
      }

      .cls-24 {
        fill: #6b24cf;
      }

      .cls-25 {
        fill: url(#linear-gradient-17);
      }

      .cls-26 {
        opacity: .18;
      }

      .cls-27 {
        fill: url(#New_Gradient_Swatch_copy_9-6);
      }

      .cls-28 {
        fill: url(#linear-gradient-15);
      }

      .cls-29 {
        opacity: .45;
      }

      .cls-30, .cls-21 {
        fill: #b5b7b9;
      }

      .cls-31 {
        fill: url(#New_Gradient_Swatch_copy_34);
      }

      .cls-32 {
        fill: url(#Radial_Gradient_1-2);
      }

      .cls-32, .cls-33, .cls-34, .cls-35, .cls-36, .cls-37, .cls-17, .cls-18, .cls-38, .cls-39, .cls-40 {
        mix-blend-mode: color-dodge;
      }

      .cls-6 {
        fill: url(#linear-gradient-49);
      }

      .cls-41 {
        fill: url(#linear-gradient-18);
      }

      .cls-42 {
        opacity: .6;
      }

      .cls-43 {
        fill: url(#New_Gradient_Swatch_copy_10);
      }

      .cls-44 {
        fill: url(#linear-gradient-40);
      }

      .cls-45 {
        fill: url(#linear-gradient-52);
      }

      .cls-46 {
        fill: url(#linear-gradient-28);
      }

      .cls-20, .cls-47 {
        opacity: .2;
      }

      .cls-48 {
        fill: url(#linear-gradient-14);
      }

      .cls-49 {
        fill: url(#linear-gradient-36);
      }

      .cls-50 {
        fill: url(#linear-gradient-20);
      }

      .cls-51 {
        fill: url(#linear-gradient-6);
      }

      .cls-52 {
        fill: url(#radial-gradient-5);
      }

      .cls-53 {
        fill: url(#radial-gradient-4);
      }

      .cls-54 {
        isolation: isolate;
      }

      .cls-55 {
        fill: url(#New_Gradient_Swatch_copy_8-3);
      }

      .cls-56 {
        fill: #2aefff;
      }

      .cls-57 {
        opacity: .91;
      }

      .cls-58 {
        fill: url(#New_Gradient_Swatch_copy_9-2);
      }

      .cls-33 {
        fill: url(#New_Gradient_Swatch_copy);
      }

      .cls-59 {
        opacity: 0;
      }

      .cls-60 {
        fill: url(#New_Gradient_Swatch_copy_8);
      }

      .cls-61 {
        opacity: .36;
      }

      .cls-62 {
        fill: url(#New_Gradient_Swatch_copy_31);
      }

      .cls-63 {
        fill: url(#linear-gradient-35);
      }

      .cls-64 {
        fill: url(#linear-gradient-32);
      }

      .cls-65 {
        fill: #4b61b1;
      }

      .cls-66 {
        fill: url(#linear-gradient-11);
      }

      .cls-67 {
        fill: url(#linear-gradient-50);
      }

      .cls-68 {
        fill: url(#New_Gradient_Swatch_copy_8-2);
      }

      .cls-69 {
        fill: url(#New_Gradient_Swatch_copy_15);
      }

      .cls-7 {
        fill: url(#Radial_Gradient_1);
      }

      .cls-70 {
        fill: url(#New_Gradient_Swatch_copy_31-5);
      }

      .cls-71 {
        fill: url(#New_Gradient_Swatch_copy_7);
      }

      .cls-72 {
        opacity: .64;
      }

      .cls-34 {
        fill: url(#radial-gradient);
      }

      .cls-73 {
        fill: url(#linear-gradient-39);
      }

      .cls-74 {
        fill: url(#radial-gradient-6);
      }

      .cls-8 {
        fill: url(#linear-gradient-44);
      }

      .cls-75 {
        opacity: .8;
      }

      .cls-76 {
        fill: url(#New_Gradient_Swatch_copy_29);
      }

      .cls-77 {
        fill: url(#linear-gradient-10);
      }

      .cls-9 {
        fill: url(#Radial_Gradient_1-3);
      }

      .cls-35 {
        fill: url(#Radial_Gradient_1-4);
      }

      .cls-78 {
        fill: url(#New_Gradient_Swatch_copy_31-3);
      }

      .cls-36 {
        fill: url(#New_Gradient_Swatch_copy-2);
      }

      .cls-79 {
        fill: url(#linear-gradient-37);
      }

      .cls-37 {
        fill: url(#New_Gradient_Swatch_copy-3);
      }

      .cls-80 {
        fill: url(#linear-gradient-16);
      }

      .cls-10 {
        fill: url(#linear-gradient-22);
      }

      .cls-81 {
        fill: url(#linear-gradient-31);
      }

      .cls-11 {
        fill: url(#linear-gradient-43);
      }

      .cls-82 {
        fill: url(#linear-gradient-41);
      }

      .cls-83 {
        opacity: .73;
      }

      .cls-84 {
        opacity: .82;
      }

      .cls-85 {
        fill: url(#linear-gradient-25);
      }

      .cls-86 {
        fill: url(#New_Gradient_Swatch_copy_9-3);
      }

      .cls-17 {
        fill: url(#New_Gradient_Swatch_copy_9);
      }

      .cls-87 {
        fill: url(#linear-gradient-5);
      }

      .cls-88 {
        fill: url(#linear-gradient-45);
      }

      .cls-89, .cls-18 {
        fill: #9819a4;
      }

      .cls-90 {
        fill: url(#radial-gradient-3);
      }

      .cls-38 {
        fill: url(#radial-gradient-8);
      }

      .cls-91 {
        fill: url(#New_Gradient_Swatch_copy_31-2);
      }

      .cls-92 {
        opacity: .27;
      }

      .cls-12 {
        fill: url(#linear-gradient-34);
      }

      .cls-12, .cls-16 {
        opacity: .3;
      }

      .cls-93 {
        fill: url(#linear-gradient-24);
      }

      .cls-39 {
        fill: url(#Radial_Gradient_1-5);
      }

      .cls-94 {
        fill: url(#linear-gradient-9);
      }

      .cls-95 {
        fill: url(#New_Gradient_Swatch_copy_36);
      }

      .cls-96 {
        fill: url(#linear-gradient-42);
      }

      .cls-97 {
        fill: url(#linear-gradient-3);
      }

      .cls-98 {
        fill: url(#linear-gradient);
      }

      .cls-99 {
        fill: url(#New_Gradient_Swatch_copy_9-5);
      }

      .cls-100 {
        fill: url(#linear-gradient-27);
      }

      .cls-13 {
        fill: url(#linear-gradient-7);
      }

      .cls-101 {
        fill: url(#New_Gradient_Swatch_copy_29-2);
      }

      .cls-102 {
        fill: url(#linear-gradient-33);
      }

      .cls-14 {
        fill: #1384b6;
      }

      .cls-103 {
        opacity: .55;
      }

      .cls-104 {
        fill: url(#linear-gradient-38);
      }

      .cls-22 {
        fill: #cacccd;
      }

      .cls-105 {
        fill: url(#linear-gradient-29);
      }

      .cls-106 {
        fill: url(#linear-gradient-30);
      }

      .cls-107 {
        opacity: .09;
      }

      .cls-108 {
        fill: url(#linear-gradient-23);
      }

      .cls-109 {
        fill: url(#linear-gradient-19);
      }

      .cls-110 {
        fill: url(#New_Gradient_Swatch_copy_35);
      }

      .cls-111 {
        fill: url(#New_Gradient_Swatch_copy_38);
      }

      .cls-112 {
        fill: url(#radial-gradient-9);
      }

      .cls-113 {
        fill: url(#New_Gradient_Swatch_copy_31-4);
      }

      .cls-114 {
        fill: url(#linear-gradient-8);
      }

      .cls-15 {
        fill: url(#linear-gradient-21);
      }

      .cls-40 {
        fill: url(#radial-gradient-2);
      }

      .cls-16 {
        fill: url(#linear-gradient-4);
      }

      .cls-115 {
        fill: url(#linear-gradient-47);
      }

      .cls-116 {
        fill: url(#linear-gradient-46);
      }

      .cls-117 {
        fill: url(#New_Gradient_Swatch_copy_9-4);
      }

      .cls-118 {
        fill: url(#linear-gradient-12);
      }

      .cls-119 {
        fill: url(#linear-gradient-13);
      }

      .cls-120 {
        fill: url(#linear-gradient-26);
      }
    </style>
    <linearGradient id="linear-gradient" x1="14.03" y1="70.14" x2="89.63" y2="70.14" gradientUnits="userSpaceOnUse">
      <stop offset=".06" stop-color="#9879b1"/>
      <stop offset=".27" stop-color="#9a7bb2"/>
      <stop offset=".37" stop-color="#a182b9"/>
      <stop offset=".45" stop-color="#ae8fc4"/>
      <stop offset=".49" stop-color="#ba9ace"/>
      <stop offset=".51" stop-color="#bd9ed0"/>
      <stop offset=".52" stop-color="#c6abd6"/>
      <stop offset=".53" stop-color="#d4c1e1"/>
      <stop offset=".54" stop-color="#e9dfef"/>
      <stop offset=".56" stop-color="#fff"/>
      <stop offset=".56" stop-color="#fcfafd"/>
      <stop offset=".57" stop-color="#e6d8ee"/>
      <stop offset=".58" stop-color="#d6c0e4"/>
      <stop offset=".59" stop-color="#cdb2de"/>
      <stop offset=".6" stop-color="#caaddc"/>
      <stop offset=".65" stop-color="#ad92cf"/>
      <stop offset=".71" stop-color="#957bc4"/>
      <stop offset=".77" stop-color="#876dbe"/>
      <stop offset=".81" stop-color="#8269bc"/>
      <stop offset="1" stop-color="#a980c5"/>
    </linearGradient>
    <linearGradient id="New_Gradient_Swatch_copy_35" data-name="New Gradient Swatch copy 35" x1="12.42" y1="68.16" x2="85.16" y2="68.16" gradientUnits="userSpaceOnUse">
      <stop offset="0" stop-color="#9879c1"/>
      <stop offset=".15" stop-color="#9e7fc4"/>
      <stop offset=".36" stop-color="#af91cd"/>
      <stop offset=".58" stop-color="#caaddc"/>
      <stop offset=".76" stop-color="#d3bce1"/>
      <stop offset="1" stop-color="#e4d7ec"/>
    </linearGradient>
    <linearGradient id="linear-gradient-2" x1="13.24" y1="68.16" x2="84.34" y2="68.16" gradientUnits="userSpaceOnUse">
      <stop offset="0" stop-color="#3d065f"/>
      <stop offset="1" stop-color="#5f27b6"/>
    </linearGradient>
    <radialGradient id="New_Gradient_Swatch_copy" data-name="New Gradient Swatch copy" cx="1547.85" cy="-2448.11" fx="1547.85" fy="-2448.11" r="3.31" gradientTransform="translate(-6132.18 6589.54) scale(4 2.66)" gradientUnits="userSpaceOnUse">
      <stop offset="0" stop-color="#902a74"/>
      <stop offset=".02" stop-color="#8a286f"/>
      <stop offset=".18" stop-color="#601c4d"/>
      <stop offset=".34" stop-color="#3d1131"/>
      <stop offset=".5" stop-color="#220a1b"/>
      <stop offset=".66" stop-color="#0f040c"/>
      <stop offset=".83" stop-color="#030103"/>
      <stop offset="1" stop-color="#000"/>
    </radialGradient>
    <radialGradient id="New_Gradient_Swatch_copy-2" data-name="New Gradient Swatch copy" cx="1343.21" cy="-2930.61" fx="1343.21" fy="-2930.61" r="2.54" gradientTransform="translate(-5336.77 6978.13) scale(4 2.36)" xlink:href="#New_Gradient_Swatch_copy"/>
    <linearGradient id="linear-gradient-3" x1="1308.77" y1="396.76" x2="1275.62" y2="371.7" gradientTransform="translate(-489.74 -692.24) rotate(30) skewX(-49.11)" gradientUnits="userSpaceOnUse">
      <stop offset="0" stop-color="#3d065f"/>
      <stop offset="1" stop-color="#12054e"/>
      <stop offset="1" stop-color="#10054d"/>
    </linearGradient>
    <linearGradient id="linear-gradient-4" x1="43.31" y1="51.45" x2="61.88" y2="80.59" gradientUnits="userSpaceOnUse">
      <stop offset=".06" stop-color="#9879b1"/>
      <stop offset=".25" stop-color="#9a7bb3"/>
      <stop offset=".35" stop-color="#a182ba"/>
      <stop offset=".43" stop-color="#ae8fc6"/>
      <stop offset=".49" stop-color="#c1a2d7"/>
      <stop offset=".55" stop-color="#d9b9ed"/>
      <stop offset=".56" stop-color="#dfbff3"/>
      <stop offset=".6" stop-color="#cfb0e9"/>
      <stop offset=".69" stop-color="#ad91d5"/>
      <stop offset=".77" stop-color="#957bc7"/>
      <stop offset=".85" stop-color="#876dbe"/>
      <stop offset=".92" stop-color="#8269bc"/>
    </linearGradient>
    <linearGradient id="New_Gradient_Swatch_copy_34" data-name="New Gradient Swatch copy 34" x1="6106.04" y1="-.74" x2="6030.37" y2="64.99" gradientTransform="translate(6122.26) rotate(-180) scale(1 -1)" gradientUnits="userSpaceOnUse">
      <stop offset="0" stop-color="#9879c1"/>
      <stop offset=".15" stop-color="#9b7cc2"/>
      <stop offset=".29" stop-color="#a687c8"/>
      <stop offset=".42" stop-color="#b89ad2"/>
      <stop offset=".52" stop-color="#caaddc"/>
      <stop offset=".64" stop-color="#d4bce2"/>
      <stop offset=".87" stop-color="#eee5f4"/>
      <stop offset="1" stop-color="#fff"/>
    </linearGradient>
    <linearGradient id="linear-gradient-5" x1="29.92" y1=".69" x2="101.82" y2="85.27" gradientUnits="userSpaceOnUse">
      <stop offset="0" stop-color="#7c1dc2"/>
      <stop offset=".2" stop-color="#611698"/>
      <stop offset=".59" stop-color="#310b4d"/>
      <stop offset=".86" stop-color="#13041f"/>
      <stop offset="1" stop-color="#08020d"/>
    </linearGradient>
    <linearGradient id="New_Gradient_Swatch_copy_38" data-name="New Gradient Swatch copy 38" x1="36.06" y1="7.84" x2="88.5" y2="69.67" gradientUnits="userSpaceOnUse">
      <stop offset="0" stop-color="#7c1dc2"/>
      <stop offset=".01" stop-color="#781cbc"/>
      <stop offset=".15" stop-color="#58148b"/>
      <stop offset=".29" stop-color="#3d0e60"/>
      <stop offset=".42" stop-color="#27093d"/>
      <stop offset=".56" stop-color="#160522"/>
      <stop offset=".7" stop-color="#09020f"/>
      <stop offset=".85" stop-color="#020003"/>
      <stop offset="1" stop-color="#000"/>
    </linearGradient>
    <linearGradient id="linear-gradient-6" x1="1081.42" y1="72.69" x2="1044.22" y2="13.26" gradientTransform="translate(-985.58)" xlink:href="#linear-gradient"/>
    <radialGradient id="Radial_Gradient_1" data-name="Radial Gradient 1" cx="1427.23" cy="-806.87" fx="1427.23" fy="-806.87" r="1.58" gradientTransform="translate(-5623.68 3263.66) scale(4)" gradientUnits="userSpaceOnUse">
      <stop offset="0" stop-color="#fff"/>
      <stop offset="1" stop-color="#000"/>
    </radialGradient>
    <radialGradient id="radial-gradient" cx="911.42" cy="6926.68" fx="911.42" fy="6926.68" r=".74" gradientTransform="translate(18478.17 -3610.55) rotate(90) scale(4 2.66)" gradientUnits="userSpaceOnUse">
      <stop offset="0" stop-color="#902a74"/>
      <stop offset=".02" stop-color="#8a286f"/>
      <stop offset=".18" stop-color="#601c4d"/>
      <stop offset=".34" stop-color="#3d1131"/>
      <stop offset=".5" stop-color="#220a1b"/>
      <stop offset=".66" stop-color="#0f040c"/>
      <stop offset=".83" stop-color="#030103"/>
      <stop offset="1" stop-color="#000"/>
    </radialGradient>
    <linearGradient id="New_Gradient_Swatch_copy_7" data-name="New Gradient Swatch copy 7" x1="69.17" y1="49.8" x2="44.75" y2="14.8" gradientUnits="userSpaceOnUse">
      <stop offset=".04" stop-color="#1384b6"/>
      <stop offset=".23" stop-color="#1693c0"/>
      <stop offset=".59" stop-color="#1ebbdc"/>
      <stop offset="1" stop-color="#2aefff"/>
    </linearGradient>
    <radialGradient id="radial-gradient-2" cx="431.34" cy="-811.92" fx="431.34" fy="-811.92" r="3.99" gradientTransform="translate(-1681.36 3263.66) scale(4)" gradientUnits="userSpaceOnUse">
      <stop offset="0" stop-color="#d53da3"/>
      <stop offset=".06" stop-color="#bc3690"/>
      <stop offset=".18" stop-color="#8b276a"/>
      <stop offset=".32" stop-color="#601b49"/>
      <stop offset=".45" stop-color="#3d112f"/>
      <stop offset=".58" stop-color="#22091a"/>
      <stop offset=".72" stop-color="#0f040b"/>
      <stop offset=".86" stop-color="#030102"/>
      <stop offset="1" stop-color="#000"/>
    </radialGradient>
    <linearGradient id="New_Gradient_Swatch_copy_9" data-name="New Gradient Swatch copy 9" x1="62.3" y1="58.82" x2="68.25" y2="53.96" gradientUnits="userSpaceOnUse">
      <stop offset=".04" stop-color="#9819a4"/>
      <stop offset=".23" stop-color="#a724a9"/>
      <stop offset=".61" stop-color="#cf41b6"/>
      <stop offset="1" stop-color="#ff63c7"/>
    </linearGradient>
    <linearGradient id="linear-gradient-7" x1="46.19" y1="6.69" x2="104.7" y2="75.52" gradientUnits="userSpaceOnUse">
      <stop offset="0" stop-color="#000"/>
      <stop offset="1" stop-color="#000"/>
    </linearGradient>
    <radialGradient id="New_Gradient_Swatch_copy_31" data-name="New Gradient Swatch copy 31" cx="1.97" cy="1359.73" fx="1.97" fy="1359.73" r="3.06" gradientTransform="translate(50.5 -6242.5) rotate(30) scale(4) skewX(30)" gradientUnits="userSpaceOnUse">
      <stop offset=".01" stop-color="#fff"/>
      <stop offset=".03" stop-color="#fbf9fc"/>
      <stop offset=".17" stop-color="#e0cfea"/>
      <stop offset=".29" stop-color="#d0b6e0"/>
      <stop offset=".36" stop-color="#caaddc"/>
      <stop offset=".49" stop-color="#ba9dd3"/>
      <stop offset=".72" stop-color="#9879c1"/>
      <stop offset=".99" stop-color="#9879c1"/>
      <stop offset="1" stop-color="#9879c1"/>
    </radialGradient>
    <radialGradient id="radial-gradient-3" cx="2.01" cy="1359.4" fx="2.01" fy="1359.4" r="1.51" gradientTransform="translate(50.5 -6242.5) rotate(30) scale(4) skewX(30)" gradientUnits="userSpaceOnUse">
      <stop offset="0" stop-color="#451083"/>
      <stop offset="1" stop-color="#2e085e"/>
    </radialGradient>
    <linearGradient id="New_Gradient_Swatch_copy_8" data-name="New Gradient Swatch copy 8" x1="-438.38" y1="2273.12" x2="-428.39" y2="2273.12" gradientTransform="translate(432.77 -2376.54) rotate(30) skewX(30)" gradientUnits="userSpaceOnUse">
      <stop offset=".04" stop-color="#ffa285"/>
      <stop offset=".32" stop-color="#fdb18b"/>
      <stop offset=".86" stop-color="#f8d99c"/>
      <stop offset="1" stop-color="#f7e5a1"/>
    </linearGradient>
    <linearGradient id="linear-gradient-8" x1="-437.82" y1="2269.65" x2="-428.95" y2="2269.65" gradientTransform="translate(432.77 -2376.54) rotate(30) skewX(30)" gradientUnits="userSpaceOnUse">
      <stop offset=".04" stop-color="#602213"/>
      <stop offset=".57" stop-color="#6c310d"/>
      <stop offset="1" stop-color="#7a4108"/>
    </linearGradient>
    <linearGradient id="linear-gradient-9" x1="-437.43" y1="2275.25" x2="-429.33" y2="2275.25" xlink:href="#linear-gradient-8"/>
    <linearGradient id="linear-gradient-10" x1="-435.89" y1="2274.5" x2="-430.6" y2="2274.5" xlink:href="#linear-gradient-8"/>
    <linearGradient id="New_Gradient_Swatch_copy_9-2" data-name="New Gradient Swatch copy 9" x1="-638.51" y1="2104.56" x2="-635.89" y2="2106.07" gradientTransform="translate(609.32 -2071.82) rotate(30) skewX(30)" xlink:href="#New_Gradient_Swatch_copy_9"/>
    <radialGradient id="New_Gradient_Swatch_copy_31-2" data-name="New Gradient Swatch copy 31" cx="434.71" cy="-806.57" fx="434.71" fy="-806.57" r="3.96" gradientTransform="translate(-1681.36 3263.66) scale(4)" xlink:href="#New_Gradient_Swatch_copy_31"/>
    <radialGradient id="radial-gradient-4" cx="2.01" cy="1359.38" fx="2.01" fy="1359.38" r="4.38" xlink:href="#radial-gradient-3"/>
    <linearGradient id="New_Gradient_Swatch_copy_10" data-name="New Gradient Swatch copy 10" x1="78.59" y1="55.03" x2="74.69" y2="47.51" gradientUnits="userSpaceOnUse">
      <stop offset=".04" stop-color="#9697ac"/>
      <stop offset=".58" stop-color="#cdcad1"/>
      <stop offset="1" stop-color="#e7e4eb"/>
    </linearGradient>
    <radialGradient id="New_Gradient_Swatch_copy_29" data-name="New Gradient Swatch copy 29" cx="7.64" cy="1358.53" fx="7.64" fy="1358.53" r=".77" gradientTransform="translate(50.5 -6242.5) rotate(30) scale(4) skewX(30)" gradientUnits="userSpaceOnUse">
      <stop offset=".03" stop-color="#f7d8c4"/>
      <stop offset="1" stop-color="#f2af97"/>
    </radialGradient>
    <radialGradient id="radial-gradient-5" cx="439.74" cy="-804.27" fx="439.74" fy="-804.27" r=".49" gradientTransform="translate(-1681.36 3263.66) scale(4)" gradientUnits="userSpaceOnUse">
      <stop offset="0" stop-color="#f6cf5b"/>
      <stop offset="1" stop-color="#ffa285"/>
    </radialGradient>
    <linearGradient id="linear-gradient-11" x1="7166.09" y1="2268.28" x2="7172.17" y2="2268.28" gradientTransform="translate(6285.95 1002.57) rotate(-150) scale(1 -1) skewX(-30)" xlink:href="#linear-gradient-8"/>
    <radialGradient id="New_Gradient_Swatch_copy_15" data-name="New Gradient Swatch copy 15" cx="7.77" cy="1357.16" fx="7.77" fy="1357.16" r="1.04" gradientTransform="translate(50.5 -6242.5) rotate(30) scale(4) skewX(30)" gradientUnits="userSpaceOnUse">
      <stop offset="0" stop-color="#ff63c7"/>
      <stop offset="1" stop-color="#9819a4"/>
    </radialGradient>
    <linearGradient id="New_Gradient_Swatch_copy_8-2" data-name="New Gradient Swatch copy 8" x1="-412.55" y1="2268.7" x2="-408.11" y2="2268.7" xlink:href="#New_Gradient_Swatch_copy_8"/>
    <linearGradient id="linear-gradient-12" x1="7168.44" y1="2267.99" x2="7167.38" y2="2266.28" gradientTransform="translate(6285.92 1002.55) rotate(-150) scale(1 -1) skewX(-30)" xlink:href="#linear-gradient-8"/>
    <linearGradient id="linear-gradient-13" x1="7168.81" y1="2267.73" x2="7171.56" y2="2267.73" gradientTransform="translate(6285.92 1002.55) rotate(-150) scale(1 -1) skewX(-30)" xlink:href="#linear-gradient-8"/>
    <radialGradient id="New_Gradient_Swatch_copy_31-3" data-name="New Gradient Swatch copy 31" cx="7.72" cy="1361.56" fx="7.72" fy="1361.56" r="1.27" xlink:href="#New_Gradient_Swatch_copy_31"/>
    <radialGradient id="radial-gradient-6" cx="7.72" cy="1361.56" fx="7.72" fy="1361.56" r="1.1" gradientTransform="translate(50.5 -6242.5) rotate(30) scale(4) skewX(30)" gradientUnits="userSpaceOnUse">
      <stop offset="0" stop-color="#6618a8"/>
      <stop offset="1" stop-color="#451083"/>
    </radialGradient>
    <radialGradient id="New_Gradient_Swatch_copy_29-2" data-name="New Gradient Swatch copy 29" cx="7.72" cy="1360.71" fx="7.72" fy="1360.71" r=".76" xlink:href="#New_Gradient_Swatch_copy_29"/>
    <linearGradient id="linear-gradient-14" x1="78.48" y1="55.41" x2="73.26" y2="59.17" gradientTransform="matrix(1, 0, 0, 1, 0, 0)" xlink:href="#linear-gradient-8"/>
    <linearGradient id="New_Gradient_Swatch_copy_36" data-name="New Gradient Swatch copy 36" x1="-412.93" y1="2289.32" x2="-408.14" y2="2289.32" gradientTransform="translate(432.77 -2376.54) rotate(30) skewX(30)" gradientUnits="userSpaceOnUse">
      <stop offset=".1" stop-color="#451083"/>
      <stop offset="1" stop-color="#7c1dc2"/>
    </linearGradient>
    <radialGradient id="radial-gradient-7" cx="428.63" cy="-800.06" fx="428.63" fy="-800.06" r=".67" gradientTransform="translate(-1681.36 3263.66) scale(4)" gradientUnits="userSpaceOnUse">
      <stop offset=".03" stop-color="#f7d8c4"/>
      <stop offset="1" stop-color="#f2af97"/>
    </radialGradient>
    <linearGradient id="New_Gradient_Swatch_copy_9-3" data-name="New Gradient Swatch copy 9" x1="63.22" y1="241.75" x2="68.91" y2="241.75" gradientTransform="translate(-25.25 -174.87) rotate(1.99)" xlink:href="#New_Gradient_Swatch_copy_9"/>
    <linearGradient id="linear-gradient-15" x1="32.49" y1="84.81" x2="44.09" y2="71.68" gradientUnits="userSpaceOnUse">
      <stop offset="0" stop-color="#f2af97"/>
      <stop offset=".81" stop-color="#f5cfba"/>
      <stop offset="1" stop-color="#f7d8c4"/>
    </linearGradient>
    <linearGradient id="linear-gradient-16" x1="36.31" y1="84.53" x2="39.55" y2="84.53" gradientUnits="userSpaceOnUse">
      <stop offset=".09" stop-color="#10054d"/>
      <stop offset=".89" stop-color="#270656"/>
    </linearGradient>
    <linearGradient id="linear-gradient-17" x1="34.81" y1="86.86" x2="46.41" y2="73.73" xlink:href="#linear-gradient-15"/>
    <linearGradient id="linear-gradient-18" x1="34.06" y1="86.2" x2="45.66" y2="73.07" xlink:href="#linear-gradient-15"/>
    <linearGradient id="linear-gradient-19" x1="38.29" y1="85.47" x2="41.53" y2="85.47" xlink:href="#linear-gradient-16"/>
    <linearGradient id="linear-gradient-20" x1="36.46" y1="88.32" x2="48.06" y2="75.19" xlink:href="#linear-gradient-15"/>
    <linearGradient id="linear-gradient-21" x1="12349.54" y1="72.02" x2="12349.54" y2="100.71" gradientTransform="translate(12381.71) rotate(-180) scale(1 -1)" gradientUnits="userSpaceOnUse">
      <stop offset="0" stop-color="#271273"/>
      <stop offset=".19" stop-color="#1f0e5c"/>
      <stop offset="1" stop-color="#000"/>
    </linearGradient>
    <linearGradient id="linear-gradient-22" x1="12349.54" y1="84.18" x2="12349.54" y2="98.86" gradientTransform="translate(12381.71) rotate(-180) scale(1 -1)" gradientUnits="userSpaceOnUse">
      <stop offset="0" stop-color="#451083"/>
      <stop offset=".29" stop-color="#300b5c"/>
      <stop offset="1" stop-color="#000"/>
    </linearGradient>
    <linearGradient id="linear-gradient-23" x1="12355.41" y1="88.74" x2="12361.77" y2="103.01" gradientTransform="translate(12381.71) rotate(-180) scale(1 -1)" gradientUnits="userSpaceOnUse">
      <stop offset="0" stop-color="#25054d"/>
      <stop offset="1" stop-color="#451083"/>
    </linearGradient>
    <linearGradient id="linear-gradient-24" x1="12340.46" y1="78.48" x2="12350.3" y2="92.73" xlink:href="#linear-gradient-23"/>
    <linearGradient id="linear-gradient-25" x1="12357.38" y1="63.44" x2="12347.6" y2="82.07" gradientTransform="translate(12381.71) rotate(-180) scale(1 -1)" gradientUnits="userSpaceOnUse">
      <stop offset=".52" stop-color="#451083"/>
      <stop offset="1" stop-color="#3a3b97"/>
    </linearGradient>
    <radialGradient id="Radial_Gradient_1-2" data-name="Radial Gradient 1" cx="11953.33" cy="-795.67" fx="11953.33" fy="-795.67" r="1.6" gradientTransform="translate(47845.49 3263.66) rotate(-180) scale(4 -4)" xlink:href="#Radial_Gradient_1"/>
    <linearGradient id="linear-gradient-26" x1="30.72" y1="83.25" x2="42.32" y2="70.12" xlink:href="#linear-gradient-15"/>
    <linearGradient id="linear-gradient-27" x1="29.38" y1="81.97" x2="40.91" y2="68.92" xlink:href="#linear-gradient-15"/>
    <linearGradient id="linear-gradient-28" x1="30.53" y1="76.42" x2="39.36" y2="76.42" xlink:href="#linear-gradient-16"/>
    <linearGradient id="linear-gradient-29" x1="32.45" y1="77.21" x2="35.89" y2="74.87" xlink:href="#linear-gradient-16"/>
    <linearGradient id="linear-gradient-30" x1="-7067.36" y1="72.96" x2="-7056.84" y2="72.96" gradientTransform="translate(7101)" gradientUnits="userSpaceOnUse">
      <stop offset="0" stop-color="#240749"/>
      <stop offset=".2" stop-color="#25094c"/>
      <stop offset=".37" stop-color="#2b1256"/>
      <stop offset=".47" stop-color="#311b61"/>
      <stop offset=".49" stop-color="#351f64"/>
      <stop offset=".52" stop-color="#422c6f"/>
      <stop offset=".55" stop-color="#584181"/>
      <stop offset=".57" stop-color="#442e71"/>
      <stop offset=".6" stop-color="#361f65"/>
      <stop offset=".63" stop-color="#311b61"/>
      <stop offset=".72" stop-color="#2a1054"/>
      <stop offset=".87" stop-color="#220446"/>
      <stop offset="1" stop-color="#200041"/>
    </linearGradient>
    <linearGradient id="linear-gradient-31" x1="-7067.57" y1="72.7" x2="-7057.98" y2="72.7" gradientTransform="translate(7101)" gradientUnits="userSpaceOnUse">
      <stop offset="0" stop-color="#311b61"/>
      <stop offset=".2" stop-color="#290e52"/>
      <stop offset=".49" stop-color="#200041"/>
      <stop offset="1" stop-color="#0f001f"/>
    </linearGradient>
    <linearGradient id="linear-gradient-32" x1="-7067.46" y1="72.7" x2="-7058.08" y2="72.7" gradientTransform="translate(7101)" xlink:href="#linear-gradient-2"/>
    <radialGradient id="New_Gradient_Swatch_copy-3" data-name="New Gradient Swatch copy" cx="-5372.74" cy="-6836.52" fx="-5372.74" fy="-6836.52" r=".34" gradientTransform="translate(25610.77 8349.38) rotate(-18.98) scale(4 2.36)" xlink:href="#New_Gradient_Swatch_copy"/>
    <linearGradient id="linear-gradient-33" x1="-748.53" y1="3949.9" x2="-752.9" y2="3946.59" gradientTransform="translate(6611.26 -692.24) rotate(30) skewX(-49.11)" xlink:href="#linear-gradient-3"/>
    <linearGradient id="linear-gradient-34" x1="-7063.5" y1="70.5" x2="-7061.05" y2="74.34" gradientTransform="translate(7101)" xlink:href="#linear-gradient-4"/>
    <linearGradient id="linear-gradient-35" x1="13189.33" y1="63.61" x2="13179.35" y2="72.28" gradientTransform="translate(13223.26) rotate(-180) scale(1 -1)" xlink:href="#linear-gradient-31"/>
    <linearGradient id="linear-gradient-36" x1="-6070.99" y1="73.3" x2="-6075.9" y2="65.46" gradientTransform="translate(6115.42)" gradientUnits="userSpaceOnUse">
      <stop offset=".06" stop-color="#200041"/>
      <stop offset=".26" stop-color="#210143"/>
      <stop offset=".36" stop-color="#25084a"/>
      <stop offset=".43" stop-color="#2c1357"/>
      <stop offset=".47" stop-color="#311b61"/>
      <stop offset=".48" stop-color="#351f65"/>
      <stop offset=".5" stop-color="#412c71"/>
      <stop offset=".51" stop-color="#554286"/>
      <stop offset=".52" stop-color="#7160a2"/>
      <stop offset=".53" stop-color="#8070b1"/>
      <stop offset=".54" stop-color="#7868a9"/>
      <stop offset=".56" stop-color="#59468a"/>
      <stop offset=".59" stop-color="#432e73"/>
      <stop offset=".61" stop-color="#352065"/>
      <stop offset=".63" stop-color="#311b61"/>
      <stop offset=".67" stop-color="#2a1054"/>
      <stop offset=".75" stop-color="#220446"/>
      <stop offset=".81" stop-color="#200041"/>
      <stop offset="1" stop-color="#200041"/>
    </linearGradient>
    <radialGradient id="Radial_Gradient_1-3" data-name="Radial Gradient 1" cx="-5684.32" cy="-798.79" fx="-5684.32" fy="-798.79" r=".21" gradientTransform="translate(22780.33 3263.66) scale(4)" xlink:href="#Radial_Gradient_1"/>
    <radialGradient id="radial-gradient-8" cx="-1784.09" cy="16840.51" fx="-1784.09" fy="16840.51" r=".1" gradientTransform="translate(44115.92 -10328.02) rotate(67.66) scale(4 2.66)" xlink:href="#radial-gradient"/>
    <linearGradient id="New_Gradient_Swatch_copy_9-4" data-name="New Gradient Swatch copy 9" x1="25.93" y1="71.46" x2="39.94" y2="68.46" xlink:href="#New_Gradient_Swatch_copy_9"/>
    <linearGradient id="linear-gradient-37" x1="31.44" y1="65.9" x2="35.07" y2="60.72" gradientTransform="matrix(1, 0, 0, 1, 0, 0)" xlink:href="#linear-gradient-8"/>
    <radialGradient id="New_Gradient_Swatch_copy_31-4" data-name="New Gradient Swatch copy 31" cx="-2.62" cy="1367.88" fx="-2.62" fy="1367.88" r=".39" xlink:href="#New_Gradient_Swatch_copy_31"/>
    <radialGradient id="radial-gradient-9" cx="-2.61" cy="1367.84" fx="-2.61" fy="1367.84" r=".19" xlink:href="#radial-gradient-3"/>
    <linearGradient id="New_Gradient_Swatch_copy_8-3" data-name="New Gradient Swatch copy 8" x1="-452.5" y1="2313.51" x2="-451.24" y2="2313.51" xlink:href="#New_Gradient_Swatch_copy_8"/>
    <linearGradient id="linear-gradient-38" x1="-452.43" y1="2313.07" x2="-451.31" y2="2313.07" xlink:href="#linear-gradient-8"/>
    <linearGradient id="linear-gradient-39" x1="-452.38" y1="2313.78" x2="-451.36" y2="2313.78" xlink:href="#linear-gradient-8"/>
    <linearGradient id="linear-gradient-40" x1="-452.19" y1="2313.68" x2="-451.52" y2="2313.68" xlink:href="#linear-gradient-8"/>
    <linearGradient id="New_Gradient_Swatch_copy_9-5" data-name="New Gradient Swatch copy 9" x1="-655.89" y1="2138.78" x2="-655.56" y2="2138.97" gradientTransform="translate(609.32 -2071.82) rotate(30) skewX(30)" xlink:href="#New_Gradient_Swatch_copy_9"/>
    <radialGradient id="New_Gradient_Swatch_copy_31-5" data-name="New Gradient Swatch copy 31" cx="430.71" cy="-798.5" fx="430.71" fy="-798.5" r=".5" gradientTransform="translate(-1681.36 3263.66) scale(4)" xlink:href="#New_Gradient_Swatch_copy_31"/>
    <radialGradient id="radial-gradient-10" cx="-2.61" cy="1367.84" fx="-2.61" fy="1367.84" r=".56" xlink:href="#radial-gradient-3"/>
    <linearGradient id="linear-gradient-41" x1="40.07" y1="74.38" x2="43.23" y2="71.14" xlink:href="#linear-gradient-15"/>
    <linearGradient id="linear-gradient-42" x1="38.08" y1="74.72" x2="37.84" y2="70.1" xlink:href="#linear-gradient-15"/>
    <linearGradient id="New_Gradient_Swatch_copy_9-6" data-name="New Gradient Swatch copy 9" x1="29.75" y1="72.28" x2="38.05" y2="69.83" xlink:href="#New_Gradient_Swatch_copy_9"/>
    <linearGradient id="linear-gradient-43" x1="12373.03" y1="63.24" x2="12373.03" y2="88.42" xlink:href="#linear-gradient-21"/>
    <linearGradient id="linear-gradient-44" x1="12373.03" y1="71.34" x2="12373.03" y2="88.25" xlink:href="#linear-gradient-22"/>
    <linearGradient id="linear-gradient-45" x1="12378.89" y1="72.82" x2="12385.25" y2="87.09" xlink:href="#linear-gradient-23"/>
    <linearGradient id="linear-gradient-46" x1="12363.95" y1="62.56" x2="12373.79" y2="76.8" xlink:href="#linear-gradient-23"/>
    <linearGradient id="linear-gradient-47" x1="12380.87" y1="47.52" x2="12371.09" y2="66.15" xlink:href="#linear-gradient-25"/>
    <radialGradient id="Radial_Gradient_1-4" data-name="Radial Gradient 1" cx="11959.2" cy="-799.65" fx="11959.2" fy="-799.65" r="1.6" gradientTransform="translate(47845.49 3263.66) rotate(-180) scale(4 -4)" xlink:href="#Radial_Gradient_1"/>
    <linearGradient id="linear-gradient-48" x1="12283.4" y1="60.88" x2="12283.4" y2="83.79" xlink:href="#linear-gradient-21"/>
    <linearGradient id="linear-gradient-49" x1="12283.4" y1="68.54" x2="12283.4" y2="83.71" xlink:href="#linear-gradient-22"/>
    <linearGradient id="linear-gradient-50" x1="12289.26" y1="69.8" x2="12295.62" y2="84.07" xlink:href="#linear-gradient-23"/>
    <linearGradient id="linear-gradient-51" x1="12274.32" y1="59.54" x2="12284.16" y2="73.79" xlink:href="#linear-gradient-23"/>
    <linearGradient id="linear-gradient-52" x1="12291.24" y1="44.5" x2="12281.46" y2="63.13" xlink:href="#linear-gradient-25"/>
    <radialGradient id="Radial_Gradient_1-5" data-name="Radial Gradient 1" cx="11936.79" cy="-800.41" fx="11936.79" fy="-800.41" r="1.6" gradientTransform="translate(47845.49 3263.66) rotate(-180) scale(4 -4)" xlink:href="#Radial_Gradient_1"/>
  </defs>
  <g class="cls-54">
    <g id="Calque_2" data-name="Calque 2">
      <g id="Layer_20" data-name="Layer 20">
        <g>
          <g>
            <g class="cls-47">
              <path class="cls-59" d="M56.96,93.41c-1.47,0-2.8-.32-3.85-.93L12.39,68.97c-1.4-.81-2.21-2.09-2.21-3.51,0-1.56,.97-3.02,2.66-3.99l23.11-13.34c1.33-.77,2.98-1.19,4.67-1.19,1.47,0,2.8,.32,3.85,.93l40.73,23.51c1.4,.81,2.21,2.09,2.21,3.51,0,1.56-.97,3.02-2.66,3.99l-23.11,13.34c-1.33,.77-2.98,1.19-4.67,1.19Z"/>
              <path class="cls-107" d="M36.05,48.3c1.32-.76,2.99-1.17,4.66-1.15,.67,0,1.31,.09,1.91,.23,.64,.15,1.39,.45,1.9,.75l40.57,23.42c1.4,.81,2.12,2.08,2.04,3.47-.02,.39-.12,.77-.25,1.14-.36,.98-1.36,2.03-2.49,2.69l-22.79,13.16c-.27,.16-.64,.34-.94,.47-1.11,.46-2.37,.73-3.65,.73-1.44,0-2.76-.3-3.79-.9L12.49,68.8c-1.4-.81-2.12-2.09-2.03-3.48,.02-.34,.1-.66,.2-.99,.33-1.04,1.37-2.16,2.56-2.85l22.84-13.19Z"/>
              <path class="cls-26" d="M36.15,48.48c1.32-.76,2.99-1.16,4.64-1.12,.67,.02,1.31,.12,1.89,.27s1.42,.5,1.88,.77l40.42,23.33c1.39,.8,2.04,2.07,1.87,3.42-.05,.37-.17,.73-.31,1.09-.35,.87-1.5,1.99-2.52,2.58l-22.46,12.97c-.25,.14-.66,.35-.93,.47-1.09,.46-2.33,.73-3.59,.75-1.42,.01-2.72-.28-3.74-.87L12.59,68.62c-1.39-.81-2.04-2.08-1.86-3.44,.04-.32,.14-.63,.25-.94,.33-.93,1.53-2.12,2.6-2.74l22.57-13.03Z"/>
              <path class="cls-92" d="M36.26,48.65c1.32-.76,3-1.14,4.63-1.09,.67,.02,1.3,.15,1.88,.3,.51,.13,1.45,.56,1.86,.79l40.26,23.25c1.38,.8,1.96,2.06,1.71,3.38-.07,.35-.22,.69-.37,1.04-.33,.77-1.64,1.95-2.55,2.47l-22.13,12.78c-.22,.13-.67,.36-.92,.47-1.07,.46-2.29,.74-3.53,.76-1.39,.02-2.69-.27-3.68-.84L12.69,68.44c-1.39-.8-1.96-2.08-1.68-3.4,.06-.3,.19-.59,.31-.89,.32-.82,1.69-2.07,2.65-2.62l22.29-12.87Z"/>
              <path class="cls-61" d="M36.36,48.83c1.31-.76,3-1.13,4.62-1.05,.67,.03,1.29,.17,1.86,.33,.44,.12,1.48,.61,1.84,.82l40.11,23.16c1.37,.79,1.89,2.05,1.54,3.33-.09,.34-.26,.65-.43,.98-.31,.66-1.78,1.9-2.58,2.36l-21.81,12.59c-.19,.11-.69,.38-.9,.47-1.05,.46-2.25,.75-3.47,.77-1.37,.03-2.65-.25-3.63-.81L12.79,68.27c-1.39-.8-1.88-2.07-1.51-3.36,.08-.29,.23-.56,.36-.85,.3-.7,1.86-2.03,2.69-2.51l22.02-12.71Z"/>
              <path class="cls-29" d="M36.46,49.01c1.31-.76,3.01-1.11,4.6-1.02,.67,.04,1.28,.2,1.85,.36,.38,.11,1.51,.66,1.82,.84l39.96,23.07c1.37,.79,1.81,2.04,1.38,3.28-.11,.32-.31,.6-.48,.93-.29,.56-1.92,1.86-2.6,2.25l-21.48,12.4c-.16,.1-.71,.39-.89,.47-1.03,.46-2.21,.75-3.4,.79-1.35,.04-2.61-.23-3.57-.78L12.9,68.09c-1.38-.8-1.81-2.06-1.34-3.32,.1-.27,.28-.52,.42-.8,.28-.59,2.02-1.99,2.73-2.4l21.75-12.56Z"/>
              <path class="cls-103" d="M36.56,49.18c1.31-.75,3.01-1.1,4.59-.99,.66,.05,1.27,.23,1.83,.4,.31,.1,1.54,.71,1.8,.86l39.8,22.98c1.36,.78,1.74,2.02,1.21,3.24-.13,.3-.3,.6-.54,.88-.16,.5-2.07,1.82-2.63,2.14l-21.16,12.22c-.14,.08-.73,.4-.88,.47-1.01,.45-2.17,.76-3.34,.8-1.32,.04-2.57-.21-3.52-.75L13,67.92c-1.38-.8-1.74-2.06-1.16-3.28,.12-.26,.27-.52,.47-.76,.15-.53,2.18-1.95,2.78-2.29l21.48-12.4Z"/>
              <path class="cls-72" d="M36.66,49.36c1.3-.75,3.02-1.09,4.58-.95,.66,.06,1.26,.25,1.82,.43,.25,.08,1.57,.77,1.78,.89l39.65,22.89c1.35,.78,1.67,2.01,1.04,3.19-.15,.28-.34,.56-.6,.83-.13,.4-2.21,1.77-2.66,2.04l-20.83,12.03c-.11,.06-.74,.41-.86,.47-.99,.45-2.12,.77-3.28,.81-1.3,.05-2.54-.19-3.46-.72L13.1,67.74c-1.38-.79-1.67-2.05-.99-3.24,.14-.24,.31-.49,.52-.71,.12-.42,2.34-1.9,2.82-2.18l21.21-12.24Z"/>
              <path class="cls-83" d="M36.77,49.54c1.3-.75,3.02-1.07,4.56-.92,.66,.07,1.25,.28,1.8,.46,.19,.06,1.6,.82,1.76,.91l39.49,22.8c1.35,.78,1.61,2.01,.88,3.15-.17,.27-.38,.53-.66,.77-.1,.3-2.35,1.73-2.69,1.93l-20.51,11.84c-.08,.05-.76,.43-.85,.47-.97,.45-2.08,.78-3.22,.83-1.28,.06-2.5-.17-3.41-.7L13.2,67.56c-1.37-.79-1.61-2.05-.81-3.21,.16-.23,.34-.46,.58-.67,.09-.32,2.51-1.86,2.87-2.07l20.93-12.09Z"/>
              <path class="cls-84" d="M36.87,49.71c1.3-.75,3.03-1.06,4.55-.89,.66,.07,1.24,.3,1.78,.5,.12,.04,1.63,.87,1.73,.93l39.34,22.71c1.34,.77,1.54,2,.71,3.1-.19,.25-.42,.49-.71,.72-.07,.2-2.49,1.69-2.72,1.82l-20.18,11.65c-.05,.03-.78,.44-.84,.47-.95,.45-2.04,.78-3.16,.84-1.25,.07-2.46-.15-3.35-.67L13.3,67.39c-1.37-.79-1.55-2.05-.64-3.17,.17-.21,.38-.43,.63-.62,.06-.21,2.67-1.82,2.91-1.95l20.66-11.93Z"/>
              <path class="cls-57" d="M36.97,49.89c1.29-.75,3.03-1.04,4.53-.85,.66,.08,1.23,.33,1.77,.53,.06,.02,1.66,.92,1.71,.95l39.19,22.62c1.33,.77,1.48,2,.54,3.05-.21,.23-.46,.46-.77,.67-.03,.1-2.63,1.65-2.75,1.71l-19.85,11.46s-.79,.45-.82,.47c-.93,.45-2,.79-3.09,.86-1.23,.07-2.43-.14-3.3-.64L13.41,67.21c-1.36-.79-1.49-2.06-.47-3.13,.19-.2,.42-.4,.69-.58,.03-.11,2.83-1.77,2.95-1.84l20.39-11.77Z"/>
              <path d="M54.23,90.55L13.51,67.03c-1.61-.93-1.41-2.55,.45-3.62l23.11-13.34c1.86-1.07,4.67-1.19,6.27-.26l40.73,23.51c1.61,.93,1.41,2.55-.45,3.62l-23.11,13.34c-1.86,1.07-4.67,1.19-6.27,.26Z"/>
            </g>
            <path class="cls-98" d="M54.23,90.51L13.51,67c-.72-.41-1.07-.97-1.09-1.54,0-.02,0-2,0-2.02,.01-.7,.53,.52,1.54-.06l23.11-13.34c1.86-1.07,4.67-1.19,6.27-.26l40.73,23.51c.54,.31,.93-1.01,1.07-.59,.05,.14,.02,1.99,.02,2.13,.02,.72-.51,1.49-1.54,2.08l-23.11,13.34c-1.86,1.07-4.67,1.19-6.27,.26Z"/>
            <path class="cls-110" d="M54.23,88.53L13.51,65.02c-1.61-.93-1.41-2.55,.45-3.62l23.11-13.34c1.86-1.07,4.67-1.19,6.27-.26l40.73,23.51c1.61,.93,1.41,2.55-.45,3.62l-23.11,13.34c-1.86,1.07-4.67,1.19-6.27,.26Z"/>
            <path class="cls-1" d="M56.96,88.34c-.92,0-1.74-.18-2.32-.52L13.91,64.31c-.25-.15-.68-.45-.68-.87s.42-.94,1.13-1.34l23.11-13.34c.86-.49,2-.78,3.14-.78,.92,0,1.74,.18,2.32,.52l40.72,23.51c.25,.15,.68,.45,.68,.87s-.42,.94-1.13,1.35l-23.11,13.34c-.86,.49-2,.78-3.14,.78Z"/>
            <path class="cls-23" d="M83.62,74.59l-23.11,13.34c-1.86,1.07-4.67,1.19-6.27,.26L13.51,64.68c-.67-.39-1.02-.89-1.07-1.43-.08,.66,.27,1.3,1.07,1.76l40.73,23.51c1.61,.93,4.42,.81,6.27-.26l23.11-13.34c1.09-.63,1.6-1.44,1.52-2.2-.08,.65-.6,1.33-1.52,1.86Z"/>
            <ellipse class="cls-33" cx="59.25" cy="89.14" rx="13.26" ry="8.8" transform="translate(-29.44 29.21) rotate(-22.34)"/>
            <ellipse class="cls-36" cx="36.15" cy="56.51" rx="10.17" ry="6" transform="translate(-16.41 14.83) rotate(-18.98)"/>
            <path class="cls-97" d="M61.47,79.87L28.4,60.77c-.66-.38-.58-1.05,.19-1.49l12.42-7.17c.76-.44,1.92-.49,2.58-.11l33.07,19.09c.66,.38,.58,1.05-.19,1.49l-12.42,7.17c-.76,.44-1.92,.49-2.58,.11Z"/>
            <path class="cls-16" d="M41.73,53.51l2.12,1.22c.27,.16,.71,.16,.97,0,.27-.15,.27-.41,0-.56l-2.12-1.22c-.27-.16-.71-.16-.97,0-.27,.15-.27,.41,0,.56Zm3.63,2.09l1,.58c.27,.16,.71,.16,.97,0,.27-.15,.27-.41,0-.56l-1-.58c-.27-.16-.71-.16-.97,0-.27,.15-.27,.41,0,.56Zm2.51,1.45l1,.58c.27,.16,.71,.16,.97,0,.27-.15,.27-.41,0-.56l-1-.58c-.27-.16-.71-.16-.97,0s-.27,.41,0,.56Zm2.51,1.45l1,.58c.27,.16,.71,.16,.97,0,.27-.15,.27-.41,0-.56l-1-.58c-.27-.16-.71-.16-.97,0s-.27,.41,0,.56Zm2.51,1.45l1,.58c.27,.16,.71,.16,.97,0,.27-.15,.27-.41,0-.56l-1-.58c-.27-.16-.71-.16-.97,0-.27,.15-.27,.41,0,.56Zm2.51,1.45l1,.58c.27,.16,.71,.16,.97,0,.27-.15,.27-.41,0-.56l-1-.58c-.27-.16-.71-.16-.97,0-.27,.15-.27,.41,0,.56Zm2.51,1.45l1,.58c.27,.16,.71,.16,.97,0s.27-.41,0-.56l-1-.58c-.27-.16-.71-.16-.97,0-.27,.15-.27,.41,0,.56Zm2.51,1.45l1,.58c.27,.16,.71,.16,.97,0,.27-.15,.27-.41,0-.56l-1-.58c-.27-.16-.71-.16-.97,0-.27,.15-.27,.41,0,.56Zm2.51,1.45l1,.58c.27,.16,.71,.16,.97,0,.27-.15,.27-.41,0-.56l-1-.58c-.27-.16-.71-.16-.97,0-.27,.15-.27,.41,0,.56Zm2.51,1.45l1,.58c.27,.16,.71,.16,.97,0s.27-.41,0-.56l-1-.58c-.27-.16-.71-.16-.97,0-.27,.15-.27,.41,0,.56Zm2.51,1.45l1,.58c.27,.16,.71,.16,.97,0s.27-.41,0-.56l-1-.58c-.27-.16-.71-.16-.97,0-.27,.15-.27,.41,0,.56Zm2.51,1.45l1,.58c.27,.16,.71,.16,.97,0,.27-.15,.27-.41,0-.56l-1-.58c-.27-.16-.71-.16-.97,0-.27,.15-.27,.41,0,.56Zm2.57,1.48l1,.58c.27,.16,.71,.16,.97,0,.27-.15,.27-.41,0-.56l-1-.58c-.27-.16-.71-.16-.97,0-.27,.15-.27,.41,0,.56Zm-33.58-16.7l.87,.5c.31,.18,.8,.18,1.11,0l.86-.5c.3-.18,.3-.46,0-.64l-.87-.5c-.31-.18-.8-.18-1.11,0l-.86,.5c-.3,.18-.3,.46,0,.64Zm4.49,1.95l.86-.5c.3-.18,.3-.46,0-.64l-.87-.5c-.31-.18-.8-.18-1.11,0l-.86,.5c-.3,.18-.3,.46,0,.64l.87,.5c.31,.18,.8,.18,1.11,0Zm.54,.95l.87,.5c.31,.18,.8,.18,1.11,0l.86-.5c.3-.18,.3-.46,0-.64l-.87-.5c-.31-.18-.8-.18-1.11,0l-.86,.5c-.3,.18-.3,.46,0,.64Zm2.51,1.45l.87,.5c.31,.18,.8,.18,1.11,0l.86-.5c.3-.18,.3-.46,0-.64l-.87-.5c-.31-.18-.8-.18-1.11,0l-.86,.5c-.3,.18-.3,.46,0,.64Zm5.35,.82l-.87-.5c-.31-.18-.8-.18-1.11,0l-.86,.5c-.3,.18-.3,.46,0,.64l.87,.5c.31,.18,.8,.18,1.11,0l.86-.5c.3-.18,.3-.46,0-.64Zm2.51,1.45l-.87-.5c-.31-.18-.8-.18-1.11,0l-.86,.5c-.3,.18-.3,.46,0,.64l.87,.5c.31,.18,.8,.18,1.11,0l.86-.5c.3-.18,.3-.46,0-.64Zm2.51,1.45l-.87-.5c-.31-.18-.8-.18-1.11,0l-.86,.5c-.3,.18-.3,.46,0,.64l.87,.5c.31,.18,.8,.18,1.11,0l.86-.5c.3-.18,.3-.46,0-.64Zm2.51,1.45l-.87-.5c-.31-.18-.8-.18-1.11,0l-.86,.5c-.3,.18-.3,.46,0,.64l.87,.5c.31,.18,.8,.18,1.11,0l.86-.5c.3-.18,.3-.46,0-.64Zm2.51,1.45l-.87-.5c-.31-.18-.8-.18-1.11,0l-.86,.5c-.3,.18-.3,.46,0,.64l.87,.5c.31,.18,.8,.18,1.11,0l.86-.5c.3-.18,.3-.46,0-.64Zm2.51,1.45l-.87-.5c-.31-.18-.8-.18-1.11,0l-.86,.5c-.3,.18-.3,.46,0,.64l.87,.5c.31,.18,.8,.18,1.11,0l.86-.5c.3-.18,.3-.46,0-.64Zm-.32,2.09l.87,.5c.31,.18,.8,.18,1.11,0l.86-.5c.3-.18,.3-.46,0-.64l-.87-.5c-.31-.18-.8-.18-1.11,0l-.86,.5c-.3,.18-.3,.46,0,.64Zm5.35,.82l-.87-.5c-.31-.18-.8-.18-1.11,0l-.86,.5c-.3,.18-.3,.46,0,.64l.87,.5c.31,.18,.8,.18,1.11,0l.86-.5c.3-.18,.3-.46,0-.64Zm3.68,2.13l-1.98-1.15c-.31-.18-.8-.18-1.11,0l-.86,.5c-.3,.18-.3,.46,0,.64l1.98,1.15c.31,.18,.8,.18,1.11,0l.86-.5c.3-.18,.3-.46,0-.64Zm-36.49-16.11l1.98,1.15c.31,.18,.8,.18,1.11,0l.86-.5c.3-.18,.3-.46,0-.64l-1.98-1.15c-.31-.18-.8-.18-1.11,0l-.86,.5c-.3,.18-.3,.46,0,.64Zm3.63,2.09l.87,.5c.31,.18,.8,.18,1.11,0l.86-.5c.3-.18,.3-.46,0-.64l-.87-.5c-.31-.18-.8-.18-1.11,0l-.86,.5c-.3,.18-.3,.46,0,.64Zm3.38,1.95c.31,.18,.8,.18,1.11,0l.86-.5c.3-.18,.3-.46,0-.64l-.87-.5c-.31-.18-.8-.18-1.11,0l-.86,.5c-.3,.18-.3,.46,0,.64l.87,.5Zm2.51,1.45c.31,.18,.8,.18,1.11,0l.86-.5c.3-.18,.3-.46,0-.64l-.87-.5c-.31-.18-.8-.18-1.11,0l-.86,.5c-.3,.18-.3,.46,0,.64l.87,.5Zm2.5-.19l-.86,.5c-.3,.18-.3,.46,0,.64l.87,.5c.31,.18,.8,.18,1.11,0l.86-.5c.3-.18,.3-.46,0-.64l-.87-.5c-.31-.18-.8-.18-1.11,0Zm2.57,1.42l-.97,.56c-.28,.16-.27,.42,0,.58l.98,.56c.28,.16,.73,.16,1,0l.97-.56c.28-.16,.27-.42,0-.58l-.98-.56c-.28-.16-.73-.16-1,0Zm2.51,1.45l-.97,.56c-.28,.16-.27,.42,0,.58l.98,.56c.28,.16,.73,.16,1,0l.97-.56c.28-.16,.27-.42,0-.58l-.98-.56c-.28-.16-.73-.16-1,0Zm2.51,1.45l-.97,.56c-.28,.16-.27,.42,0,.58l.98,.56c.28,.16,.73,.16,1,0l.97-.56c.28-.16,.27-.42,0-.58l-.98-.56c-.28-.16-.73-.16-1,0Zm2.51,1.45l-.97,.56c-.28,.16-.27,.42,0,.58l.98,.56c.28,.16,.73,.16,1,0l.97-.56c.28-.16,.27-.42,0-.58l-.98-.56c-.28-.16-.73-.16-1,0Zm2.51,1.45l-.97,.56c-.28,.16-.27,.42,0,.58l.98,.56c.28,.16,.73,.16,1,0l.97-.56c.28-.16,.27-.42,0-.58l-.98-.56c-.28-.16-.73-.16-1,0Zm3.52,3.15l.97-.56c.28-.16,.27-.42,0-.58l-.98-.56c-.28-.16-.73-.16-1,0l-.97,.56c-.28,.16-.27,.42,0,.58l.98,.56c.28,.16,.73,.16,1,0Zm2.51,1.45l.97-.56c.28-.16,.27-.42,0-.58l-.98-.56c-.28-.16-.73-.16-1,0l-.97,.56c-.28,.16-.27,.42,0,.58l.98,.56c.28,.16,.73,.16,1,0Zm3.53,.34l-.98-.56c-.28-.16-.73-.16-1,0l-.97,.56c-.28,.16-.27,.42,0,.58l.98,.56c.28,.16,.73,.16,1,0l.97-.56c.28-.16,.27-.42,0-.58Zm-36.6-16.17l3.15,1.82c.28,.16,.73,.16,1,0l.97-.56c.28-.16,.27-.42,0-.58l-3.15-1.82c-.28-.16-.73-.16-1,0l-.97,.56c-.28,.16-.27,.42,0,.58Zm4.69,2.71l.98,.56c.28,.16,.73,.16,1,0l.97-.56c.28-.16,.27-.42,0-.58l-.98-.56c-.28-.16-.73-.16-1,0l-.97,.56c-.28,.16-.27,.42,0,.58Zm2.51,1.45l.98,.56c.28,.16,.73,.16,1,0l.97-.56c.28-.16,.27-.42,0-.58l-.98-.56c-.28-.16-.73-.16-1,0l-.97,.56c-.28,.16-.27,.42,0,.58Zm2.51,1.45l.98,.56c.28,.16,.73,.16,1,0l.97-.56c.28-.16,.27-.42,0-.58l-.98-.56c-.28-.16-.73-.16-1,0l-.97,.56c-.28,.16-.27,.42,0,.58Zm4.49,2.02l.97-.56c.28-.16,.27-.42,0-.58l-.98-.56c-.28-.16-.73-.16-1,0l-.97,.56c-.28,.16-.27,.42,0,.58l.98,.56c.28,.16,.73,.16,1,0Zm2.51,1.45l.97-.56c.28-.16,.27-.42,0-.58l-.98-.56c-.28-.16-.73-.16-1,0l-.97,.56c-.28,.16-.27,.42,0,.58l.98,.56c.28,.16,.73,.16,1,0Zm2.51,1.45l.97-.56c.28-.16,.27-.42,0-.58l-.98-.56c-.28-.16-.73-.16-1,0l-.97,.56c-.28,.16-.27,.42,0,.58l.98,.56c.28,.16,.73,.16,1,0Zm2.51,1.45l.97-.56c.28-.16,.27-.42,0-.58l-.98-.56c-.28-.16-.73-.16-1,0l-.97,.56c-.28,.16-.27,.42,0,.58l.98,.56c.28,.16,.73,.16,1,0Zm2.51,1.45l.97-.56c.28-.16,.27-.42,0-.58l-.98-.56c-.28-.16-.73-.16-1,0l-.97,.56c-.28,.16-.27,.42,0,.58l.98,.56c.28,.16,.73,.16,1,0Zm2.51,1.45l.97-.56c.28-.16,.27-.42,0-.58l-.98-.56c-.28-.16-.73-.16-1,0l-.97,.56c-.28,.16-.27,.42,0,.58l.98,.56c.28,.16,.73,.16,1,0Zm.54,.89l.98,.56c.28,.16,.73,.16,1,0l.97-.56c.28-.16,.27-.42,0-.58l-.98-.56c-.28-.16-.73-.16-1,0l-.97,.56c-.28,.16-.27,.42,0,.58Zm6.96,1.75l-2.48-1.43c-.28-.16-.73-.16-1,0l-.97,.56c-.28,.16-.27,.42,0,.58l2.48,1.43c.28,.16,.73,.16,1,0l.97-.56c.28-.16,.27-.42,0-.58Zm-36.59-16.1l4.47,2.58c.31,.18,.82,.18,1.13,0l.84-.49c.31-.18,.31-.47,0-.65l-4.47-2.58c-.31-.18-.82-.18-1.13,0l-.84,.49c-.31,.18-.31,.47,0,.65Zm6.14,3.54l.85,.49c.31,.18,.82,.18,1.13,0l.84-.49c.31-.18,.31-.47,0-.65l-.85-.49c-.31-.18-.82-.18-1.13,0l-.84,.49c-.31,.18-.31,.47,0,.65Zm2.51,1.45l.85,.49c.31,.18,.82,.18,1.13,0l.84-.49c.31-.18,.31-.47,0-.65l-.85-.49c-.31-.18-.82-.18-1.13,0l-.84,.49c-.31,.18-.31,.47,0,.65Zm2.51,1.45l.85,.49c.31,.18,.82,.18,1.13,0l.84-.49c.31-.18,.31-.47,0-.65l-.85-.49c-.31-.18-.82-.18-1.13,0l-.84,.49c-.31,.18-.31,.47,0,.65Zm2.51,1.45l.85,.49c.31,.18,.82,.18,1.13,0l.84-.49c.31-.18,.31-.47,0-.65l-.85-.49c-.31-.18-.82-.18-1.13,0l-.84,.49c-.31,.18-.31,.47,0,.65Zm2.51,1.45l.85,.49c.31,.18,.82,.18,1.13,0l.84-.49c.31-.18,.31-.47,0-.65l-.85-.49c-.31-.18-.82-.18-1.13,0l-.84,.49c-.31,.18-.31,.47,0,.65Zm2.51,1.45l.85,.49c.31,.18,.82,.18,1.13,0l.84-.49c.31-.18,.31-.47,0-.65l-.85-.49c-.31-.18-.82-.18-1.13,0l-.84,.49c-.31,.18-.31,.47,0,.65Zm2.51,1.45l.85,.49c.31,.18,.82,.18,1.13,0l.84-.49c.31-.18,.31-.47,0-.65l-.85-.49c-.31-.18-.82-.18-1.13,0l-.84,.49c-.31,.18-.31,.47,0,.65Zm2.51,1.45l.85,.49c.31,.18,.82,.18,1.13,0l.84-.49c.31-.18,.31-.47,0-.65l-.85-.49c-.31-.18-.82-.18-1.13,0l-.84,.49c-.31,.18-.31,.47,0,.65Zm2.51,1.45l.85,.49c.31,.18,.82,.18,1.13,0l.84-.49c.31-.18,.31-.47,0-.65l-.85-.49c-.31-.18-.82-.18-1.13,0l-.84,.49c-.31,.18-.31,.47,0,.65Zm2.51,1.45l.85,.49c.31,.18,.82,.18,1.13,0l.84-.49c.31-.18,.31-.47,0-.65l-.85-.49c-.31-.18-.82-.18-1.13,0l-.84,.49c-.31,.18-.31,.47,0,.65Zm5.38,.84l-.85-.49c-.31-.18-.82-.18-1.13,0l-.84,.49c-.31,.18-.31,.47,0,.65l.85,.49c.31,.18,.82,.18,1.13,0l.84-.49c.31-.18,.31-.47,0-.65Zm-32.54-16.1l-1.96-1.13c-.31-.18-.82-.18-1.13,0l-.84,.49c-.31,.18-.31,.47,0,.65l1.96,1.13c.31,.18,.82,.18,1.13,0l.84-.49c.31-.18,.31-.47,0-.65Zm2.51,1.45l-.85-.49c-.31-.18-.82-.18-1.13,0l-.84,.49c-.31,.18-.31,.47,0,.65l.85,.49c.31,.18,.82,.18,1.13,0l.84-.49c.31-.18,.31-.47,0-.65Zm2.51,1.45l-.85-.49c-.31-.18-.82-.18-1.13,0l-.84,.49c-.31,.18-.31,.47,0,.65l.85,.49c.31,.18,.82,.18,1.13,0l.84-.49c.31-.18,.31-.47,0-.65Zm17.59,10.16l-15.92-9.19c-.31-.18-.82-.18-1.13,0l-.84,.49c-.31,.18-.31,.47,0,.65l15.92,9.19c.31,.18,.82,.18,1.13,0l.84-.49c.31-.18,.31-.47,0-.65Zm2.51,1.45l-.85-.49c-.31-.18-.82-.18-1.13,0l-.84,.49c-.31,.18-.31,.47,0,.65l.85,.49c.31,.18,.82,.18,1.13,0l.84-.49c.31-.18,.31-.47,0-.65Zm2.51,1.45l-.85-.49c-.31-.18-.82-.18-1.13,0l-.84,.49c-.31,.18-.31,.47,0,.65l.85,.49c.31,.18,.82,.18,1.13,0l.84-.49c.31-.18,.31-.47,0-.65Zm2.57,1.48l-.85-.49c-.31-.18-.82-.18-1.13,0l-.84,.49c-.31,.18-.31,.47,0,.65l.85,.49c.31,.18,.82,.18,1.13,0l.84-.49c.31-.18,.31-.47,0-.65Z"/>
            <g>
              <path class="cls-31" d="M83.42,70.99l-39.24-22.67c-1.52-.88-2.75-3.23-2.75-5.26V12.28c0-2.03,1.23-2.96,2.75-2.08l39.24,22.67c1.52,.88,2.75,3.23,2.75,5.26v30.78c0,2.03-1.23,2.96-2.75,2.08Z"/>
              <path class="cls-87" d="M83.78,69.41l-38.82-22.42c-1.22-.78-1.98-2.33-1.98-3.92V12.13c0-.38,.41-.61,.73-.42,.04,.02,.07,.04,.09,.05l38.85,22.45c1.46,.84,1.98,2.33,1.98,3.92v30.86c0,.4-.44,.66-.79,.46-.03-.02-.05-.03-.06-.04Z"/>
              <path class="cls-111" d="M82.65,34.21L43.8,11.76s-.05-.03-.09-.05c-.32-.19-.73,.04-.73,.42v30.93c0,1.59,.76,3.14,1.98,3.92l38.82,22.42s.04,.02,.06,.04c.35,.2,.79-.05,.79-.46v-30.86c0-1.59-.52-3.08-1.98-3.92Zm1.67,34.78c0,.13-.11,.22-.22,.22-.04,0-.07,0-.11-.03l-38.88-22.46c-1.1-.7-1.82-2.14-1.82-3.65V12.13c0-.11,.09-.18,.18-.18,.03,0,.06,0,.09,.03l38.94,22.5c1.51,.87,1.82,2.47,1.82,3.65v30.86Z"/>
              <path class="cls-51" d="M84.2,32.46L44.97,9.79c-.6-.35-1.16-.41-1.61-.24-.06,.02-.82,.43-.88,.46h0c.47-.23,1.06-.18,1.71,.19l39.24,22.67c1.52,.88,2.75,3.23,2.75,5.26v30.78c0,1.26-.48,2.1-1.21,2.34,.06,0,.13-.02,.24-.08,.03-.02,.87-.49,.9-.51,.52-.37,.85-1.12,.85-2.16v-30.78c0-2.03-1.23-4.38-2.75-5.26Z"/>
              <path class="cls-7" d="M83.56,32.81L44.32,10.14c-.62-.36-1.2-.41-1.66-.21,.39-.06,.85,.03,1.33,.31l39.24,22.67c1.52,.88,2.75,3.23,2.75,5.26v30.78c0,1.19-.43,2-1.09,2.29,.85-.13,1.42-1.01,1.42-2.39v-30.78c0-2.03-1.23-4.38-2.75-5.26Z"/>
              <ellipse class="cls-34" cx="85.72" cy="35.15" rx="1.97" ry="2.96" transform="translate(-6.93 35.22) rotate(-22.34)"/>
            </g>
            <polygon class="cls-71" points="70.08 28.89 44.64 14.16 44.64 36.84 70.08 51.46 70.08 28.89"/>
            <circle class="cls-40" cx="43.99" cy="15.98" r="15.98"/>
            <path class="cls-18" d="M46.09,44.12l.61,.35v-1.4l-.61-.35v1.4Zm.97,.56l.61,.35v-2.35l-.61-.35v2.35Zm-1.94-1.14l.61,.35v-.62l-.61-.35v.62Zm2.9-1.62v3.32l.61,.35v-3.32l-.61-.35Z"/>
            <path class="cls-18" d="M52.93,46.93v-1.63c0-.45-.32-1-.71-1.22-.39-.23-.71-.05-.71,.4v1.63c0,.38,.23,.82,.53,1.09v.86l-.37-.22v.3l1.11,.64v-.3l-.37-.22v-.86c.3,.08,.53-.1,.53-.48Z"/>
            <path class="cls-18" d="M58.33,48.81l-1.16,.14v-.39l-2.01-1.16v1.72l2.01,1.16v-.39l1.16,1.49c.09,.16,.25,.17,.25,.03v-2.34c0-.15-.16-.31-.25-.26Z"/>
            <path class="cls-18" d="M61.98,50.57c-.91-.53-1.65-.33-1.65,.43,0,.23,.08,.5,.2,.76l-.34,.7,1.03,.27c.23,.23,.49,.45,.77,.61,.91,.53,1.65,.34,1.65-.43s-.74-1.81-1.65-2.34Z"/>
            <path class="cls-17" d="M66.86,53.22c-.9-.52-1.64-.1-1.64,.93s.73,2.3,1.64,2.82c.9,.52,1.64,.1,1.64-.93s-.73-2.3-1.64-2.82Zm.96,3.19l-.29,.17-.66-1.14-.66,.38-.29-.5,.66-.38-.66-1.14,.29-.17,.66,1.14,.66-.38,.29,.5-.66,.38,.66,1.14Z"/>
          </g>
          <path class="cls-13" d="M84.63,67.63v-29.51c0-1.59-.52-3.08-1.98-3.92l-28.26-16.33,30.24,49.75Z"/>
          <g>
            <path class="cls-62" d="M62.14,40.08c-.68-.58-1.32-1.29-1.87-2.06h0c-1.55,.88-4.06-.57-5.61-3.24h0c-.55,.14-1.18,.11-1.87-.1-1.21-.37-2.11,.36-2.11,1.85v2.89c0,.5,.35,1.11,.79,1.36l11.99,6.92c.44,.25,.79,.05,.79-.45v-2.89c0-1.49-.9-3.26-2.11-4.29Z"/>
            <path class="cls-90" d="M64.25,47.26v-2.89c0-1.49-.9-3.26-2.11-4.29-.68-.58-1.3-1.27-1.85-2.03l-2.83,5.13-2.83-8.4c-.54,.14-1.17,.1-1.85-.1-1.21-.37-2.11,.36-2.11,1.85v2.89c0,.5,.35,1.11,.79,1.36l11.99,6.92c.44,.25,.79,.05,.79-.45Z"/>
            <path class="cls-60" d="M60.27,38.02c-.18-.25-.35-.51-.5-.77-.4-.66-.41-1.4-.03-1.62,.5-.29,.94-.75,1.23-1.37,.42,.12,.73-.16,.79-.7,.09-.75-.11-1.14-.46-1.46-.1-2.51-.96-5.08-3.84-6.75-2.88-1.66-3.74-.08-3.84,2.31-.35-.08-.57,.21-.46,.93,.1,.62,.37,1.24,.79,1.61,.29,.95,.73,1.92,1.23,2.79,.38,.66,.4,1.37,0,1.57-.17,.09-.35,.16-.54,.21h0c1.55,2.67,4.06,4.13,5.61,3.24h0Z"/>
            <path class="cls-114" d="M53.62,27.66c.52,.3,.7,1.18,.7,1.18,0,0,.02-.76,.02-1.32s.17-2.57,1.84-.97c1.67,1.6,2.16,2.69,2.98,2.97,.82,.28,1.38,.41,1.38,1.13s.07,1.49,.07,1.49c0,0,.4-.21,.68-.05v-2.44c0-1.36-1.44-4.76-4.68-5.43-3.17-.65-3,.02-3,3.43Z"/>
            <path class="cls-94" d="M53.96,30.21s1.02,4.13,3.66,5.66c2.64,1.52,3.35-1.6,3.35-1.6,0,0-1.47,1.11-3.31,.05-1.84-1.06-3.71-4.1-3.71-4.1Z"/>
            <path class="cls-77" d="M55.29,32.74l1.05-.58c.3-.17,.71-.12,1.14,.12l.19,.11c.42,.24,.82,.66,1.12,1.16l1.08,1.8-1.85-1.68c-.28-.25-.57-.42-.84-.48l-1.88-.45Z"/>
            <polygon class="cls-58" points="57.73 38.89 58.19 38.64 57.6 37.62 57 37.95 57.46 38.74 56.77 41.55 57.6 43.82 58.42 42.5 57.73 38.89"/>
            <polygon class="cls-91" points="55.65 38.2 57.55 37.85 59.21 39.98 60.27 38.02 57.63 37.66 54.66 34.78 55.65 38.2"/>
            <polygon class="cls-53" points="57.47 44.22 61.85 39.66 60.29 37.88 60.1 38.33 57.47 43.16 54.83 35.29 54.64 34.62 53.08 34.6 57.47 44.22"/>
          </g>
          <g>
            <polygon class="cls-24" points="71.32 40.52 71.32 49.67 82.84 56.27 82.84 47.12 71.32 40.52"/>
            <path class="cls-89" d="M82.84,57.26l-11.52-6.6v7.98c0,.65,.52,1.54,1.09,1.87l10.2,5.89c.09,.05,.16,.08,.21,.09,.01-.04,.02-.11,.02-.21v-9.01Z"/>
            <path class="cls-65" d="M82.84,37.5c0-.65-.52-1.54-1.09-1.87l-10.2-5.89c-.08-.05-.16-.08-.21-.09-.01,.04-.02,.11-.02,.21v9.67l11.52,6.6v-8.63Z"/>
          </g>
          <g>
            <path class="cls-43" d="M79.17,51.55c-.32-.27-.62-.6-.87-.96h0c-.73,.41-1.9-.27-2.63-1.52h0c-.26,.07-.55,.05-.87-.05-.57-.17-.99,.17-.99,.87v.79c0,.23,.17,.52,.37,.64l5.61,3.24c.2,.12,.37,.02,.37-.21v-.79c0-.7-.42-1.53-.99-2.01Z"/>
            <path class="cls-76" d="M78.29,50.59c-.08-.12-.16-.24-.24-.36-.19-.31-.19-.66-.01-.76,.24-.14,.44-.35,.58-.64,.2,.05,.34-.08,.37-.33,.04-.35-.05-.53-.22-.68-.05-1.17-.45-2.38-1.8-3.16-1.35-.78-1.75-.04-1.8,1.08-.16-.04-.27,.1-.22,.44,.04,.29,.18,.58,.37,.75,.13,.44,.34,.9,.58,1.31,.18,.31,.19,.64,0,.74-.08,.04-.16,.07-.25,.1h0c.73,1.25,1.9,1.93,2.63,1.52h0Z"/>
            <path class="cls-52" d="M75.18,45.74c.24,.14,.33,.55,.33,.55,0,0-.02,.15,.17,.4,.68,.91,1.71-.55,2.1-.42,.39,.13,.65,.19,.65,.53s.03,1.03,.03,1.03c0,0,.19-.1,.32-.02v-1.15c0-.64-.23-1.77-1.84-2.7-1.56-.9-1.76,.17-1.76,1.77Z"/>
          </g>
          <g>
            <path class="cls-66" d="M74.86,37.18c.39,1.96,4.02,4.52,5.27,2.49-.93-.06-.87-4.48-2.7-5.44-1.49-.79-2.02,3.16-2.57,2.95Z"/>
            <path class="cls-69" d="M80.44,43.25c-.33-.96-.98-1.47-1.76-2.56l-1.25-.59-1.25-.85c-.79,.17-1.43-.06-1.76,.52-.24,.42-.23,.66-.21,1.11,0,.16,.12,.34,.25,.41l5.93,3.43c.13,.08,.24,.02,.25-.12,.02-.42,.04-.65-.21-1.35Z"/>
            <path class="cls-68" d="M79.14,37.95c0-.17-.02-.29-.04-.37-.17-1.79-.78-2.63-1.67-3.14-.91-.52-1.57-.34-1.68,1.34,0,.05-.01,.11-.02,.19-.15-.03-.25,.1-.2,.43,.04,.28,.16,.57,.35,.73,.14,.56,.37,1.09,.65,1.54,.05,.21,.02,.39-.1,.47-.07,.04-.16,.08-.24,.1,0,2.01,2.49,3.45,2.49,1.44-.08-.11-.15-.23-.22-.35-.13-.22-.17-.47-.11-.63,.25-.1,.45-.33,.58-.66,.02-.04,.04-.07,.06-.11,.19,.05,.32-.08,.35-.33,.04-.35-.05-.52-.2-.67Z"/>
            <path class="cls-118" d="M77.61,35.28c0,.79-.35,1.2,.63,2.13,.72,.68,.91,1.1,.59,1.92-.32,.82,.39,.44,.43,.27-.14-1.13,.75-1.09-.04-3.22-.87-2.36-2.02-2.17-2.02-2.17l.41,1.07Z"/>
            <path class="cls-119" d="M77.72,35.41c-.11,.99-1,.18-1.36,.77-.54,.9,.12,2,.12,2,0,0-1.89-1.64-.81-3.44,.7-1.17,2.21-.73,2.04,.67Z"/>
          </g>
          <g>
            <path class="cls-78" d="M79.46,61.85c-.32-.28-.62-.61-.88-.97h0c-.73,.42-1.92-.27-2.66-1.53h0c-.26,.07-.56,.05-.88-.05-.57-.17-1,.17-1,.88v.86c0,.24,.17,.53,.37,.65l5.67,3.28c.21,.12,.37,.02,.37-.21v-.86c0-.71-.43-1.54-1-2.03Z"/>
            <path class="cls-74" d="M80.46,64.74v-.86c0-.71-.43-1.54-1-2.03-.32-.27-.62-.6-.87-.96l-1.34,1.92-1.34-3.46c-.26,.06-.55,.05-.87-.05-.57-.17-1,.17-1,.88v.86c0,.24,.17,.53,.37,.65l5.67,3.28c.21,.12,.37,.02,.37-.21Z"/>
            <path class="cls-101" d="M78.58,60.88c-.08-.12-.16-.24-.24-.36-.19-.31-.2-.66-.01-.77,.24-.14,.45-.36,.58-.65,.2,.05,.34-.08,.38-.33,.04-.36-.05-.54-.22-.69-.05-1.19-.45-2.4-1.82-3.19-1.36-.79-1.77-.04-1.82,1.09-.16-.04-.27,.1-.22,.44,.04,.29,.18,.59,.38,.76,.14,.45,.35,.91,.58,1.32,.18,.31,.19,.65,0,.75-.08,.04-.17,.08-.26,.1h0c.73,1.27,1.92,1.95,2.66,1.53h0Z"/>
            <path class="cls-48" d="M75.43,55.97c.25,.14,.33,.56,.33,.56,0,0,.01-.36,.01-.62s.08-1.22,.87-.46c.79,.76,1.02,1.27,1.41,1.41,.39,.13,.65,.19,.65,.53s.03,.7,.03,.7c0,0,.19-.1,.32-.02v-1.16c0-.64-.68-2.25-2.21-2.57-1.5-.31-1.42,0-1.42,1.63Z"/>
            <polygon class="cls-95" points="77.25 63.3 79.32 61.65 78.59 60.81 78.5 61.03 77.25 62.8 76 59.59 75.91 59.26 75.17 59.26 77.25 63.3"/>
          </g>
        </g>
        <g>
          <path class="cls-2" d="M32.08,60.53c-.94,.42-1.22,1.83-.8,2.87,.42,1.04,.66,1.65,.52,2.07s-.48,.31-.48,.31c0,0,.06,.55,1.12,.75,1.14,.22,1.58-.17,1.58-.17,0,0-.38-.45-.17-.97s.54-.5,.8-.61,.54-.77,.56-1.9-.54-3.5-3.13-2.35Z"/>
          <path class="cls-86" d="M30.17,65.22c-.77,.5-.53,1.98-.46,3.08,.07,1.1,0,2.65,.47,3.05,.47,.4,2.47,1.43,2.47,1.43l-1.57-5.54-.92-2.02Z"/>
          <path class="cls-28" d="M36.97,75.48c-.28,2.61,.21,6.72,.07,7.5s1.17,1.5,1.18-.1,1.37-7.78,1.17-8.56-2.14-1.43-2.42,1.17Z"/>
          <path class="cls-80" d="M36.85,83.01c-.52,.14-.59,.87-.52,1.25s.14,1.65,.14,1.65l.38,.14,.38-.12,.09-.89,.61,.38s.47,.31,.77,.26,.85-.45,.85-1.08-.92-.84-1.18-.61c0,0,.3,.63,.14,.56s-.57-.85-.92-1.06-.73-.49-.73-.49Z"/>
          <path class="cls-25" d="M37.08,82.37s-.05,.54-.21,.73,.8,1.44,1.25,1.57,.38,.03,.24-.66-.23-1.32-.23-1.32l-1.06-.31Z"/>
          <path class="cls-41" d="M38.96,76.42c-.28,2.61,.21,6.72,.07,7.5s1.17,1.5,1.18-.1,1.35-7.92,1.14-8.7-2.12-1.28-2.4,1.31Z"/>
          <path class="cls-109" d="M38.83,83.95c-.52,.14-.59,.87-.52,1.25s.14,1.65,.14,1.65l.38,.14,.38-.12,.09-.89,.61,.38s.47,.31,.77,.26,.85-.45,.85-1.08-.92-.84-1.18-.61c0,0,.3,.63,.14,.56s-.57-.85-.92-1.06-.73-.49-.73-.49Z"/>
          <path class="cls-50" d="M39.06,83.31s-.05,.54-.21,.73,.8,1.44,1.25,1.57,.89,.14,.36-.6c-.41-.58-.24-1.32-.24-1.32l-1.16-.38Z"/>
          <path class="cls-19" d="M36.89,76.71c-.03,1.03,0,2.16,.06,3.18,1.09-.89,2.12-2.91,2.12-2.91l-2.18-.27Z"/>
          <path class="cls-19" d="M39.76,77.62c.94-.71,1.07-1.92,1.07-1.92l-1.83,.45c-.01,.09-.03,.18-.04,.28-.06,.56-.08,1.19-.09,1.83,.17-.11,.45-.3,.89-.63Z"/>
          <g class="cls-75">
            <polygon class="cls-15" points="23.49 86.42 32.17 91.52 40.86 86.46 40.86 99.02 32.18 104.08 32.18 104.09 32.17 104.09 32.17 104.09 32.17 104.08 23.49 98.99 23.49 86.42"/>
            <polygon class="cls-10" points="25.93 89.34 32.17 93.01 38.41 89.38 38.41 100.45 32.18 104.09 32.18 104.09 32.17 104.09 32.17 104.09 32.17 104.09 25.93 100.42 25.93 89.34"/>
            <polygon class="cls-108" points="32.18 83.46 32.18 92.29 23.49 87.19 23.49 78.35 32.18 83.46"/>
            <polygon class="cls-93" points="32.17 83.46 32.17 92.29 40.86 87.23 40.86 78.4 32.17 83.46"/>
            <polygon class="cls-85" points="40.86 78.4 32.17 83.46 23.49 78.35 32.18 73.29 40.86 78.4"/>
            <path class="cls-32" d="M31.98,83.3c.12,.07,.27,.07,.39,0l8.38-4.88,.11,.07-8.49,5.02c-.12,.07-.27,.07-.39,0l-8.49-5.06,.11-.07,8.38,4.92Z"/>
          </g>
          <path class="cls-120" d="M33.11,76.38c1.23-.97,7.1-2.58,7.87-1.83,.77,.75,.38,1.1-.86,1.83s-5.08,3.81-6.96,2.77c-1.51-.84-.94-2.07-.05-2.77Z"/>
          <path class="cls-100" d="M31.7,75.15c1.34-.82,6.89-2.1,7.57-1.27,.67,.83,.32,1.21-1,1.79s-5.09,3.49-6.84,2.23c-1.4-1.01-.7-2.16,.27-2.75Z"/>
          <path class="cls-46" d="M35.15,73.77l2.05-.26s1.67,.61,1.93,1.08,.28,2.21,.17,2.42-2.91,2.33-4.45,2.47c-1.55,.14-3.95-.96-4.18-1.94-.48-2.01,.48-4.19,.48-4.19l4,.42Z"/>
          <path class="cls-21" d="M33.49,77.71c-.33-.98,.26-3.32,.46-4.06l-2.81-.29s-.96,2.17-.48,4.19c.23,.97,2.63,2.08,4.18,1.94,.53-.05,1.22-.33,1.89-.7-.55,.1-2.75,.39-3.25-1.08Z"/>
          <path class="cls-105" d="M36.36,75.5c.9-.26,2.09-.81,2.63-1.07-.47-.44-1.8-.92-1.8-.92l-2.05,.26h-.11s-.44,.41-.44,.41c0,0,.56,1.67,1.76,1.32Z"/>
          <g>
            <g class="cls-47">
              <path class="cls-59" d="M39.3,76.03c-.19,0-.37-.04-.51-.12l-5.37-3.1c-.18-.11-.29-.28-.29-.46,0-.21,.13-.4,.35-.53l3.05-1.76c.17-.1,.39-.16,.62-.16,.19,0,.37,.04,.51,.12l5.37,3.1c.18,.11,.29,.28,.29,.46,0,.21-.13,.4-.35,.53l-3.05,1.76c-.17,.1-.39,.16-.62,.16Z"/>
              <path class="cls-107" d="M36.55,70.08c.17-.1,.4-.15,.62-.15,.09,0,.17,.01,.24,.03,.09,.02,.18,.06,.25,.1l5.35,3.09c.18,.11,.28,.27,.27,.46,0,.06-.02,.11-.04,.17-.05,.12-.18,.26-.32,.34l-3.01,1.74s-.06,.03-.09,.05c-.15,.07-.33,.11-.51,.11-.19,0-.36-.04-.5-.12l-5.37-3.1c-.18-.11-.28-.27-.27-.46,0-.05,.02-.1,.03-.15,.05-.13,.18-.27,.33-.36l3.01-1.74Z"/>
              <path class="cls-26" d="M36.56,70.11c.17-.1,.4-.15,.62-.15,.09,0,.17,.02,.24,.03s.19,.06,.25,.1l5.34,3.08c.18,.1,.27,.27,.25,.45,0,.06-.03,.11-.05,.16-.05,.11-.19,.25-.32,.32l-2.97,1.72s-.07,.04-.09,.05c-.15,.07-.33,.11-.5,.11-.19,0-.35-.04-.49-.11l-5.37-3.1c-.18-.11-.27-.27-.25-.45,0-.05,.02-.09,.04-.14,.05-.12,.2-.27,.34-.35l2.98-1.72Z"/>
              <path class="cls-92" d="M36.57,70.13c.18-.1,.4-.15,.62-.14,.08,0,.16,.02,.24,.04,.07,.02,.19,.07,.24,.1l5.32,3.07c.18,.1,.26,.27,.23,.44,0,.05-.03,.1-.06,.15-.05,.1-.21,.24-.33,.31l-2.93,1.69s-.07,.04-.09,.05c-.15,.07-.32,.11-.5,.11-.18,0-.35-.04-.48-.11l-5.37-3.1c-.18-.1-.26-.27-.23-.44,0-.05,.03-.09,.05-.13,.04-.1,.22-.26,.34-.33l2.95-1.7Z"/>
              <path class="cls-61" d="M36.59,70.15c.18-.1,.4-.15,.62-.14,.08,0,.16,.02,.24,.04,.06,.02,.19,.08,.24,.1l5.3,3.06c.18,.1,.25,.27,.21,.43-.01,.05-.04,.1-.07,.15-.04,.08-.23,.24-.33,.3l-2.89,1.67s-.07,.04-.09,.05c-.15,.07-.32,.11-.49,.11-.18,0-.34-.03-.47-.11l-5.37-3.1c-.18-.1-.25-.27-.21-.44,.01-.04,.04-.08,.06-.13,.04-.09,.24-.26,.35-.32l2.91-1.68Z"/>
              <path class="cls-29" d="M36.6,70.18c.18-.1,.4-.15,.62-.13,.08,0,.16,.03,.23,.05,.05,.01,.19,.08,.23,.1l5.28,3.05c.18,.1,.24,.26,.19,.42-.02,.05-.05,.09-.08,.14-.04,.07-.24,.23-.33,.28l-2.86,1.65s-.07,.04-.09,.05c-.14,.07-.31,.11-.48,.11-.17,0-.33-.03-.46-.1l-5.37-3.1c-.18-.1-.24-.27-.18-.43,.01-.04,.04-.08,.07-.12,.04-.07,.26-.25,.35-.3l2.88-1.66Z"/>
              <path class="cls-103" d="M36.61,70.2c.18-.1,.41-.15,.62-.13,.08,0,.16,.03,.23,.05,.04,.01,.19,.09,.23,.11l5.26,3.04c.17,.1,.23,.26,.17,.42-.02,.05-.05,.09-.08,.13-.02,.06-.26,.23-.33,.27l-2.82,1.63s-.07,.04-.09,.05c-.14,.07-.31,.11-.47,.11-.17,0-.33-.03-.45-.1l-5.37-3.1c-.18-.1-.23-.26-.16-.42,.02-.04,.04-.08,.07-.12,.02-.07,.28-.25,.35-.29l2.84-1.64Z"/>
              <path class="cls-72" d="M36.63,70.22c.18-.1,.41-.14,.62-.12,.08,0,.16,.03,.23,.05,.03,.01,.19,.09,.22,.11l5.25,3.03c.17,.1,.22,.26,.15,.41-.02,.04-.05,.09-.09,.13-.02,.05-.28,.22-.34,.25l-2.78,1.6s-.07,.04-.08,.05c-.14,.07-.3,.11-.46,.11-.16,0-.32-.03-.44-.1l-5.37-3.1c-.18-.1-.22-.26-.14-.42,.02-.04,.05-.08,.08-.11,.02-.05,.3-.24,.36-.27l2.81-1.62Z"/>
              <path class="cls-83" d="M36.64,70.25c.18-.1,.41-.14,.61-.12,.08,0,.15,.04,.22,.06,.03,0,.19,.1,.21,.11l5.23,3.02c.17,.1,.21,.25,.13,.4-.02,.04-.06,.08-.1,.12-.01,.04-.3,.22-.34,.24l-2.74,1.58s-.07,.04-.08,.05c-.13,.07-.29,.11-.45,.11-.16,0-.31-.03-.43-.09l-5.37-3.1c-.18-.1-.21-.26-.12-.41,.02-.04,.05-.07,.09-.11,.01-.04,.32-.23,.36-.26l2.77-1.6Z"/>
              <path class="cls-84" d="M36.65,70.27c.18-.1,.41-.14,.61-.11,.08,.01,.15,.04,.22,.06,.02,0,.19,.1,.21,.11l5.21,3.01c.17,.1,.2,.25,.11,.39-.03,.04-.06,.08-.11,.11,0,.02-.31,.21-.34,.23l-2.7,1.56s-.08,.04-.08,.05c-.13,.07-.29,.11-.45,.11-.16,0-.31-.03-.42-.09l-5.37-3.1c-.17-.1-.2-.26-.1-.4,.03-.03,.06-.07,.1-.1,0-.03,.34-.23,.37-.25l2.74-1.58Z"/>
              <path class="cls-57" d="M36.67,70.29c.18-.1,.41-.14,.61-.11,.08,.01,.15,.04,.22,.07,0,0,.2,.11,.2,.11l5.19,3c.17,.1,.19,.25,.09,.39-.03,.04-.07,.07-.12,.11,0,.01-.33,.2-.34,.21l-2.66,1.54s-.08,.04-.08,.05c-.13,.07-.28,.11-.44,.12-.15,0-.3-.02-.41-.09l-5.37-3.1c-.17-.1-.2-.26-.08-.4,.03-.03,.06-.06,.11-.09,0-.01,.36-.22,.37-.23l2.71-1.56Z"/>
              <path d="M38.94,75.65l-5.37-3.1c-.21-.12-.19-.34,.06-.48l3.05-1.76c.24-.14,.62-.16,.83-.03l5.37,3.1c.21,.12,.19,.34-.06,.48l-3.05,1.76c-.24,.14-.62,.16-.83,.03Z"/>
            </g>
            <path class="cls-106" d="M38.94,75.65l-5.37-3.1c-.09-.05-.14-.13-.14-.2,0,0,0-.26,0-.27,0-.09,.07,.07,.2,0l3.05-1.76c.24-.14,.62-.16,.83-.03l5.37,3.1c.07,.04,.12-.13,.14-.08,0,.02,0,.26,0,.28,0,.1-.07,.2-.2,.27l-3.05,1.76c-.24,.14-.62,.16-.83,.03Z"/>
            <path class="cls-81" d="M38.94,75.39l-5.37-3.1c-.21-.12-.19-.34,.06-.48l3.05-1.76c.24-.14,.62-.16,.83-.03l5.37,3.1c.21,.12,.19,.34-.06,.48l-3.05,1.76c-.24,.14-.62,.16-.83,.03Z"/>
            <path class="cls-64" d="M39.3,75.36c-.12,0-.23-.02-.31-.07l-5.37-3.1s-.09-.06-.09-.11,.06-.12,.15-.18l3.05-1.76c.11-.07,.26-.1,.41-.1,.12,0,.23,.02,.31,.07l5.37,3.1s.09,.06,.09,.11-.06,.12-.15,.18l-3.05,1.76c-.11,.07-.26,.1-.41,.1Z"/>
            <path class="cls-37" d="M37.83,70.73c.14,.41-.31,.94-1.01,1.19-.7,.24-1.38,.1-1.53-.31-.14-.41,.31-.94,1.01-1.19,.7-.24,1.38-.1,1.53,.31Z"/>
            <path class="cls-102" d="M39.9,74.25l-4.36-2.52c-.09-.05-.08-.14,.02-.2l1.64-.95c.1-.06,.25-.06,.34-.01l4.36,2.52c.09,.05,.08,.14-.02,.2l-1.64,.95c-.1,.06-.25,.06-.34,.01Z"/>
            <path class="cls-12" d="M37.29,70.77l.28,.16s.09,.02,.13,0c.04-.02,.04-.05,0-.07l-.28-.16s-.09-.02-.13,0c-.04,.02-.04,.05,0,.07Zm.48,.28l.13,.08s.09,.02,.13,0c.04-.02,.04-.05,0-.07l-.13-.08s-.09-.02-.13,0c-.04,.02-.04,.05,0,.07Zm.33,.19l.13,.08s.09,.02,.13,0c.04-.02,.04-.05,0-.07l-.13-.08s-.09-.02-.13,0c-.04,.02-.04,.05,0,.07Zm.33,.19l.13,.08s.09,.02,.13,0c.04-.02,.04-.05,0-.07l-.13-.08s-.09-.02-.13,0c-.04,.02-.04,.05,0,.07Zm.33,.19l.13,.08s.09,.02,.13,0c.04-.02,.04-.05,0-.07l-.13-.08s-.09-.02-.13,0-.04,.05,0,.07Zm.33,.19l.13,.08s.09,.02,.13,0,.04-.05,0-.07l-.13-.08s-.09-.02-.13,0-.04,.05,0,.07Zm.33,.19l.13,.08s.09,.02,.13,0c.04-.02,.04-.05,0-.07l-.13-.08s-.09-.02-.13,0c-.04,.02-.04,.05,0,.07Zm.33,.19l.13,.08s.09,.02,.13,0,.04-.05,0-.07l-.13-.08s-.09-.02-.13,0-.04,.05,0,.07Zm.33,.19l.13,.08s.09,.02,.13,0,.04-.05,0-.07l-.13-.08s-.09-.02-.13,0-.04,.05,0,.07Zm.33,.19l.13,.08s.09,.02,.13,0c.04-.02,.04-.05,0-.07l-.13-.08s-.09-.02-.13,0c-.04,.02-.04,.05,0,.07Zm.33,.19l.13,.08s.09,.02,.13,0c.04-.02,.04-.05,0-.07l-.13-.08s-.09-.02-.13,0c-.04,.02-.04,.05,0,.07Zm.33,.19l.13,.08s.09,.02,.13,0,.04-.05,0-.07l-.13-.08s-.09-.02-.13,0-.04,.05,0,.07Zm.34,.2l.13,.08s.09,.02,.13,0c.04-.02,.04-.05,0-.07l-.13-.08s-.09-.02-.13,0c-.04,.02-.04,.05,0,.07Zm-4.43-2.2l.11,.07s.11,.02,.15,0l.11-.07s.04-.06,0-.08l-.11-.07s-.11-.02-.15,0l-.11,.07s-.04,.06,0,.08Zm.59,.26l.11-.07s.04-.06,0-.08l-.11-.07s-.11-.02-.15,0l-.11,.07s-.04,.06,0,.08l.11,.07s.11,.02,.15,0Zm.07,.12l.11,.07s.11,.02,.15,0l.11-.07s.04-.06,0-.08l-.11-.07s-.11-.02-.15,0l-.11,.07s-.04,.06,0,.08Zm.33,.19l.11,.07s.11,.02,.15,0l.11-.07s.04-.06,0-.08l-.11-.07s-.11-.02-.15,0l-.11,.07s-.04,.06,0,.08Zm.71,.11l-.11-.07s-.11-.02-.15,0l-.11,.07s-.04,.06,0,.08l.11,.07s.11,.02,.15,0l.11-.07s.04-.06,0-.08Zm.33,.19l-.11-.07s-.11-.02-.15,0l-.11,.07s-.04,.06,0,.08l.11,.07s.11,.02,.15,0l.11-.07s.04-.06,0-.08Zm.33,.19l-.11-.07s-.11-.02-.15,0l-.11,.07s-.04,.06,0,.08l.11,.07s.11,.02,.15,0l.11-.07s.04-.06,0-.08Zm.33,.19l-.11-.07s-.11-.02-.15,0l-.11,.07s-.04,.06,0,.08l.11,.07s.11,.02,.15,0l.11-.07s.04-.06,0-.08Zm.33,.19l-.11-.07s-.11-.02-.15,0l-.11,.07s-.04,.06,0,.08l.11,.07s.11,.02,.15,0l.11-.07s.04-.06,0-.08Zm.33,.19l-.11-.07s-.11-.02-.15,0l-.11,.07s-.04,.06,0,.08l.11,.07s.11,.02,.15,0l.11-.07s.04-.06,0-.08Zm-.04,.28l.11,.07s.11,.02,.15,0l.11-.07s.04-.06,0-.08l-.11-.07s-.11-.02-.15,0l-.11,.07s-.04,.06,0,.08Zm.71,.11l-.11-.07s-.11-.02-.15,0l-.11,.07s-.04,.06,0,.08l.11,.07s.11,.02,.15,0l.11-.07s.04-.06,0-.08Zm.49,.28l-.26-.15s-.11-.02-.15,0l-.11,.07s-.04,.06,0,.08l.26,.15s.11,.02,.15,0l.11-.07s.04-.06,0-.08Zm-4.81-2.12l.26,.15s.11,.02,.15,0l.11-.07s.04-.06,0-.08l-.26-.15s-.11-.02-.15,0l-.11,.07s-.04,.06,0,.08Zm.48,.28l.11,.07s.11,.02,.15,0l.11-.07s.04-.06,0-.08l-.11-.07s-.11-.02-.15,0l-.11,.07s-.04,.06,0,.08Zm.45,.26s.11,.02,.15,0l.11-.07s.04-.06,0-.08l-.11-.07s-.11-.02-.15,0l-.11,.07s-.04,.06,0,.08l.11,.07Zm.33,.19s.11,.02,.15,0l.11-.07s.04-.06,0-.08l-.11-.07s-.11-.02-.15,0l-.11,.07s-.04,.06,0,.08l.11,.07Zm.33-.02l-.11,.07s-.04,.06,0,.08l.11,.07s.11,.02,.15,0l.11-.07s.04-.06,0-.08l-.11-.07s-.11-.02-.15,0Zm.34,.19l-.13,.07s-.04,.06,0,.08l.13,.07s.1,.02,.13,0l.13-.07s.04-.06,0-.08l-.13-.07s-.1-.02-.13,0Zm.33,.19l-.13,.07s-.04,.06,0,.08l.13,.07s.1,.02,.13,0l.13-.07s.04-.06,0-.08l-.13-.07s-.1-.02-.13,0Zm.33,.19l-.13,.07s-.04,.06,0,.08l.13,.07s.1,.02,.13,0l.13-.07s.04-.06,0-.08l-.13-.07s-.1-.02-.13,0Zm.33,.19l-.13,.07s-.04,.06,0,.08l.13,.07s.1,.02,.13,0l.13-.07s.04-.06,0-.08l-.13-.07s-.1-.02-.13,0Zm.33,.19l-.13,.07s-.04,.06,0,.08l.13,.07s.1,.02,.13,0l.13-.07s.04-.06,0-.08l-.13-.07s-.1-.02-.13,0Zm.46,.42l.13-.07s.04-.06,0-.08l-.13-.07s-.1-.02-.13,0l-.13,.07s-.04,.06,0,.08l.13,.07s.1,.02,.13,0Zm.33,.19l.13-.07s.04-.06,0-.08l-.13-.07s-.1-.02-.13,0l-.13,.07s-.04,.06,0,.08l.13,.07s.1,.02,.13,0Zm.47,.05l-.13-.07s-.1-.02-.13,0l-.13,.07s-.04,.06,0,.08l.13,.07s.1,.02,.13,0l.13-.07s.04-.06,0-.08Zm-4.83-2.13l.42,.24s.1,.02,.13,0l.13-.07s.04-.06,0-.08l-.42-.24s-.1-.02-.13,0l-.13,.07s-.04,.06,0,.08Zm.62,.36l.13,.07s.1,.02,.13,0l.13-.07s.04-.06,0-.08l-.13-.07s-.1-.02-.13,0l-.13,.07s-.04,.06,0,.08Zm.33,.19l.13,.07s.1,.02,.13,0l.13-.07s.04-.06,0-.08l-.13-.07s-.1-.02-.13,0l-.13,.07s-.04,.06,0,.08Zm.33,.19l.13,.07s.1,.02,.13,0l.13-.07s.04-.06,0-.08l-.13-.07s-.1-.02-.13,0l-.13,.07s-.04,.06,0,.08Zm.59,.27l.13-.07s.04-.06,0-.08l-.13-.07s-.1-.02-.13,0l-.13,.07s-.04,.06,0,.08l.13,.07s.1,.02,.13,0Zm.33,.19l.13-.07s.04-.06,0-.08l-.13-.07s-.1-.02-.13,0l-.13,.07s-.04,.06,0,.08l.13,.07s.1,.02,.13,0Zm.33,.19l.13-.07s.04-.06,0-.08l-.13-.07s-.1-.02-.13,0l-.13,.07s-.04,.06,0,.08l.13,.07s.1,.02,.13,0Zm.33,.19l.13-.07s.04-.06,0-.08l-.13-.07s-.1-.02-.13,0l-.13,.07s-.04,.06,0,.08l.13,.07s.1,.02,.13,0Zm.33,.19l.13-.07s.04-.06,0-.08l-.13-.07s-.1-.02-.13,0l-.13,.07s-.04,.06,0,.08l.13,.07s.1,.02,.13,0Zm.33,.19l.13-.07s.04-.06,0-.08l-.13-.07s-.1-.02-.13,0l-.13,.07s-.04,.06,0,.08l.13,.07s.1,.02,.13,0Zm.07,.12l.13,.07s.1,.02,.13,0l.13-.07s.04-.06,0-.08l-.13-.07s-.1-.02-.13,0l-.13,.07s-.04,.06,0,.08Zm.92,.23l-.33-.19s-.1-.02-.13,0l-.13,.07s-.04,.06,0,.08l.33,.19s.1,.02,.13,0l.13-.07s.04-.06,0-.08Zm-4.83-2.12l.59,.34s.11,.02,.15,0l.11-.06s.04-.06,0-.09l-.59-.34s-.11-.02-.15,0l-.11,.06s-.04,.06,0,.09Zm.81,.47l.11,.06s.11,.02,.15,0l.11-.06s.04-.06,0-.09l-.11-.06s-.11-.02-.15,0l-.11,.06s-.04,.06,0,.09Zm.33,.19l.11,.06s.11,.02,.15,0l.11-.06s.04-.06,0-.09l-.11-.06s-.11-.02-.15,0l-.11,.06s-.04,.06,0,.09Zm.33,.19l.11,.06s.11,.02,.15,0l.11-.06s.04-.06,0-.09l-.11-.06s-.11-.02-.15,0l-.11,.06s-.04,.06,0,.09Zm.33,.19l.11,.06s.11,.02,.15,0l.11-.06s.04-.06,0-.09l-.11-.06s-.11-.02-.15,0l-.11,.06s-.04,.06,0,.09Zm.33,.19l.11,.06s.11,.02,.15,0l.11-.06s.04-.06,0-.09l-.11-.06s-.11-.02-.15,0l-.11,.06s-.04,.06,0,.09Zm.33,.19l.11,.06s.11,.02,.15,0l.11-.06s.04-.06,0-.09l-.11-.06s-.11-.02-.15,0l-.11,.06s-.04,.06,0,.09Zm.33,.19l.11,.06s.11,.02,.15,0l.11-.06s.04-.06,0-.09l-.11-.06s-.11-.02-.15,0l-.11,.06s-.04,.06,0,.09Zm.33,.19l.11,.06s.11,.02,.15,0l.11-.06s.04-.06,0-.09l-.11-.06s-.11-.02-.15,0l-.11,.06s-.04,.06,0,.09Zm.33,.19l.11,.06s.11,.02,.15,0l.11-.06s.04-.06,0-.09l-.11-.06s-.11-.02-.15,0l-.11,.06s-.04,.06,0,.09Zm.33,.19l.11,.06s.11,.02,.15,0l.11-.06s.04-.06,0-.09l-.11-.06s-.11-.02-.15,0l-.11,.06s-.04,.06,0,.09Zm.71,.11l-.11-.06s-.11-.02-.15,0l-.11,.06s-.04,.06,0,.09l.11,.06s.11,.02,.15,0l.11-.06s.04-.06,0-.09Zm-4.29-2.12l-.26-.15s-.11-.02-.15,0l-.11,.06s-.04,.06,0,.09l.26,.15s.11,.02,.15,0l.11-.06s.04-.06,0-.09Zm.33,.19l-.11-.06s-.11-.02-.15,0l-.11,.06s-.04,.06,0,.09l.11,.06s.11,.02,.15,0l.11-.06s.04-.06,0-.09Zm.33,.19l-.11-.06s-.11-.02-.15,0l-.11,.06s-.04,.06,0,.09l.11,.06s.11,.02,.15,0l.11-.06s.04-.06,0-.09Zm2.32,1.34l-2.1-1.21s-.11-.02-.15,0l-.11,.06s-.04,.06,0,.09l2.1,1.21s.11,.02,.15,0l.11-.06s.04-.06,0-.09Zm.33,.19l-.11-.06s-.11-.02-.15,0l-.11,.06s-.04,.06,0,.09l.11,.06s.11,.02,.15,0l.11-.06s.04-.06,0-.09Zm.33,.19l-.11-.06s-.11-.02-.15,0l-.11,.06s-.04,.06,0,.09l.11,.06s.11,.02,.15,0l.11-.06s.04-.06,0-.09Zm.34,.2l-.11-.06s-.11-.02-.15,0l-.11,.06s-.04,.06,0,.09l.11,.06s.11,.02,.15,0l.11-.06s.04-.06,0-.09Z"/>
            <g>
              <path class="cls-63" d="M42.8,73.08l-5.18-2.99c-.2-.12-.36-.43-.36-.69v-4.06c0-.27,.16-.39,.36-.27l5.18,2.99c.2,.12,.36,.43,.36,.69v4.06c0,.27-.16,.39-.36,.27Z"/>
              <path class="cls-65" d="M42.84,72.87l-5.12-2.96c-.16-.1-.26-.31-.26-.52v-4.08s.05-.08,.1-.06c0,0,0,0,0,0l5.13,2.96c.19,.11,.26,.31,.26,.52v4.07c0,.05-.06,.09-.1,.06,0,0,0,0,0,0Z"/>
              <path class="cls-21" d="M42.69,68.22l-5.13-2.96s0,0,0,0c-.04-.03-.1,0-.1,.06v4.08c0,.21,.1,.41,.26,.52l5.12,2.96s0,0,0,0c.05,.03,.1,0,.1-.06v-4.07c0-.21-.07-.41-.26-.52Zm.22,4.59s-.01,.03-.03,.03c0,0,0,0-.01,0l-5.13-2.96c-.15-.09-.24-.28-.24-.48v-4.08s.01-.02,.02-.02c0,0,0,0,.01,0l5.14,2.97c.2,.11,.24,.33,.24,.48v4.07Z"/>
              <path class="cls-49" d="M42.9,67.99l-5.18-2.99c-.08-.05-.15-.05-.21-.03,0,0-.11,.06-.12,.06h0c.06-.03,.14-.02,.23,.03l5.18,2.99c.2,.12,.36,.43,.36,.69v4.06c0,.17-.06,.28-.16,.31,0,0,.02,0,.03-.01,0,0,.11-.06,.12-.07,.07-.05,.11-.15,.11-.28v-4.06c0-.27-.16-.58-.36-.69Z"/>
              <path class="cls-9" d="M42.81,68.04l-5.18-2.99c-.08-.05-.16-.05-.22-.03,.05,0,.11,0,.18,.04l5.18,2.99c.2,.12,.36,.43,.36,.69v4.06c0,.16-.06,.26-.14,.3,.11-.02,.19-.13,.19-.32v-4.06c0-.27-.16-.58-.36-.69Z"/>
              <path class="cls-38" d="M43.25,68.71c-.13,.05-.31-.06-.39-.26-.08-.2-.04-.41,.09-.46,.13-.05,.31,.06,.39,.26,.08,.2,.04,.41-.09,.46Z"/>
            </g>
            <path class="cls-14" d="M39.39,67.49l-.46-.27v.2l.46,.27v-.2Zm-.94-.35l.34,.2v-.2l-.34-.2v.2Zm1.96,.93l-.87-.5v.2l.87,.5v-.2Zm-2.1-1.21l-.33-.19v.2l.33,.19v-.2Zm2.53,1.01l-.73-.42v.2l.73,.42v-.2Zm-2.32-1.34l-.54-.31v.2l.54,.31v-.2Zm1.45,.84l-.21-.12v.2l.21,.12v-.2Zm-1.31-.56l.95,.55v-.2l-.95-.55v.2Zm3.64,1.88l-.21-.12v.2l.21,.12v-.2Zm-1.31-.56l.95,.55v-.2l-.95-.55v.2Zm-1.04,.51l-.21-.12v.2l.21,.12v-.2Zm.14,.28l.73,.42v-.2l-.73-.42v.2Zm1.09,.41l-.21-.12v.2l.21,.12v-.2Zm.14,.28l.73,.42v-.2l-.73-.42v.2Zm-2.53-1.18l-.82-.47v.2l.82,.47v-.2Zm-.28-.62l-.54-.31v.2l.54,.31v-.2Zm1.09,.63l-.95-.55v.2l.95,.55v-.2Zm-.33,.27l-.34-.2v.2l.34,.2v-.2Zm.11,1.3l-.46-.27v.2l.46,.27v-.2Zm-.94-.35l.34,.2v-.2l-.34-.2v.2Zm1.96,.93l-.87-.5v.2l.87,.5v-.2Zm-2.1-1.21l-.33-.19v.2l.33,.19v-.2Zm2.53,1.01l-.73-.42v.2l.73,.42v-.2Zm-2.32-1.34l-.54-.31v.2l.54,.31v-.2Zm1.45,.84l-.21-.12v.2l.21,.12v-.2Zm-1.31-.56l.95,.55v-.2l-.95-.55v.2Z"/>
          </g>
          <path class="cls-117" d="M33.02,65.8c-1.53-.56-2.86-1.14-3.18-.09s.93,6.04,.95,7.11-.05,.96-.05,.96c0,0,2.04,1.25,3.07,1.25,1.37,0,1.9-.73,1.9-.73,0,0,.25-2.69,.44-3.8s.64-1.51-.07-2.66c-.71-1.15-1.37-1.42-3.07-2.04Z"/>
          <path class="cls-79" d="M31.21,61.13c-.65,.92-.31,3.38-1.23,3.57,1.15,2.16,4.8,1.53,4.8,1.53,0,0-.78-.68-.92-1.17s-.14-.9-.14-.9c0,0,.16,.63,.76,1.03-.46-.76-.41-1.68-.16-2.38s1.64-.59,1.12-1.7c-.44-.96-2.77-2.04-4.23,.01Z"/>
          <path class="cls-22" d="M31.98,60.57c0-.07,0-.14,0-.21-.27,.18-.53,.43-.77,.77-.65,.92-.31,3.38-1.23,3.57,1.01,2.02,4.42,1.57,4.77,1.53-1.56-.79-2.93-2.95-2.77-5.66Z"/>
          <polygon class="cls-56" points="42.75 68.52 40.21 67.07 40.21 69.94 42.75 71.38 42.75 68.52"/>
          <path class="cls-21" d="M35.71,74.31s.25-2.69,.44-3.8c.02-.13,.05-.25,.07-.36-.6-1.73-1.37-3.29-2.14-2.82-.62,.38-.09,3.41,.59,5.81,.19,.69,.28,1.24,.32,1.67,.5-.21,.72-.51,.72-.51Z"/>
          <g>
            <path class="cls-113" d="M42.05,70.02c-.09-.07-.17-.16-.24-.26h0c-.2,.11-.52-.07-.71-.41h0c-.07,.02-.15,.01-.24-.01-.15-.05-.27,.05-.27,.24v.37c0,.06,.04,.14,.1,.17l1.52,.88c.06,.03,.1,0,.1-.06v-.37c0-.19-.11-.41-.27-.54Z"/>
            <path class="cls-112" d="M42.32,70.93v-.37c0-.19-.11-.41-.27-.54-.09-.07-.17-.16-.23-.26l-.36,.65-.36-1.06c-.07,.02-.15,.01-.23-.01-.15-.05-.27,.05-.27,.24v.37c0,.06,.04,.14,.1,.17l1.52,.88c.06,.03,.1,0,.1-.06Z"/>
            <path class="cls-55" d="M41.81,69.76s-.04-.06-.06-.1c-.05-.08-.05-.18,0-.21,.06-.04,.12-.1,.16-.17,.05,.01,.09-.02,.1-.09,.01-.1-.01-.14-.06-.19-.01-.32-.12-.64-.49-.86-.37-.21-.47,0-.49,.29-.04,0-.07,.03-.06,.12,.01,.08,.05,.16,.1,.2,.04,.12,.09,.24,.16,.35,.05,.08,.05,.17,0,.2-.02,.01-.04,.02-.07,.03h0c.2,.34,.52,.52,.71,.41h0Z"/>
            <path class="cls-104" d="M40.97,68.44c.07,.04,.09,.15,.09,.15,0,0,0-.1,0-.17s.02-.33,.23-.12c.21,.2,.27,.34,.38,.38,.1,.04,.17,.05,.17,.14s0,.19,0,.19c0,0,.05-.03,.09,0v-.31c0-.17-.18-.6-.59-.69-.4-.08-.38,0-.38,.44Z"/>
            <path class="cls-73" d="M41.01,68.77s.13,.52,.46,.72c.33,.19,.43-.2,.43-.2,0,0-.19,.14-.42,0-.23-.13-.47-.52-.47-.52Z"/>
            <path class="cls-44" d="M41.18,69.09l.13-.07s.09-.02,.14,.02h.02c.05,.04,.1,.1,.14,.16l.14,.23-.23-.21s-.07-.05-.11-.06l-.24-.06Z"/>
            <polygon class="cls-99" points="41.49 69.87 41.55 69.83 41.47 69.7 41.4 69.75 41.46 69.85 41.37 70.2 41.47 70.49 41.58 70.32 41.49 69.87"/>
            <polygon class="cls-70" points="41.23 69.78 41.47 69.73 41.68 70 41.81 69.76 41.48 69.71 41.1 69.35 41.23 69.78"/>
            <polygon class="cls-4" points="41.46 70.54 42.01 69.96 41.81 69.74 41.79 69.8 41.46 70.41 41.12 69.41 41.1 69.32 40.9 69.32 41.46 70.54"/>
          </g>
          <g class="cls-20">
            <path class="cls-30" d="M30.75,74.08s0,0,0,0c0,0,0,0,0,0Z"/>
            <path class="cls-30" d="M34.08,68.6c1.16-1.93-3.23-.94-4.16-2.28-.02,.04-.03,.08-.05,.13-.31,1.04,.9,5.28,.92,6.36,.01,.86-.03,.96-.04,.96,.06,.03,1.95,1.27,3.03,1.23-.54-1.6-1-4.24,.3-6.4Z"/>
          </g>
          <g>
            <path class="cls-82" d="M41.39,73.73c-.06,0-.13,0-.21,0-.03,0-.04,.01-.07,.01,.04-.03,.08-.06,.1-.09,.05,0,.09,0,.14,0,.05,0,.1,0,.14-.01,.02,0,.04,.01,.07,.02,.09,.04,.19,.04,.22-.01,.02-.03-.08-.1-.17-.14-.03-.02-.06-.03-.09-.03-.06-.02-.13-.03-.22-.04-.04,0-.06,0-.09,0-.03-.02-.1,0-.2,.04,.09-.06,.14-.1,.16-.14,.05,.01,.1,.02,.15,.03,.05,0,.1,.02,.14,.02,.03,.01,.05,.03,.09,.05,.09,.05,.18,.06,.21,0,.02-.04-.05-.09-.14-.15-.03-.02-.06-.03-.08-.04-.05-.04-.13-.07-.23-.1-.06-.02-.1-.02-.14-.02,0,0-.02,0-.03,0,0,0-.02,0-.03,0-.04,0-.09,.01-.17,.05-.07,.03-.13,.07-.19,.11,0,0,0,0,0,0,.12-.09,.18-.14,.21-.19,.05,.01,.11,.01,.16,.02,.06,0,.11,.01,.15,.01,.02,0,.04,.02,.06,.03,.09,.04,.19,.04,.21-.01,.02-.04-.06-.09-.15-.14-.02-.01-.04-.02-.06-.03-.05-.04-.14-.06-.23-.08-.08-.02-.15-.02-.2-.01-.04,0-.09,.02-.17,.06-.05,.03-.1,.06-.15,.09-.11,0-.22,.04-.26,.06-.07,.02-.41,.27-.44,.33-.03,.05-.1,.15-.18,.36-.08,.06-.15,.11-.2,.12-.24,.04-.19,.73,.06,.82,.25,.1,.64,.02,.96-.25,.11-.09,.2-.17,.28-.25,0,0,.01,0,.02-.01,.18-.13,.27-.18,.31-.24,.04,0,.09-.02,.13-.03,.06-.02,.13-.02,.17-.04,.02,0,.05,0,.08,0,.1,.01,.22-.01,.23-.07,0-.04-.11-.07-.21-.09-.05-.01-.1-.02-.13-.01Z"/>
            <path class="cls-96" d="M36.87,72.61c-.4-.05-1.32,.9-.75,1.25s2.01,.59,2.78,.79c.77,.21,1.23,.12,1.25-.14s-.25-.48-.86-.78-1.56-1.02-2.41-1.13Z"/>
            <path class="cls-27" d="M34.33,67.15c-.78,.34-.92,1.27-.24,2.98,.67,1.71,1.39,3.46,1.81,3.7,.04,.02,.49,.21,.53,.22,.44,.1,.92-.71,.69-1.38-.01-.04-.23-.13-.24-.18-.27-.9-.75-3.39-.99-4.35-.18-.74-.77-1.33-1.55-.99Z"/>
          </g>
        </g>
        <g class="cls-42">
          <polygon class="cls-11" points="0 70.49 8.69 75.59 17.37 70.54 17.37 88.56 8.69 93.62 8.69 93.62 8.69 93.62 8.68 93.62 8.68 93.62 0 88.52 0 70.49"/>
          <polygon class="cls-8" points="2.45 73.42 8.69 77.08 14.92 73.45 14.92 89.99 8.69 93.62 8.69 93.62 8.69 93.62 8.68 93.62 8.68 93.62 2.45 89.96 2.45 73.42"/>
          <polygon class="cls-88" points="8.69 67.53 8.69 76.37 0 71.26 0 62.43 8.69 67.53"/>
          <polygon class="cls-116" points="8.68 67.53 8.68 76.37 17.37 71.3 17.37 62.47 8.68 67.53"/>
          <polygon class="cls-115" points="17.37 62.47 8.68 67.53 0 62.43 8.69 57.37 17.37 62.47"/>
          <path class="cls-35" d="M8.49,67.38c.12,.07,.27,.07,.39,0l8.38-4.88,.11,.07-8.49,5.02c-.12,.07-.27,.07-.39,0L0,62.52l.11-.07,8.38,4.92Z"/>
        </g>
        <g class="cls-42">
          <polygon class="cls-5" points="89.63 67.48 98.32 72.58 107 67.52 107 83.47 98.32 88.53 98.32 88.53 98.32 88.53 98.31 88.53 98.31 88.53 89.63 83.43 89.63 67.48"/>
          <polygon class="cls-6" points="92.08 70.41 98.32 74.07 104.55 70.44 104.55 84.89 98.32 88.53 98.32 88.53 98.32 88.53 98.31 88.53 98.31 88.53 92.08 84.87 92.08 70.41"/>
          <polygon class="cls-67" points="98.32 64.52 98.32 73.35 89.63 68.25 89.63 59.41 98.32 64.52"/>
          <polygon class="cls-3" points="98.31 64.52 98.31 73.35 107 68.29 107 59.46 98.31 64.52"/>
          <polygon class="cls-45" points="107 59.46 98.31 64.52 89.63 59.41 98.33 54.35 107 59.46"/>
          <path class="cls-39" d="M98.12,64.36c.12,.07,.27,.07,.39,0l8.38-4.88,.11,.07-8.49,5.02c-.12,.07-.27,.07-.39,0l-8.49-5.06,.11-.07,8.38,4.92Z"/>
        </g>
      </g>
    </g>
  </g>
</svg>