<?xml version="1.0" encoding="UTF-8"?>
<svg id="Calque_2" data-name="Calque 2" xmlns="http://www.w3.org/2000/svg" xmlns:xlink="http://www.w3.org/1999/xlink" viewBox="0 0 104.74 85.86">
  <defs>
    <style>
      .cls-1 {
        fill: url(#linear-gradient-2);
      }

      .cls-2 {
        fill: #db6882;
      }

      .cls-3 {
        fill: #be94cb;
      }

      .cls-4 {
        fill: url(#linear-gradient-15);
      }

      .cls-5 {
        fill: #ffdae8;
      }

      .cls-6 {
        fill: url(#linear-gradient-14);
      }

      .cls-7 {
        fill: url(#linear-gradient-6);
      }

      .cls-8 {
        clip-path: url(#clippath-2);
      }

      .cls-9 {
        fill: url(#linear-gradient-11);
      }

      .cls-10 {
        clip-path: url(#clippath-1);
      }

      .cls-11 {
        fill: url(#linear-gradient-10);
      }

      .cls-12 {
        fill: #53285a;
      }

      .cls-13 {
        fill: url(#linear-gradient-16);
      }

      .cls-14 {
        fill: #2f295a;
      }

      .cls-15 {
        fill: #7145a8;
      }

      .cls-16 {
        fill: #7c58e8;
      }

      .cls-17 {
        fill: #f4a7a1;
      }

      .cls-18 {
        fill: url(#linear-gradient-5);
      }

      .cls-19 {
        clip-path: url(#clippath);
      }

      .cls-20 {
        fill: #f1526d;
      }

      .cls-21 {
        fill: url(#linear-gradient-7);
      }

      .cls-22 {
        fill: url(#linear-gradient-9);
      }

      .cls-23 {
        fill: url(#linear-gradient-3);
      }

      .cls-24 {
        fill: url(#linear-gradient);
      }

      .cls-25 {
        fill: url(#linear-gradient-4);
      }

      .cls-26 {
        fill: url(#linear-gradient-8);
      }

      .cls-27 {
        fill: #232047;
      }

      .cls-28 {
        fill: url(#linear-gradient-12);
      }

      .cls-29 {
        fill: url(#linear-gradient-13);
      }
    </style>
    <clipPath id="clippath">
      <path class="cls-3" d="M20.5,17.06v-1c-.58,0-1.17-.19-1.52-.44l.24-.67c.36,.24,.87,.43,1.43,.43,.71,0,1.18-.41,1.18-.97s-.39-.88-1.12-1.18c-1.01-.4-1.64-.85-1.64-1.72s.59-1.45,1.5-1.6v-1h.62v.96c.6,.02,1,.18,1.29,.35l-.25,.66c-.21-.12-.62-.34-1.25-.34-.77,0-1.05,.46-1.05,.85,0,.52,.37,.78,1.23,1.13,1.02,.42,1.54,.93,1.54,1.82,0,.79-.55,1.52-1.57,1.69v1.03h-.63Z"/>
    </clipPath>
    <clipPath id="clippath-1">
      <path class="cls-3" d="M86.57,65.05v-1c-.58,0-1.17-.19-1.52-.44l.24-.67c.36,.24,.87,.43,1.43,.43,.71,0,1.18-.41,1.18-.97s-.39-.88-1.12-1.18c-1.01-.4-1.64-.85-1.64-1.72s.59-1.45,1.5-1.6v-1h.62v.96c.6,.02,1,.18,1.29,.35l-.25,.66c-.21-.12-.62-.34-1.25-.34-.77,0-1.05,.46-1.05,.85,0,.52,.37,.78,1.23,1.13,1.02,.42,1.54,.93,1.54,1.82,0,.79-.55,1.52-1.57,1.69v1.03h-.63Z"/>
    </clipPath>
    <clipPath id="clippath-2">
      <path class="cls-3" d="M80.33,26.64v-.82c-.47,0-.96-.15-1.24-.36l.19-.54c.29,.19,.71,.35,1.17,.35,.57,0,.96-.33,.96-.79s-.32-.72-.92-.96c-.83-.32-1.34-.7-1.34-1.4s.48-1.18,1.22-1.3v-.82h.5v.79c.49,.02,.82,.15,1.05,.28l-.2,.53c-.17-.1-.5-.28-1.02-.28-.62,0-.86,.37-.86,.7,0,.42,.3,.63,1,.92,.83,.34,1.26,.76,1.26,1.48,0,.64-.45,1.24-1.28,1.38v.84h-.51Z"/>
    </clipPath>
    <linearGradient id="linear-gradient" x1="48.17" y1="39.52" x2="55.89" y2="39.52" gradientUnits="userSpaceOnUse">
      <stop offset="0" stop-color="#f1526d"/>
      <stop offset="1" stop-color="#f59a63"/>
    </linearGradient>
    <linearGradient id="linear-gradient-2" x1="48.15" y1="46.91" x2="55.88" y2="46.91" xlink:href="#linear-gradient"/>
    <linearGradient id="linear-gradient-3" x1="34.01" y1="35.39" x2="39.52" y2="35.39" gradientUnits="userSpaceOnUse">
      <stop offset="0" stop-color="#7c58e8"/>
      <stop offset="1" stop-color="#d37ddd"/>
    </linearGradient>
    <linearGradient id="linear-gradient-4" x1="20.68" y1="39.85" x2="35.84" y2="39.85" xlink:href="#linear-gradient-3"/>
    <linearGradient id="linear-gradient-5" x1="0" y1="62.12" x2="44.87" y2="62.12" xlink:href="#linear-gradient"/>
    <linearGradient id="linear-gradient-6" x1="30.83" y1="43.9" x2="37.51" y2="43.9" xlink:href="#linear-gradient"/>
    <linearGradient id="linear-gradient-7" x1="34.7" y1="43.73" x2="48.85" y2="43.73" xlink:href="#linear-gradient"/>
    <linearGradient id="linear-gradient-8" x1="47.29" y1="43.77" x2="50.6" y2="43.77" xlink:href="#linear-gradient"/>
    <linearGradient id="linear-gradient-9" x1="25.75" y1="35.12" x2="31.31" y2="35.12" xlink:href="#linear-gradient-3"/>
    <linearGradient id="linear-gradient-10" x1="64.61" y1="37.22" x2="69.71" y2="37.22" xlink:href="#linear-gradient-3"/>
    <linearGradient id="linear-gradient-11" x1="67.06" y1="39.8" x2="77.67" y2="39.8" xlink:href="#linear-gradient-3"/>
    <linearGradient id="linear-gradient-12" x1="55.89" y1="43.73" x2="70.04" y2="43.73" gradientTransform="translate(125.94 87.45) rotate(180)" xlink:href="#linear-gradient"/>
    <linearGradient id="linear-gradient-13" x1="67.24" y1="43.9" x2="73.92" y2="43.9" xlink:href="#linear-gradient"/>
    <linearGradient id="linear-gradient-14" x1="55.31" y1="43.73" x2="69.71" y2="43.73" xlink:href="#linear-gradient"/>
    <linearGradient id="linear-gradient-15" x1="54.14" y1="43.77" x2="57.45" y2="43.77" xlink:href="#linear-gradient"/>
    <linearGradient id="linear-gradient-16" x1="71.24" y1="35.65" x2="75.45" y2="35.65" xlink:href="#linear-gradient-3"/>
  </defs>
  <g id="Layer_20" data-name="Layer 20">
    <g>
      <path class="cls-5" d="M74.57,36.04c-11.61-1.28,.52-6.72,5.38-11.34,4.86-4.62-3.96-8.81-13.27-10.04-9.31-1.23,.93-1.57,.47-7.32C66.68,1.58,57.15-.11,50.77,0V.03c-6.38-.09-15.79,1.62-16.25,7.33-.46,5.75,9.78,6.09,.47,7.32-9.31,1.23-18.13,5.42-13.27,10.04,4.86,4.62,16.99,10.06,5.38,11.34-11.61,1.28-14.7,12.12-10.65,16.52,4.05,4.4,11.34,4.29,10,6.99-1.34,2.71-7.68,4.17-5.46,10.03,2.22,5.86,7.68,3.02,7.68,3.02l22.22,.69v-.03l22.1-.68s5.46,2.84,7.68-3.02c2.22-5.86-4.12-7.32-5.46-10.03-1.34-2.71,5.95-2.59,10-6.99,4.05-4.4,.96-15.24-10.65-16.52Z"/>
      <path class="cls-3" d="M49.82,68.52c-7.74,.16-9.14,2.01-8.44,3.24,.7,1.23-20.98-.73-21.25,.97-.27,1.69,2.5,1.46,2.51,3.24,.01,1.77-9.61,.09-9.79,2.54-.18,2.45,10.43,1.84,14.48,1.73,4.05-.1,9.71,1.73,6.57,2.96-3.15,1.22-.36,2.55,9,2.65,9.35,.1,23.75-.2,26.54-1.22,2.79-1.02-3.06-2.59,.72-3.84s13.26-1.49,16.19-1.87c3.15-.41,7.08-2.3,4.95-4.19-2.52-2.24-1.62-1.44-7.56-1.99-5.94-.55-13.51-.38-11.79-1.18,1.72-.8-7.38-3.32-22.12-3.02Z"/>
      <g>
        <path class="cls-3" d="M48.06,14.14c-.07-.06-.17-.18-.2-.31,0-.01,.02-.09,.16-.21,.14-.12,.3-.21,.34-.24,.19-.09,.34-.2,.45-.32,.13-.14,.2-.3,.2-.47,0-.62-.94-1.09-2.19-1.09s-2.19,.47-2.19,1.09c0,.31,.23,.59,.65,.79,.29,.16,.5,.36,.5,.45h0c-.03,.13-.13,.25-.2,.31h-4.09V6.1c0-1.44,1.17-2.61,2.61-2.61h8.05V7.7l.05,.06s.29,.3,.6,.38c.03,0,.06,.01,.1,.01,.38,0,.71-.53,.81-.7h0s0,0,0,0c.13-.26,.29-.41,.43-.41h0c.15,0,.31,.18,.44,.47,.15,.35,.23,.83,.22,1.33-.02,1.02-.4,1.77-.72,1.77,0,0,0,0,0,0-.14,0-.3-.16-.42-.43h0s0,0,0,0c-.09-.17-.41-.73-.8-.73-.03,0-.05,0-.08,0-.34,.07-.56,.35-.59,.39l-.04,.05v4.26h-4.09Z"/>
        <path class="cls-3" d="M52.15,18.63c-.06,.07-.18,.17-.31,.2-.01,0-.09-.02-.21-.16-.12-.14-.21-.3-.24-.34-.09-.19-.2-.34-.32-.45-.14-.13-.3-.2-.47-.2-.62,0-1.09,.94-1.09,2.19s.47,2.19,1.09,2.19c.31,0,.59-.23,.79-.65,.16-.29,.36-.5,.45-.5h0c.13,.03,.24,.13,.31,.2v4.09h-8.05c-1.44,0-2.61-1.17-2.61-2.61V14.54h4.22l.06-.05s.3-.29,.38-.6c0-.03,.01-.06,.01-.1,0-.38-.53-.71-.7-.81h0s0,0,0,0c-.26-.13-.41-.29-.41-.43h0c0-.15,.18-.32,.47-.44,.35-.15,.83-.23,1.33-.22,1.02,.02,1.77,.4,1.77,.72,0,0,0,0,0,0,0,.14-.16,.3-.43,.42h0s0,0,0,0c-.17,.09-.73,.41-.73,.8,0,.03,0,.05,0,.08,.07,.34,.35,.56,.39,.59l.05,.04h4.26v4.09Z"/>
        <path class="cls-3" d="M52.54,10.05c.06-.07,.18-.17,.31-.19,.01,0,.09,.02,.21,.16,.12,.14,.21,.3,.23,.35,.09,.19,.19,.35,.31,.46,.14,.13,.3,.2,.46,.2,.62,0,1.1-.93,1.12-2.18,.02-1.25-.44-2.2-1.06-2.2-.31,0-.59,.22-.8,.64-.16,.28-.37,.49-.45,.49h0c-.13-.03-.24-.13-.3-.2l.05-4.09,8.05,.11c1.44,.02,2.6,1.21,2.58,2.65l-.11,8.05-4.22-.06-.06,.05s-.3,.28-.39,.6c0,.03-.01,.06-.01,.1,0,.38,.52,.72,.69,.82h0s0,0,0,0c.26,.13,.41,.3,.41,.44h0c0,.15-.18,.31-.48,.43-.36,.14-.83,.22-1.33,.2-1.01-.03-1.77-.42-1.76-.74,0,0,0,0,0,0,0-.14,.17-.29,.44-.41h0s0,0,0,0c.17-.09,.74-.4,.74-.79,0-.03,0-.05,0-.08-.06-.34-.35-.57-.38-.59l-.05-.04-4.26-.06,.05-4.09Z"/>
        <path class="cls-3" d="M56.53,14.51c.07,.06,.17,.18,.2,.31,0,.01-.01,.09-.16,.21-.14,.12-.3,.22-.34,.24-.19,.09-.34,.2-.45,.32-.13,.14-.19,.3-.19,.47,0,.62,.95,1.08,2.2,1.08,1.25,0,2.19-.48,2.18-1.1,0-.31-.23-.58-.65-.78-.29-.15-.5-.36-.5-.44h0c.03-.13,.13-.25,.2-.31l4.09-.03,.05,8.05c0,1.44-1.16,2.62-2.6,2.63l-8.05,.05-.03-4.22-.05-.06s-.29-.3-.61-.37c-.03,0-.06-.01-.1-.01-.38,0-.71,.54-.8,.7h0s0,0,0,0c-.13,.26-.29,.42-.43,.42h0c-.15,0-.31-.18-.44-.47-.15-.35-.23-.82-.22-1.33,.01-1.02,.39-1.78,.71-1.78,0,0,0,0,0,0,.14,0,.3,.16,.42,.43h0s0,0,0,0c.09,.17,.41,.73,.8,.73,.03,0,.05,0,.08,0,.34-.07,.56-.36,.59-.39l.04-.05-.03-4.26,4.09-.03Z"/>
      </g>
      <g>
        <path class="cls-3" d="M14.46,53h-1.21c-1.44,0-2.68-1.08-2.87-2.51-.02-.12-.03-.26-.03-.4v-3.14h7.02v3.14c0,.14,0,.27-.03,.4-.19,1.43-1.43,2.5-2.87,2.5Zm-3.49-5.42v2.51c0,.11,0,.21,.02,.31,.15,1.13,1.12,1.97,2.26,1.97h1.21c1.13,0,2.1-.85,2.26-1.97,.02-.1,.02-.2,.02-.31v-2.51h-5.77Z"/>
        <path class="cls-3" d="M13.85,28.03c-4.55,0-8.25,3.7-8.25,8.25,0,.68,.09,1.36,.25,2.02,.13,.53,.32,1.06,.56,1.55v.02c.08,.14,.16,.29,.24,.43l3.81,7.28h6.77l3.81-7.28c.08-.14,.16-.29,.22-.43v-.02c.25-.5,.44-1.02,.57-1.55,.17-.66,.25-1.34,.25-2.02,0-4.55-3.7-8.25-8.25-8.25Zm7.39,10.12c-.12,.49-.29,.96-.51,1.42v.02c-.08,.14-.15,.28-.23,.41l-3.65,6.96h-6.02l-3.64-6.95h0c-.08-.15-.15-.29-.22-.42v-.02c-.23-.45-.4-.93-.52-1.42-.15-.61-.23-1.24-.23-1.87,0-4.2,3.42-7.62,7.62-7.62s7.62,3.42,7.62,7.62c0,.63-.08,1.26-.23,1.87Z"/>
        <path class="cls-3" d="M15.29,47.27c0-1.07,.03-3.03,.26-4.2,.25-1.26,1.21-3.13,1.84-4.37,.2-.39,.37-.72,.47-.94,.16-.31,.53-1.19,.3-1.56-.07-.12-.21-.18-.41-.18-.24,0-.4,.49-.54,.93-.17,.54-.35,1.09-.76,1.09s-.59-.55-.76-1.09c-.14-.43-.3-.93-.54-.93s-.4,.49-.54,.93c-.17,.54-.35,1.09-.76,1.09s-.59-.55-.76-1.09c-.14-.43-.3-.93-.54-.93s-.4,.49-.54,.93c-.17,.54-.35,1.09-.76,1.09s-.59-.55-.76-1.09c-.14-.44-.3-.93-.54-.93h-.04c-.18,0-.3,.07-.37,.18-.23,.37,.14,1.25,.3,1.56,.1,.22,.27,.56,.47,.95,.63,1.24,1.59,3.12,1.84,4.37,.23,1.17,.26,3.14,.26,4.2h-.23c0-1.06-.03-3-.26-4.16-.24-1.22-1.19-3.08-1.82-4.31-.2-.39-.37-.73-.47-.95-.06-.12-.62-1.23-.29-1.78,.12-.19,.32-.29,.62-.29l.17,.05,.11,.06c.22,.19,.35,.59,.48,.98,.14,.44,.3,.93,.54,.93s.4-.49,.54-.93c.17-.54,.35-1.09,.76-1.09s.59,.55,.76,1.09c.14,.44,.3,.93,.54,.93s.4-.49,.54-.93c.17-.54,.35-1.09,.76-1.09s.59,.55,.76,1.09c.14,.44,.3,.93,.54,.93s.4-.49,.54-.93c.17-.53,.35-1.09,.76-1.09,.29,0,.5,.1,.61,.29,.33,.55-.23,1.66-.29,1.78-.1,.22-.27,.55-.47,.94-.63,1.23-1.57,3.09-1.82,4.31-.23,1.15-.26,3.1-.26,4.16h-.23Z"/>
        <path class="cls-3" d="M17.16,49.53h-6.63v-.94h6.63v.94Zm-6.39-.23h6.16v-.47h-6.16v.47Z"/>
        <path class="cls-3" d="M17.12,50.57h-6.54v-.1c-.03-.12-.04-.24-.04-.37v-.24h6.63v.24c0,.13,0,.25-.03,.37v.1Zm-6.36-.23h6.14c0-.08,.01-.16,.01-.24h0s-6.16,0-6.16,0h0c0,.08,0,.16,.01,.24Z"/>
      </g>
      <g>
        <path class="cls-3" d="M20.84,18.63c-3.12,0-5.66-2.54-5.66-5.66s2.54-5.66,5.66-5.66,5.66,2.54,5.66,5.66-2.54,5.66-5.66,5.66Zm0-10.6c-2.73,0-4.94,2.22-4.94,4.94s2.22,4.94,4.94,4.94,4.94-2.22,4.94-4.94-2.22-4.94-4.94-4.94Z"/>
        <path class="cls-3" d="M20.84,20.3c-4.04,0-7.32-3.28-7.32-7.32s3.28-7.32,7.32-7.32,7.32,3.28,7.32,7.32-3.28,7.32-7.32,7.32Zm0-13.93c-3.64,0-6.61,2.96-6.61,6.61s2.96,6.61,6.61,6.61,6.61-2.96,6.61-6.61-2.96-6.61-6.61-6.61Z"/>
        <g>
          <path class="cls-3" d="M20.5,17.06v-1c-.58,0-1.17-.19-1.52-.44l.24-.67c.36,.24,.87,.43,1.43,.43,.71,0,1.18-.41,1.18-.97s-.39-.88-1.12-1.18c-1.01-.4-1.64-.85-1.64-1.72s.59-1.45,1.5-1.6v-1h.62v.96c.6,.02,1,.18,1.29,.35l-.25,.66c-.21-.12-.62-.34-1.25-.34-.77,0-1.05,.46-1.05,.85,0,.52,.37,.78,1.23,1.13,1.02,.42,1.54,.93,1.54,1.82,0,.79-.55,1.52-1.57,1.69v1.03h-.63Z"/>
          <g class="cls-19">
            <rect class="cls-3" x="18.98" y="8.9" width=".04" height="8.16"/>
            <rect class="cls-3" x="19.02" y="8.9" width=".04" height="8.16"/>
            <rect class="cls-3" x="19.06" y="8.9" width=".04" height="8.16"/>
            <rect class="cls-3" x="19.1" y="8.9" width=".04" height="8.16"/>
            <rect class="cls-3" x="19.14" y="8.9" width=".04" height="8.16"/>
            <rect class="cls-3" x="19.18" y="8.9" width=".04" height="8.16"/>
            <rect class="cls-3" x="19.22" y="8.9" width=".04" height="8.16"/>
            <rect class="cls-3" x="19.25" y="8.9" width=".04" height="8.16"/>
            <rect class="cls-3" x="19.29" y="8.9" width=".04" height="8.16"/>
            <rect class="cls-3" x="19.33" y="8.9" width=".04" height="8.16"/>
            <rect class="cls-3" x="19.37" y="8.9" width=".04" height="8.16"/>
            <rect class="cls-3" x="19.41" y="8.9" width=".04" height="8.16"/>
            <rect class="cls-3" x="19.45" y="8.9" width=".04" height="8.16"/>
            <rect class="cls-3" x="19.49" y="8.9" width=".04" height="8.16"/>
            <rect class="cls-3" x="19.53" y="8.9" width=".04" height="8.16"/>
            <rect class="cls-3" x="19.57" y="8.9" width=".04" height="8.16"/>
            <rect class="cls-3" x="19.61" y="8.9" width=".04" height="8.16"/>
            <rect class="cls-3" x="19.65" y="8.9" width=".04" height="8.16"/>
            <rect class="cls-3" x="19.69" y="8.9" width=".04" height="8.16"/>
            <rect class="cls-3" x="19.73" y="8.9" width=".04" height="8.16"/>
            <rect class="cls-3" x="19.77" y="8.9" width=".04" height="8.16"/>
            <rect class="cls-3" x="19.81" y="8.9" width=".04" height="8.16"/>
            <rect class="cls-3" x="19.85" y="8.9" width=".04" height="8.16"/>
            <rect class="cls-3" x="19.89" y="8.9" width=".04" height="8.16"/>
            <rect class="cls-3" x="19.93" y="8.9" width=".04" height="8.16"/>
            <rect class="cls-3" x="19.97" y="8.9" width=".04" height="8.16"/>
            <rect class="cls-3" x="20.01" y="8.9" width=".04" height="8.16"/>
            <rect class="cls-3" x="20.05" y="8.9" width=".04" height="8.16"/>
            <rect class="cls-3" x="20.09" y="8.9" width=".04" height="8.16"/>
            <rect class="cls-3" x="20.12" y="8.9" width=".04" height="8.16"/>
            <rect class="cls-3" x="20.16" y="8.9" width=".04" height="8.16"/>
            <rect class="cls-3" x="20.2" y="8.9" width=".04" height="8.16"/>
            <rect class="cls-3" x="20.24" y="8.9" width=".04" height="8.16"/>
            <rect class="cls-3" x="20.28" y="8.9" width=".04" height="8.16"/>
            <rect class="cls-3" x="20.32" y="8.9" width=".04" height="8.16"/>
            <rect class="cls-3" x="20.36" y="8.9" width=".04" height="8.16"/>
            <rect class="cls-3" x="20.4" y="8.9" width=".04" height="8.16"/>
            <rect class="cls-3" x="20.44" y="8.9" width=".04" height="8.16"/>
            <rect class="cls-3" x="20.48" y="8.9" width=".04" height="8.16"/>
            <rect class="cls-3" x="20.52" y="8.9" width=".04" height="8.16"/>
            <rect class="cls-3" x="20.56" y="8.9" width=".04" height="8.16"/>
            <rect class="cls-3" x="20.6" y="8.9" width=".04" height="8.16"/>
            <rect class="cls-3" x="20.64" y="8.9" width=".04" height="8.16"/>
            <rect class="cls-3" x="20.68" y="8.9" width=".04" height="8.16"/>
            <rect class="cls-3" x="20.72" y="8.9" width=".04" height="8.16"/>
            <rect class="cls-3" x="20.76" y="8.9" width=".04" height="8.16"/>
            <rect class="cls-3" x="20.8" y="8.9" width=".04" height="8.16"/>
            <rect class="cls-3" x="20.84" y="8.9" width=".04" height="8.16"/>
            <rect class="cls-3" x="20.88" y="8.9" width=".04" height="8.16"/>
            <rect class="cls-3" x="20.92" y="8.9" width=".04" height="8.16"/>
            <rect class="cls-3" x="20.96" y="8.9" width=".04" height="8.16"/>
            <rect class="cls-3" x="20.99" y="8.9" width=".04" height="8.16"/>
            <rect class="cls-3" x="21.03" y="8.9" width=".04" height="8.16"/>
            <rect class="cls-3" x="21.07" y="8.9" width=".04" height="8.16"/>
            <rect class="cls-3" x="21.11" y="8.9" width=".04" height="8.16"/>
            <rect class="cls-3" x="21.15" y="8.9" width=".04" height="8.16"/>
            <rect class="cls-3" x="21.19" y="8.9" width=".04" height="8.16"/>
            <rect class="cls-3" x="21.23" y="8.9" width=".04" height="8.16"/>
            <rect class="cls-3" x="21.27" y="8.9" width=".04" height="8.16"/>
            <rect class="cls-3" x="21.31" y="8.9" width=".04" height="8.16"/>
            <rect class="cls-3" x="21.35" y="8.9" width=".04" height="8.16"/>
            <rect class="cls-3" x="21.39" y="8.9" width=".04" height="8.16"/>
            <rect class="cls-3" x="21.43" y="8.9" width=".04" height="8.16"/>
            <rect class="cls-3" x="21.47" y="8.9" width=".04" height="8.16"/>
            <rect class="cls-3" x="21.51" y="8.9" width=".04" height="8.16"/>
            <rect class="cls-3" x="21.55" y="8.9" width=".04" height="8.16"/>
            <rect class="cls-3" x="21.59" y="8.9" width=".04" height="8.16"/>
            <rect class="cls-3" x="21.63" y="8.9" width=".04" height="8.16"/>
            <rect class="cls-3" x="21.67" y="8.9" width=".04" height="8.16"/>
            <rect class="cls-3" x="21.71" y="8.9" width=".04" height="8.16"/>
            <rect class="cls-3" x="21.75" y="8.9" width=".04" height="8.16"/>
            <rect class="cls-3" x="21.79" y="8.9" width=".04" height="8.16"/>
            <rect class="cls-3" x="21.83" y="8.9" width=".04" height="8.16"/>
            <rect class="cls-3" x="21.87" y="8.9" width=".04" height="8.16"/>
            <rect class="cls-3" x="21.9" y="8.9" width=".04" height="8.16"/>
            <rect class="cls-3" x="21.94" y="8.9" width=".04" height="8.16"/>
            <rect class="cls-3" x="21.98" y="8.9" width=".04" height="8.16"/>
            <rect class="cls-3" x="22.02" y="8.9" width=".04" height="8.16"/>
            <rect class="cls-3" x="22.06" y="8.9" width=".04" height="8.16"/>
            <rect class="cls-3" x="22.1" y="8.9" width=".04" height="8.16"/>
            <rect class="cls-3" x="22.14" y="8.9" width=".04" height="8.16"/>
            <rect class="cls-3" x="22.18" y="8.9" width=".04" height="8.16"/>
            <rect class="cls-3" x="22.22" y="8.9" width=".04" height="8.16"/>
            <rect class="cls-3" x="22.26" y="8.9" width=".04" height="8.16"/>
            <rect class="cls-3" x="22.3" y="8.9" width=".04" height="8.16"/>
            <rect class="cls-3" x="22.34" y="8.9" width=".04" height="8.16"/>
            <rect class="cls-3" x="22.38" y="8.9" width=".04" height="8.16"/>
            <rect class="cls-3" x="22.42" y="8.9" width=".04" height="8.16"/>
            <rect class="cls-3" x="22.46" y="8.9" width=".04" height="8.16"/>
            <rect class="cls-3" x="22.5" y="8.9" width=".04" height="8.16"/>
            <rect class="cls-3" x="22.54" y="8.9" width=".04" height="8.16"/>
            <rect class="cls-3" x="22.58" y="8.9" width=".04" height="8.16"/>
            <rect class="cls-3" x="22.62" y="8.9" width=".04" height="8.16"/>
            <rect class="cls-3" x="22.66" y="8.9" width=".04" height="8.16"/>
          </g>
        </g>
      </g>
      <g>
        <path class="cls-3" d="M86.91,66.62c-3.12,0-5.66-2.54-5.66-5.66s2.54-5.66,5.66-5.66,5.66,2.54,5.66,5.66-2.54,5.66-5.66,5.66Zm0-10.6c-2.73,0-4.94,2.22-4.94,4.94s2.22,4.94,4.94,4.94,4.94-2.22,4.94-4.94-2.22-4.94-4.94-4.94Z"/>
        <path class="cls-3" d="M86.91,68.29c-4.04,0-7.32-3.28-7.32-7.32s3.28-7.32,7.32-7.32,7.32,3.28,7.32,7.32-3.28,7.32-7.32,7.32Zm0-13.93c-3.64,0-6.61,2.96-6.61,6.61s2.96,6.61,6.61,6.61,6.61-2.96,6.61-6.61-2.96-6.61-6.61-6.61Z"/>
        <g>
          <path class="cls-3" d="M86.57,65.05v-1c-.58,0-1.17-.19-1.52-.44l.24-.67c.36,.24,.87,.43,1.43,.43,.71,0,1.18-.41,1.18-.97s-.39-.88-1.12-1.18c-1.01-.4-1.64-.85-1.64-1.72s.59-1.45,1.5-1.6v-1h.62v.96c.6,.02,1,.18,1.29,.35l-.25,.66c-.21-.12-.62-.34-1.25-.34-.77,0-1.05,.46-1.05,.85,0,.52,.37,.78,1.23,1.13,1.02,.42,1.54,.93,1.54,1.82,0,.79-.55,1.52-1.57,1.69v1.03h-.63Z"/>
          <g class="cls-10">
            <rect class="cls-3" x="85.05" y="56.88" width=".04" height="8.16"/>
            <rect class="cls-3" x="85.09" y="56.88" width=".04" height="8.16"/>
            <rect class="cls-3" x="85.13" y="56.88" width=".04" height="8.16"/>
            <rect class="cls-3" x="85.17" y="56.88" width=".04" height="8.16"/>
            <rect class="cls-3" x="85.21" y="56.88" width=".04" height="8.16"/>
            <rect class="cls-3" x="85.25" y="56.88" width=".04" height="8.16"/>
            <rect class="cls-3" x="85.29" y="56.88" width=".04" height="8.16"/>
            <rect class="cls-3" x="85.33" y="56.88" width=".04" height="8.16"/>
            <rect class="cls-3" x="85.37" y="56.88" width=".04" height="8.16"/>
            <rect class="cls-3" x="85.41" y="56.88" width=".04" height="8.16"/>
            <rect class="cls-3" x="85.45" y="56.88" width=".04" height="8.16"/>
            <rect class="cls-3" x="85.48" y="56.88" width=".04" height="8.16"/>
            <rect class="cls-3" x="85.52" y="56.88" width=".04" height="8.16"/>
            <rect class="cls-3" x="85.56" y="56.88" width=".04" height="8.16"/>
            <rect class="cls-3" x="85.6" y="56.88" width=".04" height="8.16"/>
            <rect class="cls-3" x="85.64" y="56.88" width=".04" height="8.16"/>
            <rect class="cls-3" x="85.68" y="56.88" width=".04" height="8.16"/>
            <rect class="cls-3" x="85.72" y="56.88" width=".04" height="8.16"/>
            <rect class="cls-3" x="85.76" y="56.88" width=".04" height="8.16"/>
            <rect class="cls-3" x="85.8" y="56.88" width=".04" height="8.16"/>
            <rect class="cls-3" x="85.84" y="56.88" width=".04" height="8.16"/>
            <rect class="cls-3" x="85.88" y="56.88" width=".04" height="8.16"/>
            <rect class="cls-3" x="85.92" y="56.88" width=".04" height="8.16"/>
            <rect class="cls-3" x="85.96" y="56.88" width=".04" height="8.16"/>
            <rect class="cls-3" x="86" y="56.88" width=".04" height="8.16"/>
            <rect class="cls-3" x="86.04" y="56.88" width=".04" height="8.16"/>
            <rect class="cls-3" x="86.08" y="56.88" width=".04" height="8.16"/>
            <rect class="cls-3" x="86.12" y="56.88" width=".04" height="8.16"/>
            <rect class="cls-3" x="86.16" y="56.88" width=".04" height="8.16"/>
            <rect class="cls-3" x="86.2" y="56.88" width=".04" height="8.16"/>
            <rect class="cls-3" x="86.24" y="56.88" width=".04" height="8.16"/>
            <rect class="cls-3" x="86.28" y="56.88" width=".04" height="8.16"/>
            <rect class="cls-3" x="86.32" y="56.88" width=".04" height="8.16"/>
            <rect class="cls-3" x="86.35" y="56.88" width=".04" height="8.16"/>
            <rect class="cls-3" x="86.39" y="56.88" width=".04" height="8.16"/>
            <rect class="cls-3" x="86.43" y="56.88" width=".04" height="8.16"/>
            <rect class="cls-3" x="86.47" y="56.88" width=".04" height="8.16"/>
            <rect class="cls-3" x="86.51" y="56.88" width=".04" height="8.16"/>
            <rect class="cls-3" x="86.55" y="56.88" width=".04" height="8.16"/>
            <rect class="cls-3" x="86.59" y="56.88" width=".04" height="8.16"/>
            <rect class="cls-3" x="86.63" y="56.88" width=".04" height="8.16"/>
            <rect class="cls-3" x="86.67" y="56.88" width=".04" height="8.16"/>
            <rect class="cls-3" x="86.71" y="56.88" width=".04" height="8.16"/>
            <rect class="cls-3" x="86.75" y="56.88" width=".04" height="8.16"/>
            <rect class="cls-3" x="86.79" y="56.88" width=".04" height="8.16"/>
            <rect class="cls-3" x="86.83" y="56.88" width=".04" height="8.16"/>
            <rect class="cls-3" x="86.87" y="56.88" width=".04" height="8.16"/>
            <rect class="cls-3" x="86.91" y="56.88" width=".04" height="8.16"/>
            <rect class="cls-3" x="86.95" y="56.88" width=".04" height="8.16"/>
            <rect class="cls-3" x="86.99" y="56.88" width=".04" height="8.16"/>
            <rect class="cls-3" x="87.03" y="56.88" width=".04" height="8.16"/>
            <rect class="cls-3" x="87.07" y="56.88" width=".04" height="8.16"/>
            <rect class="cls-3" x="87.11" y="56.88" width=".04" height="8.16"/>
            <rect class="cls-3" x="87.15" y="56.88" width=".04" height="8.16"/>
            <rect class="cls-3" x="87.19" y="56.88" width=".04" height="8.16"/>
            <rect class="cls-3" x="87.23" y="56.88" width=".04" height="8.16"/>
            <rect class="cls-3" x="87.26" y="56.88" width=".04" height="8.16"/>
            <rect class="cls-3" x="87.3" y="56.88" width=".04" height="8.16"/>
            <rect class="cls-3" x="87.34" y="56.88" width=".04" height="8.16"/>
            <rect class="cls-3" x="87.38" y="56.88" width=".04" height="8.16"/>
            <rect class="cls-3" x="87.42" y="56.88" width=".04" height="8.16"/>
            <rect class="cls-3" x="87.46" y="56.88" width=".04" height="8.16"/>
            <rect class="cls-3" x="87.5" y="56.88" width=".04" height="8.16"/>
            <rect class="cls-3" x="87.54" y="56.88" width=".04" height="8.16"/>
            <rect class="cls-3" x="87.58" y="56.88" width=".04" height="8.16"/>
            <rect class="cls-3" x="87.62" y="56.88" width=".04" height="8.16"/>
            <rect class="cls-3" x="87.66" y="56.88" width=".04" height="8.16"/>
            <rect class="cls-3" x="87.7" y="56.88" width=".04" height="8.16"/>
            <rect class="cls-3" x="87.74" y="56.88" width=".04" height="8.16"/>
            <rect class="cls-3" x="87.78" y="56.88" width=".04" height="8.16"/>
            <rect class="cls-3" x="87.82" y="56.88" width=".04" height="8.16"/>
            <rect class="cls-3" x="87.86" y="56.88" width=".04" height="8.16"/>
            <rect class="cls-3" x="87.9" y="56.88" width=".04" height="8.16"/>
            <rect class="cls-3" x="87.94" y="56.88" width=".04" height="8.16"/>
            <rect class="cls-3" x="87.98" y="56.88" width=".04" height="8.16"/>
            <rect class="cls-3" x="88.02" y="56.88" width=".04" height="8.16"/>
            <rect class="cls-3" x="88.06" y="56.88" width=".04" height="8.16"/>
            <rect class="cls-3" x="88.1" y="56.88" width=".04" height="8.16"/>
            <rect class="cls-3" x="88.13" y="56.88" width=".04" height="8.16"/>
            <rect class="cls-3" x="88.17" y="56.88" width=".04" height="8.16"/>
            <rect class="cls-3" x="88.21" y="56.88" width=".04" height="8.16"/>
            <rect class="cls-3" x="88.25" y="56.88" width=".04" height="8.16"/>
            <rect class="cls-3" x="88.29" y="56.88" width=".04" height="8.16"/>
            <rect class="cls-3" x="88.33" y="56.88" width=".04" height="8.16"/>
            <rect class="cls-3" x="88.37" y="56.88" width=".04" height="8.16"/>
            <rect class="cls-3" x="88.41" y="56.88" width=".04" height="8.16"/>
            <rect class="cls-3" x="88.45" y="56.88" width=".04" height="8.16"/>
            <rect class="cls-3" x="88.49" y="56.88" width=".04" height="8.16"/>
            <rect class="cls-3" x="88.53" y="56.88" width=".04" height="8.16"/>
            <rect class="cls-3" x="88.57" y="56.88" width=".04" height="8.16"/>
            <rect class="cls-3" x="88.61" y="56.88" width=".04" height="8.16"/>
            <rect class="cls-3" x="88.65" y="56.88" width=".04" height="8.16"/>
            <rect class="cls-3" x="88.69" y="56.88" width=".04" height="8.16"/>
            <rect class="cls-3" x="88.73" y="56.88" width=".04" height="8.16"/>
          </g>
        </g>
      </g>
      <g>
        <path class="cls-3" d="M80.61,27.92c-2.54,0-4.61-2.07-4.61-4.61s2.07-4.61,4.61-4.61,4.61,2.07,4.61,4.61-2.07,4.61-4.61,4.61Zm0-8.63c-2.22,0-4.03,1.81-4.03,4.03s1.81,4.03,4.03,4.03,4.03-1.81,4.03-4.03-1.81-4.03-4.03-4.03Z"/>
        <path class="cls-3" d="M80.61,29.28c-3.29,0-5.96-2.67-5.96-5.96s2.67-5.96,5.96-5.96,5.96,2.67,5.96,5.96-2.67,5.96-5.96,5.96Zm0-11.35c-2.97,0-5.38,2.41-5.38,5.38s2.41,5.38,5.38,5.38,5.38-2.41,5.38-5.38-2.41-5.38-5.38-5.38Z"/>
        <g>
          <path class="cls-3" d="M80.33,26.64v-.82c-.47,0-.96-.15-1.24-.36l.19-.54c.29,.19,.71,.35,1.17,.35,.57,0,.96-.33,.96-.79s-.32-.72-.92-.96c-.83-.32-1.34-.7-1.34-1.4s.48-1.18,1.22-1.3v-.82h.5v.79c.49,.02,.82,.15,1.05,.28l-.2,.53c-.17-.1-.5-.28-1.02-.28-.62,0-.86,.37-.86,.7,0,.42,.3,.63,1,.92,.83,.34,1.26,.76,1.26,1.48,0,.64-.45,1.24-1.28,1.38v.84h-.51Z"/>
          <g class="cls-8">
            <rect class="cls-3" x="79.09" y="19.99" width=".03" height="6.65"/>
            <rect class="cls-3" x="79.12" y="19.99" width=".03" height="6.65"/>
            <rect class="cls-3" x="79.16" y="19.99" width=".03" height="6.65"/>
            <rect class="cls-3" x="79.19" y="19.99" width=".03" height="6.65"/>
            <rect class="cls-3" x="79.22" y="19.99" width=".03" height="6.65"/>
            <rect class="cls-3" x="79.25" y="19.99" width=".03" height="6.65"/>
            <rect class="cls-3" x="79.29" y="19.99" width=".03" height="6.65"/>
            <rect class="cls-3" x="79.32" y="19.99" width=".03" height="6.65"/>
            <rect class="cls-3" x="79.35" y="19.99" width=".03" height="6.65"/>
            <rect class="cls-3" x="79.38" y="19.99" width=".03" height="6.65"/>
            <rect class="cls-3" x="79.41" y="19.99" width=".03" height="6.65"/>
            <rect class="cls-3" x="79.45" y="19.99" width=".03" height="6.65"/>
            <rect class="cls-3" x="79.48" y="19.99" width=".03" height="6.65"/>
            <rect class="cls-3" x="79.51" y="19.99" width=".03" height="6.65"/>
            <rect class="cls-3" x="79.54" y="19.99" width=".03" height="6.65"/>
            <rect class="cls-3" x="79.58" y="19.99" width=".03" height="6.65"/>
            <rect class="cls-3" x="79.61" y="19.99" width=".03" height="6.65"/>
            <rect class="cls-3" x="79.64" y="19.99" width=".03" height="6.65"/>
            <rect class="cls-3" x="79.67" y="19.99" width=".03" height="6.65"/>
            <rect class="cls-3" x="79.7" y="19.99" width=".03" height="6.65"/>
            <rect class="cls-3" x="79.74" y="19.99" width=".03" height="6.65"/>
            <rect class="cls-3" x="79.77" y="19.99" width=".03" height="6.65"/>
            <rect class="cls-3" x="79.8" y="19.99" width=".03" height="6.65"/>
            <rect class="cls-3" x="79.83" y="19.99" width=".03" height="6.65"/>
            <rect class="cls-3" x="79.87" y="19.99" width=".03" height="6.65"/>
            <rect class="cls-3" x="79.9" y="19.99" width=".03" height="6.65"/>
            <rect class="cls-3" x="79.93" y="19.99" width=".03" height="6.65"/>
            <rect class="cls-3" x="79.96" y="19.99" width=".03" height="6.65"/>
            <rect class="cls-3" x="79.99" y="19.99" width=".03" height="6.65"/>
            <rect class="cls-3" x="80.03" y="19.99" width=".03" height="6.65"/>
            <rect class="cls-3" x="80.06" y="19.99" width=".03" height="6.65"/>
            <rect class="cls-3" x="80.09" y="19.99" width=".03" height="6.65"/>
            <rect class="cls-3" x="80.12" y="19.99" width=".03" height="6.65"/>
            <rect class="cls-3" x="80.16" y="19.99" width=".03" height="6.65"/>
            <rect class="cls-3" x="80.19" y="19.99" width=".03" height="6.65"/>
            <rect class="cls-3" x="80.22" y="19.99" width=".03" height="6.65"/>
            <rect class="cls-3" x="80.25" y="19.99" width=".03" height="6.65"/>
            <rect class="cls-3" x="80.28" y="19.99" width=".03" height="6.65"/>
            <rect class="cls-3" x="80.32" y="19.99" width=".03" height="6.65"/>
            <rect class="cls-3" x="80.35" y="19.99" width=".03" height="6.65"/>
            <rect class="cls-3" x="80.38" y="19.99" width=".03" height="6.65"/>
            <rect class="cls-3" x="80.41" y="19.99" width=".03" height="6.65"/>
            <rect class="cls-3" x="80.45" y="19.99" width=".03" height="6.65"/>
            <rect class="cls-3" x="80.48" y="19.99" width=".03" height="6.65"/>
            <rect class="cls-3" x="80.51" y="19.99" width=".03" height="6.65"/>
            <rect class="cls-3" x="80.54" y="19.99" width=".03" height="6.65"/>
            <rect class="cls-3" x="80.57" y="19.99" width=".03" height="6.65"/>
            <rect class="cls-3" x="80.61" y="19.99" width=".03" height="6.65"/>
            <rect class="cls-3" x="80.64" y="19.99" width=".03" height="6.65"/>
            <rect class="cls-3" x="80.67" y="19.99" width=".03" height="6.65"/>
            <rect class="cls-3" x="80.7" y="19.99" width=".03" height="6.65"/>
            <rect class="cls-3" x="80.74" y="19.99" width=".03" height="6.65"/>
            <rect class="cls-3" x="80.77" y="19.99" width=".03" height="6.65"/>
            <rect class="cls-3" x="80.8" y="19.99" width=".03" height="6.65"/>
            <rect class="cls-3" x="80.83" y="19.99" width=".03" height="6.65"/>
            <rect class="cls-3" x="80.86" y="19.99" width=".03" height="6.65"/>
            <rect class="cls-3" x="80.9" y="19.99" width=".03" height="6.65"/>
            <rect class="cls-3" x="80.93" y="19.99" width=".03" height="6.65"/>
            <rect class="cls-3" x="80.96" y="19.99" width=".03" height="6.65"/>
            <rect class="cls-3" x="80.99" y="19.99" width=".03" height="6.65"/>
            <rect class="cls-3" x="81.03" y="19.99" width=".03" height="6.65"/>
            <rect class="cls-3" x="81.06" y="19.99" width=".03" height="6.65"/>
            <rect class="cls-3" x="81.09" y="19.99" width=".03" height="6.65"/>
            <rect class="cls-3" x="81.12" y="19.99" width=".03" height="6.65"/>
            <rect class="cls-3" x="81.15" y="19.99" width=".03" height="6.65"/>
            <rect class="cls-3" x="81.19" y="19.99" width=".03" height="6.65"/>
            <rect class="cls-3" x="81.22" y="19.99" width=".03" height="6.65"/>
            <rect class="cls-3" x="81.25" y="19.99" width=".03" height="6.65"/>
            <rect class="cls-3" x="81.28" y="19.99" width=".03" height="6.65"/>
            <rect class="cls-3" x="81.32" y="19.99" width=".03" height="6.65"/>
            <rect class="cls-3" x="81.35" y="19.99" width=".03" height="6.65"/>
            <rect class="cls-3" x="81.38" y="19.99" width=".03" height="6.65"/>
            <rect class="cls-3" x="81.41" y="19.99" width=".03" height="6.65"/>
            <rect class="cls-3" x="81.44" y="19.99" width=".03" height="6.65"/>
            <rect class="cls-3" x="81.48" y="19.99" width=".03" height="6.65"/>
            <rect class="cls-3" x="81.51" y="19.99" width=".03" height="6.65"/>
            <rect class="cls-3" x="81.54" y="19.99" width=".03" height="6.65"/>
            <rect class="cls-3" x="81.57" y="19.99" width=".03" height="6.65"/>
            <rect class="cls-3" x="81.61" y="19.99" width=".03" height="6.65"/>
            <rect class="cls-3" x="81.64" y="19.99" width=".03" height="6.65"/>
            <rect class="cls-3" x="81.67" y="19.99" width=".03" height="6.65"/>
            <rect class="cls-3" x="81.7" y="19.99" width=".03" height="6.65"/>
            <rect class="cls-3" x="81.73" y="19.99" width=".03" height="6.65"/>
            <rect class="cls-3" x="81.77" y="19.99" width=".03" height="6.65"/>
            <rect class="cls-3" x="81.8" y="19.99" width=".03" height="6.65"/>
            <rect class="cls-3" x="81.83" y="19.99" width=".03" height="6.65"/>
            <rect class="cls-3" x="81.86" y="19.99" width=".03" height="6.65"/>
            <rect class="cls-3" x="81.89" y="19.99" width=".03" height="6.65"/>
            <rect class="cls-3" x="81.93" y="19.99" width=".03" height="6.65"/>
            <rect class="cls-3" x="81.96" y="19.99" width=".03" height="6.65"/>
            <rect class="cls-3" x="81.99" y="19.99" width=".03" height="6.65"/>
            <rect class="cls-3" x="82.02" y="19.99" width=".03" height="6.65"/>
            <rect class="cls-3" x="82.06" y="19.99" width=".03" height="6.65"/>
            <rect class="cls-3" x="82.09" y="19.99" width=".03" height="6.65"/>
          </g>
        </g>
      </g>
      <path class="cls-15" d="M58.09,73.53s-27.17-.06-28.33,.23c-1.15,.29-15.24-.2-14.93,1.92,.31,2.12,10.5,1.06,17.05,1.5,6.55,.44,50.22,.56,52.7,0,2.49-.56,3.64-2.88-1.58-2.78-5.22,.1-24.92-.87-24.92-.87Z"/>
      <rect class="cls-24" x="48.17" y="38.46" width="7.73" height="2.11"/>
      <rect class="cls-1" x="48.15" y="45.85" width="7.73" height="2.11"/>
      <g>
        <path class="cls-17" d="M22.13,70.18l-.39,1.24s-.26,.67-1.02,.69c-.05,0-.1,0-.14,0-.68-.08-1.16-.83-1.16-.83l.12-.62,.09-.47c.33-.95,2.49,0,2.49,0Z"/>
        <path class="cls-2" d="M22.13,70.18l-.39,1.24s-.26,.67-1.02,.69c-.05,0-.1,0-.14,0,.07-.13,.22-.42,.31-.63,.12-.27-.3-.29-.71-.48-.26-.12-.49-.26-.63-.35l.09-.47c.33-.95,2.49,0,2.49,0Z"/>
        <path class="cls-14" d="M29.71,57.12c-.21,1.24-.91,2.55-.91,2.55,0,0-2.17,3.05-3.32,4.98-1.15,1.93-3.44,6.09-3.57,6.29-.12,.2-.66,.1-1.22,0,0,0,0,0-.01,0-.55-.1-1.2-.59-1.31-.79-.1-.2,.29-1.68,1.17-3.97,.5-1.3,1.98-4.14,3.17-6.35,.89-1.66,1.62-2.96,1.62-2.96,0,0,1.79-1.71,3.14-1.81,.32-.02,.61,.05,.85,.25,.46,.39,.51,1.08,.39,1.81Z"/>
        <path class="cls-27" d="M29.71,57.12c-.21,1.24-.91,2.55-.91,2.55,0,0-2.17,3.05-3.32,4.98-1.15,1.93-3.44,6.09-3.57,6.29-.12,.2-.66,.1-1.22,0,0,0,0,0-.01,0,.11-.46,.31-1.1,.66-1.87,.73-1.62,4.77-8.78,3.96-9.38-.37-.28-1.01-.11-1.59,.15,.89-1.66,1.62-2.96,1.62-2.96,0,0,1.79-1.71,3.14-1.81l1.24,2.05Z"/>
        <path class="cls-27" d="M19.43,71s.59,.37,1.07,.45c.48,.08,1.23-.07,1.34-.03,.11,.04,.54,.45,.87,.65s1.25,.62,1.41,1c.16,.38,.31,.83,.31,1.06,0,.22-1.32,.22-2.02,.04s-1.36-.48-1.63-.64c-.27-.16-.77-.45-.8-.41-.04,.04-.11,.29-.26,.28-.15-.01-.86-.21-.96-.3-.1-.08,.07-1.34,.13-1.47,.06-.13,.56-.65,.56-.65Z"/>
        <path class="cls-17" d="M28.8,73.26l-.41,1.05s-.16,.3-.62,.32c-.07,0-.15,0-.24,0-.48-.01-1.17-.1-1.3-.38-.05-.1-.05-.23-.04-.37,.03-.3,.17-.61,.17-.61,.35-.85,2.45,0,2.45,0Z"/>
        <path class="cls-2" d="M28.8,73.26l-.41,1.05s-.16,.3-.62,.32c-.07,0-.15,0-.24,0,.04-.15,.09-.39,.06-.46-.06-.1-.42-.1-.8-.12-.24-.02-.46-.1-.6-.17,.03-.3,.17-.61,.17-.61,.35-.85,2.45,0,2.45,0Z"/>
        <path class="cls-14" d="M34.15,61.87c-.14,.95-.53,2.09-1.12,3.16-.88,1.59-3.79,7.58-4.29,8.57-.03,.06-.05,.1-.06,.12-.06,.1-.27,.16-.55,.19-.74,.06-1.94-.11-2.05-.36-.14-.35,.49-4.19,1.09-6.44,.6-2.25,1.51-5.18,1.51-5.18v-.42s-2.23-2.11-3.69-3.59c-1.46-1.49-3.59-3.69-4.23-5.72-.43-1.37-.11-3.17,.14-4.19,.12-.5,.23-.81,.23-.81,1.63-1.09,9.4,1.34,9.4,1.34l-.03,.93-.03,1.2s.16,.92,.82,2.63c.31,.8,.89,2.18,1.46,3.54,.64,1.55,1.26,3.07,1.39,3.62,.09,.38,.09,.87,0,1.42Z"/>
        <path class="cls-27" d="M26.18,74.04s.63,.26,1.11,.26,1.21-.28,1.32-.26c.11,.02,.59,.35,.94,.5s1.31,.4,1.52,.74c.21,.35,.41,.77,.43,.99,.02,.22-1.28,.45-1.99,.4-.71-.05-1.4-.24-1.69-.35-.29-.11-.81-.31-.85-.26-.03,.05-.07,.31-.23,.32s-.88-.06-.99-.12c-.11-.06-.09-1.34-.05-1.47,.04-.14,.47-.74,.47-.74Z"/>
        <path class="cls-27" d="M30.61,61.45s-1.3,1.49-1.85,3.28-2.21,7.92-2.06,8.49c.09,.35,1.19,.4,2.04,.38-.03,.06-.05,.1-.06,.12-.21,.37-2.45,.17-2.6-.17-.14-.35,.49-4.19,1.09-6.44,.6-2.25,1.51-5.18,1.51-5.18v-.42s-2.23-2.11-3.69-3.59c-1.46-1.49-3.59-3.69-4.23-5.72-.43-1.37-.11-3.17,.14-4.19l.16-.04,9.45,1.49-.03,1.2s.16,.92,.82,2.63c.31,.8,.89,2.18,1.46,3.54l-5.79-3.76s-1.75-1.56-2.6-1.26c-.85,.29-.7,2.98,.82,4.65,1.52,1.67,5.43,5,5.43,5Z"/>
        <path class="cls-27" d="M34.15,61.87c-.14,.95-.53,2.09-1.12,3.16-.88,1.59-3.79,7.58-4.29,8.57-.03,.06-.05,.1-.06,.12-.06,.1-.27,.16-.55,.19,.35-.72,1.29-2.67,1.88-4.15,.61-1.56,3.31-6.39,4.15-7.89Z"/>
        <path class="cls-17" d="M44.53,30.25c-.15,.48-.83,1.69-.99,1.92-.15,.24-.85,.76-.99,.98-.13,.22-1.66,5.22-1.99,5.76-.33,.55-1.55,.67-2.15,.3-.35-.22-.08-1.02,.21-1.64,.2-.43,.4-.77,.4-.77,0,0,.6-1.26,1.22-2.34,.62-1.08,1.27-2.01,1.29-2.07,.01-.07,0-.81,0-.81,0,0-.41-.25-.5-.48-.02-.06-.03-.15-.03-.25,0-.28,.06-.64,.11-.64,.07,0,.2,.03,.26,.17,.05,.11,.12,.31,.19,.42,0,0,0,0,0,0,.02,.02,.03,.04,.05,.06,.08,.08,.32,.01,.4-.29,.08-.3-.04-.7-.11-.78-.07-.08-.32-.29-.32-.29,0,0-.21,.4-.26,.49-.04,.08-.22,.15-.28,0,0-.02-.01-.05-.02-.09-.02-.26,.13-.89,.26-1.05,.12-.16,.33-.11,.33-.11l.6,.44,.11,.11s.01-.67-.06-.93c-.07-.26-.34-.59-.42-.98-.05-.22-.05-.38-.04-.47h0c.01-.07,.04-.1,.07-.09,.07,.02,.7,.77,.81,.9,.11,.13,.22,.55,.27,.87,.04,.27,.06,.5,.09,.58,0,.02,.01,.03,.02,.03,.05,.01,.27-.46,.26-.59-.01-.12,0-.92,0-.92,0,0-.25-.58-.26-.8,0-.03,0-.05,.01-.06,.07-.12,.43,.07,.55,.35,.14,.32,.34,1.34,.34,1.34,0,0-.1,.8-.07,.9,0,.01,.01,.02,.02,.02,.06,0,.21-.23,.27-.35,.06-.14,.23-.53,.23-.53,0,0-.06-.54,.05-.75,.02-.04,.05-.07,.09-.08,.03,0,.06,.01,.09,.05,.14,.2,.2,.92,.23,1.03,.03,.13-.21,.98-.36,1.46Z"/>
        <path class="cls-2" d="M44.53,30.25c-.15,.48-.83,1.69-.99,1.92-.15,.24-.85,.76-.99,.98-.13,.22-1.66,5.22-1.99,5.76-.33,.55-1.55,.67-2.15,.3-.35-.22-.08-1.02,.21-1.64,.47,.1,1.05,.14,1.41-.11,.69-.48,2.18-4.89,2.26-4.89,1.07-.11,1.3-.85,1.57-1.26,.26-.42,.93-2.03,.91-2.33-.01-.22-.12-1-.12-1.22,.14,.2,.2,.92,.23,1.03,.03,.13-.21,.98-.36,1.46Z"/>
        <path class="cls-23" d="M39.05,38.25c-.08,.16-.18,.31-.29,.44-.65,.75-3.61-.56-4.49-.97-.16-.07-.25-.12-.25-.12l.43-2.66,.52-3.07s2.1,2.06,2.77,2.61c.67,.54,1.65,.99,1.74,1.27,.08,.24,.05,1.57-.44,2.5Z"/>
        <path class="cls-16" d="M39.05,38.25c-.08,.16-.18,.31-.29,.44-.65,.75-3.61-.56-4.49-.97l.9-1.52,3.69,1.57,.2,.47Z"/>
        <path class="cls-12" d="M37.15,22.27c-.15,.94-.78,2.29-1.1,2.78-.39,.6-5.45,3.71-5.45,3.71,0,0-.55-1.99-.99-3.66-.27-1.03-.49-1.95-.51-2.2-.06-.67,2.23-2.38,2.83-2.68,.6-.3,3.24-1.35,3.91-.99,.67,.36,1.23,1.63,1.34,2.49,.02,.16,0,.35-.02,.56Z"/>
        <path class="cls-14" d="M37.15,22.27c-.15,.94-.78,2.29-1.1,2.78-.39,.6-5.45,3.71-5.45,3.71,0,0-.55-1.99-.99-3.66l2.17-.24,.31-.8s3.36-3.37,4.27-3.09c.36,.11,.61,.67,.78,1.3Z"/>
        <path class="cls-25" d="M35.83,34.17s0,.01,0,.02c-.14,.82-.7,2.6-1.29,4.46-.51,1.59-2.11,6.28-2.58,7.98-.08,.3-.13,.5-.14,.58-.01,.36-.13,1.31-.27,1.99-.07,.35-.16,.62-.23,.7-.23,.23-4.2,.79-5.98,.64-1.78-.15-4.53-1.57-4.65-1.95,0-.01,0-.03,0-.06h0c0-.69,1.47-5.61,2.34-8.13,.57-1.65,1.63-4.24,2.33-5.93,.41-.99,.7-1.66,.7-1.66,0,0,0-.01,.02-.04,.09-.22,.56-1.31,.91-1.86,.39-.62,2.44-1.59,3-1.74,.56-.15,3.28,.96,3.9,1.32,.62,.36,2.08,2.88,1.95,3.69Z"/>
        <polygon class="cls-16" points="29.54 28.96 31.17 28.96 32.58 29.71 30.61 31.33 29.54 30.48 29.54 28.96"/>
        <path class="cls-16" d="M35.83,34.19c-.14,.82-.7,2.6-1.29,4.46-.51,1.59-2.11,6.28-2.58,7.98-.8-.27-1.68-.55-1.8-.55-.24,0-4.06,2.61-3.43,3,.45,.28,3.21,.19,4.82,.12-.07,.35-.16,.62-.23,.7-.23,.23-4.2,.79-5.98,.64-1.78-.15-4.53-1.57-4.65-1.95,0-.01,0-.03,0-.06h0c.05-.2,.17-.39,.37-.56,1.18-1.02,4.06-2.19,5.16-2.86,1.09-.67,1.43-1.79,1.43-2.42s-.39-2.34-.85-2.93c-.33-.42-1.05-3.57-1.43-5.28,.41-.99,.7-1.66,.7-1.66,0,0,0-.01,.02-.04l2.36,2.54,2.39,3.12s2.48,.98,3.19,.25c.56-.58,1.46-3.35,1.81-4.48Z"/>
        <path class="cls-16" d="M34.55,31.86s.25,1.57,.15,1.8c-.1,.23-1.43,.31-1.43,.31l-.88-.31-1.55-.16-.73-.27,.9-1.9,1.47,2.11,.3,.06,1.06-.92,.71-.72Z"/>
        <path class="cls-17" d="M33.73,32.82l-1.17,.68-.51-.47h0s-.48-.44-.48-.44c0,0-1.92-1.65-1.7-2.69,0,0,0,0,0,0,0-.02,0-.04,.02-.06,.31-1.04,1.43-3.88,1.43-3.88,1.14-.25,2.01,1.7,2.01,1.7l.07,1.58,.04,.83,.05,.49h0s.25,2.26,.25,2.26Z"/>
        <path class="cls-2" d="M33.4,29.23c-.57-.45-1.34-1.1-1.42-1.36-.14-.41-.36-.99-.49-.88-.12,.1-1.57,2.8-1.62,2.9,0-.02,0-.04,.02-.06,.31-1.04,1.43-3.88,1.43-3.88,1.14-.25,2.01,1.7,2.01,1.7l.07,1.58Z"/>
        <path class="cls-2" d="M33.73,32.82l-1.17,.68-.51-.47h0s-.26-.57-.26-.57c0,0,1.14-.2,1.29-.43,.1-.15,.29-.96,.41-1.47l.25,2.26Z"/>
        <path class="cls-17" d="M36.73,25.93c-.03,.99-.25,3.28-.66,3.43-.01,0-.03,0-.04,0-.44,.01-2.66-.86-3.08-1.29-.42-.43-1.15-1.63-1.15-1.63-1.08-.12-1.53-1.14-1.3-1.82,.04-.13,.11-.25,.21-.35,.59-.59,1.41,.97,1.41,.97l.31-.82s3.12-1.83,3.23-1.83,.8,.9,.86,1.08c.02,.05,.04,.18,.07,.35,.08,.43,.17,1.17,.15,1.89Z"/>
        <path class="cls-14" d="M29.54,28.96s-1.01,.56-1.1,.67c-.08,.11,1.53,3.43,1.66,3.6s.79-.88,.84-.84c.06,.04,1.29,1.18,1.44,1.27,.15,.09,.39,0,.39,0l-1.35-2.33-1.89-2.37Z"/>
        <path class="cls-14" d="M33.43,30.06v2.75l-.96,.62,.3,.22,1.26-.73,.81,.41-.52-2.7s-.58-.64-.88-.58Z"/>
        <g>
          <path class="cls-18" d="M25.16,81.56H.65c-.36,0-.65-.29-.65-.65s.29-.65,.65-.65H25.16c6.89,0,10.84-.08,13.64-.29,1.59-.12,2.77-.27,3.6-.47,.93-.23,1.13-.45,1.17-.49,0-.01,0-.02-.03-.04-.06-.06-.28-.22-.99-.36-.61-.12-1.46-.21-2.62-.26-2.31-.11-5.73-.11-10.46-.1-1.31,0-2.66,0-4.14,0-3.33,0-6.16-.49-8.42-1.45-2.21-.94-3.87-2.33-4.93-4.13-1.17-2-1.57-4.45-1.19-7.28,.37-2.74,1.48-5.76,3.28-8.98,1.55-2.77,3.67-5.21,6.29-7.26,2.09-1.64,4.51-3.03,7.18-4.14,4.55-1.89,8.23-2.3,8.38-2.32,.36-.04,.68,.22,.71,.58,.04,.36-.22,.68-.57,.71h0s-3.68,.42-8.06,2.24c-4.01,1.67-9.49,4.9-12.81,10.82-1.73,3.08-2.78,5.95-3.13,8.53-.35,2.53,0,4.7,1.02,6.45,1.89,3.23,6.12,4.94,12.23,4.94,1.48,0,2.83,0,4.13,0,10.37-.02,13.86-.02,14.99,1.1,.27,.27,.41,.6,.41,.98,0,.28-.09,.69-.54,1.05-.26,.21-.63,.39-1.11,.55-.83,.26-2.05,.46-3.73,.6-3.5,.29-8.95,.33-14.33,.33Z"/>
          <path class="cls-7" d="M37.51,43.9c0,.66-.27,1.25-.7,1.69-.43,.43-1.03,.7-1.68,.7h-1.91c-1.32,0-2.38-1.07-2.38-2.38,0-.23,.03-.45,.09-.66,.11-.39,.32-.75,.61-1.03,.43-.43,1.03-.7,1.69-.7h1.91c1.32,0,2.38,1.07,2.38,2.38Z"/>
          <path class="cls-20" d="M37.51,43.9c0,.66-.27,1.25-.7,1.69-.43,.43-1.03,.7-1.68,.7h-1.91c-1.32,0-2.38-1.07-2.38-2.38,0-.23,.03-.45,.09-.66,.17,.43,.55,1.26,1.09,1.44,.73,.24,2.01,.2,2.01,.2,0,0-.04-2.09,.35-3.37h.76c1.32,0,2.38,1.07,2.38,2.38Z"/>
          <path class="cls-21" d="M48.85,35.65v16.14h-6.08c-3,0-5.62-1.64-7.01-4.07-.67-1.18-1.06-2.54-1.06-4,0-2.23,.9-4.25,2.36-5.71,1.46-1.46,3.48-2.36,5.71-2.36h6.08Z"/>
          <path class="cls-20" d="M48.85,48.16v3.64h-6.08c-3,0-5.62-1.64-7.01-4.07,3.07,2.07,8.26,1.11,8.84,1.1,.77-.01,3.56-1.86,3.56-1.86l.68,1.2Z"/>
          <path class="cls-26" d="M50.6,36.21v15.12c0,.5-.4,.9-.9,.9h-1.5c-.5,0-.9-.4-.9-.9v-15.12c0-.5,.4-.9,.9-.9h1.5s.05,0,.08,0c.46,.04,.82,.43,.82,.9Z"/>
          <path class="cls-20" d="M50.6,36.21v15.12c0,.5-.4,.9-.9,.9h-1.5c-.5,0-.9-.4-.9-.9v-1.45l2.49,.1v-14.67c.46,.04,.82,.43,.82,.9Z"/>
        </g>
        <path class="cls-22" d="M31.31,37.88c-.02,.49-2.74,1.95-3,1.87-.26-.07-.6-.39-.92-1.16-.32-.77-1.39-3.67-1.56-4.74-.03-.19-.06-.4-.07-.64-.08-1.08,.04-2.46,.94-2.68,.82-.21,1.78,.23,2.36,1.09,.52,.77,1.9,4.73,2.2,5.94,.04,.15,.06,.26,.05,.32Z"/>
        <path class="cls-16" d="M31.31,37.88c-.02,.49-2.74,1.95-3,1.87-.26-.07-.6-.39-.92-1.16-.32-.77-1.39-3.67-1.56-4.74-.03-.19-.06-.4-.07-.64,.16,.53,.4,1.31,.66,2.01,.44,1.21,1.68,3.25,1.68,3.25,0,0,1.74-1.37,2.28-1.31,.29,.03,.62,.22,.87,.39,.04,.15,.06,.26,.05,.32Z"/>
        <path class="cls-17" d="M44.38,40.21c0,.12-.12,.31-.33,.44-.25,.16-1.4,.65-1.4,.65h.03c.09,0,.36,0,.75,0,.35,0,.52,.04,.47,.14h0s-.08,.09-.17,.15c-.33,.19-1.5,.37-1.5,.37,0,0,1.04,.13,.95,.3,0,0,0,0,0,0-.11,.17-.88,.18-1.09,.18s-.74,.07-.98,.1c-.24,.04-1.25-.07-1.25-.07,0,0-.69,.15-1.37,.37-.67,.23-5.86,1.61-6.92,.55-1.07-1.06-3.23-4.16-3.23-4.16-.17-.5,.54-1.09,1.27-1.44,.53-.26,1.08-.38,1.28-.26,.49,.3,2.42,3.6,2.42,3.6,0,0,.26-.06,.44-.04,.17,.01,5.69-.58,5.8-.58s.58-.42,.69-.59c.11-.17,.57-.68,.8-.95,.21-.25,1.07-1.24,1.32-1.3,.02,0,.03,0,.04,0,.17,.09-.2,.77-.29,.97-.09,.21-.36,1.09-.27,1.11,0,0,.02,0,.04,0,.2-.03,1.01-.37,1.27-.6,.29-.25,.93-.8,1.09-.64,.01,.01,.02,.04,.03,.06,.04,.25-.4,.95-.54,1.08-.15,.14-1.04,.81-1.09,.85h0s.58-.2,.86-.28c.28-.08,.82-.19,.88-.08,0,.02,.02,.03,.02,.05Z"/>
        <path class="cls-2" d="M43.19,42.24s0,0,0,0c-.11,.17-.88,.18-1.09,.18s-.74,.07-.98,.1c-.24,.04-1.25-.07-1.25-.07,0,0-.69,.15-1.37,.37-.67,.23-5.86,1.61-6.92,.55-1.07-1.06-3.23-4.16-3.23-4.16-.17-.5,.54-1.09,1.27-1.44-.26,.26-.54,.66-.45,1.13,.17,.84,2.41,3.6,2.9,3.99s3.54,.08,5.22-.22c1.68-.3,2.53-.54,2.53-.54,0,0,1.15,.08,1.7,.11,.42,.02,1.28,.06,1.69-.01Z"/>
        <path class="cls-2" d="M42.11,38.65c-.09,.21-.36,1.09-.27,1.11,0,0,.02,0,.04,0h0s-.31,.15-.36,.09c-.05-.05,.39-1.09,.58-1.5,.12-.28,.21-.54,.26-.68,.02,0,.03,0,.04,0,.17,.09-.2,.77-.29,.97Z"/>
        <path class="cls-2" d="M43.72,39.67c-.15,.14-1.04,.81-1.09,.85h0s-.64,.31-.67,.26c-.03-.05,.25-.19,.69-.46,.44-.27,.83-.67,1.14-.96,.23-.22,.41-.59,.49-.77,.04,.25-.4,.95-.54,1.08Z"/>
        <path class="cls-2" d="M44.38,40.21c0,.12-.12,.31-.33,.44-.25,.16-1.4,.65-1.4,.65h.03s-.51,.14-.55,.05c-.05-.08,1.21-.49,1.65-.73,.31-.16,.5-.33,.6-.41Z"/>
        <path class="cls-2" d="M43.91,41.42s-.08,.09-.17,.14c-.33,.19-1.5,.37-1.5,.37,0,0-.11-.02-.17-.1-.07-.08,.54-.1,.99-.17,.32-.05,.68-.18,.86-.24Z"/>
        <path class="cls-2" d="M36.06,29.36s-.03,0-.04,0c-.44,.01-2.66-.86-3.08-1.29-.42-.43-1.15-1.63-1.15-1.63-1.08-.12-1.53-1.14-1.3-1.82,.06,.28,.16,.66,.33,.87,.3,.36,1.15,.49,1.15,.49,0,0,.99,1.51,1.26,1.77,.23,.22,2.12,1.4,2.83,1.6Z"/>
        <path class="cls-2" d="M36.58,24.04c-.25-.72-.91-1.18-1.56-.92-.65,.25-2.91,2.13-2.91,2.13l.31-.82s3.12-1.83,3.23-1.83,.8,.9,.86,1.08c.02,.05,.04,.18,.07,.35Z"/>
        <path class="cls-2" d="M41.76,31.59v.49l-.21,.32c.01-.07,0-.81,0-.81,0,0-.41-.25-.5-.48-.02-.06-.03-.15-.03-.25,.08,.16,.22,.41,.34,.48,.18,.1,.4,.26,.4,.26Z"/>
        <path class="cls-2" d="M42.38,31.37s-.01-.03-.11-.16-.32-.14-.49-.21c-.16-.06-.2-.19-.21-.21,.02,.02,.03,.04,.05,.06,.08,.08,.32,.01,.4-.29,.08-.3-.04-.7-.11-.78-.07-.08-.32-.29-.32-.29,0,0-.21,.4-.26,.49-.04,.08-.22,.15-.28,0,.1,.11,.19,.03,.25-.06,.06-.09,.37-.71,.37-.71l.44,.53s.02,.56,.03,.75c.02,.19,.07,.44,.17,.55,.11,.11,.06,.33,.06,.33Z"/>
        <path class="cls-2" d="M42.53,29.13v.32l-.18-.17s.01-.67-.06-.93c-.07-.26-.34-.59-.42-.98-.05-.22-.05-.38-.04-.47,.04,.11,.11,.32,.2,.56,.14,.36,.39,.74,.39,.74l.1,.93Z"/>
        <path class="cls-2" d="M43.68,29.45l-.55-.1-.06-.18s.01,.03,.02,.03c.05,.01,.27-.46,.26-.59-.01-.12,0-.92,0-.92,0,0-.25-.58-.26-.8,0-.03,0-.05,.01-.06,.06,.14,.16,.38,.23,.5,.1,.17,.14,.27,.14,.32v1.06l-.15,.57,.36,.17Z"/>
        <path class="cls-2" d="M44.6,28.55s-.16,.06-.22,.22c-.06,.16-.18,.5-.18,.59s.13,.24,.13,.24l-.39-.16h0c.06-.01,.21-.24,.27-.37,.06-.14,.23-.53,.23-.53,0,0-.06-.54,.05-.75,0,.1,0,.23,0,.35,.02,.21,.11,.42,.11,.42Z"/>
      </g>
      <g>
        <path class="cls-17" d="M72.89,57.69l-.69,1.6-.97,2.24s-.51,9.6-.51,10.09c0,.19,.03,.49,.07,.82,.06,.5,.15,1.08,.19,1.51,0,.01,0,.02,0,.03,.07,.72,.04,2.37,.04,2.37h-.31l-.74-1.61-.13-.28s-.52,.5-1.05,.96c0,0,0,0,0,0-.42,.37-.84,.71-.99,.74-.32,.07-3.69-.28-3.78-.34-.07-.04,.69-.52,1.33-.93,.25-.16,.47-.3,.63-.41,.02-.01,.03-.02,.05-.03,0,0,0,0,0,0,.53-.37,2.66-2,2.66-2,0,0-.55-11.01-.5-11.55,.02-.17,.11-.6,.22-1.11,.1-.42,.21-.89,.31-1.31,.16-.66,.3-1.19,.3-1.19,0,0,.94-.78,2.18-.54,1.24,.24,1.67,.94,1.67,.94Z"/>
        <path class="cls-2" d="M71.23,61.53s-.51,9.6-.51,10.09c0,.19,.03,.49,.07,.82,.06,.5,.15,1.08,.19,1.51l-1,.79-.13-.28s-.52,.5-1.05,.96c0,0,0,0,0,0-.76,.24-2.05,.49-2.98-.13-.22-.15-.37-.28-.46-.4,.25-.16,.47-.3,.63-.41,0,.03,.01,.06,0,.09-.06,.54,1.04,.45,1.45,.35,.42-.1,2.63-2.02,2.63-2.02l.35-.74s-.06-1.49,.13-4.49,0-6.16,0-6.16c0,0,.06-.76-.27-.97-.25-.16-1.33-.56-1.85-.75,.1-.42,.21-.89,.31-1.31l3.46,.81-.97,2.24Z"/>
        <path class="cls-17" d="M85.85,73.65l-.26,.15-.96-.68-.74-.52s-.67,2.26-.92,2.48c-.17,.15-1.61,.82-2.58,1.24-.47,.21-.83,.36-.86,.36-.05,0,.11-.33,.32-.75,.18-.36,.4-.78,.57-1.1,.07-.13,.12-.25,.17-.34,0,0,0,0,0,0,.28-.58,1.31-3.06,1.31-3.06,0,0-5.97-9.27-6.19-9.76-.06-.13-.16-.43-.28-.82-.26-.82-.59-1.99-.73-2.49-.04-.15-.07-.24-.07-.24,0,0,.43-1.15,1.62-1.55,.81-.28,1.4-.19,1.7-.1,.14,.04,.22,.08,.22,.08l.47,4.15s4.34,8.58,4.59,9c.1,.17,.27,.41,.47,.68,.31,.41,.69,.89,.94,1.24,.13,.19,.31,.46,.48,.75,.37,.61,.73,1.28,.73,1.28Z"/>
        <path class="cls-2" d="M85.12,72.37c-.16,.25-.32,.5-.49,.75l-.74-.52s-.67,2.26-.92,2.48c-.17,.15-1.61,.82-2.58,1.24-.27-.05-.44-.21-.55-.39,.18-.36,.4-.78,.57-1.1,.58,.22,1.18-.26,1.46-1.1,.31-.93,1.17-3.48,.44-4.65-.73-1.17-4.28-7.68-4.28-7.68,0,0-.12-.61-.81-.85-.51-.18-1.39,.14-1.8,.31-.26-.82-.59-1.99-.73-2.49,.92-.53,2.38-1.39,3.25-1.89,.14,.04,.22,.08,.22,.08l.47,4.15s4.34,8.58,4.59,9c.1,.17,.27,.41,.47,.68,.31,.41,.69,.89,.94,1.24,.13,.19,.31,.46,.48,.75Z"/>
        <path class="cls-14" d="M79.49,57.11c-.14,1.13-.19,2.13-.52,2.41-.32,.28-4.83,1.01-5.84,1.01s-4.3-.94-4.56-1.21c-.05-.05-.08-.15-.1-.3-.09-.67,.12-2.22,.56-3.07,.54-1.04,1.14-2.03,1.19-2.44,.05-.4-.13-3.16,.14-4.13,0-.03,.02-.06,.03-.09,.3-.87,2.84-2.36,2.84-2.36l4-.82s2.37,2.55,2.68,3.93c.31,1.39-.28,5.94-.42,7.07Z"/>
        <path class="cls-27" d="M79.49,57.11c-.14,1.13-.19,2.13-.52,2.41-.32,.28-4.83,1.01-5.84,1.01s-4.3-.94-4.56-1.21c-.05-.05-.08-.15-.1-.3,.74,.22,2.33,.66,2.95,.45,.82-.27,1.73-6,2.3-5.88,.58,.12-.67,6.49-.09,6.52,.58,.03,2.79-.76,2.97-.91s1.55-7.76,1.52-8.37-1-2.7-1.27-2.87c-.27-.17-3.55,1.36-4.55,1.54-.67,.12-1.48-.02-1.94-.12,0-.03,.02-.06,.03-.09,.3-.87,2.84-2.36,2.84-2.36l4-.82s2.37,2.55,2.68,3.93c.31,1.39-.28,5.94-.42,7.07Z"/>
        <path class="cls-27" d="M71.02,76.35h-.31l-.87-1.89s-1.71,1.63-2.03,1.7c-.32,.07-3.69-.28-3.78-.34-.09-.05,1.48-1.01,2.01-1.37,0,0,0,0,0,0-.09,.22-.15,.46-.06,.51,.18,.09,1.13,.27,1.76-.07,.5-.27,2.34-1.83,3.05-2.44,.06,.51,.15,1.11,.2,1.55,.07,.72,.04,2.37,.04,2.37Z"/>
        <path class="cls-27" d="M85.85,73.65l-.26,.15-1.7-1.21s-.67,2.26-.92,2.48c-.25,.22-3.34,1.59-3.45,1.59-.11,0,.78-1.61,1.05-2.19,0,0,0,0,0,0,.04,.24,.1,.48,.2,.47,.2-.01,1.11-.33,1.49-.94,.3-.49,1.11-2.75,1.42-3.64,.31,.41,.69,.89,.94,1.24,.42,.59,1.21,2.03,1.21,2.03Z"/>
        <path class="cls-12" d="M78.17,40.06c-.16,.4-.37,.76-.6,1.06-.62,.79-1.45,1.17-2.16,.89-.98-.39-1.63-1.59-1.63-1.59,0,0-3.75-4.15-4.3-5.65-.55-1.5-1.08-3.18-1.25-3.39-.17-.21-1.32-.25-1.32-.25,0,0-1.6-.55-2.32-1.23-.34-.32-.54-.8-.62-1.34-.09-.62-.04-1.32,.14-1.99,.33-1.26,4.01-3.46,5.1-3.9,1.09-.44,1.99,.77,1.99,.77,3.14,.2,2.39,5.71,3.63,8.67,1.23,2.95,2.56,3.55,3.18,4.59,.62,1.04,.77,1.9,.18,3.37Z"/>
        <path class="cls-14" d="M77.56,41.12c-.62,.79-1.45,1.17-2.16,.89-.98-.39-1.63-1.59-1.63-1.59,0,0-3.75-4.15-4.3-5.65-.55-1.5-1.08-3.18-1.25-3.39-.17-.21-1.32-.25-1.32-.25,0,0-1.6-.55-2.32-1.23-.34-.32-.54-.8-.62-1.34,.21,.09,.51,.16,.86,.08,.64-.15,1.32-3.24,2.65-3.46,1.33-.21,1.3,.39,1.3,.39,0,0,1.64-.12,2.7,.97,1.06,1.09,1.5,1.65,1.88,3.12,.38,1.47,1.57,5.41,2.88,6.81,1.03,1.11,2.19,3.11,1.34,4.64Z"/>
        <path class="cls-17" d="M64.03,39.47c-.54,.08-1.06-.17-1.33-.39-.03-.02-.06-.05-.08-.07-.24-.23-1.96-3.82-1.96-3.82,0,0-.5-.06-.7-.08-.11-.01-.27-.18-.39-.33h0c-.11-.13-.19-.25-.19-.25,0,0-.26-.36-.35-.54-.09-.18,0-.58,0-.58,0,0-.05-.39,.06-.68s1.12-.21,1.12-.21c0,0,.13-.76,.1-1.14,0-.03,0-.05,0-.07,0-.34,.21-.57,.3-.39,.1,.19,.39,.83,.43,1.1,.04,.27,.04,.49,.14,.74,.1,.25,.53,1.2,.5,1.78l2.21,3.09,.93-.62s1.1,.66,1.2,.96c.1,.3-1.4,1.41-2,1.5Z"/>
        <path class="cls-2" d="M62.7,39.09s-.06-.05-.08-.07c-.24-.23-1.96-3.82-1.96-3.82,0,0-.5-.06-.7-.08-.11-.01-.27-.18-.39-.33,.71,.56,1.14,.19,1.11,.08s-.68,.03-.68-.11,.65-.23,.65-.23v-.12s.06-.2,.09-.32-.13-.32-.13-.32l.05-.29-.11-.35s-.15-.38-.06-.35,.2,.33,.3,.55,.25,.65,.25,.65c0,0-.06,.07-.14,.26s0,.66,.12,.7c.13,.05,.27,0,.27,0l1.31,2.58s.49,1.36,.09,1.55Z"/>
        <path class="cls-11" d="M69.71,37.68s-1.33,2.31-2.11,2.34c-.78,.03-2.92-1.14-2.99-1.43-.07-.29,3.31-4.17,3.31-4.17l.14,.07,1.27,.59,.23,.11,.15,2.5Z"/>
        <polygon class="cls-16" points="69.34 35.07 68.1 38.48 66.26 37.79 68.07 34.49 69.34 35.07"/>
        <path class="cls-14" d="M68.25,35.65s-.8-1.9-.79-2.06c.02-.16,1.77-1.29,1.77-1.29l1.01-.67,.28,1.67-2.27,2.36Z"/>
        <path class="cls-9" d="M77.65,46.55c-.14,.44-1.36,.74-3.39,1.58-2.02,.85-3.57,1.1-3.83,.59s-.89-8.14-.89-8.14c0,0-.14-.09-.36-.23-.7-.45-2.19-1.47-2.12-1.94,.1-.61,1.62-4.37,1.62-4.37l.86-.64,2.7-2.14,1.93-.65,.72,4.46,.04,.27s.04,1.89,.11,3.48c.04,.83,.09,1.59,.15,1.94,.18,1.03,.51,2.03,1.24,2.99,.29,.38,.57,.83,.78,1.26,.32,.65,.51,1.25,.42,1.51Z"/>
        <path class="cls-16" d="M77.65,46.55c-.14,.44-1.36,.74-3.39,1.58-2.02,.85-3.57,1.1-3.83,.59s-.89-8.14-.89-8.14c0,0-.14-.09-.36-.23,1.34-.43,3.19-1.15,3.4-1.89,.24-.86,1.6-2.54,2.32-3.38l.04,.27s.04,1.89,.11,3.48c-.32,.83-.81,2.29-.82,3.26,0,1.01,1.83,2.12,3,2.93,.32,.65,.51,1.25,.42,1.51Z"/>
        <g>
          <path class="cls-28" d="M63.27,35.65h6.77v16.14h-6.77c-4.07,0-7.38-3.31-7.38-7.38v-1.39c0-4.07,3.31-7.38,7.38-7.38Z" transform="translate(125.94 87.45) rotate(-180)"/>
          <path class="cls-20" d="M79.59,81.56h24.51c.36,0,.65-.29,.65-.65s-.29-.65-.65-.65h-24.51c-6.89,0-10.84-.08-13.64-.29-1.59-.12-2.77-.27-3.6-.47-.93-.23-1.13-.45-1.17-.49,0-.01,0-.02,.03-.04,.06-.06,.28-.22,.99-.36,.61-.12,1.46-.21,2.62-.26,2.31-.11,5.73-.11,10.46-.1,1.31,0,2.66,0,4.14,0,3.33,0,6.16-.49,8.42-1.45,2.21-.94,3.87-2.33,4.93-4.13,1.17-2,1.57-4.45,1.19-7.28-.37-2.74-1.48-5.76-3.28-8.98-1.55-2.77-3.67-5.21-6.29-7.26-2.09-1.64-4.51-3.03-7.18-4.14-4.55-1.89-8.23-2.3-8.38-2.32-.36-.04-.68,.22-.71,.58-.04,.36,.22,.68,.57,.71h0s3.68,.42,8.06,2.24c4.01,1.67,9.49,4.9,12.81,10.82,1.73,3.08,2.78,5.95,3.13,8.53,.35,2.53,0,4.7-1.02,6.45-1.89,3.23-6.12,4.94-12.23,4.94-1.48,0-2.83,0-4.13,0-10.37-.02-13.86-.02-14.99,1.1-.27,.27-.41,.6-.41,.98,0,.28,.09,.69,.54,1.05,.26,.21,.63,.39,1.11,.55,.83,.26,2.05,.46,3.73,.6,3.5,.29,8.95,.33,14.33,.33Z"/>
          <path class="cls-29" d="M73.92,43.9c0,1.32-1.07,2.38-2.38,2.38h-1.91c-.42,0-.82-.11-1.16-.3-.19-.11-.37-.24-.52-.39-.43-.43-.7-1.03-.7-1.68,0-1.32,1.07-2.38,2.38-2.38h1.91c.66,0,1.25,.27,1.69,.7,.41,.41,.67,.97,.7,1.59h0s0,.06,0,.1Z"/>
          <path class="cls-20" d="M73.92,43.9c0,1.32-1.07,2.38-2.38,2.38h-1.91c-.42,0-.82-.11-1.16-.3,0-.39,0-.7,0-.7,0,0,3.09,.24,4.24-.1,.68-.2,1.04-.87,1.21-1.38,0,.03,0,.06,0,.1Z"/>
          <polygon class="cls-6" points="69.71 38.62 69.71 48.57 65.58 51.8 55.31 51.8 55.31 35.65 65.62 35.65 69.65 38.58 69.71 38.62"/>
          <polygon class="cls-20" points="69.71 38.62 69.71 48.57 65.58 51.8 55.86 51.8 55.8 48.77 66.03 48.77 68.46 47.44 69.65 38.58 69.71 38.62"/>
          <path class="cls-4" d="M57.45,36.21v15.12c0,.5-.4,.9-.9,.9h-1.5c-.5,0-.9-.4-.9-.9v-15.12c0-.5,.4-.9,.9-.9h1.5c.2,0,.38,.06,.53,.17,.23,.16,.38,.43,.38,.73Z"/>
          <path class="cls-20" d="M57.45,36.21v15.12c0,.5-.4,.9-.9,.9h-1.5c-.5,0-.9-.4-.9-.9v-1.99c.26,.59,.66,1.26,1.16,1.54,.97,.53,1.62-.2,1.62-.2l.15-15.2c.23,.16,.38,.43,.38,.73Z"/>
          <circle class="cls-20" cx="62.38" cy="41.82" r="3.07"/>
        </g>
        <path class="cls-13" d="M75.22,35.28c-.33,1.7-1.1,4.58-1.24,4.75-.15,.16-.93,.8-1.21,.75-.18-.03-.76-.41-1.15-.74,0,0-.01-.01-.01-.01h0c-.2-.17-.34-.32-.36-.41-.05-.26,.59-3.71,1.04-5.14,.44-1.44,1.51-4.03,2.17-3.94,.47,.06,.74,.5,.88,1.12,.23,1.03,.09,2.56-.11,3.63Z"/>
        <path class="cls-16" d="M75.22,35.28c-.33,1.7-1.1,4.58-1.24,4.75-.15,.16-.93,.8-1.21,.75-.18-.03-.76-.41-1.15-.74,0,0-.01-.01-.01-.01,.04,0,1.6,.07,1.79-.22,.19-.3,1.04-2.51,1.42-3.91,.29-1.05,.45-3.22,.51-4.24,.23,1.03,.09,2.56-.11,3.63Z"/>
        <path class="cls-17" d="M72.12,31.38s-1.84,2.44-2.61,2.28l-.2-1.96-.1-1.01s.21-.75,.46-1.06,.76-.29,.76-.29c0,0,.03,.73,.44,1.14,.28,.28,.77,.6,1.05,.78,.13,.08,.21,.13,.21,.13Z"/>
        <path class="cls-2" d="M71.91,31.25l-.16,.38s-1.11-.93-1.22-1.01c-.1-.06-.92,.77-1.22,1.07l-.1-1.01s.21-.75,.46-1.06,.76-.29,.76-.29c0,0,.03,.73,.44,1.14,.28,.28,.77,.6,1.05,.78Z"/>
        <path class="cls-17" d="M72.12,28.23c-.15,.59-1.11,1.27-1.39,1.32-.21,.04-.47,.11-.67,.34-.06,.07-.11,.15-.15,.25-.12,.27-.38,.79-.63,1.18-.09,.13-.17,.25-.25,.33-.06,.07-.12,.11-.17,.14-.31,.13-1.94-.66-1.94-.66,0,0-.31-3.06-.26-3.22,.04-.16,.88-1.73,1.15-1.76,.27-.03,1.34,1.01,1.6,1.31,.25,.29,.76,1.01,.78,1.04,0,0,0,0,0,0,0,0,0,0,0,0,.01-.05,.24-.9,.81-1.04,.5-.12,1.07,.1,1.15,.52,.02,.08,.01,.17-.01,.26Z"/>
        <path class="cls-14" d="M72.13,30.86l.33,.39s-.47,1.3-1.01,2.11c-.54,.81-1.77,1.82-1.77,1.82l-.64-1.79s2.72-2.6,3.08-2.53Z"/>
        <polygon class="cls-16" points="69.05 33.39 68.88 34.94 68.41 36.59 68.54 34.99 67.46 33.59 68.25 35.65 68.39 37.22 69.69 35.18 69.05 33.39"/>
        <path class="cls-17" d="M71.6,42.82s-.48,.27-1.24,.54c-.76,.27-4.61,1.56-5.09,1.77-.39,.16-1.31,.5-2.13,.48-.2,0-.39-.03-.56-.09-.9-.28-1.32-.82-1.21-1.01,.11-.19,2.15-.39,2.26-.6,.11-.21-.61-.52-.87-.65-.27-.13,.71-.24,1.1-.17,.39,.07,1.33,.46,1.68,.43,.35-.03,4.68-2.33,4.68-2.33,.37-.2,.77-.45,1.14-.44,0,0,0,0,.01,0h.05s0,0,0,0c.2,.02,.39,.13,.57,.37,.9,1.22-.39,1.69-.39,1.69Z"/>
        <path class="cls-2" d="M62.03,45.46s.06,.02,.14,.05c-.08-.02-.13-.04-.14-.05Z"/>
        <path class="cls-2" d="M62.18,45.51c.07,.02,.15,.05,.26,.08-.05-.01-.1-.02-.15-.04-.04-.01-.08-.03-.11-.04Z"/>
        <path class="cls-2" d="M71.6,42.82s-.48,.27-1.24,.54c-.76,.27-4.61,1.56-5.09,1.77-.39,.16-1.31,.5-2.13,.48,1.2-.13,2.63-.96,2.63-.96,0,0,.38-.08,1.49-.44,1.11-.36,4.5-1.65,4.5-2.03s-.39-1.39-.4-1.42h0s.01,0,.01,0h.05s0,0,0,0c.2,.02,.39,.13,.57,.37,.9,1.22-.39,1.69-.39,1.69Z"/>
        <path class="cls-14" d="M70.85,40.9c.28,0,.63,.25,.91,.65,.28,.4,.31,.72,.4,.8,.09,.08,.96-.76,1.18-1.14,.22-.38-.37-.99-.37-.99l-1.74-.61s-.94,.64-.78,1.46c0,0,.29-.16,.4-.17Z"/>
        <path class="cls-2" d="M69.27,31.33s0,0,0,0c-.09,.13-.17,.25-.25,.33,.07-.09,.15-.2,.25-.33Z"/>
        <path class="cls-2" d="M70.17,28.49c-.06-.05-2.11-1.86-2.37-1.68-.26,.18-.74,1.43-.64,1.85,.1,.42-.25,2.46-.25,2.46,0,0-.31-3.06-.26-3.22,.04-.16,.88-1.73,1.15-1.76,.27-.03,1.34,1.01,1.6,1.31,.25,.29,.76,1.01,.78,1.04Z"/>
        <path class="cls-2" d="M72.12,28.23c-.15,.59-1.11,1.27-1.39,1.32-.21,.04-.47,.11-.67,.34,.15-.31,.27-.54,.27-.54,0,0,.26-.05,.43-.12,.17-.07,1.07-.75,1.31-1.12,.03-.04,.05-.09,.06-.14,.02,.08,.01,.17-.01,.26Z"/>
        <path class="cls-2" d="M60.38,32.38c0,.12,0,.2,0,.2l-.17-.04s.13-.76,.1-1.14c0-.03,0-.05,0-.07,.02,.13,.06,.32,.09,.4,.05,.13,.08,.17,.08,.17,0,0-.09,.36-.1,.49Z"/>
      </g>
    </g>
  </g>
</svg>