<?xml version="1.0" encoding="UTF-8"?>
<svg id="Calque_2" data-name="Calque 2" xmlns="http://www.w3.org/2000/svg" xmlns:xlink="http://www.w3.org/1999/xlink" viewBox="0 0 97.01 69.43">
  <defs>
    <style>
      .cls-1 {
        fill: #6c7ac9;
      }

      .cls-2 {
        fill: #11a5d4;
      }

      .cls-3 {
        fill: #808787;
      }

      .cls-4 {
        fill: #fff;
      }

      .cls-5, .cls-6 {
        fill: #d86880;
      }

      .cls-5, .cls-7, .cls-8, .cls-9 {
        fill-rule: evenodd;
      }

      .cls-10 {
        fill: #9b80a8;
      }

      .cls-11 {
        fill: #b1aeb2;
      }

      .cls-12 {
        fill: #ee526d;
        opacity: .46;
      }

      .cls-13 {
        fill: #707777;
      }

      .cls-14 {
        fill: #eeb480;
      }

      .cls-15 {
        fill: #804cbe;
      }

      .cls-16 {
        fill: #53285a;
      }

      .cls-17 {
        fill: #333642;
      }

      .cls-18 {
        fill: #f2cdaf;
      }

      .cls-19, .cls-9 {
        fill: #2f295a;
      }

      .cls-20 {
        fill: #3a4266;
      }

      .cls-7, .cls-21 {
        fill: #5e2f68;
      }

      .cls-22 {
        fill: #bb91c8;
      }

      .cls-23 {
        fill: #7c58e5;
      }

      .cls-24 {
        fill: #9172a0;
      }

      .cls-25 {
        fill: #7653c2;
      }

      .cls-8, .cls-26 {
        fill: #f1a49e;
      }

      .cls-27 {
        fill: #1b1d23;
      }

      .cls-28 {
        fill: url(#linear-gradient);
      }

      .cls-29 {
        fill: #3e2e72;
      }

      .cls-30 {
        fill: #576396;
      }

      .cls-31 {
        fill: #ffd7e5;
      }

      .cls-32 {
        fill: #1f73ff;
      }

      .cls-33 {
        fill: #2b3249;
      }

      .cls-34 {
        fill: #232047;
      }

      .cls-35 {
        fill: #ee7580;
      }
    </style>
    <linearGradient id="linear-gradient" x1="19.85" y1="36.7" x2="29.6" y2="36.7" gradientUnits="userSpaceOnUse">
      <stop offset="0" stop-color="#7c58e5"/>
      <stop offset="1" stop-color="#d07dda"/>
    </linearGradient>
  </defs>
  <g id="Layer_20" data-name="Layer 20">
    <g>
      <g>
        <rect class="cls-22" x="73.85" width=".88" height="63.27"/>
        <rect class="cls-22" x="49.58" y="3.59" width="47.43" height="31.81"/>
        <rect class="cls-4" x="50.4" y="4.47" width="45.81" height="29.15"/>
        <rect class="cls-22" x="61.49" y="2.06" width="13.12" height=".26" transform="translate(2.61 20.97) rotate(-17.86)"/>
        <rect class="cls-22" x="80.48" y="-4.37" width=".26" height="13.12" transform="translate(53.81 78.24) rotate(-72.15)"/>
        <path class="cls-22" d="M85.52,63.45h-22.9c-.12,0-.23-.08-.27-.2-.04-.12,0-.25,.09-.32l11.67-9.25c.11-.09,.26-.08,.37,0l11.23,9.25c.09,.08,.13,.21,.09,.32-.04,.12-.15,.19-.27,.19Zm-22.06-.58h21.25l-10.42-8.58-10.83,8.58Z"/>
      </g>
      <g>
        <g>
          <rect class="cls-4" x="87.65" y="47.52" width="1.55" height="3.7"/>
          <polygon class="cls-4" points="87.65 47.52 87.65 51.21 84.82 51.21 84.82 49.92 86.95 49.92 86.95 47.52 87.65 47.52"/>
          <polygon class="cls-4" points="87.65 51.21 87.65 57.92 87.2 57.92 87.36 57.42 87.36 55.28 85.9 55.28 85.9 57.48 85.88 57.53 85.88 51.21 87.65 51.21"/>
          <g>
            <path class="cls-4" d="M93.22,63.62c-.2,.1-.42,.15-.66,.15-.84,0-1.53-.68-1.53-1.53s.68-1.53,1.53-1.53v.76c-.13,.23-.21,.49-.21,.77,0,.61,.35,1.13,.87,1.38Z"/>
            <path class="cls-4" d="M95.41,62.25c0,.84-.68,1.53-1.53,1.53-.24,0-.46-.05-.66-.15-.51-.25-.87-.77-.87-1.38,0-.28,.08-.54,.21-.77,.15-.26,.38-.48,.66-.61,.13-.06,.27-.11,.41-.13,.08-.01,.17-.02,.25-.02,.84,0,1.53,.68,1.53,1.53Z"/>
            <path class="cls-4" d="M93.63,59.72v1.02c-.14,.02-.28,.07-.41,.13-.28,.13-.51,.35-.66,.61v-1.54l-4.91-2.5v-2.15s4.97,3.46,5.52,3.77c.54,.31,.46,.67,.46,.67Z"/>
          </g>
          <g>
            <path class="cls-4" d="M80.31,63.35c-.2,.1-.42,.15-.66,.15-.84,0-1.53-.68-1.53-1.53s.68-1.53,1.53-1.53c.09,0,.17,0,.25,.02v.42c-.28,.28-.46,.66-.46,1.09,0,.61,.35,1.13,.87,1.38Z"/>
            <path class="cls-4" d="M85.88,55.28v2.15l-4.91,2.5v.51c-.24,0-.46,.05-.66,.15-.15,.07-.29,.17-.41,.29v-1.16s-.08-.35,.46-.67c.54-.31,5.52-3.77,5.52-3.77Z"/>
            <path class="cls-4" d="M82.5,61.97c0,.84-.68,1.53-1.53,1.53-.24,0-.46-.05-.66-.15-.51-.25-.87-.77-.87-1.38,0-.43,.18-.81,.46-1.09,.12-.12,.26-.21,.41-.29,.2-.1,.42-.15,.66-.15,.84,0,1.53,.68,1.53,1.53Z"/>
          </g>
          <path class="cls-4" d="M86.86,55.28v2.14l-.16,.5-.85,2.65h-.16c-.32,.04-.59,.74-.61,1.57h-.79l.48-1.39,1.11-3.22,.02-.05v-2.2h.96Z"/>
          <polygon class="cls-4" points="87.36 55.28 87.36 57.42 87.2 57.92 86.34 60.59 85.85 60.57 86.7 57.92 86.86 57.42 86.86 55.28 87.36 55.28"/>
          <g>
            <path class="cls-4" d="M86.97,63.67s.01,0,.02,0l-1.39-.06c-.31-.01-.54-.64-.53-1.44,0-.01,0-.02,0-.03,.02-.83,.29-1.53,.61-1.57h.16s.49,.03,.49,.03l.74,.03c-.33,.05-.6,.77-.61,1.61,0,.04,0,.09,0,.13,0,.01,0,.02,0,.04,0,.05,0,.1,0,.15,0,.02,0,.04,0,.07,0,0,0,.01,0,.02,0,.01,0,.03,0,.04,0,.02,0,.05,0,.07,0,.02,0,.04,0,.06,0,.01,0,.02,0,.03,0,.04,.01,.09,.02,.13,0,.02,0,.03,.01,.05,0,0,0,0,0,.01,0,0,0,.02,0,.02,0,.01,0,.02,0,.04,0,.02,.01,.04,.02,.06,0,.02,.01,.04,.02,.05,0,.01,0,.03,.01,.04,0,.02,.02,.04,.02,.06,0,.02,.01,.03,.02,.04,0,0,0,.02,.01,.03,0,.01,.01,.03,.02,.04,0,0,0,0,0,0,0,0,0,.02,.01,.02,0,0,0,.01,.01,.02,0,0,0,.01,.01,.02,0,0,0,.01,.01,.02,.02,.04,.05,.07,.08,.1,0,0,0,0,.01,.01,.02,.02,.05,.04,.07,.05,0,0,.02,0,.03,.01,0,0,0,0,0,0,0,0,.01,0,.02,0,0,0,.01,0,.02,0Z"/>
            <path class="cls-4" d="M87.65,62.07c-.01,.84-.29,1.56-.61,1.61-.02,0-.03,0-.05,0,0,0-.01,0-.02,0,0,0-.01,0-.02,0,0,0-.01,0-.02,0,0,0,0,0,0,0,0,0-.02,0-.03-.01-.02-.01-.05-.03-.07-.05,0,0,0,0-.01-.01-.03-.03-.05-.06-.08-.1,0,0,0-.01-.01-.02,0,0,0-.01-.01-.02,0,0,0-.01-.01-.02,0,0,0-.02-.01-.02,0,0,0,0,0,0,0-.01-.01-.03-.02-.04,0,0,0-.02-.01-.03,0-.01-.01-.03-.02-.04,0-.02-.02-.04-.02-.06,0-.01,0-.02-.01-.04,0-.02-.01-.04-.02-.05,0-.02-.01-.04-.02-.06,0-.01,0-.02,0-.04,0,0,0-.01,0-.02,0,0,0,0,0-.01,0-.02,0-.03-.01-.05,0-.04-.02-.08-.02-.13,0-.01,0-.02,0-.03,0-.02,0-.04,0-.06,0-.02,0-.05,0-.07,0-.01,0-.03,0-.04,0,0,0-.01,0-.02,0-.02,0-.04,0-.07,0-.05,0-.1,0-.15,0-.01,0-.02,0-.04,0-.04,0-.09,0-.13,.01-.84,.29-1.56,.61-1.61,.33-.05,.58,.6,.57,1.44Z"/>
          </g>
          <g>
            <path class="cls-4" d="M84.42,63.68l-1.39-.06c-.31-.01-.54-.64-.53-1.44,.01-.84,.29-1.56,.61-1.61l1.39,.06c-.33,.05-.6,.77-.61,1.61-.01,.81,.22,1.43,.53,1.44Z"/>
            <path class="cls-4" d="M85.07,62.14c-.03,.81-.29,1.49-.61,1.53-.02,0-.03,0-.05,0,0,0,0,0-.01,0,0,0,0,0-.01,0,0,0,0,0-.01,0,0,0-.01,0-.02,0,0,0,0,0,0,0,0,0-.02,0-.03-.01,0,0-.01,0-.02-.01,0,0-.01,0-.02-.01,0,0,0,0,0,0,0,0,0,0,0,0,0,0,0,0-.01,0,0,0,0,0-.01-.01,0,0-.02-.02-.02-.02,0,0-.02-.02-.02-.03,0,0,0,0-.01-.01,0,0-.01-.01-.02-.02,0,0-.01-.02-.02-.03,0,0,0-.01-.01-.02,0,0,0-.01-.01-.02,0,0,0-.01-.01-.02-.02-.03-.03-.06-.05-.1,0-.01-.01-.03-.02-.04,0-.02-.01-.03-.02-.05h0s0-.03-.01-.04c0-.03-.02-.05-.03-.08,0,0,0-.02,0-.03,0-.02,0-.04-.01-.06,0,0,0-.02,0-.03,0-.02,0-.04-.01-.06,0-.02,0-.03,0-.05,0-.02,0-.04-.01-.07,0-.01,0-.02,0-.03,0-.01,0-.03,0-.04,0,0,0,0,0,0,0-.01,0-.03,0-.04,0,0,0,0,0,0,0-.01,0-.03,0-.04,0-.02,0-.03,0-.05h0s0-.03,0-.05c0-.06,0-.11,0-.17,0-.01,0-.02,0-.04,0-.04,0-.09,0-.13,.01-.84,.29-1.56,.61-1.61,.1-.01,.19,.03,.26,.12l-.48,1.39h.79Z"/>
          </g>
        </g>
        <path class="cls-1" d="M92.42,50.18c-.53,.27-3.84,.39-3.84,.39,0,0-2.56,.02-4.9-.08-1.52-.07-2.94-.18-3.52-.38-1.45-.52-1.02-2.58-.34-3.13,.68-.55,1.79-.07,4.63,.23,2.83,.3,7.32-.11,7.75-.2,.19-.04,.46-.05,.71,.04,.33,.11,.63,.39,.72,.97,.16,1.03-.69,1.9-1.21,2.17Z"/>
        <path class="cls-30" d="M92.91,47.03c-.47,.32-1.39,.76-2.9,.77-2.36,.02-5.18-.1-6.05-.29-.87-.19-1.9,.97-1.4,2.16,.17,.4,.55,.65,1.13,.81-1.52-.07-2.94-.18-3.52-.38-1.45-.52-1.02-2.58-.34-3.13,.68-.55,1.79-.07,4.63,.23,2.83,.3,7.32-.11,7.75-.2,.19-.04,.46-.05,.71,.04Z"/>
        <path class="cls-30" d="M93.37,40.46h-7.7c-.61,0-1.03-.49-.94-1.1l.67-4.64c.09-.61,.65-1.1,1.26-1.1h7.7c.61,0,1.03,.49,.94,1.1l-.67,4.64c-.09,.61-.65,1.1-1.26,1.1Z"/>
        <path class="cls-1" d="M93.37,40.46h-6.64c-.61,0-1.03-.49-.94-1.1l.67-4.64c.09-.61,.65-1.1,1.26-1.1h6.64c.61,0,1.03,.49,.94,1.1l-.67,4.64c-.09,.61-.65,1.1-1.26,1.1Z"/>
        <polygon class="cls-30" points="89.34 35.69 89.44 38.57 88.71 40.46 89.44 40.46 90.13 38.57 90.13 35.69 89.34 35.69"/>
        <rect class="cls-3" x="90.83" y="35.69" width="1.55" height="2.88"/>
        <rect class="cls-13" x="90.13" y="35.69" width=".71" height="2.88"/>
        <polygon class="cls-3" points="92.38 38.57 89.2 47.52 87.65 47.52 90.83 38.57 92.38 38.57"/>
        <polygon class="cls-13" points="90.83 38.57 87.65 47.52 86.95 47.52 90.13 38.57 90.83 38.57"/>
        <g>
          <rect class="cls-3" x="87.65" y="47.52" width="1.55" height="3.7"/>
          <polygon class="cls-13" points="87.65 47.52 87.65 51.21 84.82 51.21 84.82 49.92 86.95 49.92 86.95 47.52 87.65 47.52"/>
          <polygon class="cls-13" points="87.65 51.21 87.65 57.92 87.2 57.92 87.36 57.42 87.36 55.28 85.9 55.28 85.9 57.48 85.88 57.53 85.88 51.21 87.65 51.21"/>
          <g>
            <path class="cls-13" d="M93.22,63.62c-.2,.1-.42,.15-.66,.15-.84,0-1.53-.68-1.53-1.53s.68-1.53,1.53-1.53v.76c-.13,.23-.21,.49-.21,.77,0,.61,.35,1.13,.87,1.38Z"/>
            <path class="cls-3" d="M95.41,62.25c0,.84-.68,1.53-1.53,1.53-.24,0-.46-.05-.66-.15-.51-.25-.87-.77-.87-1.38,0-.28,.08-.54,.21-.77,.15-.26,.38-.48,.66-.61,.13-.06,.27-.11,.41-.13,.08-.01,.17-.02,.25-.02,.84,0,1.53,.68,1.53,1.53Z"/>
            <path class="cls-13" d="M93.63,59.72v1.02c-.14,.02-.28,.07-.41,.13-.28,.13-.51,.35-.66,.61v-1.54l-4.91-2.5v-2.15s4.97,3.46,5.52,3.77c.54,.31,.46,.67,.46,.67Z"/>
          </g>
          <g>
            <path class="cls-13" d="M80.31,63.35c-.2,.1-.42,.15-.66,.15-.84,0-1.53-.68-1.53-1.53s.68-1.53,1.53-1.53c.09,0,.17,0,.25,.02v.42c-.28,.28-.46,.66-.46,1.09,0,.61,.35,1.13,.87,1.38Z"/>
            <path class="cls-13" d="M85.88,55.28v2.15l-4.91,2.5v.51c-.24,0-.46,.05-.66,.15-.15,.07-.29,.17-.41,.29v-1.16s-.08-.35,.46-.67c.54-.31,5.52-3.77,5.52-3.77Z"/>
            <path class="cls-3" d="M82.5,61.97c0,.84-.68,1.53-1.53,1.53-.24,0-.46-.05-.66-.15-.51-.25-.87-.77-.87-1.38,0-.43,.18-.81,.46-1.09,.12-.12,.26-.21,.41-.29,.2-.1,.42-.15,.66-.15,.84,0,1.53,.68,1.53,1.53Z"/>
          </g>
          <path class="cls-3" d="M86.86,55.28v2.14l-.16,.5-.85,2.65h-.16c-.32,.04-.59,.74-.61,1.57h-.79l.48-1.39,1.11-3.22,.02-.05v-2.2h.96Z"/>
          <polygon class="cls-13" points="87.36 55.28 87.36 57.42 87.2 57.92 86.34 60.59 85.85 60.57 86.7 57.92 86.86 57.42 86.86 55.28 87.36 55.28"/>
          <g>
            <path class="cls-3" d="M86.97,63.67s.01,0,.02,0l-1.39-.06c-.31-.01-.54-.64-.53-1.44,0-.01,0-.02,0-.03,.02-.83,.29-1.53,.61-1.57h.16s.49,.03,.49,.03l.74,.03c-.33,.05-.6,.77-.61,1.61,0,.04,0,.09,0,.13,0,.01,0,.02,0,.04,0,.05,0,.1,0,.15,0,.02,0,.04,0,.07,0,0,0,.01,0,.02,0,.01,0,.03,0,.04,0,.02,0,.05,0,.07,0,.02,0,.04,0,.06,0,.01,0,.02,0,.03,0,.04,.01,.09,.02,.13,0,.02,0,.03,.01,.05,0,0,0,0,0,.01,0,0,0,.02,0,.02,0,.01,0,.02,0,.04,0,.02,.01,.04,.02,.06,0,.02,.01,.04,.02,.05,0,.01,0,.03,.01,.04,0,.02,.02,.04,.02,.06,0,.02,.01,.03,.02,.04,0,0,0,.02,.01,.03,0,.01,.01,.03,.02,.04,0,0,0,0,0,0,0,0,0,.02,.01,.02,0,0,0,.01,.01,.02,0,0,0,.01,.01,.02,0,0,0,.01,.01,.02,.02,.04,.05,.07,.08,.1,0,0,0,0,.01,.01,.02,.02,.05,.04,.07,.05,0,0,.02,0,.03,.01,0,0,0,0,0,0,0,0,.01,0,.02,0,0,0,.01,0,.02,0Z"/>
            <path class="cls-13" d="M87.65,62.07c-.01,.84-.29,1.56-.61,1.61-.02,0-.03,0-.05,0,0,0-.01,0-.02,0,0,0-.01,0-.02,0,0,0-.01,0-.02,0,0,0,0,0,0,0,0,0-.02,0-.03-.01-.02-.01-.05-.03-.07-.05,0,0,0,0-.01-.01-.03-.03-.05-.06-.08-.1,0,0,0-.01-.01-.02,0,0,0-.01-.01-.02,0,0,0-.01-.01-.02,0,0,0-.02-.01-.02,0,0,0,0,0,0,0-.01-.01-.03-.02-.04,0,0,0-.02-.01-.03,0-.01-.01-.03-.02-.04,0-.02-.02-.04-.02-.06,0-.01,0-.02-.01-.04,0-.02-.01-.04-.02-.05,0-.02-.01-.04-.02-.06,0-.01,0-.02,0-.04,0,0,0-.01,0-.02,0,0,0,0,0-.01,0-.02,0-.03-.01-.05,0-.04-.02-.08-.02-.13,0-.01,0-.02,0-.03,0-.02,0-.04,0-.06,0-.02,0-.05,0-.07,0-.01,0-.03,0-.04,0,0,0-.01,0-.02,0-.02,0-.04,0-.07,0-.05,0-.1,0-.15,0-.01,0-.02,0-.04,0-.04,0-.09,0-.13,.01-.84,.29-1.56,.61-1.61,.33-.05,.58,.6,.57,1.44Z"/>
          </g>
          <g>
            <path class="cls-3" d="M84.42,63.68l-1.39-.06c-.31-.01-.54-.64-.53-1.44,.01-.84,.29-1.56,.61-1.61l1.39,.06c-.33,.05-.6,.77-.61,1.61-.01,.81,.22,1.43,.53,1.44Z"/>
            <path class="cls-13" d="M85.07,62.14c-.03,.81-.29,1.49-.61,1.53-.02,0-.03,0-.05,0,0,0,0,0-.01,0,0,0,0,0-.01,0,0,0,0,0-.01,0,0,0-.01,0-.02,0,0,0,0,0,0,0,0,0-.02,0-.03-.01,0,0-.01,0-.02-.01,0,0-.01,0-.02-.01,0,0,0,0,0,0,0,0,0,0,0,0,0,0,0,0-.01,0,0,0,0,0-.01-.01,0,0-.02-.02-.02-.02,0,0-.02-.02-.02-.03,0,0,0,0-.01-.01,0,0-.01-.01-.02-.02,0,0-.01-.02-.02-.03,0,0,0-.01-.01-.02,0,0,0-.01-.01-.02,0,0,0-.01-.01-.02-.02-.03-.03-.06-.05-.1,0-.01-.01-.03-.02-.04,0-.02-.01-.03-.02-.05h0s0-.03-.01-.04c0-.03-.02-.05-.03-.08,0,0,0-.02,0-.03,0-.02,0-.04-.01-.06,0,0,0-.02,0-.03,0-.02,0-.04-.01-.06,0-.02,0-.03,0-.05,0-.02,0-.04-.01-.07,0-.01,0-.02,0-.03,0-.01,0-.03,0-.04,0,0,0,0,0,0,0-.01,0-.03,0-.04,0,0,0,0,0,0,0-.01,0-.03,0-.04,0-.02,0-.03,0-.05h0s0-.03,0-.05c0-.06,0-.11,0-.17,0-.01,0-.02,0-.04,0-.04,0-.09,0-.13,.01-.84,.29-1.56,.61-1.61,.1-.01,.19,.03,.26,.12l-.48,1.39h.79Z"/>
          </g>
        </g>
      </g>
      <path class="cls-22" d="M45.13,61.45c-9.45,.07-11.15,.92-10.3,1.49,.85,.57-25.61-.33-25.94,.44-.33,.78,3.05,.67,3.06,1.49S.22,64.92,0,66.04c-.22,1.13,12.74,.84,17.68,.8,4.94-.05,11.86,.8,8.02,1.36-3.84,.56-.44,1.17,10.98,1.22,11.42,.05,28.99-.09,32.39-.56,3.4-.47-3.73-1.19,.88-1.77,4.61-.58,16.19-.69,19.77-.86,3.84-.19,9.22-1.77,6.04-1.93-5.15-.25-1.98-.66-9.22-.92-7.25-.25-16.49-.18-14.39-.54s-9.01-1.53-27-1.39Z"/>
      <g>
        <path class="cls-26" d="M43.42,26.92s.1,.2,.34,.39c.19,.15,.46,.29,.83,.31,.64,.03,4.11-.62,5.63-.91,.19-.04,.35-.07,.47-.09,.16-.03,.25-.05,.25-.05,0,0-.29-.67-.75-.95-.17-.1-.38-.15-.58-.18-.35-.05-.67,0-.67,0l-3.19-.26-.9-.09s-1.04-.09-1.43,.54c-.38,.63,0,1.31,0,1.31Z"/>
        <polygon class="cls-24" points="29.31 26.91 29.07 26.95 29.16 27.25 29.31 26.91"/>
        <path class="cls-34" d="M31.6,59.79s-.37,.33-.56,.85c-.19,.52-.81,1.98-.81,2.35,0,.37,.7,2.82,.86,2.9,.16,.08,2.16-2,2.35-2.39,.19-.39,.4-2.64,.42-2.87,.02-.23-.2-.59-.2-.59l-2.06-.25Z"/>
        <path class="cls-34" d="M41.11,63.49c-.05-.02-.22-.68-.25-1.4-.04-.73,.58-3.12,1.01-3.05,.43,.07,.77,1.25,1.24,2.04,.47,.79,1.03,1.47,1.03,1.47l.9-.54s1.13,.72,1.53,.97c.4,.24,1,.59,1,.68,0,.1-.99,.19-1.82,.15-.83-.04-2.31-.17-2.39-.22-.08-.05-.74-1.91-.83-2.06-.09-.15-.38-.16-.49-.03-.11,.12-.52,1.3-.62,1.63-.1,.33-.19,.43-.3,.38Z"/>
        <path class="cls-26" d="M31.16,62.81l.53,.08,1.1,.16s.1-.17,.3-.58c.2-.41,.61-2.55,.73-3.39,.12-.84,1.38-4.18,1.94-5.64,.55-1.46,.47-3.03,.48-3.26,0-.12,.37-1.35,.79-2.68,.05-.14,.09-.29,.14-.43,.33-1.05,.68-2.09,.9-2.66,.19-.5,.57-1.92,.98-3.53,.71-2.8,1.51-6.17,1.51-6.17l-2.49-.06-3.2-.08-.96,3.14,.23,5.04s-.34,1.19-.63,3.04c-.07,.44-.12,.88-.16,1.3-.13,1.34-.13,2.48-.16,2.89-.04,.54-.15,.68-.41,1.86-.25,1.18-.68,5.28-.79,6.17-.11,.89-.39,1.74-.55,2.28-.17,.54-.29,2.52-.29,2.52Z"/>
        <path class="cls-26" d="M37.96,33.84s.05,.31,.13,.82c.2,1.3,.61,3.92,.98,6.23,.34,2.15,.64,4.04,.7,4.37,.08,.39,.31,1.24,.53,2.01,.03,.11,.06,.21,.09,.31,.19,.68,.36,1.23,.36,1.23,0,0-.48,1.66-.09,4.22,.39,2.56,1.17,5.82,1.17,5.82l.38,1.62,1.8,2.41,.63-.44,.46-.32s-1.01-2.08-1.22-2.92c-.21-.84-.29-4.07-.29-4.07v-6.32s0-1.58-.01-3.43h0c0-.44-.01-.88-.02-1.31,0-.01,0-.03,0-.04-.02-1.64-.05-3.23-.1-3.94-.03-.48-.13-1.16-.25-1.89-.31-1.91-.8-4.19-.8-4.19l-4.45-.19Z"/>
        <path class="cls-5" d="M43.58,45.37h0c0,.56,.03,1.12,.01,1.7-.88,.27-1.97,.45-3.22,.5-.24-.84-.53-1.87-.61-2.32-.06-.33-.36-2.22-.7-4.37-.41,1.6-.79,3.02-.98,3.53-.25,.65-.66,1.92-1.04,3.1-1.13-.08-2.36-.22-3.69-.42,.04-.42,.09-.86,.16-1.3,.3-1.84,.64-3.04,.64-3.04l-.23-5.04,.96-3.14,3.2,.08c-.08-.51-.13-.82-.13-.82l4.45,.19s.49,2.28,.8,4.19c.18,1.79,.31,3.72,.35,5.83,0,.01,0,.03,0,.04,0,.43,.01,.86,.02,1.3Z"/>
        <path class="cls-9" d="M32.3,46.23c5.1,.84,8.93,.87,11.33,.13,0-.09,0-.18,0-.27,.1-5.81-.57-10.37-1.14-14.21-.02-.14-.12-.36-.26-.61-.24-.43-.59-.95-.77-1.29-.07-.13-.11-.24-.12-.31-.95,.22-2.15-.17-5.55-.38-.15,.11-.29,.24-.43,.36-1.85,1.74-2.4,4.76-1.65,9.05-.36,2.71-.84,5.22-1.43,7.52Z"/>
        <path class="cls-34" d="M32.3,46.23c5.1,.84,8.93,.87,11.33,.13,0-.09,0-.18,0-.27-.89,.15-2.58,.42-3.06,.34-.66-.11-.75-5.3-1.22-5.3s-1.3,5.2-1.77,5.3c-.47,.1-3.83-.39-3.83-.72s1.59-6.35,1.57-7c-.02-.65-.56-2.06-.03-3.68,.53-1.62,1.02-1.26,1.67-1.52,.65-.25,.36-1.34,1.51-1.3,.92,.03,2.99-.67,3.76-.94-.24-.43-.59-.95-.77-1.29l-6.09-.33c-1.85,1.74-2.4,4.76-1.65,9.05-.36,2.71-.84,5.22-1.43,7.52Z"/>
        <path class="cls-16" d="M31.42,20.18c.02,.07,.05,.14,.07,.21,.63,1.58,2.24,2.01,2.24,2.01,0,0,1.25,.2,2.5,.27,.52,.03,1.04,.04,1.47,0,.47-.04,1.03-.23,1.57-.51,.56-.29,1.11-.69,1.53-1.15,.44-.47,.73-1.01,.77-1.54,.03-.42-.08-.84-.24-1.28h0c-.04-.1-.07-.19-.12-.29-.46-1.09-1.19-2.26-1.21-3.56-.02-1.94,.25-2.89-.25-4.18-.49-1.29-2.14-1.72-3.48-1.54-.67,.08-1.1,.42-1.1,.42,0,0-1.01-.21-1.96,.55-.95,.76-.99,2.24-1.04,3.23-.06,.99,0,2.91-.17,3.48-.16,.55-1.06,2.34-.59,3.88Z"/>
        <path class="cls-19" d="M31.42,20.18c.02,.07,.05,.14,.07,.21,.63,1.58,2.24,2.01,2.24,2.01,0,0,1.25,.2,2.5,.27,1.11-.13,2.21-.34,3.04-.51,.82-.18,1.37-.32,1.37-.32l.15-.83,.53-2.82h0s.02-.11,.02-.11c0,0-.05-.07-.14-.19-.36-.5-1.35-1.92-1.61-2.82-.32-1.11,.04-3.65-.44-4.49-.48-.84-1.96-1.61-2.59-.96l-.3,.36s-1.2,.46-1.47,1.37c-.26,.91-.87,3.08-1.59,4.14-.5,.74-1.64,2.89-1.79,4.68Z"/>
        <path class="cls-22" d="M44.1,27.23c-.65,.06-.93-.08-1.51-.78-.17-.2-.33-.45-.5-.75-.75-1.37-3.16-5.38-3.16-5.38,0,0-.25-1.45,.74-2.17,.99-.72,2,.06,2.15,.36,0,0,.18,.36,.46,.92,.72,1.47,2.1,4.29,2.53,5.37,.59,1.48-.3,2.32-.7,2.43Z"/>
        <path class="cls-10" d="M42.33,21.07c-.1-.16-.2-.33-.29-.5-.45-.81-.86-1.65-1.26-2.49-.03-.07-.06-.14-.07-.21-.32-.04-.68,.03-1.04,.29-.99,.72-.74,2.17-.74,2.17,0,0,2.41,4.01,3.16,5.38,.17,.3,.33,.55,.5,.75,.03-.73,.07-1.43,.07-1.43,0,0,.09-.91,.17-1.79-.16-.72-.29-1.45-.5-2.16Z"/>
        <path class="cls-26" d="M29.25,28.83c.34,.65,3.15,3.86,4.07,4.91,.19,.21,.3,.34,.3,.34,0,0,.07-.1,.16-.26,.13-.24,.3-.61,.3-.96,0-.16-.03-.32-.09-.47-.14-.42-.41-.78-.41-.78l-1.34-2.77-.14-.3-.4-.87-.16-.02-2.29-.27s-.12,.2-.17,.51c-.04,.26-.02,.59,.17,.95Z"/>
        <polygon class="cls-26" points="35.4 14.07 35.4 16.92 38.17 19.96 39.16 17.78 37.75 16.69 37.74 16.03 37.71 15.19 35.4 14.07"/>
        <polygon class="cls-6" points="35.4 15.08 35.4 16.82 35.9 17.02 35.9 15.44 35.4 15.08"/>
        <path class="cls-6" d="M37.74,16.03c-.13,.15-.24,.26-.26,.27-.1,.05-1.19-.19-1.53-.46-.15-.11-.35-.35-.54-.58v-1.2l2.32,1.12,.02,.84Z"/>
        <path class="cls-26" d="M49.51,26.3s.1,.06,.26,.15c.12,.07,.28,.16,.45,.25,.71,.39,1.75,.91,2.11,.84,.06-.01,.11-.02,.14-.03,.27-.09-.26-.17-.46-.31-.22-.16-.44-.19-.42-.25,.02-.06,.48,.19,.78,.27,.3,.08,.51,.09,.61,.04,.1-.06,.02-.09-.11-.17-.14-.09-.82-.31-.93-.39-.1-.08,.15-.04,.4,.03,.25,.07,.9,.37,.96,.3,.06-.06,.21-.19-.08-.32-.29-.13-.96-.36-1.02-.41-.06-.05,.15-.03,.46,.06,.31,.09,.91,.3,.93,.22,.02-.08,.07-.25-.15-.34-.22-.09-1.13-.36-1.29-.43-.16-.07-.87-.39-.89-.44-.02-.04,.04-.43,.06-.46,.02-.03,.27-.17,.41-.29,.13-.12,.09-.28,0-.29-.1-.01-.76-.05-1.53,.53,0,0-.5,.41-.58,.59,0,0,0,0,0,.01-.06,.18-.09,.86-.09,.86Z"/>
        <path class="cls-6" d="M43.76,27.31c.19,.15,.46,.29,.83,.31,.64,.03,4.11-.62,5.63-.91,.71,.39,1.75,.91,2.11,.84,.06-.01,.11-.02,.14-.03-.19-.04-.46-.1-.68-.19-.28-.12-.79-.49-1.11-.71-.12-.08-.21-.14-.25-.16-.14-.07-.51-.05-.67,0-.16,.05-4.19,.81-4.51,.7-.32-.11-.29-1.59-.29-1.59,0,0-.88,.92-1.21,1.74Z"/>
        <path class="cls-26" d="M33.32,33.74c.03,.14,.09,.29,.21,.38,.32,.27,.87-.08,1.05-.19,.18-.11,.86-.91,.89-.92,.04,0,.31,.04,.5,.08,.19,.04,.51,.05,.57,0,0,0,0,0,0,0,.06-.05,.02-.17-.05-.22-.08-.05-.72-.19-.77-.2-.05,0,0-.04,.08-.04,.07,0,.73,.1,.82,.12,.09,.02,.08,0,.08-.06,0-.06-.04-.11-.09-.14-.05-.03-.31-.12-.39-.15-.09-.03-.07-.05-.06-.05s.07,0,.16,.02c.09,.02,.34,.05,.37,.05,.03,0,0-.12-.03-.16-.02-.04-.15-.1-.15-.1,0,0,.23,.05,.04-.16-.19-.2-.5-.26-.8-.31-.3-.04-.97,.23-.97,.23,0,0-.28-.13-.39-.03-.06,.05-.25,.29-.4,.5-.12,.16-.22,.3-.22,.3l-.46,.54s0,.05-.01,.12c0,.1,0,.25,.03,.39Z"/>
        <path class="cls-6" d="M29.25,28.83c.34,.65,3.15,3.86,4.07,4.91,.03,.14,.09,.29,.21,.38,.32,.27,.87-.08,1.05-.19,.18-.11,.86-.91,.89-.92,.04,0,.31,.04,.5,.08,.19,.04,.51,.05,.57,0,0,0,0,0,0,0-.25,.04-.81-.1-.98-.13-.2-.04-.24,0-.24,0,0,0-.9,.89-1.25,.96-.09,.02-.19-.02-.3-.1-.15-.1-.31-.27-.48-.47-.23-.28-.48-.63-.72-.96-.55-.78-2.15-3.01-1.55-3.38,.42-.26,.94-.22,1.21-.18l-.14-.3-.4-.87-.16-.02-.9,.19-1.55,.05c-.04,.26-.02,.59,.17,.95Z"/>
        <path class="cls-19" d="M45.44,25.13l-.64-.33-1.5,2.24s.08,.45,.52,.57c.44,.12,.68,0,.68,0l.94-2.48Z"/>
        <path class="cls-26" d="M33.76,13.4c.01,.23,.07,.44,.13,.52,.16,.21,.69,.47,1.13,.24,0,0,.67,.92,1.01,1.18,.3,.24,1.21,.46,1.47,.47h0s.06,0,.07,0c.1-.05,1.13-1.26,1.25-1.57,.12-.31,.2-1.89,.17-2.47,0-.09-.03-.19-.06-.3-.21-.65-.88-1.64-1.49-1.64-.71,.01-1.46,1.1-1.66,1.5-.2,.41-.69,1.89-.69,1.89,0,0-.41-.59-.93-.55-.31,.02-.4,.4-.38,.74Z"/>
        <path class="cls-22" d="M32.22,22.58c.03,.12,.1,.28,.19,.48,.29,.64,.83,1.62,1.32,2.49,.52,.94,.99,1.74,1,1.83,.04,.21-.44,3.69-.44,3.69,0,0,1.77,.65,4.06,.46,2.28-.19,3.48-.75,3.48-.75,0,0,.01-.22,.02-.54,.03-.67,.07-1.76,.07-2.22,0-.66,.11-2.83,.11-2.83,0,0,.28-2.88,.28-3.37,0-1.22-1.54-3.95-1.54-3.95l-1.05-.26h-.55c0,.13-.04,.26-.11,.38-.1,.18-.2,.36-.32,.52,.02,.07,.02,.15-.02,.23-.14,.26-.14,.57-.32,.82-.15,.22-.44,.17-.54-.07-.05-.14-.14-.27-.19-.41-.23-.05-.45-.2-.58-.4-.19-.28-.39-.54-.53-.85-.04-.09-.07-.19-.09-.28l-.74-.02-.92,.34s-2.09,1.64-2.26,1.9c-.04,.06-.1,.21-.16,.41-.18,.61-.38,1.7-.18,2.4Z"/>
        <path class="cls-10" d="M34.73,27.38c.04,.21-.44,3.69-.44,3.69,0,0,1.77,.65,4.06,.46,2.28-.19,3.48-.75,3.48-.75,0,0,.01-.22,.02-.54-1.78,1.14-5.83,.12-5.6-.56,.25-.76,3.25-1.73,3.36-2.01,.11-.28-3.79-.44-4.31-1.22-.52-.78-.51-3.39-.51-3.39h-2.38c.29,.64,.83,1.62,1.32,2.49,.52,.94,.99,1.74,1,1.83Z"/>
        <path class="cls-19" d="M34.88,16.16s1.52,.84,1.64,.99c.12,.15,1.77,2.53,1.77,2.53l-.23,.56s-.3-.55-.6-.82c-.3-.28-1.68-1.66-1.68-1.66,0,0-1.11,.93-1.2,.93s.08-1.28,.13-1.66c.06-.38,.16-.86,.16-.86Z"/>
        <polygon class="cls-19" points="37.73 15.99 40.05 17.02 40.25 18.24 39.48 17.96 38.09 20.19 38.88 17.79 37.76 16.95 37.73 15.99"/>
        <path class="cls-10" d="M35.3,21.89s-.84,1.94-1.57,3.66c-.63-1.13-1.36-2.46-1.51-2.97-.2-.7,0-1.79,.18-2.4,.35-.36,1.06-.78,1.88-.34,1.07,.58,1.02,2.05,1.02,2.05Z"/>
        <path class="cls-22" d="M29.81,28.76c.56,.05,1.08-.03,1.59-.51,.25-.23,.5-.56,.75-1.01,.75-1.37,3.16-5.38,3.16-5.38,0,0,.06-.38,0-.85-.07-.45-.25-.97-.73-1.32-.98-.72-2,.06-2.15,.36,0,0-2.4,4.81-2.98,6.29-.15,.37-.25,.71-.31,1,0,.05-.02,.1-.02,.14-.12,.77,.12,1.22,.71,1.27Z"/>
        <path class="cls-10" d="M29.83,27.62c.51,.2,1.09,.44,1.56,.63,.25-.23,.5-.56,.75-1.01,.75-1.37,3.16-5.38,3.16-5.38,0,0,.06-.38,0-.85-.05,.07-2.99,4.49-3.49,5.22-.38,.55-1.09,1.34-1.98,1.39Z"/>
        <path class="cls-19" d="M29.07,26.95s.53,.58,1.24,.63,1.76-.21,1.76-.21l-.2,.65s-.67,.95-1.8,.84c-1.13-.11-1.24-.56-1.2-.8,.04-.24,.21-1.12,.21-1.12Z"/>
        <path class="cls-6" d="M35.08,13.22l.11,.25s1.4-3.21,2.1-3.39c.5-.13,1.27,.84,1.65,1.39-.21-.65-.88-1.64-1.49-1.64-.71,.01-1.46,1.1-1.66,1.5-.2,.41-.69,1.89-.69,1.89Z"/>
        <path class="cls-6" d="M33.76,13.4c.01,.23,.07,.44,.13,.52,.16,.21,.69,.47,1.13,.24,0,0,.67,.92,1.01,1.18,.3,.24,1.21,.46,1.47,.47-.24-.09-.82-.3-1.12-.47-.39-.22-1.3-1.28-1.3-1.28,0,0-.66-.03-1-.18-.16-.07-.26-.28-.32-.48Z"/>
        <path class="cls-5" d="M40.38,47.57c.19,.68,.36,1.23,.36,1.23,0,0-.48,1.66-.09,4.22,.39,2.56,1.17,5.82,1.17,5.82l.38,1.62,1.8,2.41,.63-.44c-.49-.23-1.5-1.1-1.66-1.32-.18-.25-.56-1.41-1.21-4.98-.65-3.57-.24-7.41-.24-7.41l-.3-1.47h-.94c.03,.11,.06,.21,.09,.31Z"/>
        <path class="cls-5" d="M31.7,62.89l1.1,.16s.1-.17,.3-.58c.2-.41,.61-2.55,.73-3.39,.12-.84,1.38-4.18,1.94-5.64,.55-1.46,.47-3.03,.48-3.26,0-.12,.37-1.35,.79-2.68,.05-.14,.09-.29,.14-.43l-.93,.19-.51,2.44s.04,2.36-.58,4.06c-.61,1.7-1.63,5.06-1.81,6.03-.18,.97-.54,2.42-.68,2.6-.09,.11-.6,.34-.98,.5Z"/>
      </g>
      <path class="cls-15" d="M94.77,64.66c0,.19-2.6,.34-5.81,.34s-5.81-.15-5.81-.34,2.6-.34,5.81-.34,5.81,.15,5.81,.34Z"/>
      <ellipse class="cls-22" cx="70.26" cy="67.4" rx="14.13" ry="1.18"/>
      <path class="cls-15" d="M21.01,64.87H8.21s-4.25,.1-2.46,.7c1.79,.6,15.43,.35,17.97,.29,2.54-.06,5.22,.04,5.11,.1-.11,.06-.7,.4-2.99,.4s-4.15,.93,1.02,1.05c5.17,.11,10.34-.07,10.64-.51,.3-.44-1.82-.45-1.65-.74,.17-.29,25.17,0,25.17,0,0,0,1.5,.19,.66,.28s-4.37-.03-4.72,.46c-.35,.49,3.79,.86,12.15,.76,8.36-.1,9.38-1.16,7.43-1.44-1.95-.28-1.76-1.04,1.45-1.01,3.21,.03,6.72-.04,5.72-.54-.99-.5-8.53-.3-10.91-.33-2.37-.03-11.36,.12-12.63-.06-1.27-.17,2.37-1.29-10.76-1.33-13.14-.04-18.16-.35-17.47,.68,.69,1.04-.16,1.24-10.92,1.24Z"/>
      <g>
        <path class="cls-26" d="M19.95,26.41c-.19,.53-1.72,2.88-2.63,4.25-.22,.34-.41,.62-.53,.79-.09,.14-.14,.21-.14,.21,0,0-.46-.47-.56-.97,0-.02,0-.04,0-.05,0-.06-.01-.11-.01-.17,0-.48,.31-1.01,.31-1.01l.16-.49,.8-2.44,.25-.83s.31-.97,1.01-1.07c.6-.09,1.03,.33,1.14,.46,.02,.02,.03,.03,.03,.03,0,0,.45,.54,.18,1.3Z"/>
        <path class="cls-22" d="M18.88,25.79c-.63,.06-.9-.08-1.46-.75-.16-.19-.32-.43-.48-.73-.72-1.32-3.05-5.2-3.05-5.2,0,0-.24-1.4,.71-2.09,.95-.69,1.93,.05,2.08,.35,0,0,.18,.35,.44,.89,.7,1.42,2.03,4.15,2.44,5.19,.57,1.43-.29,2.24-.67,2.34Z"/>
        <path class="cls-16" d="M13.85,9.24l-.27,.75s.53,1.75-.18,3.02c-.1,.18-.23,.36-.39,.51-1.26,1.24-3.98,1.08-3.98,1.08,0,0-1.4-.68-2.19-2.68-.04-.1-.07-.2-.1-.3-.54-1.78,.71-2.55,.99-2.63,0,0,.88-2.35,2.91-2.43,2.03-.08,3.49,1.92,3.22,2.67Z"/>
        <path class="cls-19" d="M13.4,13.02c-.1,.18-.23,.36-.39,.51-1.26,1.24-3.98,1.08-3.98,1.08,0,0-1.4-.68-2.19-2.68-.04-.1-.07-.2-.1-.3,.42,.14,1.09,.27,1.56-.16,.71-.67,.67-1.47,.67-1.47,0,0,1.17-1.48,2.17-1.71,1-.23,2.31,1.84,2.38,2.56,.05,.51-.06,1.59-.12,2.17Z"/>
        <path class="cls-26" d="M9.16,61.91v1.23s-.27,.44-.27,.44l-.07,.12s-.69,.29-1.25,.17c-.56-.12-.85-1.1-.85-1.1l.09-.94,.07-.74,2.3-.09v.9Z"/>
        <path class="cls-6" d="M9.16,61.91v1.23s-.27,.44-.27,.44c-.39,.12-.76,.23-.76,.23,0,0,.35-1.62-.18-1.64-.42-.01-.94-.24-1.14-.34l.07-.74,2.3-.09v.9Z"/>
        <path class="cls-26" d="M18.93,62.38l-.44,.23s-.48,.04-1.16,0c-.02,0-.04,0-.06,0-.61-.06-.68-.43-.68-.43l.05-.78,2.18-.08,.06,.33,.05,.29v.45Z"/>
        <path class="cls-6" d="M18.87,61.64c-.2,.09-.89,.36-1.27,.33-.24-.02-.32,.31-.34,.63-.61-.06-.68-.43-.68-.43l.05-.78,2.18-.08,.06,.33Z"/>
        <path class="cls-19" d="M19.13,51.58c-.1,1.73-.14,8.12-.15,9.59,0,.19,0,.3,0,.3,0,0-.26,.2-.84,.32-.58,.12-1.53-.14-1.53-.14,0,0-.26-1.69-.41-2.38-.15-.69-.84-4.64-.97-5.68-.13-1.04,.3-3.44,.3-3.44-.3-.3-.69-1.36-.84-1.95-.15-.59-1.42-6.47-1.59-7.28-.17-.81-.27-.43-.27-.43,0,0-1.95,8.42-1.87,10.5,.08,2.08-.47,4.79-.75,5.83-.21,.78-.48,2.83-.6,3.82-.04,.33-.07,.54-.07,.54,0,0-.61,.73-1.65,.73s-1.55-.76-1.55-.76c0,0,.29-5.58,.29-6.71s.14-4.03,.14-4.03c0,0-.08-1.13-.14-1.86-.06-.73,.14-6.26,.08-6.5-.06-.24-.89-2.69-.95-4.7-.03-1.22,.39-2.8,.73-3.87,.05-.15,.09-.29,.14-.42,.14-.4,.24-.67,.27-.74,0,0,0-.01,0-.01l1.48-2.3,7.93-.2,.46,2.75c.05,.16,.1,.33,.15,.51,.06,.23,.13,.47,.19,.73,1.02,4.17,1.76,11.85,1.76,11.85,0,0,.34,3.99,.22,5.94Z"/>
        <path class="cls-34" d="M9.61,60.64c-.04,.33-.07,.54-.07,.54,0,0-.61,.73-1.65,.73s-1.55-.76-1.55-.76c0,0,.29-5.58,.29-6.71s.14-4.03,.14-4.03c0,0-.08-1.13-.14-1.86-.06-.73,.14-6.26,.08-6.5-.06-.24-.89-2.69-.95-4.7-.03-1.22,.39-2.8,.73-3.87,.05-.15,.09-.29,.14-.42l2.9,.71s-2.45,2.05-2.17,4.39c.29,2.34,.33,3.65,.55,4.59,.22,.93,.13,7.52-.1,8.79-.23,1.27-1.02,9.08-1.02,9.08,0,0,.31,.51,1.21,.4,.46-.06,1.09-.23,1.6-.37Z"/>
        <path class="cls-34" d="M17.14,33.79c-.95,.82-2.95,1.11-5.84,.87-2.43-.2-4.11-.87-4.79-1.19,.2-.63,.37-1.07,.41-1.15,2.31,.05,8.25,.21,10.03,.74,.06,.23,.13,.47,.19,.73Z"/>
        <path class="cls-22" d="M16.91,33.52c-1.2,.75-3,.58-3,.58l-2.1-.1c-4.34-.31-5.38-1.09-5.38-1.09l.65-3.3-.41-3.26c-.24-1.22-.44-3.02-.78-4.33h0c-.06-.25-.13-.47-.21-.68-.47-1.29-.52-3.97-.52-3.97l.34-.13,2.7-1.04,.19-.07,.7-.28,3.83,.13,.65,.02c.29,.04,.59,.1,.73,.15,0,0,0,0,.01,0,0,0,0,0,0,0l1.76,.68v5.7s.11,1.65,.11,1.65c0,.02,0,.04,0,.06,0,.01,0,.02,0,.03l.2,3.33s-.01,2.24,.18,2.93c.19,.69,.81,2.67,.32,2.97Z"/>
        <path class="cls-19" d="M16.91,33.52c-1.2,.75-3,.58-3,.58l-2.1-.1c-4.34-.31-5.38-1.09-5.38-1.09l.65-3.3-.41-3.26c-.24-1.22-.44-3.02-.78-4.33,0,0,.52-1.42,.52-2.61,0-.24-.02-.46-.07-.66-.06-.27-.16-.51-.26-.71-.18-.35-.39-.61-.57-.79l2.7-1.04c.34,.85,1.46,3.26,3.33,3.21,2.08-.06,1.5-2.95,1.39-3.43-.01-.04-.02-.07-.02-.07,0,0,.32,.04,.67,.09,.29,.04,.59,.1,.73,.15,0,0,0,0,.01,0,0,0,0,0,0,0,.3,.12,.88,1.75,1.11,2.73,.23,.97,.67,3.96,.76,5.29,0,.02,0,.04,0,.06,0,.01,0,.02,0,.03l.2,3.33s-.01,2.24,.18,2.93c.19,.69,.81,2.67,.32,2.98Z"/>
        <path class="cls-34" d="M16.91,33.52c-1.2,.75-3,.58-3,.58l-2.1-.1c-4.34-.31-5.38-1.09-5.38-1.09l.65-3.3-.41-3.26c-.24-1.22-.44-3.02-.78-4.33,0,0,.52-1.42,.52-2.61,0-.24-.02-.46-.07-.66-.06-.27-.16-.51-.26-.71l.51-.31s.8,1.21,.9,2.56c.1,1.35-.11,5.88,1.46,7.22,1.57,1.35,3.87,1.78,4.24,2.3,.37,.53-3.53,.88-2.98,2.08,.55,1.21,7.02,1.52,6.26,.16-.76-1.37-1.28-1.75-1.35-1.97-.07-.23,.56-1.33,.66-2.44,.1-1.11-.11-7.23-.35-8.75,.23,.97,.67,3.96,.76,5.29,0,.02,0,.04,0,.06,0,.01,0,.02,0,.03l.2,3.33s-.01,2.24,.18,2.93c.19,.69,.81,2.67,.32,2.98Z"/>
        <path class="cls-26" d="M9.32,30c.1,.04,.41,.17,.46,.21,.06,.03,.1,.11,.1,.17,0,.07,0,.09-.1,.06-.1-.03-.89-.19-.97-.19s-.15,.04-.09,.05c.05,0,.82,.22,.91,.28,.07,.05,.11,.16,.08,.23,0,.02-.02,.03-.03,.04-.07,.05-.44,.03-.67-.03-.23-.06-.55-.13-.6-.13-.04,0-.9,.93-1.12,1.05-.22,.12-.9,.51-1.26,.18-.16-.15-.23-.39-.24-.6,0-.09,0-.18,0-.25,0-.14,.03-.24,.03-.24l.34-.36,.24-.25s.64-.81,.78-.92c.14-.11,.47,.06,.47,.06,0,0,.82-.29,1.17-.22,.35,.07,.72,.16,.94,.41,.21,.24-.03,.19-.05,.18,.02,0,.15,.08,.17,.13,.03,.05,.06,.19,.02,.19-.04,0-.33-.05-.43-.08-.11-.02-.18-.03-.19-.03-.01,0-.04,.01,.07,.06Z"/>
        <path class="cls-34" d="M16.59,62.17s-.14,.47-.12,.58c.02,.1,.03,.64,.12,.9,.09,.25,.23,.61,1.44,.56,1.21-.05,4.03,0,4.03,0,0,0,.29-.24,.34-.46,.05-.22-.09-1.76-1.38-1.81-1.29-.05-2.09,0-2.09,0,0,0,.02,.34-.73,.47-.74,.14-1.3-.02-1.61-.24Z"/>
        <path class="cls-34" d="M6.77,62.86s-.14,.47-.12,.58c.02,.1,.03,.64,.12,.9,.09,.25,.23,.61,1.44,.56,1.21-.05,4.03,0,4.03,0,0,0,.29-.24,.34-.46,.05-.22-.09-1.76-1.38-1.81-1.29-.05-2.09,0-2.09,0,0,0,.02,.34-.73,.47-.74,.14-1.3-.02-1.61-.24Z"/>
        <polygon class="cls-26" points="9.1 13.09 8.84 16.16 11.21 18.75 13.2 16.8 10.88 15.82 10.68 13.66 9.1 13.09"/>
        <path class="cls-6" d="M10.88,15.82c-.33-.09-.81-.24-1.15-.46-.31-.2-.59-.47-.77-.67l.14-1.28,1.65,.53,.14,1.89Z"/>
        <path class="cls-26" d="M6.17,30.21c0,.09-.01,.17-.03,.26-.06,.27-.18,.53-.28,.71-.04,.06-.07,.11-.09,.15-.03,.04-.04,.06-.04,.06,0,0-3.83-4.31-4.22-5.07-.2-.39-.2-.76-.14-1.01,.05-.24,.14-.39,.14-.39l2.36,.28,.39,.84,1.43,2.97s.49,.65,.48,1.21Z"/>
        <path class="cls-6" d="M9.7,30.81s-.02,.03-.03,.04c-.07,.05-.44,.03-.67-.03-.23-.06-.55-.13-.6-.13-.04,0-.9,.93-1.12,1.05-.22,.12-.9,.51-1.26,.18-.16-.15-.23-.39-.24-.6-.03,.04-.04,.06-.04,.06,0,0-3.83-4.31-4.22-5.07-.2-.39-.2-.76-.14-1.01l2.51-.11s-.59,1.32-1.01,1.53c-.35,.17,1.92,3.19,2.91,4.36,.03,.04,.06,.07,.09,.11,.15,.17,.26,.29,.31,.33,.39,.29,1.26-.19,1.59-.53,.32-.33,.48-.5,.48-.5,0,0,.98,.39,1.45,.33Z"/>
        <path class="cls-24" d="M17.53,25.86l-.11-.68,2.51-.7s.39,.21,.37,.65c-.02,.44-.21,.62-.21,.62l-2.55,.11Z"/>
        <path class="cls-22" d="M4.56,17.84s-2.31,4.64-2.88,6.08c-.57,1.43-.44,2.26,.37,2.33,.81,.07,1.53-.15,2.25-1.47,.72-1.32,3.06-5.2,3.06-5.2,0,0,.24-1.4-.71-2.09-.95-.69-1.93,.05-2.08,.35Z"/>
        <path class="cls-24" d="M1.33,24.5s.51,.56,1.19,.61c.69,.05,1.7-.2,1.7-.2l-.2,.63s-.65,.92-1.74,.81c-1.09-.11-1.2-.54-1.16-.77,.04-.23,.2-1.08,.2-1.08Z"/>
        <path class="cls-24" d="M8.24,15.23s1.47,.81,1.59,.95c.12,.15,1.71,2.44,1.71,2.44l-.22,.54s-.29-.53-.58-.8c-.29-.27-1.62-1.61-1.62-1.61,0,0-1.07,.9-1.16,.9s.07-1.24,.13-1.61c.06-.37,.16-.83,.16-.83Z"/>
        <polygon class="cls-24" points="10.82 15.03 13.23 16.06 13.43 17.24 12.93 17.06 11.33 19.13 12.1 16.81 10.88 15.82 10.82 15.03"/>
        <path class="cls-26" d="M13.2,11.49c0,.77-.09,2.04-.19,2.32-.13,.33-1.26,1.65-1.36,1.71,0,0-.02,0-.04,0-.25,0-1.29-.24-1.63-.51-.37-.29-1.1-1.29-1.1-1.29-.48,.24-1.06-.04-1.23-.27-.07-.09-.12-.3-.14-.53-.03-.38,.06-.82,.42-.84,.57-.03,1.01,.6,1.01,.6,0,0,0,0,0,0,.02-.07,.54-1.62,.75-2.06,.22-.44,1.04-1.63,1.81-1.64,.78-.01,1.66,1.49,1.7,2.12,0,.1,0,.23,0,.37Z"/>
        <path class="cls-26" d="M17.33,30.58s0,.05-.02,.08c-.07,.31-.29,.57-.47,.84-.02-.01-.04-.03-.06-.04-.03-.02-.06-.04-.08-.06-.11-.08-.39-.41-.62-.7-.2-.24-.37-.45-.38-.46-.04-.01-.37,.03-.61,.07-.24,.04-.61,.02-.67-.04,0,0-.01-.01-.01-.02-.05-.07,0-.2,.09-.25,.1-.05,.88-.19,.93-.19,.05,0,0-.05-.09-.06-.09,0-.88,.08-.99,.09-.11,.02-.1,0-.1-.07,0-.07,.06-.13,.12-.16,.06-.03,.37-.13,.48-.16,.11-.03,.09-.05,.07-.05-.01,0-.09,0-.19,.01-.11,.01-.4,.04-.44,.04-.04,0,.01-.14,.04-.19,.03-.05,.17-.1,.19-.11-.03,0-.26,.03-.03-.19,.24-.23,.61-.28,.97-.32,.3-.03,.9,.23,1.09,.31,.04,.02,.06,.03,.06,.03,0,0,.34-.13,.47-.01,.03,.03,.09,.11,.17,.21-.02,.05-.03,.1-.02,.15,.04,.28,.11,.57,.13,.85,.01,.13,.01,.25,0,.38Z"/>
        <path class="cls-6" d="M19.95,26.41c-.19,.53-1.72,2.88-2.63,4.25-.07,.31-.29,.57-.47,.84-.02-.01-.04-.03-.06-.04-.03-.02-.06-.04-.08-.06-.11-.08-.39-.41-.62-.7-.2-.24-.37-.45-.38-.46-.04-.01-.37,.03-.61,.07-.24,.04-.61,.02-.67-.04,0,0-.01-.01-.01-.02,.46,.02,1.28-.18,1.28-.18,0,0,.17,.19,.38,.4,.28,.29,.64,.61,.73,.53,.04-.04,.25-.35,.54-.8,.82-1.29,2.25-3.69,2.2-3.95-.07-.35-1.36-.6-1.36-.6l1.56-.58s.03,.03,.03,.03c0,0,.45,.54,.18,1.3Z"/>
        <path class="cls-6" d="M11.6,15.53c-.25,0-1.29-.24-1.63-.51-.37-.29-1.1-1.29-1.1-1.29-.48,.24-1.06-.04-1.23-.27-.07-.09-.12-.3-.14-.53,.1,.24,.26,.52,.5,.63,.46,.21,.84-.16,.84-.16,0,0,1.1,1.47,1.51,1.63,.31,.12,.96,.38,1.26,.5Z"/>
        <path class="cls-6" d="M13.19,11.12c0,.1,0,.23,0,.37-.26-.92-.85-2.27-1.6-2.3-1.04-.03-2.63,3.4-2.68,3.51,.02-.07,.54-1.62,.75-2.06,.22-.44,1.04-1.63,1.81-1.64,.78-.01,1.66,1.49,1.7,2.12Z"/>
        <path class="cls-6" d="M13.35,12.27c0,.06,0,.04,0-.05,0,.02,0,.04,0,.05Z"/>
        <path class="cls-34" d="M18.98,61.16c0,.19,0,.3,0,.3,0,0-.26,.2-.84,.32-.58,.12-1.53-.14-1.53-.14,0,0-.26-1.69-.41-2.38-.15-.69-.84-4.64-.97-5.68-.13-1.04,.3-3.44,.3-3.44-.3-.3-.69-1.36-.84-1.95-.15-.59-1.42-6.47-1.59-7.28-.17-.81-.27-.43-.27-.43l-2-1.85s1.29,.48,1.9,.55c.62,.07,1.87-1.11,1.87-1.11,.36,.18-.56,1.75-.56,1.75,0,0,.32,1.61,.65,3.78,.32,2.17,1.54,6.4,1.54,6.4,0,0-.37,1.44-.37,2.47s.92,8.34,1.47,8.83c.36,.32,1.13,.07,1.63-.15Z"/>
      </g>
      <g>
        <g>
          <rect class="cls-4" x="53.67" y="47.17" width="1.76" height="4.19"/>
          <polygon class="cls-4" points="53.67 47.17 53.67 51.36 50.46 51.36 50.46 49.9 52.87 49.9 52.87 47.17 53.67 47.17"/>
          <polygon class="cls-4" points="53.67 51.36 53.67 58.98 53.16 58.98 53.34 58.41 53.34 55.98 51.68 55.98 51.68 58.48 51.66 58.53 51.66 51.36 53.67 51.36"/>
          <g>
            <path class="cls-4" d="M59.99,65.45c-.23,.11-.48,.17-.75,.17-.96,0-1.73-.78-1.73-1.73s.78-1.73,1.73-1.73v.86c-.15,.26-.23,.55-.23,.87,0,.69,.4,1.28,.98,1.56Z"/>
            <path class="cls-4" d="M62.48,63.88c0,.96-.78,1.73-1.73,1.73-.27,0-.52-.06-.75-.17-.58-.28-.98-.88-.98-1.56,0-.32,.09-.61,.23-.87,.17-.3,.44-.54,.75-.69,.15-.07,.3-.12,.47-.15,.09-.02,.19-.02,.28-.02,.96,0,1.73,.78,1.73,1.73Z"/>
            <path class="cls-4" d="M60.46,61.01v1.16c-.16,.03-.32,.08-.47,.15-.31,.15-.58,.39-.75,.69v-1.75l-5.57-2.84v-2.44s5.64,3.92,6.26,4.28c.62,.35,.52,.76,.52,.76Z"/>
          </g>
          <g>
            <path class="cls-4" d="M45.35,65.14c-.23,.11-.48,.17-.75,.17-.96,0-1.73-.78-1.73-1.73s.78-1.73,1.73-1.73c.1,0,.19,0,.29,.02v.47c-.32,.32-.52,.75-.52,1.24,0,.69,.4,1.28,.98,1.56Z"/>
            <path class="cls-4" d="M51.66,55.98v2.44l-5.57,2.84v.58c-.27,0-.52,.06-.75,.17-.17,.08-.33,.19-.47,.33v-1.32s-.09-.4,.52-.76c.62-.35,6.26-4.28,6.26-4.28Z"/>
            <path class="cls-4" d="M47.83,63.57c0,.96-.78,1.73-1.73,1.73-.27,0-.52-.06-.75-.17-.58-.28-.98-.88-.98-1.56,0-.48,.2-.92,.52-1.24,.14-.13,.29-.24,.47-.33,.23-.11,.48-.17,.75-.17,.96,0,1.73,.78,1.73,1.73Z"/>
          </g>
          <path class="cls-4" d="M52.77,55.98v2.43l-.18,.57-.96,3.01h-.18c-.37,.04-.67,.84-.69,1.78h-.9l.55-1.58,1.26-3.65,.02-.06v-2.5h1.09Z"/>
          <polygon class="cls-4" points="53.34 55.98 53.34 58.41 53.16 58.98 52.19 62.01 51.63 61.98 52.59 58.98 52.77 58.41 52.77 55.98 53.34 55.98"/>
          <g>
            <path class="cls-4" d="M52.9,65.5s.02,0,.02,0l-1.57-.06c-.35-.01-.61-.72-.6-1.64,0-.01,0-.03,0-.04,.02-.94,.33-1.74,.69-1.79h.18s.56,.03,.56,.03l.84,.03c-.37,.05-.68,.87-.69,1.83,0,.05,0,.1,0,.15,0,.01,0,.03,0,.04,0,.06,0,.11,0,.16,0,.02,0,.05,0,.07,0,0,0,.02,0,.02,0,.01,0,.03,0,.04,0,.03,0,.06,0,.08,0,.02,0,.05,0,.07,0,.01,0,.02,0,.04,0,.05,.02,.1,.03,.14,0,.02,0,.04,.01,.06,0,0,0,0,0,.01,0,0,0,.02,0,.03,0,.01,0,.03,.01,.04,0,.02,.01,.04,.02,.06,0,.02,.01,.04,.02,.06,0,.01,0,.03,.01,.04,0,.02,.02,.05,.03,.07,0,.02,.01,.03,.02,.05,0,.01,0,.02,.01,.03,0,.02,.02,.03,.02,.05,0,0,0,0,0,0,0,0,0,.02,.01,.03,0,0,0,.01,.01,.02,0,0,0,.01,.01,.02,0,0,0,.01,.01,.02,.03,.04,.06,.08,.09,.11,0,0,.01,.01,.02,.01,.03,.02,.05,.04,.08,.06,0,0,.02,0,.03,.01,0,0,0,0,0,0,0,0,.02,0,.02,0,0,0,.02,0,.02,0Z"/>
            <path class="cls-4" d="M53.67,63.68c-.01,.96-.32,1.77-.7,1.83-.02,0-.04,0-.05,0,0,0-.02,0-.02,0,0,0-.02,0-.02,0,0,0-.02,0-.02,0,0,0,0,0,0,0-.01,0-.02,0-.03-.01-.03-.01-.06-.03-.08-.06,0,0-.01,0-.02-.01-.03-.03-.06-.07-.09-.11,0,0,0-.01-.01-.02,0,0,0-.01-.01-.02,0,0,0-.01-.01-.02,0,0-.01-.02-.01-.03,0,0,0,0,0,0,0-.01-.02-.03-.02-.05,0-.01-.01-.02-.01-.03,0-.02-.01-.03-.02-.05,0-.02-.02-.05-.03-.07,0-.01,0-.03-.01-.04,0-.02-.01-.04-.02-.06,0-.02-.01-.04-.02-.06,0-.01,0-.03-.01-.04,0,0,0-.02,0-.03,0,0,0,0,0-.01,0-.02,0-.04-.01-.06,0-.05-.02-.09-.03-.14,0-.01,0-.02,0-.04,0-.02,0-.04,0-.07,0-.03,0-.06,0-.08,0-.01,0-.03,0-.04,0,0,0-.02,0-.02,0-.02,0-.05,0-.07,0-.05,0-.11,0-.16,0-.01,0-.03,0-.04,0-.05,0-.1,0-.15,.01-.96,.32-1.77,.69-1.83,.37-.05,.66,.68,.65,1.64Z"/>
          </g>
          <g>
            <path class="cls-4" d="M50.01,65.51l-1.58-.07c-.35-.01-.61-.72-.6-1.64,.01-.96,.32-1.77,.69-1.83l1.58,.07c-.37,.05-.68,.87-.69,1.83-.01,.91,.25,1.62,.6,1.64Z"/>
            <path class="cls-4" d="M50.75,63.76c-.03,.92-.33,1.69-.69,1.74-.02,0-.04,0-.05,0,0,0-.01,0-.02,0,0,0-.01,0-.02,0,0,0-.01,0-.02,0,0,0-.02,0-.02,0,0,0,0,0,0,0-.01,0-.02,0-.03-.01,0,0-.02,0-.02-.01,0,0-.01,0-.02-.01,0,0,0,0,0,0,0,0,0,0,0,0,0,0,0,0-.01-.01,0,0,0,0-.01-.01,0,0-.02-.02-.03-.03,0,0-.02-.02-.03-.03,0,0,0-.01-.01-.02,0,0-.01-.02-.02-.02,0,0-.01-.02-.02-.03,0,0,0-.01-.01-.02,0,0,0-.01-.01-.02,0,0,0-.01-.01-.02-.02-.03-.04-.07-.06-.11,0-.02-.01-.03-.02-.05,0-.02-.01-.04-.02-.05h0s-.01-.03-.02-.04c-.01-.03-.02-.06-.03-.09,0-.01,0-.02,0-.03,0-.02-.01-.04-.02-.06,0,0,0-.02,0-.03,0-.02-.01-.05-.02-.07,0-.02,0-.04-.01-.06,0-.02,0-.05-.01-.08,0-.01,0-.02,0-.04,0-.02,0-.03,0-.05,0,0,0,0,0,0,0-.02,0-.03,0-.05,0,0,0,0,0,0,0-.02,0-.03,0-.05,0-.02,0-.04,0-.06h0s0-.04,0-.05c0-.06,0-.13-.01-.2,0-.01,0-.03,0-.04,0-.05,0-.1,0-.15,.01-.96,.32-1.77,.69-1.83,.11-.02,.21,.04,.3,.14l-.55,1.58h.89Z"/>
          </g>
        </g>
        <g>
          <rect class="cls-13" x="53.67" y="47.17" width="1.76" height="4.19"/>
          <polygon class="cls-13" points="53.67 47.17 53.67 51.36 50.46 51.36 50.46 49.9 52.87 49.9 52.87 47.17 53.67 47.17"/>
          <polygon class="cls-13" points="53.67 51.36 53.67 58.98 53.16 58.98 53.34 58.41 53.34 55.98 51.68 55.98 51.68 58.48 51.66 58.53 51.66 51.36 53.67 51.36"/>
          <g>
            <path class="cls-13" d="M59.99,65.45c-.23,.11-.48,.17-.75,.17-.96,0-1.73-.78-1.73-1.73s.78-1.73,1.73-1.73v.86c-.15,.26-.23,.55-.23,.87,0,.69,.4,1.28,.98,1.56Z"/>
            <path class="cls-3" d="M62.48,63.88c0,.96-.78,1.73-1.73,1.73-.27,0-.52-.06-.75-.17-.58-.28-.98-.88-.98-1.56,0-.32,.09-.61,.23-.87,.17-.3,.44-.54,.75-.69,.15-.07,.3-.12,.47-.15,.09-.02,.19-.02,.28-.02,.96,0,1.73,.78,1.73,1.73Z"/>
            <path class="cls-13" d="M60.46,61.01v1.16c-.16,.03-.32,.08-.47,.15-.31,.15-.58,.39-.75,.69v-1.75l-5.57-2.84v-2.44s5.64,3.92,6.26,4.28c.62,.35,.52,.76,.52,.76Z"/>
          </g>
          <g>
            <path class="cls-13" d="M45.35,65.14c-.23,.11-.48,.17-.75,.17-.96,0-1.73-.78-1.73-1.73s.78-1.73,1.73-1.73c.1,0,.19,0,.29,.02v.47c-.32,.32-.52,.75-.52,1.24,0,.69,.4,1.28,.98,1.56Z"/>
            <path class="cls-13" d="M51.66,55.98v2.44l-5.57,2.84v.58c-.27,0-.52,.06-.75,.17-.17,.08-.33,.19-.47,.33v-1.32s-.09-.4,.52-.76c.62-.35,6.26-4.28,6.26-4.28Z"/>
            <path class="cls-3" d="M47.83,63.57c0,.96-.78,1.73-1.73,1.73-.27,0-.52-.06-.75-.17-.58-.28-.98-.88-.98-1.56,0-.48,.2-.92,.52-1.24,.14-.13,.29-.24,.47-.33,.23-.11,.48-.17,.75-.17,.96,0,1.73,.78,1.73,1.73Z"/>
          </g>
          <path class="cls-13" d="M52.77,55.98v2.43l-.18,.57-.96,3.01h-.18c-.37,.04-.67,.84-.69,1.78h-.9l.55-1.58,1.26-3.65,.02-.06v-2.5h1.09Z"/>
          <polygon class="cls-13" points="53.34 55.98 53.34 58.41 53.16 58.98 52.19 62.01 51.63 61.98 52.59 58.98 52.77 58.41 52.77 55.98 53.34 55.98"/>
          <g>
            <path class="cls-13" d="M52.9,65.5s.02,0,.02,0l-1.57-.06c-.35-.01-.61-.72-.6-1.64,0-.01,0-.03,0-.04,.02-.94,.33-1.74,.69-1.79h.18s.56,.03,.56,.03l.84,.03c-.37,.05-.68,.87-.69,1.83,0,.05,0,.1,0,.15,0,.01,0,.03,0,.04,0,.06,0,.11,0,.16,0,.02,0,.05,0,.07,0,0,0,.02,0,.02,0,.01,0,.03,0,.04,0,.03,0,.06,0,.08,0,.02,0,.05,0,.07,0,.01,0,.02,0,.04,0,.05,.02,.1,.03,.14,0,.02,0,.04,.01,.06,0,0,0,0,0,.01,0,0,0,.02,0,.03,0,.01,0,.03,.01,.04,0,.02,.01,.04,.02,.06,0,.02,.01,.04,.02,.06,0,.01,0,.03,.01,.04,0,.02,.02,.05,.03,.07,0,.02,.01,.03,.02,.05,0,.01,0,.02,.01,.03,0,.02,.02,.03,.02,.05,0,0,0,0,0,0,0,0,0,.02,.01,.03,0,0,0,.01,.01,.02,0,0,0,.01,.01,.02,0,0,0,.01,.01,.02,.03,.04,.06,.08,.09,.11,0,0,.01,.01,.02,.01,.03,.02,.05,.04,.08,.06,0,0,.02,0,.03,.01,0,0,0,0,0,0,0,0,.02,0,.02,0,0,0,.02,0,.02,0Z"/>
            <path class="cls-13" d="M53.67,63.68c-.01,.96-.32,1.77-.7,1.83-.02,0-.04,0-.05,0,0,0-.02,0-.02,0,0,0-.02,0-.02,0,0,0-.02,0-.02,0,0,0,0,0,0,0-.01,0-.02,0-.03-.01-.03-.01-.06-.03-.08-.06,0,0-.01,0-.02-.01-.03-.03-.06-.07-.09-.11,0,0,0-.01-.01-.02,0,0,0-.01-.01-.02,0,0,0-.01-.01-.02,0,0-.01-.02-.01-.03,0,0,0,0,0,0,0-.01-.02-.03-.02-.05,0-.01-.01-.02-.01-.03,0-.02-.01-.03-.02-.05,0-.02-.02-.05-.03-.07,0-.01,0-.03-.01-.04,0-.02-.01-.04-.02-.06,0-.02-.01-.04-.02-.06,0-.01,0-.03-.01-.04,0,0,0-.02,0-.03,0,0,0,0,0-.01,0-.02,0-.04-.01-.06,0-.05-.02-.09-.03-.14,0-.01,0-.02,0-.04,0-.02,0-.04,0-.07,0-.03,0-.06,0-.08,0-.01,0-.03,0-.04,0,0,0-.02,0-.02,0-.02,0-.05,0-.07,0-.05,0-.11,0-.16,0-.01,0-.03,0-.04,0-.05,0-.1,0-.15,.01-.96,.32-1.77,.69-1.83,.37-.05,.66,.68,.65,1.64Z"/>
          </g>
          <g>
            <path class="cls-13" d="M50.01,65.51l-1.58-.07c-.35-.01-.61-.72-.6-1.64,.01-.96,.32-1.77,.69-1.83l1.58,.07c-.37,.05-.68,.87-.69,1.83-.01,.91,.25,1.62,.6,1.64Z"/>
            <path class="cls-13" d="M50.75,63.76c-.03,.92-.33,1.69-.69,1.74-.02,0-.04,0-.05,0,0,0-.01,0-.02,0,0,0-.01,0-.02,0,0,0-.01,0-.02,0,0,0-.02,0-.02,0,0,0,0,0,0,0-.01,0-.02,0-.03-.01,0,0-.02,0-.02-.01,0,0-.01,0-.02-.01,0,0,0,0,0,0,0,0,0,0,0,0,0,0,0,0-.01-.01,0,0,0,0-.01-.01,0,0-.02-.02-.03-.03,0,0-.02-.02-.03-.03,0,0,0-.01-.01-.02,0,0-.01-.02-.02-.02,0,0-.01-.02-.02-.03,0,0,0-.01-.01-.02,0,0,0-.01-.01-.02,0,0,0-.01-.01-.02-.02-.03-.04-.07-.06-.11,0-.02-.01-.03-.02-.05,0-.02-.01-.04-.02-.05h0s-.01-.03-.02-.04c-.01-.03-.02-.06-.03-.09,0-.01,0-.02,0-.03,0-.02-.01-.04-.02-.06,0,0,0-.02,0-.03,0-.02-.01-.05-.02-.07,0-.02,0-.04-.01-.06,0-.02,0-.05-.01-.08,0-.01,0-.02,0-.04,0-.02,0-.03,0-.05,0,0,0,0,0,0,0-.02,0-.03,0-.05,0,0,0,0,0,0,0-.02,0-.03,0-.05,0-.02,0-.04,0-.06h0s0-.04,0-.05c0-.06,0-.13-.01-.2,0-.01,0-.03,0-.04,0-.05,0-.1,0-.15,.01-.96,.32-1.77,.69-1.83,.11-.02,.21,.04,.3,.14l-.55,1.58h.89Z"/>
          </g>
        </g>
        <path class="cls-30" d="M58.36,49.49c-.6,.31-4.35,.44-4.35,.44,0,0-2.9,.02-5.56-.1-1.72-.07-3.34-.21-3.99-.44-1.65-.59-1.16-2.93-.39-3.55,.77-.63,2.04-.08,5.25,.26,3.21,.34,8.3-.12,8.79-.22,.22-.04,.52-.05,.81,.05,.37,.13,.71,.44,.82,1.1,.18,1.17-.78,2.16-1.37,2.47Z"/>
        <path class="cls-1" d="M58.92,45.92c-.53,.36-1.58,.86-3.29,.87-2.68,.02-5.88-.12-6.87-.33-.99-.21-2.15,1.11-1.59,2.45,.19,.45,.62,.74,1.28,.91-1.72-.07-3.34-.21-3.99-.44-1.65-.59-1.16-2.93-.39-3.55,.77-.63,2.04-.08,5.25,.26,3.21,.34,8.3-.12,8.79-.22,.22-.04,.52-.05,.81,.05Z"/>
      </g>
      <g>
        <path class="cls-21" d="M53.74,21.79l-4.13,4.23s-1.06-1.79-1.74-3.36c-.21-.49-.38-.95-.47-1.34-.39-1.63,.99-2.95,.99-2.95,0,0,7.16-.35,7.28,0s-1.94,3.43-1.94,3.43Z"/>
        <path class="cls-19" d="M53.74,21.79l-4.13,4.23s-1.06-1.79-1.74-3.36c.12-1.78,.94-3.52,.94-3.52l4.4,.19,2.46-.97c.13,.35-1.94,3.43-1.94,3.43Z"/>
        <path class="cls-34" d="M52.46,62.06s-1.02,1.69-1.6,2.66c-.58,.96-1.44,1.62-1.98,1.48-.54-.14-.97-.88-.54-1.7,.43-.82,1.38-2.5,1.52-2.63,.14-.12,1.75-.92,1.75-.92,0,0,.91,.8,.87,1.12Z"/>
        <path class="cls-34" d="M51.65,62.72s.24,.09,.21,.51c-.03,.42-.29,2.71-.17,2.94,.12,.23,.82,.84,1.34-.24,.53-1.09,1.56-3.02,1.67-3.43,.11-.4-.2-1.31-.59-1.47-.39-.17-1.52-.44-1.52-.44l-.94,2.13Z"/>
        <path class="cls-19" d="M54.7,42.62s-.15,.19-.4,.51c0,0-.01,.01-.02,.02-.17,.22-.39,.49-.64,.8-.24,.3-.51,.64-.81,1.01-.21,.26-.44,.54-.67,.82-.12,.15-.25,.3-.38,.46-.15,.18-.29,.35-.44,.53-1.01,1.21-2.07,2.43-2.91,3.29-2.31,2.35-5.11,4.66-6.68,3.18-1.57-1.48,.79-5.73,1.92-7.57,.22-.36,.58-.89,1.02-1.52,.05-.07,.1-.14,.14-.2,.19-.27,.39-.55,.6-.84,.24-.33,.49-.67,.74-1.02,.2-.28,.41-.56,.62-.84,.46-.62,.93-1.23,1.36-1.8,.09-.11,.17-.22,.25-.33,.88-1.14,1.59-2.02,1.81-2.21,.56-.48,2.02-.98,3.4,.09,.22,.17,.43,.37,.64,.62,.48,.58,.7,1.28,.79,1.97,.18,1.54-.34,3.03-.34,3.03Z"/>
        <path class="cls-19" d="M52.21,60.43l-2.04,2.03s-1.87-1.71-3.87-3.74c-1.82-1.83-3.75-3.92-4.51-5.23-1.61-2.75,.67-4.72,1.32-4.85,2.14-.42,4.28,5.08,5.27,6.36,.06,.08,.13,.17,.21,.27,1.13,1.51,3.62,5.16,3.62,5.16Z"/>
        <path class="cls-34" d="M52.21,60.4l-2.04,2.03s-1.87-1.71-3.87-3.74l2.3-3.45c1.13,1.51,3.62,5.16,3.62,5.16Z"/>
        <path class="cls-19" d="M60.44,53.08c-1.62,1.44-4.18-1.07-6.26-3.61-.6-.73-1.32-1.71-2.04-2.72-.12-.17-.24-.34-.36-.51-.11-.16-.22-.32-.33-.48-.19-.28-.38-.55-.56-.82-.24-.35-.47-.69-.68-1.01-.12-.18-.24-.36-.35-.53-.07-.1-.13-.2-.2-.3-.63-.95-1.04-1.59-1.04-1.59,0,0-.24-.92-.22-2.06,0-.11,0-.22,.01-.34,.04-.6,.15-1.24,.41-1.83,.14-.32,.33-.63,.57-.9,1.62-1.82,3.38-1.13,3.97-.52,.27,.28,1.33,1.9,2.47,3.74,.24,.39,.49,.8,.74,1.2,.17,.28,.34,.56,.51,.84,.21,.35,.42,.7,.62,1.03,.09,.16,.19,.32,.27,.47,.08,.13,.15,.26,.22,.38,.4,.69,.72,1.28,.92,1.67,.97,1.95,2.96,6.44,1.34,7.88Z"/>
        <path class="cls-34" d="M57.96,43.15c-1.24,0-2.55,0-3.68,0-.82,0-1.54,.02-2.06,.04-.63,.02-1.46,.1-2.37,.21-1.78,.21-3.85,.53-5.16,.74,.05-.07,.1-.14,.14-.2,.19-.27,.39-.55,.6-.84,.24-.33,.49-.67,.74-1.02,.2-.28,.41-.56,.62-.84,.46-.62,.93-1.23,1.36-1.8h.24s6.65,.15,6.65,.15l.78,.02c.24,.39,.49,.8,.74,1.2,.17,.28,.34,.56,.51,.84,.21,.35,.42,.7,.62,1.03,.09,.16,.19,.32,.27,.47Z"/>
        <path class="cls-19" d="M59.4,48.44c.63,.15,2.74,2.25,1.08,5.05-1.67,2.8-7.6,9.18-7.6,9.18l-2.28-2.09s2.43-4.41,3.44-5.71c1.01-1.29,3.31-6.92,5.36-6.42Z"/>
        <path class="cls-14" d="M59.37,38.42c-.44,.67-2.25,2.1-2.58,2.35v.05s-11.35,0-11.35,0c0,0-2.15-1.66-2.63-2.39-.48-.73-.64-.96-.33-2.55,.03-.16,.07-.38,.12-.64,0,0,0,0,0-.01,0,0,0,0,0,0,.28-1.45,.83-4.2,1.23-6.08,.24-1.1,.43-1.9,.49-1.97,.09-.11,.56-.38,1-.62,.45-.24,.87-.46,.87-.46l1.23-.02h.06s.02,0,.02,0l1.89-.08v.04s.23,0,.23,0l1.45-.03h0s.05,0,.05,0h.05s0,0,0,0l1.06,.02h.22s0-.07,0-.07l2.06,.08v.03s1.47,.03,1.47,.03c0,0,0,0,0,0,0,0,0,0,.01,0h.04s0,.02,0,.02c.29,.15,1.66,.86,1.82,1.06,.02,.02,.04,.09,.07,.21,.25,.88,.94,4.29,1.4,6.6,.16,.83,.3,1.52,.37,1.9,.3,1.6,.15,1.82-.33,2.55Z"/>
        <path class="cls-18" d="M49.61,26.02v.7s-2.87-.32-3.89,.21c-.64,.33-1.4,1.43-1.89,2.22,.24-1.1,.43-1.9,.49-1.97,.09-.11,.56-.38,1-.62,.45-.24,.87-.46,.87-.46l1.23-.02h.06s.02,0,.02,0l1.89-.08v.04s.23,0,.23,0Z"/>
        <path class="cls-18" d="M57.93,27.37c-.63-.27-1.35-.48-1.91-.58-1.04-.19-3.8,0-3.8,0v-.78h.22s0-.07,0-.07l2.06,.08v.03s1.47,.03,1.47,.03c0,0,0,0,0,0,0,0,0,0,.01,0h.04s0,.02,0,.02c.29,.15,1.66,.86,1.82,1.06,.02,.02,.04,.09,.07,.21Z"/>
        <path class="cls-12" d="M59.37,38.42c-.44,.67-2.25,2.1-2.58,2.35v.05s-1.96,0-1.96,0v-2.42s1.86-2.09,1.81-1.36c-.06,.73-.1,2.19,.43,2.42,.53,.23,1.76-.99,2.18-2.07,.19-.5,.17-1.97,.09-3.42,.16,.83,.3,1.52,.37,1.9,.3,1.6,.15,1.82-.33,2.55Z"/>
        <path class="cls-12" d="M47.04,39.69v1.13h-1.61s-2.15-1.66-2.63-2.39c-.48-.73-.64-.96-.33-2.55,.03-.16,.07-.38,.12-.64-.02,.18-.18,1.52,.61,2.45,.43,.51,1.45,1.03,2.32,1.41,.03,.01,.06,.02,.08,.04,.78,.33,1.44,.55,1.44,.55Z"/>
        <path class="cls-12" d="M56.61,31.01l.13,2.89-.54,1.35-5.13,.35-5.13-.35-.54-1.35,.13-2.89s-1,3.16-.96,3.48c.05,.32,.82,2.31,.82,2.31h11.32s.77-1.99,.82-2.31c.05-.32-.96-3.48-.96-3.48Z"/>
        <path class="cls-6" d="M52.85,24.53c-.02,.73-.13,2.01-.55,2.84-.61,1.21-1.33,1.25-1.39,1.25s-.77-.04-1.39-1.25c-.34-.68-.47-1.66-.52-2.39,.03-.03-.03-1.24,0-1.26,.25-.16,2.3,.69,3.02,.66,.28,0,.57,.05,.83,.15Z"/>
        <g>
          <polygon class="cls-11" points="57.38 34.01 57.36 34.14 56.41 39.93 56.39 40.06 45.78 40.06 45.78 40.06 45.74 39.8 44.84 34.3 44.81 34.14 44.79 34.01 57.38 34.01"/>
          <rect class="cls-3" x="45.78" y="40.06" width="10.59" height=".54"/>
          <polygon class="cls-4" points="44.79 34.01 45.1 33.82 57.09 33.82 57.38 34.01 44.79 34.01"/>
          <path class="cls-3" d="M57.36,34.14l-.95,5.78-10.63,.13-.04-.25h9.37s.48-.4,.48-.51,.07-3.56-.86-3.88c-.82-.28-8.13-.96-9.89-1.12l-.03-.16h12.55Z"/>
        </g>
        <path class="cls-12" d="M48.82,27.3s.64,1.9,2.2,1.9,1.88-1.84,1.88-1.84c0,0-.76,1.87-1.92,1.64-1.16-.23-1.85-1.04-2.17-1.7Z"/>
        <path class="cls-26" d="M54.48,24.36c-.48,1.41-1.87,2.14-1.87,2.14,0,0-1.45-.51-2.01-.93-.56-.42-1.6-1.85-1.6-1.85,0,0,.11-.4,.29-.94h0c.36-1.1,1.01-2.77,1.57-2.81,.83-.06,2.96,.72,2.96,.72,0,0,.07,.15,.18,.39,.3,.71,.84,2.23,.48,3.28Z"/>
        <path class="cls-26" d="M49.61,22.91s-1.3-.66-1.56,.14c-.26,.8,1.56,.77,1.56,.77v-.91Z"/>
        <path class="cls-6" d="M54,21.08c-.54-.25-2.33-1.05-2.92-.65-.68,.46-1.77,2.32-1.79,2.35,.36-1.1,1.01-2.77,1.57-2.81,.83-.06,2.96,.72,2.96,.72,0,0,.07,.15,.18,.39Z"/>
      </g>
      <g>
        <g>
          <rect class="cls-4" x="19.85" y="47.46" width="1.71" height="4.09"/>
          <polygon class="cls-4" points="21.56 47.46 21.56 51.54 24.69 51.54 24.69 50.12 22.34 50.12 22.34 47.46 21.56 47.46"/>
          <polygon class="cls-4" points="21.56 51.54 21.56 58.97 22.07 58.97 21.89 58.41 21.89 56.04 23.5 56.04 23.5 58.48 23.52 58.53 23.52 51.54 21.56 51.54"/>
          <g>
            <path class="cls-4" d="M15.4,65.27c.22,.11,.47,.17,.73,.17,.93,0,1.69-.76,1.69-1.69s-.76-1.69-1.69-1.69v.84c.14,.25,.23,.54,.23,.85,0,.67-.39,1.25-.96,1.52Z"/>
            <path class="cls-4" d="M12.98,63.74c0,.93,.76,1.69,1.69,1.69,.26,0,.51-.06,.73-.17,.57-.27,.96-.85,.96-1.52,0-.31-.08-.6-.23-.85-.17-.29-.43-.53-.73-.68-.14-.07-.29-.12-.45-.14-.09-.02-.18-.02-.28-.02-.93,0-1.69,.76-1.69,1.69Z"/>
            <path class="cls-4" d="M14.95,60.95v1.13c.16,.03,.31,.07,.45,.14,.31,.15,.56,.38,.73,.68v-1.71l5.43-2.77v-2.38s-5.5,3.82-6.1,4.17c-.6,.35-.51,.74-.51,.74Z"/>
          </g>
          <g>
            <path class="cls-4" d="M29.68,64.97c.22,.11,.47,.17,.73,.17,.93,0,1.69-.76,1.69-1.69s-.76-1.69-1.69-1.69c-.09,0-.19,0-.28,.02v.46c.31,.31,.51,.73,.51,1.21,0,.67-.39,1.25-.96,1.52Z"/>
            <path class="cls-4" d="M23.52,56.04v2.38l5.43,2.77v.56c.26,0,.51,.06,.73,.17,.17,.08,.32,.19,.45,.32v-1.29s.09-.39-.51-.74c-.6-.35-6.1-4.17-6.1-4.17Z"/>
            <path class="cls-4" d="M27.26,63.44c0,.93,.76,1.69,1.69,1.69,.26,0,.51-.06,.73-.17,.57-.27,.96-.85,.96-1.52,0-.47-.19-.9-.51-1.21-.13-.13-.28-.24-.45-.32-.22-.11-.47-.17-.73-.17-.93,0-1.69,.76-1.69,1.69Z"/>
          </g>
          <path class="cls-4" d="M22.44,56.04v2.37l.18,.56,.94,2.93h.18c.36,.04,.66,.82,.68,1.73h.87l-.53-1.54-1.23-3.56-.02-.06v-2.43h-1.06Z"/>
          <polygon class="cls-4" points="21.89 56.04 21.89 58.41 22.07 58.97 23.01 61.92 23.55 61.9 22.62 58.97 22.44 58.41 22.44 56.04 21.89 56.04"/>
          <g>
            <path class="cls-4" d="M22.31,65.33s-.02,0-.02,0l1.53-.06c.34-.01,.6-.71,.58-1.6,0-.01,0-.03,0-.04-.02-.92-.32-1.69-.68-1.74h-.18s-.55,.03-.55,.03l-.82,.03c.36,.05,.66,.85,.68,1.78,0,.05,0,.1,0,.14,0,.01,0,.03,0,.04,0,.05,0,.11,0,.16,0,.02,0,.05,0,.07,0,0,0,.01,0,.02,0,.01,0,.03,0,.04,0,.03,0,.06,0,.08,0,.02,0,.04,0,.07,0,.01,0,.02,0,.03,0,.05-.02,.1-.03,.14,0,.02,0,.04-.01,.06,0,0,0,0,0,.01,0,0,0,.02,0,.02,0,.01,0,.03-.01,.04,0,.02-.01,.04-.02,.06,0,.02-.01,.04-.02,.06,0,.01,0,.03-.01,.04,0,.02-.02,.05-.03,.07,0,.02-.01,.03-.02,.05,0,.01,0,.02-.01,.03,0,.02-.01,.03-.02,.04,0,0,0,0,0,0,0,0,0,.02-.01,.03,0,0,0,.01-.01,.02,0,0,0,.01-.01,.02,0,0,0,.01-.01,.02-.03,.04-.06,.08-.09,.11,0,0-.01,0-.02,.01-.03,.02-.05,.04-.08,.06,0,0-.02,0-.03,.01,0,0,0,0,0,0,0,0-.02,0-.02,0,0,0-.01,0-.02,0Z"/>
            <path class="cls-4" d="M21.56,63.55c.01,.93,.32,1.73,.68,1.78,.02,0,.04,0,.05,0,0,0,.02,0,.02,0,0,0,.02,0,.02,0,0,0,.02,0,.02,0,0,0,0,0,0,0,.01,0,.02,0,.03-.01,.03-.01,.05-.03,.08-.06,0,0,.01,0,.02-.01,.03-.03,.06-.06,.09-.11,0,0,0-.01,.01-.02,0,0,0-.01,.01-.02,0,0,0-.01,.01-.02,0,0,0-.02,.01-.03,0,0,0,0,0,0,0-.01,.02-.03,.02-.04,0-.01,0-.02,.01-.03,0-.02,.01-.03,.02-.05,0-.02,.02-.05,.03-.07,0-.01,0-.03,.01-.04,0-.02,.01-.04,.02-.06,0-.02,.01-.04,.02-.06,0-.01,0-.03,.01-.04,0,0,0-.02,0-.02,0,0,0,0,0-.01,0-.02,0-.04,.01-.06,0-.05,.02-.09,.03-.14,0-.01,0-.02,0-.03,0-.02,0-.04,0-.07,0-.03,0-.05,0-.08,0-.01,0-.03,0-.04,0,0,0-.01,0-.02,0-.02,0-.05,0-.07,0-.05,0-.11,0-.16,0-.01,0-.03,0-.04,0-.05,0-.09,0-.14-.01-.93-.32-1.73-.68-1.78-.36-.05-.64,.66-.63,1.59Z"/>
          </g>
          <g>
            <path class="cls-4" d="M25.13,65.33l1.54-.06c.34-.01,.6-.71,.58-1.6-.01-.93-.32-1.73-.68-1.78l-1.54,.06c.36,.05,.66,.85,.68,1.78,.01,.89-.25,1.58-.58,1.6Z"/>
            <path class="cls-4" d="M24.41,63.63c.03,.89,.33,1.65,.68,1.7,.02,0,.04,0,.05,0,0,0,.01,0,.02,0,0,0,.01,0,.02,0,0,0,.01,0,.02,0,0,0,.02,0,.02,0,0,0,0,0,0,0,.01,0,.02,0,.03-.01,0,0,.02,0,.02-.01,0,0,.01,0,.02-.01,0,0,0,0,0,0,0,0,0,0,0,0,0,0,0,0,.01-.01,0,0,0,0,.01-.01,0,0,.02-.02,.03-.03,0,0,.02-.02,.03-.03,0,0,0-.01,.01-.02,0,0,.01-.02,.02-.02,0,0,.01-.02,.02-.03,0,0,0-.01,.01-.02,0,0,0-.01,.01-.02,0,0,0-.01,.01-.02,.02-.03,.04-.07,.06-.11,0-.02,.01-.03,.02-.05,0-.02,.01-.03,.02-.05h0s0-.03,.01-.04c0-.03,.02-.06,.03-.09,0-.01,0-.02,0-.03,0-.02,.01-.04,.02-.06,0,0,0-.02,0-.03,0-.02,.01-.04,.01-.07,0-.02,0-.04,.01-.06,0-.02,0-.05,.01-.07,0-.01,0-.02,0-.03,0-.02,0-.03,0-.05,0,0,0,0,0,0,0-.01,0-.03,0-.04,0,0,0,0,0,0,0-.01,0-.03,0-.05,0-.02,0-.04,0-.06h0s0-.03,0-.05c0-.06,0-.13,0-.19,0-.01,0-.03,0-.04,0-.05,0-.09,0-.14-.01-.93-.32-1.73-.68-1.78-.11-.01-.2,.04-.29,.14l.53,1.54h-.87Z"/>
          </g>
        </g>
        <polygon class="cls-30" points="19.7 34.38 19.59 37.57 20.39 39.66 19.59 39.66 18.83 37.57 18.83 34.38 19.7 34.38"/>
        <rect class="cls-3" x="16.33" y="34.38" width="1.71" height="3.19"/>
        <rect class="cls-3" x="18.04" y="34.38" width=".78" height="3.19"/>
        <polygon class="cls-13" points="16.33 37.57 19.85 47.46 21.56 47.46 18.04 37.57 16.33 37.57"/>
        <polygon class="cls-3" points="18.04 37.57 21.56 47.46 22.34 47.46 18.83 37.57 18.04 37.57"/>
        <g>
          <rect class="cls-13" x="19.85" y="47.46" width="1.71" height="4.09"/>
          <polygon class="cls-3" points="21.56 47.46 21.56 51.54 24.69 51.54 24.69 50.12 22.34 50.12 22.34 47.46 21.56 47.46"/>
          <polygon class="cls-13" points="21.56 51.54 21.56 58.97 22.07 58.97 21.89 58.41 21.89 56.04 23.5 56.04 23.5 58.48 23.52 58.53 23.52 51.54 21.56 51.54"/>
          <g>
            <path class="cls-13" d="M15.4,65.27c.22,.11,.47,.17,.73,.17,.93,0,1.69-.76,1.69-1.69s-.76-1.69-1.69-1.69v.84c.14,.25,.23,.54,.23,.85,0,.67-.39,1.25-.96,1.52Z"/>
            <path class="cls-3" d="M12.98,63.74c0,.93,.76,1.69,1.69,1.69,.26,0,.51-.06,.73-.17,.57-.27,.96-.85,.96-1.52,0-.31-.08-.6-.23-.85-.17-.29-.43-.53-.73-.68-.14-.07-.29-.12-.45-.14-.09-.02-.18-.02-.28-.02-.93,0-1.69,.76-1.69,1.69Z"/>
            <path class="cls-13" d="M14.95,60.95v1.13c.16,.03,.31,.07,.45,.14,.31,.15,.56,.38,.73,.68v-1.71l5.43-2.77v-2.38s-5.5,3.82-6.1,4.17c-.6,.35-.51,.74-.51,.74Z"/>
          </g>
          <g>
            <path class="cls-13" d="M29.68,64.97c.22,.11,.47,.17,.73,.17,.93,0,1.69-.76,1.69-1.69s-.76-1.69-1.69-1.69c-.09,0-.19,0-.28,.02v.46c.31,.31,.51,.73,.51,1.21,0,.67-.39,1.25-.96,1.52Z"/>
            <path class="cls-13" d="M23.52,56.04v2.38l5.43,2.77v.56c.26,0,.51,.06,.73,.17,.17,.08,.32,.19,.45,.32v-1.29s.09-.39-.51-.74c-.6-.35-6.1-4.17-6.1-4.17Z"/>
            <path class="cls-3" d="M27.26,63.44c0,.93,.76,1.69,1.69,1.69,.26,0,.51-.06,.73-.17,.57-.27,.96-.85,.96-1.52,0-.47-.19-.9-.51-1.21-.13-.13-.28-.24-.45-.32-.22-.11-.47-.17-.73-.17-.93,0-1.69,.76-1.69,1.69Z"/>
          </g>
          <path class="cls-3" d="M22.44,56.04v2.37l.18,.56,.94,2.93h.18c.36,.04,.66,.82,.68,1.73h.87l-.53-1.54-1.23-3.56-.02-.06v-2.43h-1.06Z"/>
          <polygon class="cls-13" points="21.89 56.04 21.89 58.41 22.07 58.97 23.01 61.92 23.55 61.9 22.62 58.97 22.44 58.41 22.44 56.04 21.89 56.04"/>
          <g>
            <path class="cls-3" d="M22.31,65.33s-.02,0-.02,0l1.53-.06c.34-.01,.6-.71,.58-1.6,0-.01,0-.03,0-.04-.02-.92-.32-1.69-.68-1.74h-.18s-.55,.03-.55,.03l-.82,.03c.36,.05,.66,.85,.68,1.78,0,.05,0,.1,0,.14,0,.01,0,.03,0,.04,0,.05,0,.11,0,.16,0,.02,0,.05,0,.07,0,0,0,.01,0,.02,0,.01,0,.03,0,.04,0,.03,0,.06,0,.08,0,.02,0,.04,0,.07,0,.01,0,.02,0,.03,0,.05-.02,.1-.03,.14,0,.02,0,.04-.01,.06,0,0,0,0,0,.01,0,0,0,.02,0,.02,0,.01,0,.03-.01,.04,0,.02-.01,.04-.02,.06,0,.02-.01,.04-.02,.06,0,.01,0,.03-.01,.04,0,.02-.02,.05-.03,.07,0,.02-.01,.03-.02,.05,0,.01,0,.02-.01,.03,0,.02-.01,.03-.02,.04,0,0,0,0,0,0,0,0,0,.02-.01,.03,0,0,0,.01-.01,.02,0,0,0,.01-.01,.02,0,0,0,.01-.01,.02-.03,.04-.06,.08-.09,.11,0,0-.01,0-.02,.01-.03,.02-.05,.04-.08,.06,0,0-.02,0-.03,.01,0,0,0,0,0,0,0,0-.02,0-.02,0,0,0-.01,0-.02,0Z"/>
            <path class="cls-13" d="M21.56,63.55c.01,.93,.32,1.73,.68,1.78,.02,0,.04,0,.05,0,0,0,.02,0,.02,0,0,0,.02,0,.02,0,0,0,.02,0,.02,0,0,0,0,0,0,0,.01,0,.02,0,.03-.01,.03-.01,.05-.03,.08-.06,0,0,.01,0,.02-.01,.03-.03,.06-.06,.09-.11,0,0,0-.01,.01-.02,0,0,0-.01,.01-.02,0,0,0-.01,.01-.02,0,0,0-.02,.01-.03,0,0,0,0,0,0,0-.01,.02-.03,.02-.04,0-.01,0-.02,.01-.03,0-.02,.01-.03,.02-.05,0-.02,.02-.05,.03-.07,0-.01,0-.03,.01-.04,0-.02,.01-.04,.02-.06,0-.02,.01-.04,.02-.06,0-.01,0-.03,.01-.04,0,0,0-.02,0-.02,0,0,0,0,0-.01,0-.02,0-.04,.01-.06,0-.05,.02-.09,.03-.14,0-.01,0-.02,0-.03,0-.02,0-.04,0-.07,0-.03,0-.05,0-.08,0-.01,0-.03,0-.04,0,0,0-.01,0-.02,0-.02,0-.05,0-.07,0-.05,0-.11,0-.16,0-.01,0-.03,0-.04,0-.05,0-.09,0-.14-.01-.93-.32-1.73-.68-1.78-.36-.05-.64,.66-.63,1.59Z"/>
          </g>
          <g>
            <path class="cls-13" d="M25.13,65.33l1.54-.06c.34-.01,.6-.71,.58-1.6-.01-.93-.32-1.73-.68-1.78l-1.54,.06c.36,.05,.66,.85,.68,1.78,.01,.89-.25,1.58-.58,1.6Z"/>
            <path class="cls-13" d="M24.41,63.63c.03,.89,.33,1.65,.68,1.7,.02,0,.04,0,.05,0,0,0,.01,0,.02,0,0,0,.01,0,.02,0,0,0,.01,0,.02,0,0,0,.02,0,.02,0,0,0,0,0,0,0,.01,0,.02,0,.03-.01,0,0,.02,0,.02-.01,0,0,.01,0,.02-.01,0,0,0,0,0,0,0,0,0,0,0,0,0,0,0,0,.01-.01,0,0,0,0,.01-.01,0,0,.02-.02,.03-.03,0,0,.02-.02,.03-.03,0,0,0-.01,.01-.02,0,0,.01-.02,.02-.02,0,0,.01-.02,.02-.03,0,0,0-.01,.01-.02,0,0,0-.01,.01-.02,0,0,0-.01,.01-.02,.02-.03,.04-.07,.06-.11,0-.02,.01-.03,.02-.05,0-.02,.01-.03,.02-.05h0s0-.03,.01-.04c0-.03,.02-.06,.03-.09,0-.01,0-.02,0-.03,0-.02,.01-.04,.02-.06,0,0,0-.02,0-.03,0-.02,.01-.04,.01-.07,0-.02,0-.04,.01-.06,0-.02,0-.05,.01-.07,0-.01,0-.02,0-.03,0-.02,0-.03,0-.05,0,0,0,0,0,0,0-.01,0-.03,0-.04,0,0,0,0,0,0,0-.01,0-.03,0-.05,0-.02,0-.04,0-.06h0s0-.03,0-.05c0-.06,0-.13,0-.19,0-.01,0-.03,0-.04,0-.05,0-.09,0-.14-.01-.93-.32-1.73-.68-1.78-.11-.01-.2,.04-.29,.14l.53,1.54h-.87Z"/>
          </g>
        </g>
        <path class="cls-1" d="M16.29,50.4c.58,.3,4.24,.43,4.24,.43,0,0,2.83,.02,5.42-.09,1.68-.07,3.26-.2,3.89-.43,1.61-.57,1.13-2.86,.38-3.46-.75-.61-1.98-.08-5.12,.25-3.13,.33-8.09-.12-8.57-.22-.21-.04-.5-.05-.79,.05-.36,.13-.69,.43-.79,1.07-.18,1.14,.76,2.1,1.34,2.4Z"/>
        <path class="cls-30" d="M15.74,46.92c.52,.35,1.54,.84,3.21,.85,2.61,.02,5.73-.11,6.69-.32,.97-.2,2.1,1.08,1.55,2.39-.18,.44-.61,.72-1.25,.89,1.68-.07,3.26-.2,3.89-.43,1.61-.57,1.13-2.86,.38-3.46-.75-.61-1.98-.08-5.12,.25-3.13,.33-8.09-.12-8.57-.22-.21-.04-.5-.05-.79,.05Z"/>
        <path class="cls-30" d="M15.23,39.66h8.52c.67,0,1.14-.55,1.04-1.22l-.74-5.13c-.1-.67-.72-1.22-1.39-1.22H14.14c-.67,0-1.14,.55-1.04,1.22l.74,5.13c.1,.67,.72,1.22,1.39,1.22Z"/>
        <path class="cls-1" d="M16.86,39.66h7.35c.67,0,1.14-.55,1.04-1.22l-.74-5.13c-.1-.67-.72-1.22-1.39-1.22h-7.35c-.67,0-1.14,.55-1.04,1.22l.74,5.13c.1,.67,.72,1.22,1.39,1.22Z"/>
      </g>
      <g>
        <path class="cls-6" d="M31.33,48.59l-4.87-1.45s-.57-.74,0-1.91c.57-1.17,2.85-.94,4.02-.41,1.17,.53,3.05,1.8,3.2,2.04,.15,.24-2.35,1.72-2.35,1.72Z"/>
        <path class="cls-5" d="M27.34,30.29c-.51,0-1.66,.64-1.34,2.44,.32,1.8,1.64,5.67,1.92,6.09,.27,.42,1.01,.4,1.31-.04,.3-.45,.06-2.49-.02-3.59-.08-1.1-.76-4.89-1.87-4.89Z"/>
        <path class="cls-16" d="M30.46,25.84c-.06,.26-.32,.96-.6,1.68-.37,.95-.78,1.92-.78,1.92,0,0-.43,.64-.95,.96,0,0,.3-.61,.58-1.37,.28-.76,0-2.85,0-2.85l-2.76,1.65-.62,2.27-.96-.59-.57-.35s-.52-.07-.49-.97c0-.16,0-.29,.01-.4v-.5s-.27-.37-.26-1.02c0-.65,.12-1.16,.12-1.16,0,0-.84-1.6-.89-2.05,0-.06,.01-.14,.06-.23,.25-.51,1.24-1.34,1.56-1.47,.37-.16,1.6,.05,2.03,.43,.43,.38,.75,1.13,.75,1.13,0,0,2.77,.98,2.93,1.18,0,0,.97,1.12,.84,1.72Z"/>
        <path class="cls-9" d="M28.64,25.17l-2.67,2.67-1.58,1.68-.57-.35s-.52-.07-.49-.97c0-.16,0-.29,.01-.4,.12-.14,.22-.29,.23-.41,.02-.3,1.27-.97,1.27-.97,0,0,.92-2,2.22-2.31,1.3-.3,1.59,1.05,1.59,1.05Z"/>
        <polygon class="cls-26" points="26.52 31.11 26.37 32.68 24.02 29.65 24.31 28.03 24.46 27.15 26.42 28.38 26.35 29.75 26.36 29.83 26.52 31.11"/>
        <path class="cls-6" d="M26.35,29.75v.08s-.03,.02-.04,.03c-.11,.03-1.2-.51-1.49-.87-.15-.19-.36-.6-.51-.94l.16-.88,1.96,1.23-.07,1.37Z"/>
        <path class="cls-26" d="M28.8,26.61c-.04,.14-.12,.35-.21,.58,0,0,0,0,0,0-.23,.6-.57,1.36-.72,1.53-.2,.23-1.48,.97-1.58,.98-.1,.02-.99-.54-1.2-.88-.19-.3-.45-1.14-.51-1.32,0,0,0,0,0,0,0-.01,0-.02,0-.03,0,0,0,0,0,0-.45,.06-.84-.33-.91-.57-.05-.17,.05-.7,.29-.93h0c.09-.09,.2-.13,.33-.1,.47,.14,.64,.78,.64,.78,0,0,.89-1.14,1.2-1.44,.3-.29,1.3-1.01,1.93-.8,.63,.21,.91,1.67,.76,2.19Z"/>
        <path class="cls-29" d="M33.73,46.86c-.21-.18-1.6-.14-2.62,.28-.63,.26-1.72,1.07-2.46,1.65-.46,.36-.79,.63-.79,.63,0,0-2.76-.8-4.3-1.16-1.54-.35-3.8-1.51-3.88-3-.02-.37,.05-.9,.18-1.51,1.09-.59,2.37-.84,3.58-.93,1.6-.12,3.21,0,4.8,.2,.07,0,.15,.02,.22,.03,.05,.08,.1,.14,.15,.17,.61,.35,3.46,2.01,4.5,2.71,1.05,.69,.62,.92,.62,.92Z"/>
        <path class="cls-34" d="M28.8,48.25l-.16,.54c-.46,.36-.79,.63-.79,.63,0,0-2.76-.8-4.3-1.16-1.54-.35-3.8-1.51-3.88-3-.02-.37,.05-.9,.18-1.51,1.09-.59,2.37-.84,3.58-.93,1.6-.12,3.21,0,4.8,.2,.07,0,.15,.02,.22,.03,.05,.08,.1,.14,.15,.17,0,0-3.06-.42-4.9,0-1.85,.42-2.5,1.38-2.06,2.3,.43,.91,3.51,1.95,4.99,2.33,1.49,.38,2.17,.4,2.17,.4Z"/>
        <path class="cls-28" d="M27.56,38.54c-.14,.4,0,1.49,.24,2.52,.19,.82,.44,1.61,.66,2-.07,0-.14-.02-.22-.03-1.59-.2-3.2-.32-4.8-.2-1.22,.09-2.5,.34-3.58,.93,.19-.93,.51-2.04,.82-3.01,.3-.93,.59-1.73,.77-2.14,.47-1.11,.18-2.5,.18-2.5l-.1-1-.38-3.76s1.04-.75,1.48-.96c.37-.17,1.08-.56,1.32-.69,.05-.03,.08-.04,.08-.04,0,0,.9,1.05,1.66,1.06,.83,.05,.69-.79,.69-.79,0,0,1.03,.57,2.04,1.6,1.07,1.1,1.4,2.43,1.07,3.42-.29,.86-1.3,2.34-1.76,3.23-.07,.14-.13,.27-.17,.38Z"/>
        <path class="cls-23" d="M27.8,41.06l-1.86-.32h-5.27c.3-.93,.59-1.73,.77-2.14,.47-1.11,.18-2.5,.18-2.5l-.1-1,.97-2.41s.58,3.99,1.44,4.46c.67,.37,2.84,.83,3.78,1.02-.07,.14-.13,.27-.17,.38-.14,.4,0,1.49,.24,2.52Z"/>
        <g>
          <path class="cls-34" d="M36.51,64.88c0,.11-1.14,.27-2.1,.25-.96-.02-2.68-.11-2.78-.16-.1-.05-.93-2.18-1.04-2.35s-.45-.16-.56-.02c-.12,.15-.55,1.52-.65,1.91-.1,.39-.2,.51-.33,.45-.06-.03-.28-.78-.35-1.61-.07-.77,.45-3.2,.92-3.53,.04-.03,.08-.04,.12-.04h0s.01,0,.02,0c.49,.1,.93,1.42,1.5,2.3,.57,.9,1.25,1.66,1.25,1.66l1.02-.67s1.34,.79,1.8,1.06c.47,.26,1.18,.64,1.18,.75Z"/>
          <path class="cls-26" d="M33.61,63.22l-1.23,.91-2.18-2.71-.19-.68s0,0,0,0c0,0,0-.02,0-.03,0-.01,0-.03-.01-.05l-.24-.88-.06-.21s0-.02-.02-.07c-.06-.22-.25-.93-.5-1.89-.34-1.34-.78-3.15-1.08-4.73-.4-2.08-.27-3.66-.16-4.41,.29-.41,.85-.8,1.37-1.02,.15-.06,.31-.13,.47-.18,.58-.19,1.17-.26,1.56,.18l.25,7.75s.05,.85,.14,1.85c.05,.61,.12,1.27,.19,1.82,.06,.44,.12,.81,.18,1.03,.23,.82,1.17,2.65,1.45,3.18,.05,.1,.08,.15,.08,.15Z"/>
        </g>
        <g>
          <path class="cls-34" d="M43.09,58.14c-.72,.39-2.02,1.04-2.11,1.04-.05,0-.54-.37-.98-.72-.36-.28-.7-.54-.77-.58-.08-.04-.19-.02-.28,.04-.07,.05-.13,.11-.14,.18-.02,.16,.23,1.35,.32,1.68,.09,.33,.07,.46-.05,.47-.06,0-.53-.46-.94-1.04-.41-.59-1.12-2.9-.73-3.07h0s.04-.01,.06-.02c.42-.07,1.27,.68,2.03,1.08,.8,.42,1.62,.7,1.62,.7l.47-.92h0s.31,0,.68,0c.39,0,.86,.01,1.09,.01,.46,0,1.14-.03,1.18,.06,.04,.08-.73,.67-1.44,1.06Z"/>
          <path class="cls-6" d="M41.69,57.08l-.52,1.19-2.74-1.08-.85-.85-.17-.17h0l-.13-.13s-.01-.01-.04-.04c-.14-.14-.58-.58-1.16-1.18-.81-.84-1.89-1.99-2.78-3.03-1.16-1.37-1.73-2.58-1.97-3.18,.04-.42,.21-.81,.58-1.13,.45-.38,1.17-.81,1.77-.6l.1,.16,3.06,4.98s.4,.6,.88,1.3c.29,.43,.62,.89,.9,1.26,.23,.3,.43,.55,.57,.69,.51,.5,1.97,1.46,2.4,1.74,.08,.05,.12,.08,.12,.08Z"/>
          <path class="cls-26" d="M41.69,57.08l-.52,1.19-2.74-1.08-.85-.85c-.04-.06-.07-.12-.11-.19-.59-1-1.4-2.44-2.38-4.21-1.54-2.77-1.92-3.66-1.99-4.2-.05-.37,.41-.6,.69-.7l3.06,4.98s.4,.6,.88,1.3c.29,.43,.62,.89,.9,1.26,.23,.3,.43,.55,.57,.69,.51,.5,1.97,1.46,2.4,1.74,.08,.05,.12,.08,.12,.08Z"/>
        </g>
        <g>
          <path class="cls-8" d="M31.29,37.4c.16,1.23-.21,2.07-.71,2.46-.61,.47-1.7-.03-1.86-.62-.16-.59,.14-2.54,.2-3.17,.05-.63,.02-3.53,.02-3.53,0,0,.03,.02-.19-.02-.22-.04-.52-.13-.81-.39-.14-.13-.22-.44-.26-.71-.04-.28-.05-.53-.05-.53,0,0-.05,.06-.11,.12-.08,.07-.17,.14-.23,.13-.1-.02-.19-.56-.08-1.12,.11-.55,.26-.92,.38-1.01,.12-.08,.61,.04,.69-.03,.09-.07,.59,.38,.74,.37,.15-.01,.56,.29,.56,.29,0,0,.43-.06,.6,.15,.17,.22,.18,1.83,.21,2.41,.03,.59,.74,3.97,.91,5.2Z"/>
          <path class="cls-6" d="M29.75,31.11c-.03,.15-.13,.34-.24,.37-.1,.03-.65,.02-.88-.05-.19-.06-.71,.02-.97-.02-.04-.28-.05-.53-.05-.53,0,0-.05,.06-.11,.12,0,0,.15-.36,.26-.7,.11-.34,.19-.72,.24-.72,.05,0-.09,.62-.15,.86-.06,.23-.1,.57,.06,.66,.16,.09,.37-.13,.44-.3,.07-.17,.12-.58,.18-.79,.06-.21,.26-.49,.31-.48,.05,0-.01,.19-.09,.38-.07,.19-.33,.99-.27,1.15,.05,.16,.37,.13,.47-.07,.1-.2,.37-.7,.41-.76,.04-.07,.2-.29,.27-.28,.07,0-.14,.25-.26,.49-.12,.23-.26,.65-.23,.77,.03,.12,.13,.18,.22,.14,.08-.04,.2-.04,.25-.11,.04-.08,.15-.13,.06-.18-.09-.05-.02-.28,.02-.3,.04-.02,.08,.23,.05,.38Z"/>
        </g>
        <path class="cls-8" d="M22.32,35.67c-.1,.48-.17,1.28-.25,2.05-.08,.76-.17,1.5-.32,1.89-.04,.11-.09,.19-.14,.24-.14,.12-.31,.17-.48,.18h0c-.34,.01-.69-.18-.79-.49-.03-.09-.06-.3-.09-.6-.13-1.31-.24-4.3-.09-5.79,.18-1.82,1.46-2.12,1.95-1.98,1.06,.31,.43,3.42,.21,4.5Z"/>
        <path class="cls-26" d="M26.96,31.55c-.06,.13-.56,.87-.67,1.04-.12,.17-.28,.37-.45,.18-.17-.19-1.21-.54-1.44-.83-.22-.26-.42-1.98-.46-2.25,.05-.03,.08-.04,.08-.04,0,0,.9,1.05,1.67,1.06,.83,.05,.68-.79,.68-.79,0,0,.65,1.5,.59,1.63Z"/>
        <path class="cls-8" d="M27.52,39.78c-.05,.02-.11,.04-.17,.06-.28,.08-.64,.13-1.12,.13-1.67-.02-4.59,.06-5.09,.05h0s-.02,0-.02,0c-.39-.01-.74-.54-.77-.95,0-.02,0-.04,0-.06,0-.41,.09-.64,.09-.64,.19-.5,.67-.73,1.44-.67,.06,0,.13,.01,.21,.02,1.04,.11,4.05,.54,4.81,.66,.16,.02,.3,.05,.43,.08,.55,.12,.85,.27,.86,.53,.01,.21-.1,.58-.66,.8Z"/>
        <path class="cls-8" d="M31.73,38.65s-.06,.06-.09,.06c-.08,0-.32-.06-.55-.14-.09-.03-.14-.03-.16,0-.02,.03,0,.11,.03,.15,.04,.07,.26,.26,.27,.39,0,.02,0,.04-.02,.06-.01,.02-.02,.03-.04,.04-.05,.04-.13,.06-.19,.08-.02,0-.05,.01-.06,.01,0,0-.02,0-.04,0h0s-.06-.01-.09-.03c0,0,0,0,0,0,0,0,0,0,0,0,0,0,0,0,0,0,0,0,0,0,0,0,0,0,0,0,0,0,0,0-.02,0-.03-.01,0,0-.01,0-.02,0,0,0,0,0,0,0-.06-.03-.13-.06-.19-.08,0,0,0,0-.01,0-.01,0-.03-.01-.04-.02,0,0-.01,0-.02,0h-.03s0-.02,0-.02c0,0,0,0,0,0h0s0,0,0,0c-.11-.04-.21-.06-.23-.06,0,0,0,0,0,0,0,0,.25,.33,.25,.39,0,.04-.04,.08-.11,.09-.03,.01-.07,.02-.11,.02-.12,0-.49-.22-.64-.3-.15-.08-.54,.11-.76,.3-.21,.18-.91,.38-1.47,.28-.04,0-.07-.01-.11-.02-.57-.14-.93-.64-.93-.64,0,0-.07-.63,.02-.76,.09-.12,.32,.02,.77,.04,.06,0,.13,0,.21,0,.48-.05,1.2-.29,1.69-.49,.56-.23,1.02-.05,1.26,0,.25,.05,.53,.04,.68,.04,.16,0,.67,.33,.78,.43,.07,.06,.05,.16,0,.22Z"/>
        <path class="cls-6" d="M29.21,56.92c-.26-1.82-1.18-7.04-1.09-7.68,.08-.52,1.22-1.59,1.65-1.98-.16,.05-.32,.12-.47,.18-.52,.22-1.08,.61-1.37,1.02-.11,.75-.24,2.33,.16,4.41,.3,1.58,.74,3.39,1.08,4.73,.24,.96,.44,1.67,.5,1.89,.01,.05,.02,.07,.02,.07l.06,.21h0s0,0,0,0c0,0,0,0,0,.01,0,0,.02,0,.02,0,0,0,0-.01,0-.02-.18-.75-.41-1.83-.56-2.85Z"/>
        <path class="cls-25" d="M29.37,43.91s-.58-.31-.64-.16c-.06,.16,2.52,1.72,3.18,2.16,.66,.43,1.04,.53,1.29,.4,.25-.13-1.64-1.09-2.16-1.47-.53-.38-1.66-.93-1.66-.93Z"/>
        <path class="cls-5" d="M30.33,39.53s-.07,.02-.11,.02c-.12,0-.49-.22-.64-.3-.15-.08-.54,.11-.76,.3-.21,.18-.91,.38-1.47,.28-.28,.08-.64,.13-1.12,.13-1.67-.02-4.59,.06-5.09,.05h0c-.34,.01-.69-.18-.79-.49-.03-.09-.06-.3-.09-.6,.02,.05,.05,.1,.09,.14,.18,.25,.49,.46,1.06,.51,.1,0,.22,.02,.35,.02,1.7,.11,5.49,.21,5.49,.21,0,0,.12-.01,.28-.04,.29-.04,.73-.12,.89-.2,.24-.12,.45-.57,.62-.56,.17,.01,.6,0,.79,.18,.17,.16,.49,.19,.51,.33Z"/>
        <path class="cls-5" d="M30.78,39.28s0,0,0,0c0,0,0,0,0,0,0,0,0,0,0,0,0,0-.02,0-.03-.01,0,0-.01,0-.02,0,0,0,0,0,0,0-.06-.03-.13-.06-.19-.08,.1,.04,.23,.1,.25,.11Z"/>
        <path class="cls-5" d="M30.98,39.29h-.09s0,.01,0,.01h0s-.42-.17-.42-.17h-.03s0-.02,0-.02c0,0,0,0,0,0h0s0,0,0,0c-.11-.04-.21-.06-.23-.06,0,0,0,0,0,0,0,0-.28-.2-.51-.29s-.25-.13-.23-.15,.52,.09,.76,.22c.25,.13,.77,.46,.77,.46Z"/>
        <path class="cls-5" d="M31.21,39.17s-.02,.03-.04,.04h-.01s-.41-.46-.49-.53c-.08-.07-.48-.25-.48-.28,0-.03,.35,.13,.45,.19,.09,.05,.44,.42,.58,.58Z"/>
        <path class="cls-5" d="M31.73,38.65s-.06,.06-.09,.06c-.08,0-.32-.06-.55-.14-.09-.03-.14-.03-.16,0l-.09-.07s-.56-.23-.53-.25c.04-.02,.55,.07,.73,.15,.16,.07,.58,.21,.68,.25Z"/>
        <path class="cls-5" d="M24.57,27.47c-.45,.06-.84-.33-.91-.57-.05-.17,.05-.7,.29-.93-.01,.03-.19,.52-.1,.84,.1,.34,.73,.65,.73,.65Z"/>
        <path class="cls-5" d="M24.58,27.5s0-.02,0-.03c0,0,0,.02,0,.03Z"/>
        <path class="cls-5" d="M28.8,26.61c-.04,.14-.12,.35-.21,.58,0-.43,0-1.01-.08-1.32-.13-.56-.53-1.29-1.08-1.18-.55,.11-2.52,1.97-2.52,1.97,0,0,.89-1.14,1.2-1.44,.3-.29,1.3-1.01,1.93-.8,.63,.21,.91,1.67,.76,2.19Z"/>
        <path class="cls-7" d="M30.46,25.84c-.06,.26-.32,.96-.6,1.68,.19-.7,.39-1.44,.39-1.47-.02-.05-.45,.37-.45,.1s-.24-1.06-.24-1.06c0,0,.1,.14,.42,.29,.32,.14,.14-.29,.14-.29l-.75-1.02-3.22-.98-.27-.19,.27-.61s-1.07-.74-1.68-.7c-.48,.03-1.66,.9-2.12,1.26,.25-.51,1.24-1.34,1.56-1.47,.37-.16,1.6,.05,2.03,.43,.43,.38,.75,1.13,.75,1.13,0,0,2.77,.98,2.93,1.18,0,0,.97,1.12,.84,1.72Z"/>
        <rect class="cls-19" x="26.52" y="40.13" width="8.08" height=".34"/>
        <polygon class="cls-31" points="36.76 33.18 34.25 40.13 34.6 40.47 37.1 33.28 36.76 33.18"/>
      </g>
      <rect class="cls-14" x="21.92" y="40.6" width="52.44" height="1.18"/>
      <g>
        <path class="cls-11" d="M61.32,31.86h12.86v3.11c0,2.82-2.29,5.11-5.11,5.11h-2.65c-2.82,0-5.11-2.29-5.11-5.11v-3.11h0Z" transform="translate(135.5 71.93) rotate(180)"/>
        <rect class="cls-4" x="61.7" y="32.32" width="12.14" height="7.29"/>
        <rect class="cls-4" x="61.8" y="32.42" width="11.94" height="7.09"/>
        <polygon class="cls-3" points="61.32 40.08 75.56 40.08 74.83 40.76 61.91 40.76 61.32 40.08"/>
      </g>
      <rect class="cls-35" x="21.92" y="41.19" width="55.28" height=".59"/>
      <g>
        <path class="cls-34" d="M64.38,52.65s-1.93,1.37-2.74,1.64c-.81,.26-2.53,0-3.2-1.05-.46-.7-1.26-1.98-1.47-2.92-.1-.46-.06-.84,.23-1.04,.89-.62,1.75,.29,2.34,.86,.59,.57,1.79,1.03,2.32,.86,.11-.04,.24-.08,.36-.12,.43-.15,.84-.33,.84-.33l1.33,2.1Z"/>
        <path class="cls-34" d="M64.38,52.65s-1.93,1.37-2.74,1.64c-.81,.26-2.53,0-3.2-1.05-.46-.7-1.26-1.98-1.47-2.92,.44,.82,1.55,2.72,2.54,3.15,1.27,.56,3.52-.41,3.53-.54,.01-.1-.64-1.3-.83-2.05,.43-.15,.84-.33,.84-.33l1.33,2.1Z"/>
        <path class="cls-34" d="M69.77,61.93c0,.94-.55,3.05-.88,3.94-.33,.89-1.73,1.58-2.83,1.76-.96,.15-2.81-.24-3.18-.98-.06-.11-.08-.23-.06-.35,.13-.97,1.37-1.04,2.22-1.29,.85-.25,.86-.44,1.12-.85,.16-.26,.5-1.26,.72-1.95,.12-.39,.21-.68,.21-.68,0,0,2.68-.52,2.69,.41Z"/>
        <path class="cls-34" d="M69.77,61.93c0,.94-.55,3.05-.88,3.94-.33,.89-1.73,1.58-2.83,1.76-.96,.15-2.81-.24-3.18-.98,.07,.02,.14,.04,.21,.07,.36,.13,.78-.5,.89-.38,.11,.12-.3,.16-.19,.48,.11,.32,1.97,.46,2.8-.11,.83-.57,2.27-3.44,2-3.84-.21-.3-1.22-.55-1.72-.66,.12-.39,.21-.68,.21-.68,0,0,2.68-.52,2.69,.41Z"/>
        <path class="cls-20" d="M80.53,40.88l-.06,1.01-.26,4.15s-6.74,1.67-7.36,1.88c-.62,.22-7.5,5.3-8.02,5.44-.18,.05-.53-.23-.9-.63-.67-.74-1.41-1.92-1.35-2.31,.1-.61,6.27-6.03,6.71-6.54,.45-.51,11.24-3,11.24-3Z"/>
        <path class="cls-33" d="M80.46,41.89l-.26,4.15s-6.74,1.67-7.36,1.88c-.62,.22-7.5,5.3-8.02,5.44-.18,.05-.53-.23-.9-.63,1.38-1.61,4.53-6.15,6.46-7.88,2.16-1.92,8.86-3.37,9.86-4.12,.25-.19,0,1,.22,1.15Z"/>
        <path class="cls-20" d="M89.64,47.04c-.3,.94-.69,2.06-1.13,2.31-.45,.24-5.5,.99-8.69,.55-3.18-.44-5.01-.71-5.62-.32-.61,.39-2.05,5.13-2.41,6.68-.36,1.55-1.41,5.73-1.51,5.8-.07,.05-1.31,.06-2.28-.08-.45-.07-.84-.17-1.04-.31-.63-.46,1.32-12.74,1.95-14.52,.63-1.78,8.99-3.12,8.99-3.12l2.58-.04,8.52-.13s.95,2.24,.66,3.18Z"/>
        <path class="cls-33" d="M89.64,47.04c-.3,.94-.69,2.06-1.13,2.31-.45,.24-5.5,.99-8.69,.55-3.18-.44-5.01-.71-5.62-.32-.61,.39-2.05,5.13-2.41,6.68-.36,1.55-1.41,5.73-1.51,5.8-.07,.05-1.31,.06-2.28-.08,.55-.07,1.09-.19,1.3-.39,.5-.48,1.06-2.72,1.67-6.14,.61-3.42,.34-6.97,1.32-7.18,.98-.21,8.46,.62,10.37,.13,1.91-.49,2.46-2.48,1.66-3.21-.8-.74-5.27-.93-5.27-.93l1.43-.26,8.52-.13s.95,2.24,.66,3.18Z"/>
        <path class="cls-2" d="M89.14,30.36c.02,.26,.04,.98,.06,1.88,.02,.82,.04,1.8,.06,2.73,.03,1.5,.06,2.87,.09,3.27,.06,.94-.1,5.16-.25,5.44-.14,.28-4.36,1-6.96,.82-2.6-.19-3.09-.26-3.09-.26,0,0,.78-2.75,.56-5.43-.02-.24-.05-.48-.09-.72-.05-.29-.09-.58-.15-.87-.46-2.6-1.1-5.1-1.1-5.1h0s.37-1.14,1.18-1.8c.82-.67,3.57-1.95,3.57-1.95,0,0,.83,.35,2.04,.25,1.17-.1,1.95-.3,2-.31,0,0,0,0,0,0,0,0,2.02,1.17,2.07,2.05Z"/>
        <path class="cls-26" d="M86.94,24.94c-.19,.77-.86,2.24-.86,2.24l.3,1.27s-.51,.29-1.24,.4c-.74,.11-1.84-.39-1.84-.39l.27-1.64c-.38,.33-1.3,.45-1.31,.32,0-.13-.29-.55-.37-1.44-.08-.89,.16-1.46,.25-1.87,.06-.27,.13-.79,.18-1.27,.03-.24,.05-.48,.07-.65,.05-.52,.25-.69,.57-.88,.04-.02,.09-.05,.14-.08,.35-.2,.93-.47,1.91,.06,1.12,.61,2.12,3.16,1.93,3.93Z"/>
        <path class="cls-6" d="M84.06,21.84s-.21,1.36-.23,.89c-.02-.47-.4-1.09-.76-1.14-.36-.05-.75,.95-.75,.95,.03-.24,.05-.48,.07-.65,.05-.52,.25-.69,.57-.88,.04-.02,.09-.05,.14-.08l.96,.9Z"/>
        <path class="cls-16" d="M88.98,22.24c-.1,.47-.26,.98-.46,1.48-.51,1.31-1.21,2.52-1.35,2.68-.2,.22-1.1,.76-1.1,.76,0,0-.62-.32-.86-.7-.24-.37-.32-.71-.32-.71,0,0,.76-.81,.52-1.33-.24-.52-.87-.28-1.04,.05-.1,.19-.17,.41-.22,.56-.03,.11-.05,.19-.05,.19,0,0-.31-.32-.31-.85,0-.53,.12-1.83-.02-2.31-.14-.48-.48-1.02-1.14-.82,0,0-.25,.2-.28,.83-.05,.42-.07,.6-.07,.6,0,0-.19-.07-.41-.24-.34-.26-.74-.74-.59-1.52,.25-1.29,1.7-1.43,1.7-1.43,0,0,.59-1.34,1.89-1.39,1.3-.05,1.52,.64,1.79,.76,.27,.13,2.64,1.69,2.3,3.39Z"/>
        <path class="cls-19" d="M88.53,23.73c-.51,1.31-1.21,2.52-1.35,2.68-.2,.22-1.1,.76-1.1,.76,0,0-.62-.32-.86-.7-.24-.37-.32-.71-.32-.71,0,0,.76-.81,.52-1.33-.24-.52-.87-.28-1.04,.05-.1,.19-.17,.41-.22,.56,.05-.46,.21-1.15,.76-1.15,.82,0,1.55,.89,2.35,.88,.4,0,.87-.52,1.25-1.05Z"/>
        <path class="cls-6" d="M83.57,26.82s.82-.58,.95-.7c.13-.11,.27-.26,.27-.26,0,0-.19,.51-.47,.98-.27,.46-.86,.93-.86,.93l.11-.95Z"/>
        <path class="cls-17" d="M82.15,22.29c-.11,0-.31,.14-.5,1.11-.2,.97-.09,1.23-.06,1.26,.03,.03,.26,.06,.29-.05,.03-.1,.02-.61,.1-1.15,.08-.54,.33-.9,.33-.9l.03-.28h-.2Z"/>
        <path class="cls-17" d="M81.93,23.2s2.37,.18,2.42,.22c.06,.03,.45,.74,.45,.74l-.25,.13-.41-.57-2.28-.11,.07-.39Z"/>
        <path class="cls-2" d="M81.07,35.27c-.15,.7-.81,2.17-1.48,3.55-.65,1.34-1.3,2.58-1.49,2.96-.4,.75-.6,1.47-2,1.08-.79-.22-2.26-1.31-3.39-2.21-.87-.69-1.54-1.28-1.54-1.28l1.32-1.94s3.19,1.42,3.61,1.63c0,0,1.03-3.59,1.37-4.58,.34-.99,.8-2.34,.8-2.34h0s.36-.36,1.58,.06c.24,.08,.44,.2,.61,.34,.72,.59,.86,1.63,.61,2.74Z"/>
        <path class="cls-32" d="M72.49,37.42s-.02,.35-.06,.51c-.05,.16-.26,.78-.59,1.08t0,0c-.08,.07-.15,.13-.23,.17-.24,.15-.44,.17-.44,.17l.23-.34,.28-.41,.52-.76,.29-.42Z"/>
        <path class="cls-26" d="M72.39,38s-.03,.14-.12,.34c-.08,.2-.22,.45-.43,.67h0c-.08,.07-.16,.13-.23,.17-.04-.03-.11-.09-.21-.17-.32-.25-.86-.69-.92-.75-.09-.1-.88-.04-1.13-.09-.25-.04-.73-.44-.85-.47-.12-.03-.77,.03-1.08,.13-.2,.06-.31,0-.3-.08,0-.05,.04-.1,.11-.16,.2-.15,.39-.22,.62-.24,.23-.02,.69-.07,.73-.11,.04-.04-.74-.15-.96-.14s-.67,.16-.72,.1c0,0,0,0,0-.01-.02-.08,.19-.24,.42-.31,.25-.07,.72-.14,.93-.11,.07,0,.13,0,.17,0h0s0,0,0,0c.02,0,.03,0,.03-.01,.02-.02-.07-.06-.39-.1-.54-.07-.97,0-1.05-.05,0,0-.01,0-.01-.01-.03-.08,.36-.24,.63-.29,.27-.06,.63,0,.8,.05,.04,.01,.06,.01,.05,0h0s-.26-.12-.58-.17c-.41-.06-.66-.2-.68-.31,0,0,0,0,0-.01,0-.11,.67-.06,.99-.06,.31,0,.58,.02,.74,.06,.16,.04,.97,.4,1.16,.39,.19-.01,.3-.09,.43-.31,.13-.22,.11-.43,.3-.74,.18-.31,.43-.55,.52-.46,.09,.1,0,.95-.02,1.22-.02,.26,.04,.74,.07,1,.03,.18,.52,.63,.8,.87,.11,.1,.19,.16,.19,.16Z"/>
        <path class="cls-27" d="M83.79,22.07c-.14-.48-.48-1.02-1.14-.82,0,0-.25,.2-.28,.83-.05,.42-.07,.6-.07,.6,0,0-.19-.07-.41-.24-.12-.26-.21-.61-.07-1.02,.27-.81,1.14-.39,1.14-.39,0,0,.65,.11,.82,1.05Z"/>
        <path class="cls-32" d="M89.2,32.24c.02,.82,.04,1.8,.06,2.73,.03,1.5,.06,2.87,.09,3.27,.06,.94-.1,5.16-.25,5.44-.14,.28-4.36,1-6.96,.82-2.6-.19-3.09-.26-3.09-.26,0,0,.78-2.75,.56-5.43-.65,1.34-1.3,2.58-1.49,2.96-.4,.75-.6,1.47-2,1.08-.79-.22-2.26-1.31-3.39-2.21,1.23,.79,2.67,1.64,3.21,1.69,1.03,.09,1.64-.79,2.72-3.1,.25-.53,.49-1.23,.71-2.01,.46-1.59,.85-3.46,1.09-4.7,.16-.8,.25-1.33,.25-1.33,0,0-.03,1.54,.38,1.46,.33-.06,4.76-.35,7.28-.4,.31,0,.59-.01,.84,0Z"/>
        <path class="cls-6" d="M84.78,24.64s.34-.21,.37,.02c.03,.23-.26,.75-.49,.85-.23,.1,.12-.87,.12-.87Z"/>
        <path class="cls-6" d="M72.27,38.34c-.08,.2-.22,.45-.43,.67h0c-.08,.07-.16,.13-.23,.17-.04-.03-.11-.09-.21-.17-.32-.25-.86-.69-.92-.75-.09-.1-.88-.04-1.13-.09-.25-.04-.73-.44-.85-.47-.12-.03-.77,.03-1.08,.13-.2,.06-.31,0-.3-.08,.08,.02,.2,.03,.32-.01,.24-.08,1.08-.27,1.15-.22,.07,.05,.85,.48,1.14,.52,.29,.04,.72-.16,.82-.05,.1,.1,.92,.64,1.07,.72,.09,.05,.39-.17,.65-.37Z"/>
        <path class="cls-6" d="M68.58,37.24s-.74-.15-.96-.14-.67,.16-.72,.1c0,0,0,0,0-.01,.13-.04,.49-.15,.7-.17,.27-.02,.73,.05,.93,.08,.2,.03,.06,.14,.06,.14Z"/>
        <path class="cls-6" d="M68.45,36.76s-.07-.06-.39-.1c-.54-.07-.97,0-1.05-.05,.09-.02,.27-.06,.48-.07,.31-.02,.8,0,.99,.07,.14,.06,.04,.12-.02,.14Z"/>
        <path class="cls-6" d="M68.69,36.35s-.19,.01-.21,.01h0s-.26-.12-.58-.17c-.41-.06-.66-.2-.68-.31,.07,.04,.22,.11,.39,.17,.26,.08,.55,.1,.73,.15,.18,.05,.34,.1,.34,.15Z"/>
        <path class="cls-32" d="M73.1,37.77s-.2,1.04-.31,1.19c-.12,.16-1.08,.78-1.08,.78,0,0,.93-.45,1.14-.71,.21-.26,.27-1.13,.26-1.26Z"/>
      </g>
      <g>
        <g>
          <rect class="cls-4" x="82.19" y="48.86" width="1.79" height="4.27"/>
          <polygon class="cls-4" points="82.19 48.86 82.19 53.14 78.92 53.14 78.92 51.64 81.38 51.64 81.38 48.86 82.19 48.86"/>
          <polygon class="cls-4" points="82.19 53.14 82.19 60.9 81.67 60.9 81.85 60.32 81.85 57.84 80.17 57.84 80.17 60.39 80.15 60.45 80.15 53.14 82.19 53.14"/>
          <g>
            <path class="cls-4" d="M88.63,67.49c-.23,.11-.49,.17-.77,.17-.98,0-1.77-.79-1.77-1.77s.79-1.77,1.77-1.77v.88c-.15,.26-.24,.56-.24,.89,0,.7,.41,1.31,1,1.59Z"/>
            <path class="cls-4" d="M91.17,65.89c0,.98-.79,1.77-1.77,1.77-.27,0-.53-.06-.76-.17-.59-.29-1-.89-1-1.59,0-.32,.09-.63,.24-.89,.18-.31,.44-.55,.77-.71,.15-.07,.31-.12,.47-.15,.09-.02,.19-.02,.29-.02,.98,0,1.77,.79,1.77,1.77Z"/>
            <path class="cls-4" d="M89.11,62.97v1.18c-.17,.03-.33,.08-.47,.15-.32,.15-.59,.4-.77,.71v-1.78l-5.67-2.89v-2.49s5.75,4,6.38,4.36c.63,.36,.53,.77,.53,.77Z"/>
          </g>
          <g>
            <path class="cls-4" d="M73.71,67.17c-.23,.11-.49,.17-.77,.17-.98,0-1.77-.79-1.77-1.77s.79-1.77,1.77-1.77c.1,0,.2,0,.29,.02v.48c-.33,.32-.53,.77-.53,1.26,0,.7,.41,1.31,1,1.59Z"/>
            <path class="cls-4" d="M80.15,57.84v2.49l-5.67,2.89v.59c-.27,0-.53,.06-.76,.17-.18,.08-.34,.2-.47,.33v-1.35s-.09-.41,.53-.77c.63-.36,6.38-4.36,6.38-4.36Z"/>
            <path class="cls-4" d="M76.24,65.58c0,.98-.79,1.77-1.77,1.77-.27,0-.53-.06-.76-.17-.59-.29-1-.89-1-1.59,0-.49,.2-.94,.53-1.26,.14-.14,.3-.25,.47-.33,.23-.11,.49-.17,.76-.17,.98,0,1.77,.79,1.77,1.77Z"/>
          </g>
          <path class="cls-4" d="M81.27,57.84v2.47l-.19,.58-.98,3.06h-.18c-.37,.04-.69,.86-.71,1.81h-.91l.56-1.61,1.29-3.72,.02-.06v-2.55h1.11Z"/>
          <polygon class="cls-4" points="81.85 57.84 81.85 60.32 81.67 60.9 80.68 63.99 80.11 63.96 81.09 60.9 81.27 60.32 81.27 57.84 81.85 57.84"/>
          <g>
            <path class="cls-4" d="M81.41,67.55s.02,0,.02,0l-1.6-.07c-.35-.01-.62-.74-.61-1.67,0-.01,0-.03,0-.04,.02-.96,.34-1.77,.71-1.82h.18s.57,.03,.57,.03l.85,.03c-.38,.05-.69,.89-.71,1.86,0,.05,0,.1,0,.15,0,.01,0,.03,0,.04,0,.06,0,.11,0,.17,0,.03,0,.05,0,.08,0,0,0,.02,0,.02,0,.02,0,.03,0,.05,0,.03,0,.06,0,.09,0,.02,0,.05,0,.07,0,.01,0,.02,0,.04,0,.05,.02,.1,.03,.15,0,.02,0,.04,.01,.06,0,0,0,0,0,.01,0,0,0,.02,0,.03,0,.01,0,.03,.01,.04,0,.02,.01,.04,.02,.07,0,.02,.01,.04,.02,.06,0,.01,0,.03,.01,.04,0,.02,.02,.05,.03,.07,0,.02,.01,.03,.02,.05,0,.01,0,.02,.02,.03,0,.02,.02,.03,.02,.05,0,0,0,0,0,0,0,0,0,.02,.02,.03,0,0,0,.01,.01,.02,0,0,0,.01,.01,.02,0,0,0,.01,.01,.02,.03,.04,.06,.08,.09,.11,0,0,.01,.01,.02,.02,.03,.02,.06,.04,.08,.06,0,0,.02,0,.03,.01,0,0,0,0,0,0,0,0,.02,0,.03,0,0,0,.02,0,.02,0Z"/>
            <path class="cls-4" d="M82.19,65.69c-.01,.97-.33,1.81-.71,1.86-.02,0-.04,0-.05,0,0,0-.02,0-.02,0,0,0-.02,0-.02,0,0,0-.02,0-.03,0,0,0,0,0,0,0-.01,0-.02,0-.03-.01-.03-.01-.06-.03-.08-.06,0,0-.01,0-.02-.02-.03-.03-.06-.07-.09-.11,0,0,0-.01-.01-.02,0,0,0-.01-.01-.02,0,0,0-.01-.01-.02,0,0-.01-.02-.02-.03,0,0,0,0,0,0,0-.02-.02-.03-.02-.05,0-.01-.01-.02-.02-.03,0-.02-.01-.03-.02-.05,0-.02-.02-.05-.03-.07,0-.01,0-.03-.01-.04,0-.02-.01-.04-.02-.06,0-.02-.01-.04-.02-.07,0-.01,0-.03-.01-.04,0,0,0-.02,0-.03,0,0,0,0,0-.01,0-.02,0-.04-.01-.06,0-.05-.02-.1-.03-.15,0-.01,0-.02,0-.04,0-.02,0-.05,0-.07,0-.03,0-.06,0-.09,0-.02,0-.03,0-.05,0,0,0-.02,0-.02,0-.02,0-.05,0-.08,0-.05,0-.11,0-.17,0-.01,0-.03,0-.04,0-.05,0-.1,0-.15,.01-.97,.33-1.81,.71-1.86,.38-.05,.67,.69,.66,1.67Z"/>
          </g>
          <g>
            <path class="cls-4" d="M78.46,67.55l-1.61-.07c-.35-.01-.62-.74-.61-1.67,.01-.97,.33-1.81,.71-1.86l1.61,.07c-.38,.05-.69,.89-.71,1.86-.01,.93,.26,1.65,.61,1.67Z"/>
            <path class="cls-4" d="M79.21,65.78c-.03,.94-.34,1.72-.71,1.77-.02,0-.04,0-.05,0,0,0-.01,0-.02,0,0,0-.01,0-.02,0,0,0-.01,0-.02,0,0,0-.02,0-.03,0,0,0,0,0,0,0-.01,0-.02,0-.03-.01,0,0-.02,0-.02-.01,0,0-.02,0-.02-.02,0,0,0,0,0,0,0,0,0,0,0,0,0,0,0,0-.01-.01,0,0,0,0-.01-.01,0,0-.02-.02-.03-.03,0,0-.02-.02-.03-.03,0,0,0-.01-.01-.02,0,0-.01-.02-.02-.02,0,0-.01-.02-.02-.03,0,0,0-.01-.01-.02,0,0,0-.01-.01-.02,0,0,0-.01-.01-.02-.02-.04-.04-.07-.06-.12,0-.02-.01-.03-.02-.05,0-.02-.01-.04-.02-.06h0s-.01-.03-.02-.05c-.01-.03-.02-.06-.03-.09,0-.01,0-.02,0-.03,0-.02-.01-.04-.02-.07,0,0,0-.02,0-.03,0-.02-.01-.05-.02-.07,0-.02,0-.04-.01-.06,0-.03,0-.05-.01-.08,0-.01,0-.02,0-.04,0-.02,0-.03,0-.05,0,0,0,0,0,0,0-.02,0-.03,0-.05,0,0,0,0,0,0,0-.02,0-.03,0-.05,0-.02,0-.04,0-.06h0s0-.04,0-.05c0-.07,0-.13-.01-.2,0-.01,0-.03,0-.04,0-.05,0-.1,0-.15,.01-.97,.33-1.81,.71-1.86,.11-.02,.21,.04,.3,.14l-.56,1.61h.91Z"/>
          </g>
        </g>
        <path class="cls-1" d="M87.71,51.94c-.61,.31-4.44,.45-4.44,.45,0,0-2.96,.02-5.67-.1-1.76-.08-3.4-.21-4.07-.44-1.68-.6-1.18-2.99-.39-3.62,.79-.64,2.08-.09,5.35,.26,3.27,.35,8.46-.13,8.96-.23,.22-.04,.53-.05,.82,.05,.38,.13,.73,.45,.83,1.12,.18,1.19-.79,2.2-1.4,2.51Z"/>
        <path class="cls-30" d="M88.28,48.3c-.54,.37-1.61,.87-3.35,.89-2.73,.02-5.99-.12-7-.33-1.01-.21-2.2,1.13-1.62,2.5,.19,.46,.63,.75,1.3,.93-1.76-.08-3.4-.21-4.07-.44-1.68-.6-1.18-2.99-.39-3.62,.79-.64,2.08-.09,5.35,.26,3.27,.35,8.46-.13,8.96-.23,.22-.04,.53-.05,.82,.05Z"/>
        <path class="cls-30" d="M88.81,40.71h-8.91c-.7,0-1.19-.57-1.09-1.27l.78-5.36c.1-.7,.75-1.27,1.46-1.27h8.91c.7,0,1.19,.57,1.09,1.27l-.78,5.36c-.1,.7-.75,1.27-1.46,1.27Z"/>
        <path class="cls-1" d="M88.81,40.71h-7.68c-.7,0-1.19-.57-1.09-1.27l.78-5.36c.1-.7,.75-1.27,1.46-1.27h7.68c.7,0,1.19,.57,1.09,1.27l-.78,5.36c-.1,.7-.75,1.27-1.46,1.27Z"/>
        <polygon class="cls-30" points="84.14 35.19 84.26 38.52 83.42 40.71 84.26 40.71 85.05 38.52 85.05 35.19 84.14 35.19"/>
        <rect class="cls-3" x="85.87" y="35.19" width="1.79" height="3.33"/>
        <rect class="cls-13" x="85.05" y="35.19" width=".82" height="3.33"/>
        <polygon class="cls-3" points="87.66 38.52 83.99 48.86 82.19 48.86 85.87 38.52 87.66 38.52"/>
        <polygon class="cls-13" points="85.87 38.52 82.19 48.86 81.38 48.86 85.05 38.52 85.87 38.52"/>
        <g>
          <rect class="cls-3" x="82.19" y="48.86" width="1.79" height="4.27"/>
          <polygon class="cls-13" points="82.19 48.86 82.19 53.14 78.92 53.14 78.92 51.64 81.38 51.64 81.38 48.86 82.19 48.86"/>
          <polygon class="cls-13" points="82.19 53.14 82.19 60.9 81.67 60.9 81.85 60.32 81.85 57.84 80.17 57.84 80.17 60.39 80.15 60.45 80.15 53.14 82.19 53.14"/>
          <g>
            <path class="cls-13" d="M88.63,67.49c-.23,.11-.49,.17-.77,.17-.98,0-1.77-.79-1.77-1.77s.79-1.77,1.77-1.77v.88c-.15,.26-.24,.56-.24,.89,0,.7,.41,1.31,1,1.59Z"/>
            <path class="cls-3" d="M91.17,65.89c0,.98-.79,1.77-1.77,1.77-.27,0-.53-.06-.76-.17-.59-.29-1-.89-1-1.59,0-.32,.09-.63,.24-.89,.18-.31,.44-.55,.77-.71,.15-.07,.31-.12,.47-.15,.09-.02,.19-.02,.29-.02,.98,0,1.77,.79,1.77,1.77Z"/>
            <path class="cls-13" d="M89.11,62.97v1.18c-.17,.03-.33,.08-.47,.15-.32,.15-.59,.4-.77,.71v-1.78l-5.67-2.89v-2.49s5.75,4,6.38,4.36c.63,.36,.53,.77,.53,.77Z"/>
          </g>
          <g>
            <path class="cls-13" d="M73.71,67.17c-.23,.11-.49,.17-.77,.17-.98,0-1.77-.79-1.77-1.77s.79-1.77,1.77-1.77c.1,0,.2,0,.29,.02v.48c-.33,.32-.53,.77-.53,1.26,0,.7,.41,1.31,1,1.59Z"/>
            <path class="cls-13" d="M80.15,57.84v2.49l-5.67,2.89v.59c-.27,0-.53,.06-.76,.17-.18,.08-.34,.2-.47,.33v-1.35s-.09-.41,.53-.77c.63-.36,6.38-4.36,6.38-4.36Z"/>
            <path class="cls-3" d="M76.24,65.58c0,.98-.79,1.77-1.77,1.77-.27,0-.53-.06-.76-.17-.59-.29-1-.89-1-1.59,0-.49,.2-.94,.53-1.26,.14-.14,.3-.25,.47-.33,.23-.11,.49-.17,.76-.17,.98,0,1.77,.79,1.77,1.77Z"/>
          </g>
          <path class="cls-3" d="M81.27,57.84v2.47l-.19,.58-.98,3.06h-.18c-.37,.04-.69,.86-.71,1.81h-.91l.56-1.61,1.29-3.72,.02-.06v-2.55h1.11Z"/>
          <polygon class="cls-13" points="81.85 57.84 81.85 60.32 81.67 60.9 80.68 63.99 80.11 63.96 81.09 60.9 81.27 60.32 81.27 57.84 81.85 57.84"/>
          <g>
            <path class="cls-3" d="M81.41,67.55s.02,0,.02,0l-1.6-.07c-.35-.01-.62-.74-.61-1.67,0-.01,0-.03,0-.04,.02-.96,.34-1.77,.71-1.82h.18s.57,.03,.57,.03l.85,.03c-.38,.05-.69,.89-.71,1.86,0,.05,0,.1,0,.15,0,.01,0,.03,0,.04,0,.06,0,.11,0,.17,0,.03,0,.05,0,.08,0,0,0,.02,0,.02,0,.02,0,.03,0,.05,0,.03,0,.06,0,.09,0,.02,0,.05,0,.07,0,.01,0,.02,0,.04,0,.05,.02,.1,.03,.15,0,.02,0,.04,.01,.06,0,0,0,0,0,.01,0,0,0,.02,0,.03,0,.01,0,.03,.01,.04,0,.02,.01,.04,.02,.07,0,.02,.01,.04,.02,.06,0,.01,0,.03,.01,.04,0,.02,.02,.05,.03,.07,0,.02,.01,.03,.02,.05,0,.01,0,.02,.02,.03,0,.02,.02,.03,.02,.05,0,0,0,0,0,0,0,0,0,.02,.02,.03,0,0,0,.01,.01,.02,0,0,0,.01,.01,.02,0,0,0,.01,.01,.02,.03,.04,.06,.08,.09,.11,0,0,.01,.01,.02,.02,.03,.02,.06,.04,.08,.06,0,0,.02,0,.03,.01,0,0,0,0,0,0,0,0,.02,0,.03,0,0,0,.02,0,.02,0Z"/>
            <path class="cls-13" d="M82.19,65.69c-.01,.97-.33,1.81-.71,1.86-.02,0-.04,0-.05,0,0,0-.02,0-.02,0,0,0-.02,0-.02,0,0,0-.02,0-.03,0,0,0,0,0,0,0-.01,0-.02,0-.03-.01-.03-.01-.06-.03-.08-.06,0,0-.01,0-.02-.02-.03-.03-.06-.07-.09-.11,0,0,0-.01-.01-.02,0,0,0-.01-.01-.02,0,0,0-.01-.01-.02,0,0-.01-.02-.02-.03,0,0,0,0,0,0,0-.02-.02-.03-.02-.05,0-.01-.01-.02-.02-.03,0-.02-.01-.03-.02-.05,0-.02-.02-.05-.03-.07,0-.01,0-.03-.01-.04,0-.02-.01-.04-.02-.06,0-.02-.01-.04-.02-.07,0-.01,0-.03-.01-.04,0,0,0-.02,0-.03,0,0,0,0,0-.01,0-.02,0-.04-.01-.06,0-.05-.02-.1-.03-.15,0-.01,0-.02,0-.04,0-.02,0-.05,0-.07,0-.03,0-.06,0-.09,0-.02,0-.03,0-.05,0,0,0-.02,0-.02,0-.02,0-.05,0-.08,0-.05,0-.11,0-.17,0-.01,0-.03,0-.04,0-.05,0-.1,0-.15,.01-.97,.33-1.81,.71-1.86,.38-.05,.67,.69,.66,1.67Z"/>
          </g>
          <g>
            <path class="cls-3" d="M78.46,67.55l-1.61-.07c-.35-.01-.62-.74-.61-1.67,.01-.97,.33-1.81,.71-1.86l1.61,.07c-.38,.05-.69,.89-.71,1.86-.01,.93,.26,1.65,.61,1.67Z"/>
            <path class="cls-13" d="M79.21,65.78c-.03,.94-.34,1.72-.71,1.77-.02,0-.04,0-.05,0,0,0-.01,0-.02,0,0,0-.01,0-.02,0,0,0-.01,0-.02,0,0,0-.02,0-.03,0,0,0,0,0,0,0-.01,0-.02,0-.03-.01,0,0-.02,0-.02-.01,0,0-.02,0-.02-.02,0,0,0,0,0,0,0,0,0,0,0,0,0,0,0,0-.01-.01,0,0,0,0-.01-.01,0,0-.02-.02-.03-.03,0,0-.02-.02-.03-.03,0,0,0-.01-.01-.02,0,0-.01-.02-.02-.02,0,0-.01-.02-.02-.03,0,0,0-.01-.01-.02,0,0,0-.01-.01-.02,0,0,0-.01-.01-.02-.02-.04-.04-.07-.06-.12,0-.02-.01-.03-.02-.05,0-.02-.01-.04-.02-.06h0s-.01-.03-.02-.05c-.01-.03-.02-.06-.03-.09,0-.01,0-.02,0-.03,0-.02-.01-.04-.02-.07,0,0,0-.02,0-.03,0-.02-.01-.05-.02-.07,0-.02,0-.04-.01-.06,0-.03,0-.05-.01-.08,0-.01,0-.02,0-.04,0-.02,0-.03,0-.05,0,0,0,0,0,0,0-.02,0-.03,0-.05,0,0,0,0,0,0,0-.02,0-.03,0-.05,0-.02,0-.04,0-.06h0s0-.04,0-.05c0-.07,0-.13-.01-.2,0-.01,0-.03,0-.04,0-.05,0-.1,0-.15,.01-.97,.33-1.81,.71-1.86,.11-.02,.21,.04,.3,.14l-.56,1.61h.91Z"/>
          </g>
        </g>
      </g>
    </g>
  </g>
</svg>