<?xml version="1.0" encoding="UTF-8"?>
<svg id="Calque_2" data-name="Calque 2" xmlns="http://www.w3.org/2000/svg" viewBox="0 0 108.37 72.77">
  <defs>
    <style>
      .cls-1 {
        fill: #5e1db4;
      }

      .cls-2 {
        fill: #3e3782;
      }

      .cls-3 {
        fill: #fff;
      }

      .cls-4 {
        fill: #db2097;
      }

      .cls-5 {
        fill: #2e2865;
      }

      .cls-6 {
        fill: #07c4ee;
      }

      .cls-7 {
        fill: #ffb000;
      }

      .cls-8 {
        fill: #7e59d1;
      }

      .cls-9 {
        fill: #352f75;
      }

      .cls-10 {
        fill: #f68053;
      }
    </style>
  </defs>
  <g id="Layer_20" data-name="Layer 20">
    <g>
      <polygon class="cls-10" points="97.51 40.46 93.8 44.15 90.08 38.29 92.17 36.13 97.51 40.46"/>
      <path class="cls-4" d="M95.54,30.6c.38-.13,2,1.7,2.2,1.8,.2,.1-.26,1.54,.17,1.64,.44,.1,1.23-.07,1.87,.08,.6,.15,7.36,6.06,8.52,7.37,.1,.11,.08,.28-.04,.38-.27,.22-.78,.62-1.4,.96-.67,.37-1.47,.68-2.21,.63-1.74-.12-4.21-1.72-5.47-1.89-1.26-.17-3.26,.32-3.53-.33-.27-.65-.21-2.54-1.65-3.51-1.44-.97-2.31-1.18-2.39-1.79-.05-.42,1.59-2.66,2.78-4.1,.57-.69,1.03-1.2,1.15-1.25Z"/>
      <path class="cls-3" d="M95.54,30.6c.38-.13,2,1.7,2.2,1.8,.2,.1-.26,1.54,.17,1.64,.44,.1,1.23-.07,1.87,.08,.6,.15,7.36,6.06,8.52,7.37,.1,.11,.08,.28-.04,.38-.27,.22-.78,.62-1.4,.96l-12.47-10.99c.57-.69,1.03-1.2,1.15-1.25Z"/>
      <polygon class="cls-10" points="80.73 61.24 81.5 63.44 85.89 64.85 88 63.9 86.88 58.86 80.73 61.24"/>
      <path class="cls-7" d="M88.61,26.41s.79,3.95,1.16,7.31c.37,3.36,.97,7.87,.97,7.87,0,0,2.76,10.33-3.87,11.25-8.21,1.13-7.79-8.61-7.79-8.61l2.47-20.38,7.06,2.56Z"/>
      <path class="cls-7" d="M97.63,42.14l-6.8-5.86-2.02,2.85-.55,13.34s2.96-.4,9.37-10.33Z"/>
      <path class="cls-7" d="M75.48,25.49s-2.74,10.92-1.87,18.98c.87,8.06,4.86,17.94,4.86,17.94l10.66-1.99-3.56-11.94-2.57-22.46-7.51-.53Z"/>
      <path class="cls-4" d="M89.07,70.28c-.19,.35-2.63,.08-2.84,.14-.21,.06-.83-1.32-1.23-1.11-.39,.22-.87,.88-1.45,1.19-.54,.29-9.52,.42-11.26,.22-.15-.02-.25-.16-.22-.31,.05-.34,.17-.98,.4-1.65,.25-.73,.64-1.49,1.22-1.95,1.37-1.07,4.28-1.54,5.33-2.26,1.05-.72,2.2-2.42,2.84-2.11,.64,.31,1.86,1.75,3.58,1.5,1.72-.24,2.51-.67,2.98-.27,.32,.28,.6,3.04,.68,4.9,.04,.89,.04,1.58-.02,1.7Z"/>
      <path class="cls-4" d="M86.28,52.98c-1.22,0-3.98-.32-5.99-2.98-3.48-4.59-1.42-16.92-1.17-18.36l-3.5-.28c-.06,0-.11-.06-.1-.12,0-.06,.06-.11,.12-.1l3.62,.29s.06,.02,.08,.04c.02,.02,.03,.06,.02,.09-.02,.14-2.45,13.61,1.11,18.31,2.57,3.39,6.37,2.87,6.41,2.86,.06,0,.12,.03,.13,.09,0,.06-.03,.12-.09,.13,0,0-.24,.03-.62,.03Z"/>
      <path class="cls-4" d="M88.03,41.04c-.09,0-.18-.03-.25-.09-.12-.09-.18-.21-.19-.37-.06-1.01,2.39-3.34,2.5-3.44,.04-.04,.09-.04,.14-.01,.04,.03,.06,.08,.05,.13-.12,.36-1.2,3.48-2.09,3.76-.05,.01-.09,.02-.14,.02Zm1.86-3.4c-.81,.81-2.13,2.29-2.09,2.94,0,.09,.04,.16,.1,.2,.06,.04,.12,.05,.19,.03,.58-.18,1.38-2.06,1.79-3.17Z"/>
      <path class="cls-4" d="M88.02,30.89s-.03,0-.05-.01c-1.48-.72-2.43-2.52-2.47-2.59-.03-.05,0-.12,.05-.15,.05-.03,.12,0,.15,.05,0,.02,.95,1.81,2.37,2.5,.05,.03,.08,.09,.05,.15-.02,.04-.06,.06-.1,.06Z"/>
      <path class="cls-3" d="M89.07,70.28c-.19,.35-2.63,.08-2.84,.14-.21,.06-.83-1.32-1.23-1.11-.39,.22-.87,.88-1.45,1.19-.54,.29-9.52,.42-11.26,.22-.15-.02-.25-.16-.22-.31,.05-.34,.17-.98,.4-1.65l16.62-.18c.04,.89,.04,1.58-.02,1.7Z"/>
      <path class="cls-8" d="M86.55,11.64s4.96,1.07,6.62,6.41c1.66,5.34-5.04,10.97-5.04,10.97l-12.65-3.54s1.52-13.72,3.03-15.09c1.52-1.37,8.04,1.24,8.04,1.24Z"/>
      <path class="cls-8" d="M82.75,8.68s-.68-5.12-7.27-6.37c-6.59-1.25-10.54,6.94-10.54,6.94l19.42,3.56-1.61-4.12Z"/>
      <path class="cls-1" d="M83.23,6.44s-2.11-1.46-1.29-2.85c.82-1.39,2.86-.17,2.86-.17,0,0,.71-.81,1.83-.27,1.12,.54,1.34,2.03,1.34,2.03,0,0,1.09-.1,1.25,1.23,.15,1.33-1.2,2.61-1.2,2.61l-4.79-2.59Z"/>
      <path class="cls-10" d="M86.99,9.84l.2,2.54s-.4,.77-1.88,1c-1.1,.18-1.49-.53-1.49-.53l.03-.81,.05-1.27,2.64-.8,.44-.13Z"/>
      <path d="M86.55,9.97c0,.07-.02,.15-.05,.25-.47,1.31-2,1.71-2.64,1.82l.05-1.27,2.64-.8Z"/>
      <path class="cls-10" d="M82.89,5.03s-1.08,3.29-.42,5.02c.66,1.73,2.25,1.3,3.19,.86,.93-.43,1.33-1.07,1.33-1.07,0,0,.93,.22,1.46-.68,.53-.9,.06-1.83-.47-2-.54-.17-1.12,.26-1.12,.26l.39-.96s-2.46-4.47-4.36-1.43Z"/>
      <path d="M87.05,8.79s-.06-.01-.08-.04c-.04-.05-.03-.12,.01-.16l1.08-.91s.12-.03,.16,.01c.04,.05,.03,.12-.01,.16l-1.08,.91s-.05,.03-.07,.03Z"/>
      <path d="M88.09,8.7s-.01,0-.02,0l-.77-.13c-.06-.01-.1-.07-.09-.13,.01-.06,.07-.1,.13-.09l.77,.13c.06,.01,.1,.07,.09,.13,0,.05-.06,.09-.11,.09Z"/>
      <path d="M85.12,6.21s-.06-.01-.08-.04c-.35-.39-.73-.16-.75-.15-.05,.03-.12,.02-.15-.03-.03-.05-.02-.12,.03-.15,.19-.12,.65-.24,1.03,.18,.04,.05,.04,.11,0,.16-.02,.02-.05,.03-.07,.03Z"/>
      <path d="M82.64,6.28s-.06-.01-.08-.03c-.04-.04-.04-.11,0-.16,.36-.35,.78-.15,.8-.14,.05,.03,.08,.09,.05,.15-.03,.05-.09,.08-.15,.05-.02,0-.3-.14-.55,.1-.02,.02-.05,.03-.08,.03Z"/>
      <path d="M83.34,8.93s-.09-.03-.1-.07c-.39-1.02,.24-1.67,.27-1.69,.04-.04,.11-.04,.16,0,.04,.04,.04,.11,0,.16-.02,.02-.56,.58-.22,1.46,.02,.06,0,.12-.06,.14-.01,0-.03,0-.04,0Z"/>
      <path d="M82.75,7.5s-.01,0-.02,0c-.06-.01-.1-.07-.09-.13l.11-.59c.01-.06,.07-.1,.13-.09,.06,.01,.1,.07,.09,.13l-.11,.59c-.01,.05-.06,.09-.11,.09Z"/>
      <path d="M84.36,7.41s-.01,0-.02,0c-.06-.01-.1-.07-.09-.13l.11-.59c.01-.06,.07-.1,.13-.09,.06,.01,.1,.07,.09,.13l-.11,.59c-.01,.05-.06,.09-.11,.09Z"/>
      <path class="cls-1" d="M82.68,5.77s.24-.53,.87-.59c.63-.05,1.04,.36,1.04,.36,0,0-.19,1.09,.71,1.59,.91,.5,1.56,.29,1.56,.29l.61-.27,.39-.95-1.96-1.81-2.44-1.05-1.11,1.18,.33,1.25Z"/>
      <path d="M83.98,9.63c-.07,0-.12-.05-.12-.11,0-.06,.05-.1,.11-.11,.03,0,.52,0,.69-.47,.02-.06,.09-.09,.14-.06,.06,.02,.09,.08,.06,.14-.18,.48-.66,.61-.89,.61Z"/>
      <rect class="cls-9" x="52.81" y="7.63" width="26.23" height="22.52" rx="9.6" ry="9.6" transform="translate(131.85 37.78) rotate(-180)"/>
      <path class="cls-10" d="M81.4,18.53s-3.18-1.68-4.14-1.83c-.96-.14-2.61,.91-2.61,.91l.83,.48s-1.3,2.84-1.06,3.27,.87,0,.87,0c0,0,1.49,1.54,1.93,1.59,.43,.05,2.74-.87,2.74-.87l1.44-3.56Z"/>
      <path class="cls-8" d="M80.97,17.86l6.89,2.45-.71-8.5s5.28,1.61,6.67,7.05c1.4,5.44-.63,9.77-4.96,10.16-4.33,.39-10.2-5.68-10.2-5.68l2.31-5.49Z"/>
      <path class="cls-10" d="M68.48,5.57s.77-1.3,1.48-.21c.71,1.09,.1,4.18-.47,4.32-.62,.15-1.01-1.03-1.01-1.03,0,0-.12,1.01-.77,1.03-.65,.02-.95-1.03-.95-1.03,0,0-.32,1.18-.89,1.03-.62-.17-.95-4.11,.24-4.52,.57-.2,.89,.41,.89,.41,0,0,.22-.75,.87-.65,.65,.1,.61,.65,.61,.65Z"/>
      <polygon class="cls-3" points="75.48 18.1 73.18 16.69 72.59 17.87 74.97 19.29 75.48 18.1"/>
      <path class="cls-3" d="M71.85,18.26c.49,0,1.08-.15,1.35-.69,.41-.82-.14-1.81-.2-1.92l-.76,.44c.1,.18,.35,.75,.18,1.09-.12,.24-.64,.22-.86,.17l-.18,.86c.14,.03,.3,.05,.48,.05Z"/>
      <path d="M75.48,18.21s-.04,0-.06-.02c-.05-.04-.06-.1-.03-.15l.59-.82s.1-.06,.15-.03c.05,.04,.06,.1,.03,.15l-.59,.82s-.06,.05-.09,.05Z"/>
      <path d="M75.29,21.48s-.04,0-.06-.02c-.05-.04-.06-.1-.03-.15l.34-.47s.1-.06,.15-.03c.05,.04,.06,.1,.03,.15l-.34,.47s-.06,.05-.09,.05Z"/>
      <path d="M68.48,8.63c-.06,0-.11-.05-.11-.11v-2.95c0-.06,.05-.11,.11-.11s.11,.05,.11,.11v2.95c0,.06-.05,.11-.11,.11Z"/>
      <path d="M66.76,8.77c-.07,0-.11-.06-.11-.12l.24-3.08c0-.06,.06-.11,.12-.1,.06,0,.11,.06,.1,.12l-.24,3.08c0,.06-.05,.1-.11,.1Z"/>
      <path class="cls-3" d="M85.03,13.5s-.03,0-.05,0c-.47-.01-.89-.2-1.23-.57-.04-.04-.04-.11,0-.16,.04-.04,.11-.04,.16,0,.53,.56,1.22,.65,2.06,.28,.65-.29,1.14-.75,1.15-.76,.04-.04,.11-.04,.16,0,.04,.04,.04,.11,0,.16-.05,.04-1.11,1.04-2.24,1.04Z"/>
      <path class="cls-3" d="M89.52,20.54s-.03,0-.04,0c-2.92-1.24-7.11-2.16-7.15-2.17-.06-.01-.1-.07-.08-.13,.01-.06,.07-.1,.13-.08,.04,0,4.25,.93,7.19,2.18,.06,.02,.08,.09,.06,.14-.02,.04-.06,.07-.1,.07Z"/>
      <path class="cls-3" d="M88.03,19.62c-.44,0-.86-.02-1.15-.03-.05,0-.09-.04-.1-.09,0-.05,.02-.1,.06-.12,.09-.04,2.27-1,3.03-.39,.15,.12,.15,.23,.12,.29-.1,.27-1.07,.34-1.95,.34Zm-.62-.23c1.13,.03,2.24-.02,2.37-.18,0,0-.02-.02-.05-.05-.43-.35-1.57-.05-2.32,.23Z"/>
      <path class="cls-3" d="M76.17,7.74c-.05,0-.09-.03-.11-.08-.07-.25-.43-1.52-.14-1.85,.05-.05,.13-.11,.27-.08,.11,.02,.19,.08,.25,.18,.26,.44-.12,1.62-.16,1.75-.02,.05-.06,.08-.1,.08Zm-.04-1.79s-.03,0-.04,.02c-.12,.14-.04,.73,.09,1.26,.11-.42,.21-.98,.07-1.2-.03-.04-.06-.07-.1-.07,0,0-.02,0-.02,0Z"/>
      <path class="cls-3" d="M84.23,27.8s-.03,0-.05-.01c-.03-.02-3.13-1.6-4.85-3.64-.04-.05-.03-.12,.01-.16,.05-.04,.12-.03,.16,.01,1.69,2.01,4.75,3.57,4.78,3.58,.05,.03,.08,.09,.05,.15-.02,.04-.06,.06-.1,.06Z"/>
      <path class="cls-3" d="M68.05,37.52s-.05,0-.07-.03c-.05-.04-.05-.11,0-.16l1.03-1.14s.11-.05,.16,0c.05,.04,.05,.11,0,.16l-1.03,1.14s-.05,.04-.08,.04Z"/>
      <path class="cls-3" d="M69.08,37.52s-.06-.01-.08-.04l-1.03-1.14s-.04-.11,0-.16c.05-.04,.11-.04,.16,0l1.03,1.14s.04,.11,0,.16c-.02,.02-.05,.03-.07,.03Z"/>
      <g>
        <g>
          <path class="cls-4" d="M61.55,52.98h-16.71c-.64,0-1.15-.52-1.15-1.15v-13.56c0-.64,.52-1.15,1.15-1.15h16.71c.64,0,1.15,.52,1.15,1.15v13.56c0,.64-.52,1.15-1.15,1.15Zm-16.71-15.64c-.51,0-.93,.42-.93,.93v13.56c0,.51,.42,.93,.93,.93h16.71c.51,0,.93-.42,.93-.93v-13.56c0-.51-.42-.93-.93-.93h-16.71Z"/>
          <path class="cls-4" d="M62.59,40.25h-18.8c-.06,0-.11-.05-.11-.11s.05-.11,.11-.11h18.8c.06,0,.11,.05,.11,.11s-.05,.11-.11,.11Z"/>
          <path class="cls-4" d="M46,39.42s-.06-.01-.08-.04l-1-1.18s-.03-.12,.01-.16c.05-.04,.12-.03,.16,.01l1,1.18s.03,.12-.01,.16c-.02,.02-.05,.03-.07,.03Z"/>
          <path class="cls-4" d="M45,39.42s-.05,0-.07-.03c-.05-.04-.05-.11-.01-.16l1-1.18s.11-.05,.16-.01c.05,.04,.05,.11,.01,.16l-1,1.18s-.05,.04-.08,.04Z"/>
        </g>
        <rect class="cls-5" x="0" y="45.18" width="21.48" height="24.92" rx="9.16" ry="9.16" transform="translate(21.48 115.27) rotate(-180)"/>
        <rect class="cls-2" x="1.62" y="45.18" width="21.48" height="24.92" rx="9.16" ry="9.16" transform="translate(24.72 115.27) rotate(-180)"/>
        <path class="cls-4" d="M38.76,41.23s-.06-.01-.08-.03c-.02-.02-.03-.05-.03-.08V6.94c0-.06,.05-.11,.11-.11s.11,.05,.11,.11V41.01l26.94-.02V21.39c0-.06,.05-.11,.11-.11s.11,.05,.11,.11v19.71c0,.06-.05,.11-.11,.11l-27.16,.02h0Z"/>
        <polygon class="cls-10" points="25.04 61.01 26.33 65.37 31.78 64.44 30.53 60.37 25.04 61.01"/>
        <polygon class="cls-10" points="16.54 60.22 15.95 65.21 21.4 66.25 21.91 61.58 16.54 60.22"/>
        <path class="cls-10" d="M34.18,15.86s.55,1.74-.4,2.1c-.96,.36-.96-.64-.96-.64l.59-1.25,.77-.22Z"/>
        <path class="cls-10" d="M29.77,19.33s1.25-3.23,2.39-3.79c1.14-.56,3.31-.49,3.64,.1,.33,.59-.66,.6-.92,.54-.26-.06-1.03,.11-1.21,.37-.18,.26-.26,1.37-.26,1.37,0,0,.85,.17,1.21-.14s.74-.86,.99-.46c.26,.41-.77,2.54-1.51,3.13-.74,.59-2.61,1.32-2.61,1.32l-1.73-2.45Z"/>
        <path d="M33.41,18.04c-.07,0-.12-.06-.11-.12,0-.02,.04-.38,.17-.98,.15-.67,.75-.79,.78-.8,.06-.01,.12,.03,.13,.09,.01,.06-.03,.12-.09,.13-.02,0-.49,.11-.61,.63-.13,.59-.17,.95-.17,.96,0,.06-.05,.1-.11,.1Z"/>
        <rect class="cls-9" x="36.39" y="13.33" width="4.76" height="4.76" rx="2.03" ry="2.03"/>
        <rect class="cls-9" x="36.39" y="19.4" width="4.76" height="4.76" rx="2.03" ry="2.03"/>
        <rect class="cls-9" x="36.39" y="25.48" width="4.76" height="4.76" rx="2.03" ry="2.03"/>
        <polygon class="cls-3" points="36.82 18.4 34.59 16.52 35.16 15.85 36.74 17.18 38.02 15.78 38.67 16.38 36.82 18.4"/>
        <polygon class="cls-3" points="38.71 23.56 36.89 22.01 37.46 21.34 38.57 22.28 40 20.38 40.71 20.91 38.71 23.56"/>
        <polygon class="cls-3" points="38.71 29.64 36.89 28.08 37.46 27.41 38.57 28.36 40 26.45 40.71 26.98 38.71 29.64"/>
        <rect class="cls-6" x="32.15" y="0" width="13.38" height="8.15" rx="3.47" ry="3.47"/>
        <path class="cls-2" d="M71.37,37.51v18.23c0,1.09-1,1.98-2.22,1.98H37.11c-1.23,0-2.23-.89-2.23-1.98v-18.23c0-1.09,1-1.98,2.23-1.98h32.04c1.23,0,2.22,.89,2.22,1.98Z"/>
        <path class="cls-7" d="M26.84,69.5c-.4,.02-.75-.29-.8-.72-.19-1.68-.82-5.43-.51-5.46,.39-.04,4.44,.59,4.44,.59,0,0-.15-2.34,1.52-2.11,1.28,.18,2.89,1.5,3.57,2.11,.22,.19,.48,.31,.75,.35,1.19,.16,4.49,.75,4.72,2.46,.29,2.08-.58,1.94-.97,1.98-.34,.04-9.99,.63-12.72,.79Z"/>
        <path class="cls-7" d="M14.56,68.1c-.37-.14-.56-.57-.43-.98,.52-1.61,1.5-5.28,1.79-5.19,.37,.12,3.8,2.37,3.8,2.37,0,0,.83-2.19,2.25-1.29,1.09,.69,2.01,2.56,2.38,3.39,.12,.26,.3,.48,.54,.63,1.02,.64,3.77,2.54,3.29,4.19-.6,2.02-1.32,1.53-1.7,1.41-.32-.1-9.36-3.55-11.92-4.53Z"/>
        <path class="cls-3" d="M11.91,12.54s-3.26-.88-5.69,2.09c-2.43,2.97-.92,6.63,2.92,6.52,3.84-.1,4.74-4.03,4.74-4.03l-1.97-4.58Z"/>
        <path class="cls-3" d="M16.8,14.98s.93-.99,.7-2.55c-.16-1.06-.62-1.41-.62-1.41,0,0,.74-1.42-1.39-1.38-2.13,.05-3.87-.14-4.82,1.7-.56,1.08-.34,3.42-.34,3.42l6.47,.21Z"/>
        <path class="cls-10" d="M12.1,16.64l.02,2.6s.47,.74,1.99,.86c1.13,.09,1.49-.5,1.49-.5l-.29-2.27-2.75-.59-.46-.1Z"/>
        <path d="M12.1,16.48c0,.07,.03,.15,.08,.25,.59,1.29,2.64,1.82,3.29,1.88l-.16-1.28-3.2-.85Z"/>
        <path class="cls-10" d="M15.85,11.41s1.38,3.25,.86,5.06c-.53,1.81-2.18,1.51-3.17,1.15-.99-.36-1.44-.97-1.44-.97,0,0-.93,.3-1.54-.56-.61-.87-.22-1.85,.31-2.07,.53-.22,1.16,.17,1.16,.17l-.48-.94s2.12-4.76,4.31-1.82Z"/>
        <path class="cls-3" d="M12.03,14.18s1.39,.31,2.38-1.22c1-1.53,.92-2.17,.92-2.17l.93,1.62s.24-1.1-.19-1.82-.89-.58-.89-.58l-3.08,.71-.85,2.44,.79,1.02Z"/>
        <path d="M15.52,15.52s-.02,0-.03,0c-.06-.02-.09-.08-.07-.14,.2-.6-.06-1.26-.07-1.26-.02-.06,0-.12,.06-.14,.06-.02,.12,0,.14,.06,.01,.03,.29,.74,.07,1.42-.02,.05-.06,.08-.1,.08Z"/>
        <path d="M11.87,15.7s-.06-.01-.08-.04l-.86-.95s-.04-.11,0-.16c.04-.04,.11-.04,.16,0l.86,.95s.04,.11,0,.16c-.02,.02-.05,.03-.07,.03Z"/>
        <path d="M10.94,15.43c-.05,0-.1-.04-.11-.1,0-.06,.03-.12,.09-.12l.61-.08c.06,0,.12,.03,.12,.09,0,.06-.03,.12-.09,.12l-.61,.08s-.01,0-.01,0Z"/>
        <path d="M16.34,12.88s-.01,0-.02,0l-.56-.11c-.06-.01-.1-.07-.09-.13,.01-.06,.07-.1,.13-.09l.56,.11c.06,.01,.1,.07,.09,.13-.01,.05-.06,.09-.11,.09Z"/>
        <path d="M14.21,13.01s-.09-.03-.1-.07c-.02-.06,0-.12,.06-.14l.58-.22c.06-.02,.12,0,.14,.06,.02,.06,0,.12-.06,.14l-.58,.22s-.03,0-.04,0Z"/>
        <path d="M16.03,14.21s-.09-.03-.11-.08l-.17-.59s0-.07,.02-.1l.18-.22s.11-.05,.16-.01c.05,.04,.05,.11,.01,.16l-.15,.17,.15,.53c.02,.06-.02,.12-.08,.14-.01,0-.02,0-.03,0Z"/>
        <path d="M14.39,14.34s-.09-.03-.11-.08l-.17-.59s0-.08,.02-.1l.25-.28s.11-.05,.16,0c.05,.04,.05,.11,0,.16l-.21,.24,.15,.53c.02,.06-.02,.12-.08,.14-.01,0-.02,0-.03,0Z"/>
        <path d="M15.13,16.46s-.05,0-.08,0c-.36-.06-.56-.5-.57-.52-.02-.04-.01-.08,.01-.11,.03-.03,.07-.05,.11-.04l.99,.22s.07,.04,.08,.07c.01,.04,0,.08-.02,.11-.17,.18-.35,.28-.52,.28Zm-.31-.4c.07,.08,.16,.16,.27,.18,.08,.01,.16,0,.25-.07l-.52-.11Z"/>
        <path class="cls-4" d="M16.62,35.52s10.02,.57,12.63,2.58c2.61,2.02,2.75,23.15,2.75,23.15l-8.17,.93-.08-20.69-7.13-5.98Z"/>
        <path class="cls-1" d="M11.44,19.38s.29-1.01,.43-1.01c.19,0,1.24,.51,2.2,.5,.96,0,1.12-.3,1.41-.27,.28,.04,.39,.77,.39,.77,0,0,1.77,.59,3.83,1.07,2.06,.48,5.29-.15,6.65-.81,1.36-.66,3.68-2.09,3.68-2.09l2.39,6.28s-4.85,6.21-9.3,6.25c-4.45,.04-9.81-.85-9.81-.85l-1.86-9.85Z"/>
        <path class="cls-4" d="M4.61,35.84s-.73,7.9,.44,8.64c2.74,1.74,10.24,1.3,10.27,1.62,.04,.32-.84,14.73-.84,14.73l9.88,1.84s3.63-21.02,1.58-24.41c-2.05-3.39-14.16-3.07-14.16-3.07l-7.16,.65Z"/>
        <polygon class="cls-7" points="23.84 34 18.36 33.45 20.43 24.54 25.91 25.08 23.84 34"/>
        <polygon class="cls-3" points="24.66 34.08 19.18 33.54 21.25 24.62 26.74 25.16 24.66 34.08"/>
        <path class="cls-1" d="M17.54,28.5l.21,6.76s-4.34,1.21-7.61,1.51c-3.27,.29-5.51,0-5.51,0v-2.61l12.92-5.66Z"/>
        <path class="cls-10" d="M16.83,29.38s.66-1.36,1.32-1.84c.66-.48,1.67-.47,1.67-.47l-.2,.97s1.54,.2,1.8,0c.26-.2,1.36-1.08,1.66-1.01,.29,.07-.33,1.01-.33,1.01,0,0,.66-.61,.88-.24,.22,.37-.62,1.84-.62,1.84,0,0,.77-.77,.51,.44-.26,1.21-2.49,2.39-3.27,2.5-.77,.11-3.87,.12-3.87,.12l.46-3.32Z"/>
        <path d="M19.62,28.15s-.01,0-.02,0l-.81-.17c-.06-.01-.1-.07-.09-.13,.01-.06,.07-.1,.13-.09l.81,.17c.06,.01,.1,.07,.09,.13-.01,.05-.06,.09-.11,.09Z"/>
        <path d="M20.43,29.42c-.06,0-.11-.05-.11-.11,0-.06,.04-.11,.1-.12,0,0,.75-.04,1.17-.25,.42-.21,1.06-.98,1.07-.98,.04-.05,.11-.05,.16-.01,.05,.04,.05,.11,.01,.16-.03,.03-.68,.81-1.14,1.04-.46,.23-1.22,.27-1.26,.27,0,0,0,0,0,0Z"/>
        <path d="M20.61,30.82c-.06,0-.11-.05-.11-.11,0-.06,.05-.11,.11-.11,0,0,.62-.02,1.15-.27,.68-.33,1.16-.76,1.17-.77,.05-.04,.12-.04,.16,0,.04,.05,.04,.12,0,.16-.02,.02-.51,.45-1.22,.8-.57,.28-1.21,.29-1.24,.29h0Z"/>
        <g>
          <rect class="cls-8" x="34.71" y="2.24" width="2.75" height="2.75"/>
          <polygon class="cls-4" points="41.11 1.25 41.96 2.73 42.82 4.22 41.11 4.22 39.4 4.22 40.25 2.73 41.11 1.25"/>
          <circle class="cls-3" cx="38.73" cy="4.99" r="1.91"/>
        </g>
        <path class="cls-4" d="M66.51,25.94c0,.32-.26,.59-.59,.59s-.59-.26-.59-.59,.26-.59,.59-.59,.59,.26,.59,.59Z"/>
        <path class="cls-4" d="M66.51,33.5c0,.32-.26,.59-.59,.59s-.59-.26-.59-.59,.26-.59,.59-.59,.59,.26,.59,.59Z"/>
        <path class="cls-4" d="M39.35,32.88c0,.32-.26,.59-.59,.59s-.59-.26-.59-.59,.26-.59,.59-.59,.59,.26,.59,.59Z"/>
        <path class="cls-9" d="M71.37,37.51v.52H34.88v-.52c0-1.09,1-1.98,2.23-1.98h32.04c1.23,0,2.22,.89,2.22,1.98Z"/>
        <path class="cls-3" d="M46.04,48.09h-7.2c-.06,0-.11-.05-.11-.11v-7.2c0-.06,.05-.11,.11-.11h7.2c.06,0,.11,.05,.11,.11v7.2c0,.06-.05,.11-.11,.11Zm-7.09-.22h6.98v-6.98h-6.98v6.98Z"/>
        <path class="cls-3" d="M56.21,51.48h-13.77c-.06,0-.11-.05-.11-.11v-7.2c0-.06,.05-.11,.11-.11h13.77c.06,0,.11,.05,.11,.11v7.2c0,.06-.05,.11-.11,.11Zm-13.66-.22h13.55v-6.98h-13.55v6.98Z"/>
        <path class="cls-3" d="M24.64,60.47s-.01,0-.02,0c-.06-.01-.1-.07-.09-.13,.03-.17,3.1-16.7,1.79-20.16-1.29-3.42-9.32-3.51-9.4-3.51-.06,0-.1-.04-.11-.1,0-.05,.03-.11,.08-.12l1.88-.49c.06-.01,.12,.02,.13,.08s-.02,.12-.08,.13l-1.15,.3c2.08,.11,7.72,.67,8.84,3.62,1.33,3.52-1.66,19.6-1.78,20.28,0,.05-.06,.09-.11,.09Z"/>
        <path class="cls-1" d="M11.87,19.31s-6.33,.15-9.97,7.31c-3.64,7.17,.18,10.84,6.36,10.03,6.18-.81,9.28-2.76,9.28-2.76l-.71-6.08-4.96-8.51Z"/>
        <path class="cls-7" d="M8.01,28.79s-.09-.03-.11-.08c-.02-.06,.02-.12,.08-.14,2.53-.72,7.75-.72,7.8-.72,.06,0,.11,.05,.11,.11,0,.06-.05,.11-.11,.11-.22,0-5.28,0-7.74,.71-.01,0-.02,0-.03,0Z"/>
        <path class="cls-7" d="M13.39,20.13c-1.01,0-1.97-.63-2.01-.66-.05-.03-.06-.1-.03-.15,.03-.05,.1-.06,.15-.03,.01,0,1.05,.68,2.04,.61,.06,0,.11,.04,.12,.1,0,.06-.04,.11-.1,.12-.05,0-.11,0-.16,0Z"/>
        <path class="cls-7" d="M22.87,22.82c-.07,0-.13-.02-.19-.06-.49-.31-.64-1.97-.65-2.16,0-.05,.02-.09,.07-.11,.05-.02,.1,0,.13,.03,.12,.15,1.14,1.47,.99,2.03-.03,.11-.11,.19-.22,.24-.04,.02-.09,.03-.13,.03Zm-.58-1.84c.08,.65,.26,1.44,.51,1.59,.04,.03,.08,.03,.12,.01,.04-.02,.07-.04,.08-.09,.08-.28-.33-.98-.71-1.52Z"/>
        <path class="cls-7" d="M8.37,28.55c-.96,0-2.13-.08-2.3-.43-.04-.08-.05-.21,.1-.37,.78-.85,3.25,.51,3.36,.56,.04,.02,.06,.07,.05,.12s-.05,.08-.1,.09c-.24,.01-.65,.03-1.11,.03Zm-1.42-.86c-.26,0-.48,.06-.62,.21-.03,.03-.07,.09-.06,.12,.11,.24,1.46,.34,2.78,.3-.58-.28-1.46-.63-2.1-.63Z"/>
        <path class="cls-3" d="M15.32,46.22s-.05-.01-.08-.03c-.04-.03-.04-.09-.02-.13,.23-.45,.99-1.93,1.46-1.93,.08,0,.19,.04,.25,.2,.32,.78-1.37,1.76-1.56,1.87-.02,0-.04,.01-.05,.01Zm1.36-1.87c-.19,0-.67,.7-1.07,1.45,.54-.36,1.3-.98,1.13-1.39,0-.02-.03-.06-.05-.06h0Z"/>
        <path class="cls-7" d="M11.25,35.64c-.05,0-.1-.04-.11-.09-.01-.06,.03-.12,.09-.13,.03,0,3.19-.61,5.64-2.05,.05-.03,.12-.01,.15,.04,.03,.05,.01,.12-.04,.15-2.49,1.46-5.68,2.07-5.71,2.07,0,0-.01,0-.02,0Z"/>
      </g>
      <rect class="cls-6" x="61.15" y="14.01" width="9.55" height="9.55" rx="4.07" ry="4.07" transform="translate(131.85 37.57) rotate(-180)"/>
      <path class="cls-3" d="M62.58,19.67l.34,.81-.42,.4c.31,.51,.74,.95,1.25,1.28l.47-.45,.8,.34-.03,.64c.3,.07,.61,.11,.93,.11,.29,0,.58-.03,.85-.09v-.69l.8-.35,.49,.51c.51-.32,.94-.75,1.26-1.25l-.47-.45,.34-.81h.66c.06-.29,.1-.59,.1-.89,0-.32-.04-.63-.11-.93h-.65s-.34-.82-.34-.82l.45-.43c-.32-.5-.76-.93-1.27-1.24l-.46,.48-.8-.35v-.64c-.27-.06-.56-.09-.85-.09-.32,0-.63,.04-.93,.11l.02,.59-.8,.34-.44-.42c-.51,.32-.94,.76-1.26,1.27l.4,.38-.34,.81h-.57c-.07,.3-.11,.62-.11,.94,0,.3,.03,.6,.1,.88h.58Zm1.39-.88c0-1.08,.87-1.95,1.95-1.95s1.95,.87,1.95,1.95-.87,1.95-1.95,1.95-1.95-.87-1.95-1.95Z"/>
    </g>
  </g>
</svg>