<?xml version="1.0" encoding="UTF-8"?>
<svg id="Calque_2" data-name="Calque 2" xmlns="http://www.w3.org/2000/svg" xmlns:xlink="http://www.w3.org/1999/xlink" viewBox="0 0 97.97 97.97">
  <defs>
    <style>
      .cls-1 {
        fill: url(#linear-gradient-2);
      }

      .cls-2 {
        fill: #fff;
      }

      .cls-3 {
        fill: url(#linear-gradient-6);
      }

      .cls-4 {
        fill: url(#linear-gradient-5);
      }

      .cls-5 {
        fill: url(#linear-gradient-7);
      }

      .cls-6 {
        fill: url(#linear-gradient-3);
      }

      .cls-7 {
        fill: url(#linear-gradient);
      }

      .cls-8 {
        fill: url(#linear-gradient-4);
      }
    </style>
    <linearGradient id="linear-gradient" x1="-38.19" y1="48.99" x2="165.93" y2="48.99" gradientUnits="userSpaceOnUse">
      <stop offset="0" stop-color="#44bdea"/>
      <stop offset=".83" stop-color="#885195"/>
    </linearGradient>
    <linearGradient id="linear-gradient-2" x1="-38.19" x2="165.93" xlink:href="#linear-gradient"/>
    <linearGradient id="linear-gradient-3" x1="-38.18" x2="165.93" xlink:href="#linear-gradient"/>
    <linearGradient id="linear-gradient-4" x1="-38.18" y1="27.87" x2="165.93" y2="27.87" xlink:href="#linear-gradient"/>
    <linearGradient id="linear-gradient-5" x1="-38.19" y1="51.47" x2="165.93" y2="51.47" xlink:href="#linear-gradient"/>
    <linearGradient id="linear-gradient-6" x1="-38.19" y1="74.37" x2="165.93" y2="74.37" xlink:href="#linear-gradient"/>
    <linearGradient id="linear-gradient-7" x1="-38.19" y1="48.99" x2="165.93" y2="48.99" xlink:href="#linear-gradient"/>
  </defs>
  <g id="Layer_20" data-name="Layer 20">
    <g>
      <g>
        <circle class="cls-2" cx="48.99" cy="48.99" r="47.49" transform="translate(-20.29 48.99) rotate(-45)"/>
        <path class="cls-7" d="M48.99,2.99c12.29,0,23.84,4.78,32.52,13.47,8.69,8.69,13.47,20.24,13.47,32.52s-4.78,23.84-13.47,32.52c-8.69,8.69-20.24,13.47-32.52,13.47s-23.84-4.78-32.52-13.47C7.78,72.82,2.99,61.27,2.99,48.99S7.78,25.15,16.46,16.46C25.15,7.78,36.7,2.99,48.99,2.99m0-2.99C21.93,0,0,21.93,0,48.99s21.93,48.99,48.99,48.99,48.99-21.93,48.99-48.99S76.04,0,48.99,0h0Z"/>
      </g>
      <g>
        <ellipse class="cls-2" cx="48.99" cy="48.99" rx="34.89" ry="47.49"/>
        <path class="cls-1" d="M48.99,2.99c8.75,0,17.03,4.67,23.33,13.14,6.49,8.74,10.07,20.41,10.07,32.85s-3.58,24.11-10.07,32.85c-6.29,8.47-14.58,13.14-23.33,13.14s-17.03-4.67-23.33-13.14c-6.49-8.74-10.07-20.41-10.07-32.85s3.58-24.11,10.07-32.85C31.95,7.66,40.24,2.99,48.99,2.99m0-2.99C28.89,0,12.6,21.93,12.6,48.99s16.29,48.99,36.38,48.99,36.38-21.93,36.38-48.99S69.08,0,48.99,0h0Z"/>
      </g>
      <g>
        <path class="cls-2" d="M48.99,96.48c-6.29,0-12.28-4.81-16.87-13.55-4.75-9.04-7.37-21.1-7.37-33.94s2.62-24.9,7.37-33.94C36.7,6.31,42.69,1.5,48.99,1.5s12.28,4.81,16.87,13.55c4.75,9.04,7.37,21.1,7.37,33.94s-2.62,24.9-7.37,33.94c-4.59,8.74-10.58,13.55-16.87,13.55Z"/>
        <path class="cls-6" d="M48.99,2.99c2.77,0,5.51,1.07,8.14,3.19,2.74,2.21,5.24,5.42,7.41,9.56,4.64,8.83,7.19,20.64,7.19,33.25s-2.56,24.42-7.19,33.25c-2.17,4.13-4.66,7.35-7.41,9.56-2.63,2.12-5.37,3.19-8.14,3.19s-5.51-1.07-8.14-3.19c-2.74-2.21-5.24-5.42-7.41-9.56-4.64-8.83-7.19-20.64-7.19-33.25s2.55-24.42,7.19-33.25c2.17-4.13,4.66-7.35,7.41-9.56,2.63-2.12,5.37-3.19,8.14-3.19m0-2.99c-14.21,0-25.73,21.93-25.73,48.99s11.52,48.99,25.73,48.99,25.74-21.93,25.74-48.99S63.2,0,48.99,0h0Z"/>
      </g>
      <path class="cls-8" d="M91.41,29.36H6.89c-.83,0-1.5-.67-1.5-1.5s.67-1.5,1.5-1.5H91.41c.83,0,1.5,.67,1.5,1.5s-.67,1.5-1.5,1.5Z"/>
      <path class="cls-4" d="M95.84,52.97H2.13c-.83,0-1.5-.67-1.5-1.5s.67-1.5,1.5-1.5H95.84c.83,0,1.5,.67,1.5,1.5s-.67,1.5-1.5,1.5Z"/>
      <path class="cls-3" d="M88.8,75.86H8.67c-.83,0-1.5-.67-1.5-1.5s.67-1.5,1.5-1.5H88.8c.83,0,1.5,.67,1.5,1.5s-.67,1.5-1.5,1.5Z"/>
      <path class="cls-5" d="M48.99,97.34c-.83,0-1.5-.67-1.5-1.5V2.13c0-.83,.67-1.5,1.5-1.5s1.5,.67,1.5,1.5V95.84c0,.83-.67,1.5-1.5,1.5Z"/>
    </g>
  </g>
</svg>