<?xml version="1.0" encoding="UTF-8"?>
<svg id="Layer_2" data-name="Layer 2" xmlns="http://www.w3.org/2000/svg" viewBox="0 0 41.52 41.52">
  <g id="Layer_20" data-name="Layer 20">
    <path d="m41.52,20.76C41.52,9.3,32.23,0,20.76,0,9.3,0,0,9.3,0,20.76s9.29,20.76,20.76,20.76h0s0,0,0,0c11.46-.01,20.75-9.3,20.76-20.76Zm-19.93,19.08v-14.93h5.81c.46,0,.83-.37.83-.83s-.37-.83-.83-.83h-5.81v-5.81c0-2.29,1.86-4.15,4.15-4.15h3.32c.46,0,.83-.37.83-.83s-.37-.83-.83-.83h-3.32c-3.21,0-5.81,2.6-5.81,5.81v5.81h-5.81c-.46,0-.83.37-.83.83s.37.83.83.83h5.81v14.93c-10.54-.46-18.71-9.37-18.25-19.91C2.14,9.39,11.05,1.22,21.59,1.68c10.54.46,18.71,9.37,18.25,19.91-.43,9.9-8.36,17.82-18.25,18.25h0Z"/>
  </g>
</svg>