<?xml version="1.0" encoding="UTF-8"?>
<svg id="Layer_2" data-name="Layer 2" xmlns="http://www.w3.org/2000/svg" viewBox="0 0 43.71 43.71">
  <defs>
    <style>
      .cls-1 {
        fill: none;
        stroke: #000;
        stroke-linejoin: round;
        stroke-width: 2px;
      }
    </style>
  </defs>
  <g id="Layer_20" data-name="Layer 20">
    <path class="cls-1" d="m1.14,12.51c.1-2.24.45-3.69.93-4.92v-.02c.48-1.25,1.21-2.38,2.17-3.32h.01s.01-.03.01-.03c.94-.95,2.07-1.69,3.32-2.16h.02c1.23-.48,2.67-.83,4.91-.94M1.14,12.51c-.11,2.4-.14,3.14-.14,9.36s.03,6.96.14,9.36m0-18.71v.6m.94,23.04c.47,1.25,1.21,2.38,2.16,3.32h.01s.01.03.01.03c.94.95,2.07,1.69,3.32,2.16h.02c1.23.48,2.67.83,4.92.94m-10.44-6.44v-.02c-.48-1.23-.83-2.67-.94-4.91m.94,4.94l-.03-.15m-.91-4.79l.04.19m-.04-.19v-.61m.91,5.39l-.87-4.59m.87,4.59c-.37-.98-.75-2.34-.87-4.59m.87,4.59s.03.07.04.1c.47,1.27,1.21,2.41,2.18,3.36.94.97,2.09,1.71,3.36,2.18,1.02.4,2.45.81,4.89.92,2.46.11,3.23.14,9.36.14s6.89-.02,9.36-.14c2.45-.11,3.88-.53,4.89-.92,1.27-.47,2.41-1.21,3.36-2.18.97-.94,1.71-2.09,2.18-3.36.4-1.02.81-2.45.92-4.89.11-2.46.14-3.23.14-9.36s-.02-6.89-.14-9.36c-.11-2.46-.53-3.89-.93-4.9-.52-1.33-1.17-2.34-2.18-3.34-1-1-2.01-1.66-3.34-2.17-1.02-.4-2.45-.81-4.91-.93-.21,0-.41-.02-.61-.03M1.17,31.42c0-.06,0-.13,0-.19,0-.21-.02-.41-.03-.61M12.51,1.14c2.4-.11,3.14-.14,9.36-.14s6.96.03,9.35.14m-18.71,0h.61m18.1,0h-.6m.6,0c2.24.1,3.69.45,4.92.93h.02c1.25.48,2.38,1.21,3.32,2.17h.01s.01.03.01.03c.95.94,1.69,2.07,2.16,3.32v.02c.48,1.23.83,2.67.94,4.91M13.12,1.14h17.5m-17.5,0c2.03-.09,3.15-.11,8.75-.11s6.72.02,8.75.11m-17.5,0c-.19,0-.39.02-.61.03-2.45.11-3.88.53-4.89.92-1.27.47-2.42,1.22-3.37,2.19-1,1-1.65,2-2.16,3.33-.4,1.02-.82,2.45-.93,4.91,0,.21-.02.41-.03.61m41.47,18.11c-.1,2.25-.45,3.69-.93,4.92v.02c-.48,1.25-1.22,2.38-2.17,3.32h-.01s-.01.03-.01.03c-.94.95-2.07,1.69-3.32,2.16h-.02c-1.23.48-2.67.83-4.91.94M1.14,30.62c-.09-2.03-.11-3.15-.11-8.75s.02-6.72.11-8.75m0,17.5V13.12m17.02,17.71c1.18.49,2.44.74,3.71.74,2.57,0,5.04-1.02,6.86-2.84,1.82-1.82,2.84-4.29,2.84-6.86s-1.02-5.04-2.84-6.86c-1.82-1.82-4.29-2.84-6.86-2.84-1.27,0-2.53.25-3.71.74-1.18.49-2.25,1.2-3.15,2.1-.9.9-1.62,1.97-2.1,3.15-.49,1.18-.74,2.44-.74,3.71s.25,2.53.74,3.71c.49,1.18,1.2,2.25,2.1,3.15.9.9,1.97,1.62,3.15,2.1Zm-3.17-15.84c1.82-1.82,4.3-2.85,6.88-2.85s5.06,1.03,6.88,2.85c1.82,1.82,2.85,4.3,2.85,6.88s-1.02,5.05-2.85,6.88c-1.82,1.82-4.3,2.85-6.88,2.85s-5.05-1.02-6.88-2.85c-1.82-1.82-2.85-4.3-2.85-6.88s1.03-5.06,2.85-6.88Zm22.09-5.11c0,.74-.29,1.45-.82,1.97-.52.52-1.23.82-1.97.82s-1.45-.29-1.97-.82c-.52-.52-.82-1.23-.82-1.97s.29-1.45.82-1.97c.52-.52,1.23-.82,1.97-.82s1.45.29,1.97.82c.52.52.82,1.23.82,1.97Z"/>
  </g>
</svg>