<?xml version="1.0" encoding="UTF-8"?>
<svg id="Layer_2" data-name="Layer 2" xmlns="http://www.w3.org/2000/svg" viewBox="0 0 48.14 39.5">
  <defs>
    <style>
      .cls-1 {
        fill: none;
        stroke: #000;
        stroke-linejoin: round;
        stroke-width: 2px;
      }
    </style>
  </defs>
  <g id="Layer_20" data-name="Layer 20">
    <path class="cls-1" d="m47.14,5.44c-1.7.75-3.52,1.26-5.44,1.49,1.96-1.17,3.45-3.03,4.16-5.24-1.83,1.09-3.86,1.87-6.01,2.3-1.73-1.84-4.19-2.99-6.91-2.99-5.23,0-9.47,4.24-9.47,9.47,0,.74.09,1.46.24,2.15-7.87-.4-14.84-4.17-19.51-9.89-.81,1.4-1.28,3.03-1.28,4.76,0,3.28,1.67,6.18,4.21,7.88-1.55-.05-3.01-.48-4.29-1.18v.12c0,4.59,3.26,8.41,7.59,9.28-.8.22-1.63.33-2.49.33-.61,0-1.21-.06-1.78-.17,1.21,3.76,4.7,6.5,8.84,6.57-3.24,2.54-7.32,4.05-11.76,4.05-.76,0-1.52-.04-2.26-.13,4.19,2.69,9.17,4.25,14.51,4.25,17.42,0,26.94-14.42,26.94-26.93,0-.41-.01-.82-.03-1.22,1.85-1.34,3.45-3,4.72-4.9h0Z"/>
  </g>
</svg>